<svg width="318" height="357" viewBox="0 0 318 357" fill="none" xmlns="http://www.w3.org/2000/svg">
<path d="M223.265 305.707C231.781 305.33 243.093 275.446 247.684 260.551L287.756 356.842H155.017L149.852 289.502L143.904 241.042C149.539 243.055 171.505 279.327 181.784 297.211C193.055 312.945 214.134 309.431 223.265 305.707Z" fill="#D9D9D9"/>
<path d="M181.669 356.842C206.867 336.396 217.031 317.085 218.807 311.721H212.226C205.331 320.188 172.831 349.143 161.298 356.842H172.737C175.975 356.771 181.167 356.672 181.669 356.842Z" fill="#D0D0D0"/>
<path d="M197.496 346.903C202.886 340.719 216.875 319.399 223.195 309.512C227.626 305.978 234.652 296.891 237.612 292.789C236.985 294.304 232.336 302.045 230.09 305.726C226.58 308.755 221.106 321.608 218.807 327.655C218.807 329.17 212.644 337.647 209.562 341.697C206.052 344.726 201.831 353.056 200.16 356.842H186.997L197.496 346.903Z" fill="#D0D0D0"/>
<path d="M205.331 313.614C196.817 315.507 175.15 309.039 156.596 268.02C162.081 292.579 179.506 336.08 205.331 313.614Z" fill="#D0D0D0"/>
<path d="M243.096 275.592L247.954 262.34C249.96 262.34 274.489 325.342 286.503 356.842H284.779L243.096 275.592Z" fill="#D0D0D0"/>
<path d="M195.908 312.171C177.741 307.692 163.4 281.58 158.32 268.493C172.949 299.064 188.083 309.86 195.908 312.171C196.794 312.389 197.689 312.556 198.593 312.668C197.835 312.631 196.935 312.474 195.908 312.171Z" fill="white"/>
<path d="M207.525 312.668C212.226 312.72 222.631 312.068 226.642 309.039C224.344 310.932 217.303 314.308 207.525 312.668Z" fill="white"/>
<path d="M229.776 305.726C232.262 301.928 237.04 294.447 239.036 290.735C239.313 290.175 239.571 289.646 239.805 289.16C239.655 289.54 239.389 290.079 239.036 290.735C236.164 296.54 231.263 305.726 229.776 305.726Z" fill="white"/>
<path d="M153.306 207.911C158.895 209.962 174.899 210.466 194.205 196.078C198.238 193.46 204.426 188.421 209.751 181.879C209.74 186.244 211.411 196.173 218.18 200.969C224.71 212.065 235.104 232.522 238.395 243.724C243.253 248.93 245.039 259.69 247.797 260.447C243.201 275.382 231.876 305.347 223.352 305.726C214.211 309.46 193.108 312.983 181.825 297.207C171.535 279.274 149.545 242.903 143.903 240.884L132.464 194.658C138.314 198.813 150.673 207.28 153.306 207.911Z" fill="#DFAD96"/>
<path d="M194.205 196.078C174.899 210.466 158.895 209.962 153.306 207.911C150.673 207.28 138.314 199.444 132.464 195.289L141.239 202.862C140.978 203.837 142.054 207.071 148.448 212.212C162.625 220.688 177.751 216.114 208.622 184.246L203.45 211.539C201.946 222.52 203.346 232.733 204.234 236.466C205.362 234.321 204.234 217.85 205.331 207.911C206.459 204.25 208.748 189.031 209.751 181.879C204.426 188.421 198.238 193.46 194.205 196.078Z" fill="#C69680"/>
<path d="M234.791 233.311C233.537 224.981 219.956 205.439 213.636 196.551C211.004 193.775 210.136 189.189 210.032 187.243C217.554 189.61 224.919 194.816 230.56 196.394C233.149 197.118 239.607 200.817 246.074 204.784C248.424 204.597 280.862 213.335 276.787 222.692C279.365 224.176 281.682 225.53 283.369 226.527C288.258 228.294 286.346 233.258 284.779 235.52C287.537 238.927 294.965 271.648 299.039 286.478C301.922 287.74 304.419 289.213 305.307 289.791C307.438 290.549 304.419 297.995 302.643 301.624C304.147 302.886 306.404 312.247 307.344 316.77C309.695 320.556 311.732 332.231 312.829 333.493C313.706 334.502 316.642 349.585 318 356.842H285.876L268.012 312.983C262.747 306.294 254.849 281.903 251.558 270.544C241.372 249.719 237.455 237.413 234.791 233.311Z" fill="#181B24"/>
<path d="M151.112 290.58C153.87 304.464 159.992 340.592 162.708 356.842H6.63216C3.62344 353.813 1.56539 339.856 0.990827 333.493C-2.26858 327.813 3.28913 309.565 6.47541 301.151L8.19914 299.257C11.0825 296.481 12.2212 292.316 12.4302 290.58C9.54684 286.541 13.0047 277.328 15.0941 273.226L19.7952 270.386C20.5474 268.114 25.7498 257.344 28.2571 252.243C24.7469 243.156 33.2716 242.304 39.6964 242.304C42.2036 237.255 45.4943 238.517 47.5315 238.517C57.9365 225.391 66.4925 229.788 69.4698 233.627C76.114 231.228 81.6404 229.893 83.573 229.525L100.027 216.588C104.791 210.025 121.129 197.13 128.547 191.661C129.55 192.67 131.681 194.816 132.778 195.605C132.652 196.614 140.456 222.267 143.12 236.624C145.377 246.09 149.388 276.539 151.112 290.58Z" fill="#181B24"/>
<path d="M46.0646 261.423C46.4865 261.221 47.517 260.883 47.6496 260.507C47.8155 260.037 46.2304 260.953 46.0646 261.423Z" fill="#363D50"/>
<path d="M48.1258 260.201C48.2855 260.046 48.9244 259.428 49.7078 259.443C49.2839 259.75 48.374 260.332 48.1258 260.201Z" fill="#363D50"/>
<path d="M50.3406 259.14C50.5556 258.829 51.0133 258.396 51.7628 258.537C51.34 258.791 50.5912 259.145 50.3406 259.14Z" fill="#363D50"/>
<path d="M52.2359 258.388C52.3987 258.076 53.1912 257.618 53.8179 257.63C53.4995 257.887 52.5493 258.394 52.2359 258.388Z" fill="#363D50"/>
<path d="M54.291 257.482C54.4538 257.169 55.0866 256.866 55.7133 256.878C55.3436 257.082 54.5417 257.487 54.291 257.482Z" fill="#363D50"/>
<path d="M56.1863 256.73C56.5058 256.421 57.1386 256.117 57.4489 256.281C57.1847 256.434 56.437 256.735 56.1863 256.73Z" fill="#363D50"/>
<path d="M58.0786 256.136C58.1319 256.084 58.5578 255.672 59.1845 255.684C59.0258 255.786 58.4546 256.143 58.0786 256.136Z" fill="#363D50"/>
<path d="M50.1954 271.204C50.6173 271.002 51.6478 270.665 51.7805 270.289C51.9463 269.819 50.3613 270.734 50.1954 271.204Z" fill="#363D50"/>
<path d="M52.2566 269.982C52.4164 269.828 53.0553 269.209 53.8386 269.225C53.4147 269.532 52.5049 270.114 52.2566 269.982Z" fill="#363D50"/>
<path d="M54.4714 268.921C54.6864 268.61 55.1441 268.177 55.8937 268.318C55.4708 268.573 54.7221 268.926 54.4714 268.921Z" fill="#363D50"/>
<path d="M56.3668 268.17C56.5296 267.857 57.3221 267.399 57.9488 267.412C57.6303 267.668 56.6801 268.176 56.3668 268.17Z" fill="#363D50"/>
<path d="M58.4218 267.263C58.5846 266.951 59.2174 266.648 59.8441 266.66C59.4745 266.863 58.6725 267.268 58.4218 267.263Z" fill="#363D50"/>
<path d="M60.3172 266.511C60.6366 266.202 61.2694 265.899 61.5797 266.063C61.3156 266.215 60.5679 266.516 60.3172 266.511Z" fill="#363D50"/>
<path d="M62.2095 265.917C62.2627 265.866 62.6887 265.453 63.3154 265.466C63.1566 265.568 62.5855 265.925 62.2095 265.917Z" fill="#363D50"/>
<path d="M60.4128 292.473C60.4701 292.939 60.5032 294.029 60.7349 294.267C61.0245 294.565 60.7024 292.771 60.4128 292.473Z" fill="#363D50"/>
<path d="M60.853 294.815C60.9281 295.014 61.2286 295.811 61.0678 296.56C60.939 296.062 60.7157 295.015 60.853 294.815Z" fill="#363D50"/>
<path d="M61.1537 297.258C61.3254 297.556 61.5336 298.124 61.2934 298.803C61.2004 298.321 61.1023 297.497 61.1537 297.258Z" fill="#363D50"/>
<path d="M61.3043 299.302C61.4866 299.55 61.6477 300.447 61.5191 301.046C61.4046 300.665 61.24 299.601 61.3043 299.302Z" fill="#363D50"/>
<path d="M61.5299 301.545C61.7123 301.793 61.7982 302.491 61.6696 303.091C61.6016 302.675 61.4785 301.785 61.5299 301.545Z" fill="#363D50"/>
<path d="M61.6805 303.589C61.8307 303.987 61.9166 304.685 61.7451 304.936C61.6914 304.637 61.629 303.829 61.6805 303.589Z" fill="#363D50"/>
<path d="M61.7237 305.584C61.7488 305.65 61.9491 306.181 61.8205 306.781C61.7811 306.598 61.6466 305.944 61.7237 305.584Z" fill="#363D50"/>
<path d="M54.9592 292.464C55.3749 292.249 56.3949 291.881 56.5163 291.501C56.668 291.026 55.111 291.989 54.9592 292.464Z" fill="#363D50"/>
<path d="M56.983 291.18C57.1381 291.021 57.7583 290.383 58.5417 290.375C58.1272 290.695 57.2351 291.304 56.983 291.18Z" fill="#363D50"/>
<path d="M59.1652 290.053C59.3708 289.735 59.8154 289.288 60.5688 289.407C60.1537 289.674 59.4159 290.05 59.1652 290.053Z" fill="#363D50"/>
<path d="M61.0373 289.244C61.1907 288.927 61.9692 288.445 62.5959 288.438C62.2853 288.705 61.3507 289.24 61.0373 289.244Z" fill="#363D50"/>
<path d="M63.0644 288.276C63.2178 287.958 63.8412 287.636 64.468 287.63C64.1046 287.844 63.3151 288.273 63.0644 288.276Z" fill="#363D50"/>
<path d="M64.9364 287.467C65.2465 287.148 65.87 286.826 66.185 286.98C65.9255 287.141 65.1872 287.464 64.9364 287.467Z" fill="#363D50"/>
<path d="M66.8102 286.816C66.8618 286.763 67.2753 286.338 67.9021 286.331C67.7465 286.438 67.1862 286.812 66.8102 286.816Z" fill="#363D50"/>
<path d="M52.7654 282.051C53.181 281.836 54.201 281.468 54.3224 281.088C54.4742 280.613 52.9171 281.576 52.7654 282.051Z" fill="#363D50"/>
<path d="M54.7892 280.767C54.9442 280.608 55.5644 279.97 56.3479 279.962C55.9333 280.282 55.0412 280.891 54.7892 280.767Z" fill="#363D50"/>
<path d="M56.9714 279.64C57.177 279.322 57.6215 278.876 58.375 278.994C57.9599 279.261 57.2221 279.637 56.9714 279.64Z" fill="#363D50"/>
<path d="M58.8434 278.831C58.9968 278.514 59.7753 278.032 60.4021 278.026C60.0915 278.292 59.1568 278.828 58.8434 278.831Z" fill="#363D50"/>
<path d="M60.8705 277.863C61.0239 277.546 61.6474 277.224 62.2742 277.217C61.9108 277.431 61.1212 277.86 60.8705 277.863Z" fill="#363D50"/>
<path d="M62.7426 277.054C63.0527 276.735 63.6762 276.413 63.9912 276.568C63.7317 276.728 62.9933 277.052 62.7426 277.054Z" fill="#363D50"/>
<path d="M64.6163 276.403C64.668 276.35 65.0814 275.925 65.7082 275.918C65.5526 276.025 64.9924 276.399 64.6163 276.403Z" fill="#363D50"/>
<path d="M59.5976 255.788C60.0444 255.65 61.1132 255.47 61.2995 255.117C61.5325 254.677 59.8305 255.347 59.5976 255.788Z" fill="#363D50"/>
<path d="M61.8153 254.885C61.996 254.756 62.7186 254.239 63.4912 254.371C63.0268 254.612 62.0416 255.052 61.8153 254.885Z" fill="#363D50"/>
<path d="M64.1615 254.165C64.4198 253.889 64.9359 253.529 65.6566 253.78C65.201 253.969 64.4087 254.207 64.1615 254.165Z" fill="#363D50"/>
<path d="M66.1463 253.703C66.3531 253.418 67.2041 253.083 67.8221 253.189C67.4695 253.395 66.4553 253.756 66.1463 253.703Z" fill="#363D50"/>
<path d="M68.3118 253.112C68.5186 252.827 69.1889 252.622 69.8069 252.727C69.4115 252.873 68.559 253.154 68.3118 253.112Z" fill="#363D50"/>
<path d="M70.2966 252.65C70.6579 252.392 71.3282 252.186 71.6111 252.394C71.3274 252.506 70.5438 252.693 70.2966 252.65Z" fill="#363D50"/>
<path d="M72.2552 252.344C72.3154 252.301 72.7972 251.956 73.4152 252.062C73.2433 252.139 72.626 252.407 72.2552 252.344Z" fill="#363D50"/>
<path d="M63.7289 265.569C64.1758 265.432 65.2445 265.251 65.4309 264.899C65.6638 264.459 63.9619 265.129 63.7289 265.569Z" fill="#363D50"/>
<path d="M65.9467 264.667C66.1274 264.538 66.85 264.021 67.6225 264.152C67.1582 264.393 66.173 264.833 65.9467 264.667Z" fill="#363D50"/>
<path d="M68.2928 263.947C68.5511 263.671 69.0673 263.311 69.788 263.561C69.3324 263.75 68.54 263.989 68.2928 263.947Z" fill="#363D50"/>
<path d="M70.2776 263.485C70.4844 263.2 71.3354 262.865 71.9534 262.97C71.6008 263.177 70.5866 263.537 70.2776 263.485Z" fill="#363D50"/>
<path d="M72.4431 262.894C72.6499 262.609 73.3202 262.403 73.9383 262.508C73.5429 262.654 72.6903 262.936 72.4431 262.894Z" fill="#363D50"/>
<path d="M74.4279 262.432C74.7892 262.173 75.4596 261.968 75.7424 262.176C75.4588 262.288 74.6751 262.474 74.4279 262.432Z" fill="#363D50"/>
<path d="M76.3866 262.126C76.4468 262.083 76.9286 261.738 77.5466 261.843C77.3746 261.921 76.7574 262.189 76.3866 262.126Z" fill="#363D50"/>
<path d="M61.6705 307.148C61.6786 307.618 61.5971 308.699 61.8023 308.982C62.0586 309.336 61.9269 307.501 61.6705 307.148Z" fill="#363D50"/>
<path d="M61.8621 309.546C61.9158 309.758 62.1306 310.605 61.8925 311.31C61.8168 310.792 61.7048 309.715 61.8621 309.546Z" fill="#363D50"/>
<path d="M61.9046 312.015C62.0438 312.345 62.191 312.947 61.8813 313.566C61.8394 313.073 61.8284 312.24 61.9046 312.015Z" fill="#363D50"/>
<path d="M61.8397 314.06C61.9948 314.343 62.0606 315.26 61.8701 315.823C61.7965 315.423 61.7445 314.342 61.8397 314.06Z" fill="#363D50"/>
<path d="M61.8286 316.317C61.9836 316.599 61.9958 317.305 61.8053 317.868C61.7813 317.445 61.7524 316.542 61.8286 316.317Z" fill="#363D50"/>
<path d="M61.7637 318.362C61.8711 318.785 61.8833 319.49 61.6867 319.701C61.6647 319.396 61.6875 318.587 61.7637 318.362Z" fill="#363D50"/>
<path d="M61.5975 320.336C61.6154 320.406 61.7586 320.971 61.5681 321.534C61.5482 321.346 61.4832 320.674 61.5975 320.336Z" fill="#363D50"/>
<path d="M68.3183 286.422C68.7608 286.271 69.8237 286.058 69.9995 285.7C70.2192 285.253 68.538 285.974 68.3183 286.422Z" fill="#363D50"/>
<path d="M70.5081 285.453C70.6849 285.318 71.3917 284.78 72.1678 284.888C71.7109 285.143 70.7393 285.612 70.5081 285.453Z" fill="#363D50"/>
<path d="M72.8317 284.662C73.0817 284.378 73.5868 284.003 74.3147 284.232C73.8649 284.434 73.0801 284.697 72.8317 284.662Z" fill="#363D50"/>
<path d="M74.8019 284.14C75.0001 283.849 75.8407 283.489 76.4616 283.575C76.1153 283.793 75.1123 284.184 74.8019 284.14Z" fill="#363D50"/>
<path d="M76.9487 283.484C77.1469 283.193 77.8108 282.967 78.4317 283.054C78.0409 283.212 77.1971 283.519 76.9487 283.484Z" fill="#363D50"/>
<path d="M78.9189 282.962C79.2723 282.693 79.9362 282.467 80.2251 282.667C79.9449 282.787 79.1672 282.997 78.9189 282.962Z" fill="#363D50"/>
<path d="M80.8675 282.597C80.9264 282.552 81.3977 282.193 82.0186 282.28C81.849 282.362 81.24 282.649 80.8675 282.597Z" fill="#363D50"/>
<path d="M66.1244 276.009C66.567 275.858 67.6298 275.646 67.8056 275.288C68.0253 274.841 66.3441 275.562 66.1244 276.009Z" fill="#363D50"/>
<path d="M68.3143 275.04C68.491 274.906 69.1979 274.367 69.974 274.475C69.5171 274.73 68.5454 275.2 68.3143 275.04Z" fill="#363D50"/>
<path d="M70.6379 274.249C70.8878 273.966 71.393 273.59 72.1208 273.819C71.6711 274.022 70.8862 274.284 70.6379 274.249Z" fill="#363D50"/>
<path d="M72.608 273.728C72.8062 273.437 73.6468 273.076 74.2677 273.163C73.9214 273.38 72.9185 273.771 72.608 273.728Z" fill="#363D50"/>
<path d="M74.7549 273.071C74.9531 272.781 75.617 272.555 76.2379 272.641C75.847 272.799 75.0032 273.106 74.7549 273.071Z" fill="#363D50"/>
<path d="M76.725 272.55C77.0785 272.281 77.7423 272.055 78.0313 272.254C77.7511 272.374 76.9734 272.584 76.725 272.55Z" fill="#363D50"/>
<path d="M78.6737 272.184C78.7326 272.14 79.2038 271.781 79.8247 271.867C79.6552 271.95 79.0462 272.236 78.6737 272.184Z" fill="#363D50"/>
<path d="M49.5687 249.719C47.6883 251.507 43.1126 254.767 39.8532 253.505C40.48 252.243 42.047 242.777 49.5687 249.719C50.0702 244.292 43.823 242.409 40.6367 242.146C44.2409 241.515 51.2925 244.828 49.5687 249.719Z" fill="#090D16"/>
<path d="M75.4247 244.828C68.9999 237.571 56.4637 244.039 58.1874 247.352C72.4473 240.884 72.7607 246.248 76.5216 249.088C79.9359 251.119 84.6311 248.25 85.2792 246.764C85.2855 246.75 85.2914 246.735 85.2969 246.721C85.2961 246.722 85.2953 246.722 85.2946 246.723C81.5342 249.497 76.9914 246.721 75.4247 244.828Z" fill="#090D16"/>
<path d="M20.2654 276.381C22.407 276.487 27.0349 277.612 28.4139 281.272C31.2868 284.27 37.346 290.833 38.5996 293.105C39.4771 293.969 48.4718 309.136 52.8595 316.612C49.3494 313.204 41.8903 299.52 38.5996 293.105L31.2346 285.847C28.8318 286.005 22.9607 285.784 18.6984 283.639C14.6204 281.586 16.6243 282.546 18.3149 283.37C16.6051 282.51 13.785 280.521 14.6242 278.59C16.4523 280.273 22.1458 283.86 30.2943 284.743C30.1899 284.246 29.5422 282.849 27.7871 281.237C24.7454 281.004 19.7977 279.795 20.2654 276.381Z" fill="#090D16"/>
<path d="M59.2843 325.447C68.0596 332.862 73.7532 348.007 77.1484 356.842H73.0741C70.943 344.6 64.7689 335.228 61.9482 332.073C56.683 327.151 55.3667 319.294 55.3667 315.981C55.3667 308.408 53.3818 298.101 52.3894 293.893C50.0075 272.185 44.1886 260.237 41.5769 256.976C49.8508 263.287 52.2327 284.217 52.3894 293.893C55.8995 300.33 55.8368 311.3 55.3667 315.981C56.6204 321.66 58.553 324.763 59.2843 325.447Z" fill="#090D16"/>
<path d="M24.4964 339.646C32.3941 333.966 50.2478 348.744 58.1874 356.842H47.0615C45.0557 350.91 32.7493 345.851 26.8469 344.063L24.4964 339.646Z" fill="#090D16"/>
<path d="M121.025 302.255C127.607 303.938 139.516 307.461 144.217 314.088C150.987 323.554 125.413 346.535 111.78 356.842C140.488 331.221 145.366 317.664 144.217 314.088C124.994 303.889 108.646 303.14 97.4081 293.893C95.3331 291.987 93.562 290.081 92.0566 288.23C87.2806 282.358 85.1807 277.044 84.545 274.06C84.3114 273.5 84.2327 273.098 84.3567 272.911C84.3909 273.241 84.4524 273.626 84.545 274.06C85.7277 276.898 90.8798 283.797 93.7588 287.448C99.7577 293.347 109.075 299.899 121.025 302.255Z" fill="#090D16"/>
<path d="M253.125 209.015C254.849 209.015 265.348 211.539 265.348 214.852C261.587 213.485 253.877 210.403 253.125 209.015Z" fill="#090D16"/>
<path d="M270.519 217.534C271.982 218.534 275.283 220.658 276.787 221.163C277.048 219.322 276.161 216.02 270.519 217.534Z" fill="#090D16"/>
<path d="M268.795 252.559C275.795 261.709 289.355 281.272 290.107 283.165L292.614 284.27C283.526 271.491 272.4 250.823 268.795 249.246C268.302 249.753 267.192 250.968 266.745 251.454L268.795 252.559Z" fill="#090D16"/>
<path d="M286.189 229.998C287.104 231.272 284.675 234.327 281.537 237.413C278.025 240.411 271.303 245.932 269.898 246.406C266.166 249.127 264.408 252.103 264.408 254.61C264.408 254.152 265.415 252.901 266.745 251.454C267.192 250.968 268.302 249.753 268.795 249.246C270.077 247.927 270.803 247.32 271.773 246.406C272.958 245.586 274.052 244.797 275.064 244.04C276.014 243.329 276.89 242.645 277.698 241.988C286.212 235.065 287.063 231.185 286.189 229.998Z" fill="#090D16"/>
<path d="M273.497 265.495C273.497 264.707 267.228 255.714 264.408 254.61L264.586 254.807L264.759 254.999C267.431 257.967 272.907 264.048 273.026 265.495C273.277 267.261 277.688 273.419 288.667 282.048C284.882 278.922 274.912 270.029 273.497 265.495Z" fill="#090D16"/>
<path d="M278.414 308.216C284.077 327.502 292.474 355.74 293.241 356.842H295.435C290.675 343.635 282.389 320.331 278.414 308.216Z" fill="#090D16"/>
<path d="M218.024 202.547C224.449 212.644 231.5 223.372 238.865 242.462C237.868 240.577 239.397 243.84 238.865 242.462C239.839 244.986 246.7 260.131 251.558 270.386L248.111 260.605C248.476 260.289 247.233 255.682 239.335 239.78C236.097 229.104 227.426 206.806 218.024 202.547Z" fill="#090D16"/>
<path d="M298.726 312.668L303.113 301.624C306.456 312.405 313.142 334.313 313.142 335.702C312.965 334.755 300.763 315.034 298.726 312.668Z" fill="#090D16"/>
<path d="M85.2969 246.721C85.2914 246.735 85.2855 246.75 85.2792 246.764C80.6026 258.086 83.2598 260.448 83.2598 261.078C84.0433 262.498 83.7299 270.228 83.2598 271.964C82.3822 273.857 83.7509 274.15 84.545 274.06C84.3114 273.5 84.2327 273.098 84.3567 272.911C84.3909 273.241 84.4524 273.626 84.545 274.06C85.8239 274.06 85.997 264.985 85.9237 260.447C84.1665 258.957 84.2344 254.227 84.7055 250.35C84.873 248.971 85.0914 247.701 85.2969 246.721Z" fill="#090D16"/>
<path d="M85.2946 246.723C85.2953 246.722 85.2961 246.722 85.2969 246.721C85.0914 247.701 84.873 248.971 84.7055 250.35C84.764 249.889 92.1087 230.268 93.5036 228.959C93.1132 229.247 92.6147 229.96 92.0566 230.945C89.4582 235.528 85.5693 245.985 85.2946 246.723Z" fill="#090D16"/>
<path d="M93.5036 228.959L101.281 217.692C98.5627 221.058 92.9129 228.42 92.0566 230.945C92.6147 229.96 93.1132 229.247 93.5036 228.959Z" fill="#090D16"/>
<path d="M84.545 274.06C83.7509 274.15 82.3822 273.857 83.2598 271.964C81.1874 276.003 88.2608 284.491 92.0566 288.23C87.2806 282.358 85.1807 277.044 84.545 274.06Z" fill="#090D16"/>
<path d="M277.728 228.578C277.728 231.279 275.342 233.469 272.4 233.469C269.457 233.469 266.132 230.648 266.132 227.947C266.132 225.246 268.517 223.056 271.459 223.056C274.402 223.056 277.728 225.877 277.728 228.578Z" fill="#D9D9D9"/>
<path d="M81.3794 236.151C81.3794 238.329 83.7299 240.209 88.431 239.104L91.4083 232.163C90.3114 231.847 89.5279 231.733 88.431 231.891C84.8827 231.891 82.3196 233.627 81.3794 236.151Z" fill="#D9D9D9"/>
<ellipse rx="3.42618" ry="7.17601" transform="matrix(0.828716 -0.559669 0.554469 0.832205 97.2425 272.378)" fill="#D9D9D9"/>
<path d="M295 302.4C296.969 301.397 297.25 297.969 295.628 294.743C294.006 291.517 291.096 289.715 289.127 290.718C288.332 291.123 288.144 292.239 287.913 293.262L293.711 302.676C294.167 302.691 294.603 302.603 295 302.4Z" fill="#D9D9D9"/>
<path d="M221.628 95.7385C226.517 92.5832 227.635 80.6455 227.583 75.0711L239.179 87.5347C249.364 100.472 250.879 119.246 253.282 129.816C255.538 131.331 255.685 151.167 255.476 160.896C258.359 164.304 258.244 173.149 257.826 177.146C261.838 188.127 256.782 192.449 253.752 193.238C242.595 194.5 235 204.808 232.597 209.804L236.358 199.391L237.298 197.182C237.8 196.173 243.462 193.081 246.23 191.661C255.131 189.389 251.297 179.144 248.267 174.306C244.381 185.918 226.486 196.919 218.024 200.969C211.129 196.425 209.614 186.665 209.719 182.352C217.867 172.886 219.591 164.051 222.882 141.018C234.164 144.173 236.358 114.828 239.962 112.935C237.204 113.945 232.388 114.46 230.717 114.039C225.577 113.03 222.516 101.418 221.628 95.7385Z" fill="#634C37"/>
<path d="M108.332 71.127C105.93 75.3341 101.093 84.4425 100.967 87.2191C99.8291 89.0165 98.4787 91.0692 97.0144 93.2951C88.1963 106.699 75.2479 126.382 79.6558 134.391L79.1857 136.916L79.1602 136.988C78.7577 138.137 78.0854 140.057 76.5536 142.396C75.0069 145.502 73.5439 149.08 72.4788 152.85C71.5804 156.03 70.965 159.346 70.8209 162.632C70.4739 170.538 72.8569 178.262 80.5958 183.457C79.2899 186.086 76.5528 192.765 76.0514 198.445C73.0704 202.544 68.717 209.069 65.4623 215.168C62.3295 221.038 60.2146 226.513 61.3214 229.051C62.1571 229.156 65.1136 230.313 70.2534 234.1L86.5504 228.262C90.5202 227.737 98.6166 218.323 103.788 212.17C112.563 207.122 130.145 196.204 130.27 192.923C125.517 188.558 115.352 175.537 112.72 158.372C108.019 139.598 106.452 130.132 106.138 124.61C105.825 119.088 106.138 109.622 106.922 99.3672C107.078 90.69 107.204 73.3988 108.332 71.127Z" fill="#634C37"/>
<path d="M106.609 91.7945C105.982 89.9013 107.288 77.2274 108.019 71.127C169.321 17.9913 212.957 70.5486 227.113 103.469C240.276 93.3721 245.76 104.258 232.754 132.814C231.375 140.891 225.703 141.754 223.039 141.175L220.061 159.476C218.432 176.389 202.145 190.924 194.205 196.078C179.177 207.279 166.149 209.454 158.477 208.901C153.212 208.431 150.015 207.125 149.075 206.53C144.146 204.157 137.325 199.282 133.875 196.394C116.332 183.357 115.093 166.145 110.864 153.797C108.752 148.874 107.556 141.649 107.222 138.651C106.059 129.672 105.2 118.049 105.512 110.726C106.264 104.29 106.556 95.4231 106.609 91.7945Z" fill="#DFAD96"/>
<path d="M147.821 205.86C142.023 203.335 136.106 197.875 132.464 195.289C130.897 194.027 124.786 187.874 123.689 185.823C130.222 191.414 144.821 204.175 147.821 205.86Z" fill="#C69680"/>
<path d="M192.481 197.34C193.422 196.394 204.861 187.243 209.405 182.353C206.219 186.402 198.593 193.869 192.481 197.34Z" fill="#C69680"/>
<path d="M226.956 120.192C228.209 121.328 227.792 123.085 227.426 123.821C226.414 124.526 225.994 125.47 225.859 126.261C225.702 129.501 226.956 125.556 228.053 124.136C229.463 124.136 231.218 122.874 231.814 122.401C238.834 114.954 234.06 110.832 230.873 109.938L227.426 112.304C226.329 113.724 226.642 119.088 226.956 120.192Z" fill="#C69680"/>
<path d="M230.56 127.134C234.321 124.988 236.828 118.247 237.612 115.144C237.141 121.612 232.127 126.819 231.814 127.134C231.03 127.765 229.803 129.816 229.62 131.709C229.369 131.078 230.142 128.396 230.56 127.134Z" fill="#C69680"/>
<path d="M127.763 64.5007C157.098 58.3163 190.131 77.7005 202.98 88.1657C210.502 93.5499 206.114 101.979 202.98 105.52C192.45 116.627 179.684 114.565 174.617 112.146C171.483 114.797 175.923 119.982 178.535 122.243C174.649 121.865 170.857 119.561 169.446 118.457C165.999 114.197 156.408 107.224 145.627 113.408L117.264 112.146C110.213 112.62 107.026 102.049 107.235 96.6851C106.859 93.5298 105.982 79.8041 107.549 71.6002C108.277 67.7895 121.652 65.7628 127.763 64.5007Z" fill="#D6A58F"/>
<path d="M165.372 95.5808C163.491 99.1148 163.439 106.73 163.648 110.095C174.774 113.882 179.214 113.461 189.034 115.302C195.944 114.215 200.87 112.354 204.255 110.095C208.032 108.134 213.232 99.6018 215.36 95.5808L202.98 88.1658C194.675 80.7507 165.372 94.4764 165.372 95.5808Z" fill="#D6A58F"/>
<path d="M169.759 137.704C170.909 138.285 173.301 140.345 173.677 143.939C178.711 146.543 186.337 151.627 188.462 156.952C193.164 159.729 192.16 165.471 191.071 167.996C188.313 166.102 188.459 162.579 188.877 161.054C185.524 156.735 178.164 147.948 173.677 144.831C173.573 145.671 173.05 147.17 170.543 148.477C168.41 150.097 164.998 151.008 164.745 152.534C164.849 151.281 165.769 150.644 168.192 149.282C168.896 148.886 169.726 148.43 170.7 147.879C171.953 147.17 172.15 146.412 172.248 145.954C172.366 145.343 172.376 144.655 172.303 143.939C172.296 143.871 172.289 143.803 172.28 143.734C172.013 142.562 169.489 142.089 168.192 141.998C162.011 142.024 161.541 138.399 162.238 136.284C166.124 134.391 168.871 136.442 169.759 137.704Z" fill="#CD9D87"/>
<path d="M131.994 163.578C131.994 160.107 136.382 151.588 137.635 145.435C137.792 148.275 139.046 148.906 139.829 149.695C138.074 150.407 135.912 154.112 131.994 163.578Z" fill="#CD9D87"/>
<path d="M145.157 148.477C151.801 155.202 155.917 154.773 157.223 153.639C158.32 154.81 159.73 156.636 159.73 162.947C159.156 163.315 158.571 165.093 156.44 163.578C156.44 161.624 157.349 155.368 155.343 154.81C152.001 155.17 146.636 153.157 145.157 151.903C140.644 147.865 143.277 147.936 145.157 148.477Z" fill="#CD9D87"/>
<path d="M138.419 173.044C141.302 173.675 146.428 175.419 148.204 177.207C149.536 177.942 155.343 177.671 161.454 177.671C170.543 173.044 167.112 183.763 163.717 186.042C159.214 189.496 153.797 187.207 150.397 184.921C149.395 184.37 141.866 177.226 138.419 173.044Z" fill="#CD9D87"/>
<path d="M180.572 169.1C183.288 169.1 187.467 171.466 188.462 176.199C186.477 173.307 182.202 170.236 180.572 169.1Z" fill="#CD9D87"/>
<path d="M110.526 152.534C111.991 156.254 120.282 161.561 127.763 162.947C129.297 162.391 133.875 162.947 131.396 167.207L134.815 172.255C133.244 171.423 131.996 169.288 131.133 167.522C130.978 167.535 130.806 167.515 130.626 167.466L124.316 166.772C120.085 165.089 113.347 161.843 110.526 152.534Z" fill="#CD9D87"/>
<path d="M170.543 148.477C168.41 150.097 164.998 151.008 164.745 152.535C164.834 151.463 165.52 150.841 167.232 149.832C164.958 150.691 161.597 149.499 157.38 150.929C157.38 150.427 164.137 143.347 168.192 149.282C168.896 148.886 169.726 148.43 170.7 147.879L170.543 148.477Z" fill="#C1947F"/>
<path d="M142.336 137.231C140.769 142.208 136.538 145.751 139.673 149.064L143.12 151.43L139.986 149.815C139.046 149.319 137.259 147.63 137.635 144.831C138.66 141.996 139.475 140.472 142.336 137.231Z" fill="#C1947F"/>
<path d="M157.38 153.481C154.089 156.952 148.065 155.164 146.08 153.481C142.59 150.358 142.45 148.115 143.854 148.224C144.566 148.184 145.635 148.977 146.08 149.379C152.197 155.146 156.136 154.562 157.38 153.481Z" fill="#C1947F"/>
<path d="M222.891 132.765C215.128 151.842 205.112 156.595 203.764 160.311C218.614 154.686 223.99 146.787 222.891 132.765Z" fill="#D2A18A"/>
<path d="M169.603 111.2C171.013 97.3162 191.071 97.474 204.077 102.522C195.615 118.93 181.355 114.933 172.11 111.673C170.731 111.673 169.864 111.357 169.603 111.2Z" fill="#CB9B85"/>
<path d="M145.627 113.251L143.59 128.712C143.486 124.098 143.998 113.311 141.866 114.355C125.366 123.009 117.591 117.357 116.637 112.462C110.41 114.029 106.053 100.929 107.235 96.212C107.131 93.4774 106.891 86.7775 106.765 81.8552C106.713 78.2266 106.985 70.8431 108.489 70.3383C112.145 67.4985 124.19 62.3868 143.12 64.6587C151.164 64.7638 176.498 66.2363 198.593 84.3795H191.071C188.963 82.2951 183.788 77.8149 179.382 75.9564C179.205 75.8849 179.027 75.8137 178.848 75.7427C164.588 70.0636 148.596 65.7527 132.464 69.5494C126.51 81.8552 130.27 89.9013 130.27 92.1737C133.985 93.4647 137.835 95.1476 140.456 96.0542C143.433 102.996 144.844 107.256 145.627 113.251Z" fill="#C99A85"/>
<path d="M160.914 164.524C155.754 167.921 151.486 166.379 149.336 165.256C145.784 165.696 143.394 165.641 141.083 166.721C140.143 167.16 138.367 167.599 136.382 169.796C138.164 172.09 143.81 177.088 149.005 179.314C162.403 183.56 171.831 175.067 182.748 169.064C174.809 164.524 166.152 164.475 160.914 164.524Z" fill="#C17F70"/>
<path d="M174.906 173.698C177.435 172.012 180.008 170.278 182.748 168.771C179.978 170.715 177.369 172.346 174.906 173.698C167.36 178.728 160.207 183.324 150.172 180.144C148.793 179.656 147.865 179.021 141.745 175.214L138.889 172.724L136.539 169.942C144.362 177.122 154.666 184.815 174.906 173.698Z" fill="#B97A6D"/>
<path d="M176.463 171.497C161.01 184.266 140.905 176.818 139.742 171.497C141.727 170.832 143.734 171.364 149.051 172.162C156.86 174.157 160.516 172.694 163.672 171.497C169.654 169.794 175.3 170.566 176.463 171.497Z" fill="#CC8778"/>
<path d="M169.35 167.892C171.467 168.126 175.195 168.283 176.794 168.331C175.206 167.277 167.641 166.428 164.057 166.135C163.793 166.838 158.323 167.892 155.621 168.331C154.166 168.331 149.942 167.16 148.013 166.574C145.366 166.34 141.396 168.234 139.742 169.21L142.058 169.649C145.366 169.181 148.84 169.845 150.163 170.235C155.059 172.578 164.994 169.649 169.35 167.892Z" fill="#CC8778"/>
<path d="M177.124 168.771C178.723 168.332 182.285 167.863 183.079 169.503C181.701 169.161 178.448 168.624 177.124 169.21C176.242 169.357 173.849 169.562 171.335 169.21C169.156 169.442 165.515 169.945 163.96 170.293L162.899 170.741C161.403 171.476 155.465 173.031 150.163 171.451L148.178 171.005C146.248 170.801 143.277 170.528 141.727 170.528C139.847 170.258 135.942 170.024 135.236 170.264C135.195 170.29 135.159 170.314 135.128 170.336C135.139 170.308 135.176 170.285 135.236 170.264C135.83 169.887 137.513 169.13 140.285 170.089L141.81 170.336C142.279 170.363 143.249 170.416 143.381 170.409C145.151 170.332 147.394 170.382 148.674 170.87L150.659 171.397C153.666 171.86 158.796 172.098 163.23 170.528C163.251 170.503 163.308 170.474 163.395 170.443C164.626 169.834 167.674 168.736 171.335 168.624C171.942 168.789 173.948 169.048 177.124 168.771Z" fill="#AC7265"/>
<path d="M159.417 149.064C160.723 147.749 164.181 145.814 167.566 148.59C165.999 149.274 162.175 150.326 159.417 149.064Z" fill="#A67D6B"/>
<path d="M148.135 151.115C146.097 149.222 144.374 147.486 142.807 148.433C143.12 148.411 143.747 150.484 148.135 151.115Z" fill="#A67D6B"/>
<g filter="url(#filter0_f_1445_177)">
<path d="M200.786 120.193C210.344 113.86 214.53 106.007 216.645 102.207C219.779 115.617 225.394 130.577 216.645 145.12C213.323 150.642 203.764 159.319 186.526 154.112C186.526 152.284 177.281 146.855 174.303 145.12C172.632 142.992 170.825 133.825 181.355 127.45C187.513 123.64 197.41 122.171 200.786 120.193Z" fill="#CC776B" fill-opacity="0.1"/>
</g>
<g filter="url(#filter1_f_1445_177)">
<path d="M141.396 139.124C137.635 145.277 132.151 156.637 132.151 161.685C124.493 165.177 115.227 161.685 111.309 154.27C106.922 144.489 105.773 125.946 105.511 118.773C111.466 127.607 117.891 127.923 123.062 129.501C138.106 130.447 142.32 136.576 141.396 139.124Z" fill="#CC776B" fill-opacity="0.1"/>
</g>
<path d="M147.351 120.666C150.798 113.093 153.358 113.882 155.186 112.935C164.275 118.457 164.118 120.666 168.036 127.134C166.782 128.144 160.827 125.241 158.007 123.663C161.517 125.935 156.858 129.448 154.089 130.921C150.203 131.93 149.858 127.976 150.172 125.872L145 130.605L143.904 127.134L147.351 120.666Z" fill="#CC776B" fill-opacity="0.1"/>
<path d="M196.242 114.675C199.063 112.935 208.621 107.887 213.949 98.105C220.687 105.836 211.703 112.672 203.294 118.299C193.735 121.297 194.205 116.721 196.242 114.675Z" fill="#E5B8A3" fill-opacity="0.6"/>
<path d="M114.757 122.874C105.668 119.088 108.175 109.78 107.548 102.049C108.802 106.467 107.235 111.515 113.19 117.037C116.324 121.139 116.794 122.874 114.757 122.874Z" fill="#E5B8A3" fill-opacity="0.6"/>
<path d="M153.96 147.262C149.715 148.492 147.801 146.161 147.067 143.384C146.848 141.462 146.254 137.069 151.739 138.687C155.504 139.799 154.992 144.442 153.96 147.262Z" fill="#E6B8A3" fill-opacity="0.8"/>
<path d="M151.739 206.281C139.672 201.812 147.978 196.114 148.321 195.868C153.96 193.396 158.007 193.081 162.081 196.551C165.058 196.867 173.05 197.656 174.147 200.338C175.244 203.02 168.819 210.015 151.739 206.281Z" fill="#E6B8A3" fill-opacity="0.8"/>
<path d="M166.625 126.345C166.834 126.345 167.158 126.188 166.782 125.557C166.406 125.557 166.312 125.767 166.312 125.872L166.625 126.345Z" fill="#C8976B"/>
<path d="M171.796 123.749C171.431 124.012 171.17 124.294 171.796 124.538C172.162 124.327 172.267 123.979 171.796 123.749Z" fill="#C8976B"/>
<path d="M162.708 121.297C162.551 121.349 162.269 121.549 162.394 121.928C162.655 121.875 163.084 121.676 162.708 121.297Z" fill="#C8976B"/>
<path d="M162.551 128.87C162.342 129.08 162.081 129.564 162.708 129.816C162.708 129.659 162.708 129.027 162.551 128.87Z" fill="#C8976B"/>
<path d="M172.423 128.554C172.267 128.712 172.047 129.091 172.423 129.343C172.58 129.185 172.799 128.807 172.423 128.554Z" fill="#C8976B"/>
<path d="M151.943 124.408C152.109 124.28 152.27 123.956 151.59 123.686C151.292 123.916 151.344 124.141 151.408 124.224L151.943 124.408Z" fill="#C8976B"/>
<path d="M154.475 119.178C154.344 119.611 154.308 119.995 154.952 119.804C155.115 119.413 154.987 119.073 154.475 119.178Z" fill="#C8976B"/>
<path d="M145.782 122.804C145.69 122.941 145.587 123.273 145.915 123.496C146.091 123.295 146.31 122.873 145.782 122.804Z" fill="#C8976B"/>
<path d="M150.237 128.908C150.198 129.202 150.284 129.746 150.934 129.562C150.838 129.437 150.457 128.937 150.237 128.908Z" fill="#C8976B"/>
<path d="M157.878 122.606C157.849 122.828 157.904 123.263 158.355 123.232C158.384 123.011 158.329 122.576 157.878 122.606Z" fill="#C8976B"/>
<path d="M172.136 131.214C172.278 131.059 172.384 130.713 171.669 130.561C171.413 130.838 171.502 131.051 171.578 131.122L172.136 131.214Z" fill="#AB815B"/>
<path d="M173.77 125.633C173.712 126.082 173.739 126.467 174.343 126.17C174.439 125.757 174.257 125.443 173.77 125.633Z" fill="#AB815B"/>
<path d="M165.796 130.663C165.727 130.814 165.681 131.158 166.041 131.324C166.181 131.095 166.327 130.643 165.796 130.663Z" fill="#AB815B"/>
<path d="M171.196 135.936C171.207 136.234 171.381 136.756 171.992 136.465C171.877 136.358 171.418 135.928 171.196 135.936Z" fill="#AB815B"/>
<path d="M177.691 128.444C177.699 128.667 177.825 129.087 178.265 128.981C178.257 128.758 178.131 128.339 177.691 128.444Z" fill="#AB815B"/>
<path d="M180.284 127.743C180.426 127.589 180.532 127.242 179.817 127.09C179.561 127.367 179.65 127.58 179.726 127.651L180.284 127.743Z" fill="#C8976B"/>
<path d="M181.918 122.162C181.86 122.611 181.888 122.996 182.492 122.699C182.588 122.287 182.406 121.972 181.918 122.162Z" fill="#C8976B"/>
<path d="M173.944 127.192C173.876 127.343 173.829 127.687 174.19 127.853C174.33 127.624 174.476 127.172 173.944 127.192Z" fill="#C8976B"/>
<path d="M179.345 132.465C179.356 132.763 179.53 133.285 180.14 132.994C180.025 132.887 179.566 132.457 179.345 132.465Z" fill="#C8976B"/>
<path d="M185.84 124.973C185.848 125.196 185.974 125.616 186.413 125.51C186.405 125.287 186.279 124.868 185.84 124.973Z" fill="#C8976B"/>
<path d="M154.272 123.956C154.414 123.802 154.52 123.456 153.805 123.303C153.549 123.581 153.638 123.793 153.714 123.865L154.272 123.956Z" fill="#C8976B"/>
<path d="M155.906 118.376C155.848 118.824 155.875 119.209 156.479 118.913C156.575 118.5 156.393 118.186 155.906 118.376Z" fill="#C8976B"/>
<path d="M147.932 123.405C147.863 123.557 147.817 123.901 148.177 124.066C148.317 123.838 148.463 123.386 147.932 123.405Z" fill="#C8976B"/>
<path d="M153.332 128.679C153.343 128.976 153.517 129.498 154.128 129.208C154.013 129.101 153.554 128.671 153.332 128.679Z" fill="#C8976B"/>
<path d="M159.827 121.187C159.835 121.41 159.961 121.829 160.401 121.724C160.393 121.501 160.267 121.081 159.827 121.187Z" fill="#C8976B"/>
<path d="M189.494 122.645C189.297 122.576 188.94 122.618 189.089 123.338C189.444 123.462 189.602 123.295 189.636 123.195L189.494 122.645Z" fill="#C8976B"/>
<path d="M183.763 123.389C184.194 123.261 184.533 123.08 184.02 122.644C183.606 122.722 183.394 123.016 183.763 123.389Z" fill="#C8976B"/>
<path d="M191.549 128.708C191.714 128.71 192.046 128.615 192.051 128.215C191.787 128.179 191.317 128.226 191.549 128.708Z" fill="#C8976B"/>
<path d="M194.166 121.606C194.432 121.477 194.836 121.106 194.326 120.661C194.275 120.81 194.069 121.406 194.166 121.606Z" fill="#C8976B"/>
<path d="M184.738 118.642C184.937 118.545 185.268 118.26 184.995 117.897C184.795 117.995 184.465 118.28 184.738 118.642Z" fill="#C8976B"/>
<path d="M189.494 122.645C189.297 122.576 188.939 122.618 189.089 123.338C189.444 123.462 189.602 123.295 189.636 123.195L189.494 122.645Z" fill="#C8976B"/>
<path d="M183.763 123.389C184.194 123.261 184.533 123.08 184.02 122.644C183.606 122.722 183.394 123.016 183.763 123.389Z" fill="#C8976B"/>
<path d="M191.549 128.708C191.714 128.71 192.046 128.615 192.051 128.215C191.787 128.179 191.317 128.226 191.549 128.708Z" fill="#C8976B"/>
<path d="M194.166 121.607C194.432 121.477 194.836 121.106 194.326 120.661C194.275 120.81 194.069 121.406 194.166 121.607Z" fill="#C8976B"/>
<path d="M184.737 118.643C184.937 118.545 185.267 118.26 184.994 117.897C184.795 117.995 184.464 118.28 184.737 118.643Z" fill="#C8976B"/>
<path d="M155.057 111.636C154.934 111.465 154.618 111.293 154.33 111.97C154.55 112.277 154.775 112.23 154.859 112.169L155.057 111.636Z" fill="#C8976B"/>
<path d="M149.937 108.937C150.363 109.081 150.744 109.129 150.573 108.475C150.189 108.3 149.847 108.418 149.937 108.937Z" fill="#C8976B"/>
<path d="M153.287 117.789C153.421 117.887 153.747 118 153.979 117.676C153.783 117.493 153.372 117.261 153.287 117.789Z" fill="#C8976B"/>
<path d="M159.475 113.482C159.767 113.529 160.31 113.459 160.146 112.799C160.019 112.892 159.511 113.261 159.475 113.482Z" fill="#C8976B"/>
<path d="M153.439 105.611C153.658 105.646 154.091 105.603 154.074 105.149C153.855 105.113 153.422 105.156 153.439 105.611Z" fill="#C8976B"/>
<path d="M155.61 136.184C155.412 136.115 155.055 136.157 155.205 136.877C155.56 137.001 155.717 136.834 155.752 136.734L155.61 136.184Z" fill="#C8976B"/>
<path d="M149.879 136.928C150.31 136.8 150.649 136.62 150.136 136.183C149.722 136.261 149.51 136.555 149.879 136.928Z" fill="#C8976B"/>
<path d="M157.665 142.247C157.83 142.249 158.161 142.154 158.166 141.755C157.903 141.718 157.433 141.765 157.665 142.247Z" fill="#C8976B"/>
<path d="M160.281 135.146C160.547 135.016 160.952 134.645 160.442 134.2C160.39 134.349 160.185 134.945 160.281 135.146Z" fill="#C8976B"/>
<path d="M150.853 132.182C151.052 132.084 151.383 131.799 151.11 131.436C150.911 131.534 150.58 131.819 150.853 132.182Z" fill="#C8976B"/>
<path d="M154.795 121.748C154.841 121.954 155.065 122.237 155.594 121.729C155.511 121.36 155.286 121.314 155.185 121.337L154.795 121.748Z" fill="#9D7550"/>
<path d="M158.446 126.257C158.111 125.956 157.78 125.762 157.682 126.431C157.966 126.744 158.327 126.77 158.446 126.257Z" fill="#9D7550"/>
<path d="M158.827 116.792C158.741 116.65 158.486 116.416 158.146 116.623C158.254 116.868 158.542 117.245 158.827 116.792Z" fill="#9D7550"/>
<path d="M151.454 118.301C151.204 118.142 150.678 117.992 150.571 118.663C150.724 118.628 151.335 118.489 151.454 118.301Z" fill="#9D7550"/>
<path d="M153.927 127.928C153.74 127.809 153.325 127.677 153.163 128.102C153.35 128.221 153.765 128.353 153.927 127.928Z" fill="#9D7550"/>
<path d="M143.855 129.949C144.055 129.888 144.319 129.641 143.775 129.149C143.415 129.26 143.387 129.489 143.418 129.59L143.855 129.949Z" fill="#C8976B"/>
<path d="M148.041 125.938C147.768 126.298 147.601 126.645 148.271 126.692C148.559 126.383 148.558 126.019 148.041 125.938Z" fill="#C8976B"/>
<path d="M138.638 126.282C138.503 126.378 138.292 126.653 138.522 126.978C138.757 126.85 139.108 126.533 138.638 126.282Z" fill="#C8976B"/>
<path d="M140.697 133.567C140.559 133.83 140.45 134.37 141.123 134.425C141.077 134.275 140.893 133.671 140.697 133.567Z" fill="#C8976B"/>
<path d="M150.042 130.346C149.938 130.544 149.839 130.97 150.272 131.1C150.376 130.903 150.475 130.477 150.042 130.346Z" fill="#C8976B"/>
<path d="M137.9 129.003C138.1 128.941 138.364 128.694 137.82 128.202C137.461 128.314 137.432 128.542 137.463 128.643L137.9 129.003Z" fill="#AD835C"/>
<path d="M142.086 124.992C141.813 125.351 141.646 125.699 142.316 125.746C142.604 125.437 142.603 125.073 142.086 124.992Z" fill="#AD835C"/>
<path d="M132.683 125.335C132.549 125.432 132.337 125.706 132.567 126.031C132.802 125.904 133.153 125.586 132.683 125.335Z" fill="#AD835C"/>
<path d="M134.742 132.62C134.604 132.883 134.495 133.423 135.168 133.479C135.122 133.328 134.938 132.725 134.742 132.62Z" fill="#AD835C"/>
<path d="M144.087 129.4C143.983 129.597 143.884 130.024 144.317 130.154C144.421 129.957 144.52 129.53 144.087 129.4Z" fill="#AD835C"/>
<path d="M129.625 127.853C129.416 127.85 129.089 128.003 129.456 128.64C129.832 128.646 129.929 128.437 129.931 128.332L129.625 127.853Z" fill="#C8976B"/>
<path d="M124.415 130.371C124.784 130.113 125.05 129.835 124.427 129.582C124.058 129.787 123.948 130.133 124.415 130.371Z" fill="#C8976B"/>
<path d="M133.465 132.961C133.623 132.911 133.908 132.716 133.788 132.335C133.526 132.384 133.095 132.577 133.465 132.961Z" fill="#C8976B"/>
<path d="M133.736 125.392C133.949 125.185 134.217 124.705 133.594 124.443C133.592 124.601 133.582 125.232 133.736 125.392Z" fill="#C8976B"/>
<path d="M123.861 125.556C124.02 125.401 124.245 125.026 123.872 124.768C123.713 124.923 123.488 125.298 123.861 125.556Z" fill="#C8976B"/>
<path d="M119.453 125.854C119.613 125.989 119.963 126.075 120.074 125.348C119.784 125.106 119.579 125.208 119.512 125.288L119.453 125.854Z" fill="#C8976B"/>
<path d="M125.079 127.183C124.63 127.15 124.25 127.199 124.578 127.79C124.993 127.863 125.294 127.662 125.079 127.183Z" fill="#C8976B"/>
<path d="M119.642 119.451C119.488 119.39 119.145 119.362 119.001 119.734C119.235 119.862 119.691 119.984 119.642 119.451Z" fill="#C8976B"/>
<path d="M114.716 125.176C114.422 125.203 113.914 125.407 114.236 126.005C114.336 125.883 114.737 125.398 114.716 125.176Z" fill="#C8976B"/>
<path d="M122.512 131.283C122.291 131.303 121.882 131.454 122.011 131.89C122.232 131.869 122.641 131.719 122.512 131.283Z" fill="#C8976B"/>
<path d="M116.794 111.989L115.854 108.991C120.941 103.716 127.023 102.775 131.994 103.889C139.39 105.109 142.493 110.323 143.12 112.777C143.59 113.251 143.339 114.45 142.336 114.197C123.407 123.789 117.055 116.774 116.794 111.989Z" fill="#BB8D79"/>
<path d="M138.732 114.04C128.119 118.404 122.497 115.303 119.144 111.995C119.092 111.83 119.019 111.406 119.144 111.034C125.959 104.396 135.442 105.039 140.143 111.034L139.672 112.146L139.516 113.251L138.732 114.04Z" fill="white"/>
<path d="M119.144 111.034C119.019 111.406 119.092 111.83 119.144 111.995C120.238 113.074 121.572 114.131 123.243 114.914C121.495 112.146 122.556 109.837 122.905 108.991C128.547 105.962 134.875 108.202 137.177 109.464C137.501 110.924 137.537 112.995 136.382 114.914C137.137 114.664 137.92 114.374 138.732 114.04L139.516 113.251L139.672 112.146L140.143 111.034C139.175 109.799 138.004 108.792 136.695 108.028C131.649 105.083 124.556 105.763 119.144 111.034Z" fill="#D3D2D2"/>
<path d="M138.732 114.04L140.456 114.197C143.276 114.355 143.903 113.566 142.963 112.62L139.829 110.727C139.934 111.41 139.61 113.282 138.732 114.04Z" fill="#BB8D7A"/>
<path d="M141.553 107.729C137.27 105.047 125.412 99.6829 116.324 108.518C118.988 103.785 130.427 99.5251 141.553 107.729Z" fill="#AE826F"/>
<path d="M135.255 110.727C135.255 113.39 132.977 115.591 130.114 115.591C127.25 115.591 124.972 113.39 124.972 110.727C124.972 108.064 127.25 105.863 130.114 105.863C132.977 105.863 135.255 108.064 135.255 110.727Z" fill="url(#paint0_linear_1445_177)" stroke="#261C1C"/>
<ellipse rx="2.19383" ry="2.20873" transform="matrix(-1 0 0 1 130.114 110.727)" fill="black"/>
<path d="M132.307 108.9C132.307 109.46 131.325 108.9 130.114 108.9C128.902 108.9 127.92 109.46 127.92 108.9C127.92 108.34 128.902 107.887 130.114 107.887C131.325 107.887 132.307 108.34 132.307 108.9Z" fill="#D9D9D9"/>
<path d="M138.732 114.04C137.854 114.42 136.997 114.811 135.755 115.144C124.439 118.942 120.128 114.794 119.086 112.304C118.96 111.799 118.876 110.693 119.552 110.313C119.928 110.093 120.448 109.811 120.978 109.521C121.219 109.363 121.454 109.229 121.652 109.149C121.432 109.272 121.204 109.397 120.978 109.521C120.455 109.864 119.9 110.317 119.615 110.569C119.406 111.079 119.521 112.467 121.652 113.937C125.105 115.93 129.413 116.18 132.392 115.514C132.696 115.43 133.039 115.336 133.404 115.236C135.713 114.602 138.939 113.724 139.046 113.724L138.732 114.04Z" fill="#CFA492"/>
<path d="M127.92 116.722C122.279 116.188 119.145 114.197 119.145 110.727C118.204 113.093 120.242 117.037 127.92 116.722Z" fill="#735541"/>
<path d="M116.951 109.237C116.449 109.363 114.913 109.007 114.207 108.812C114.588 109.064 115.356 109.6 116.637 109.726C115.685 109.663 114.6 109.568 114.064 109.095C114.242 109.41 115.728 110.726 117.107 110.726C116.614 110.839 114.662 110.17 113.938 109.342C114.033 109.62 114.536 110.251 115.203 110.706C114.706 110.469 114.172 110.177 113.695 109.884C114.061 110.231 114.941 110.82 115.996 111.112C116.14 111.16 116.286 111.195 116.433 111.213C117.377 111.387 118.417 111.287 119.336 110.569C129.522 103.311 137.949 109.149 141.24 111.831C135.285 103.311 125.726 104.204 120.555 105.96L121.182 105.836C120.828 105.929 120.114 106.12 120.085 106.131L121.338 105.993C121.088 106.12 120.294 106.176 119.928 106.189L120.711 106.309L119.503 106.351C119.704 106.551 120.545 106.471 120.555 106.467C120.304 106.593 119.499 106.519 119.206 106.467C119.256 106.593 119.854 106.695 120.147 106.73C120.071 106.814 119.317 106.657 118.95 106.569C119.045 106.776 119.642 106.903 119.928 106.94C119.677 106.94 118.907 106.8 118.553 106.73C118.744 106.993 119.746 107.255 119.771 107.256C119.27 107.256 118.622 106.958 118.361 106.809C118.361 106.956 119.197 107.273 119.615 107.413C119.238 107.413 118.413 107.098 118.048 106.94C118.02 107.044 118.704 107.5 119.301 107.571C118.594 107.571 117.618 107.098 117.577 107.098C117.615 107.28 118.497 107.723 118.988 107.729C118.62 107.852 117.623 107.517 117.172 107.365L117.142 107.356C117.107 107.344 117.967 107.887 118.674 107.887C118.204 108.044 117.014 107.56 116.794 107.502C116.951 107.66 117.421 107.975 118.361 108.133C117.609 108.133 116.689 107.799 116.481 107.711C116.355 107.878 117.525 108.325 118.048 108.448C117.797 108.448 116.472 108.071 115.919 107.961C115.972 108.076 117.202 108.469 117.81 108.651C117.37 108.651 116.114 108.306 115.54 108.133C115.854 108.448 116.846 108.842 117.577 108.922C117.201 108.922 116.01 108.833 114.555 108.651C115.02 108.813 115.919 109.19 116.951 109.237Z" fill="#402E1C"/>
<path d="M196.869 108.044C186.715 98.5783 178.535 102.838 173.05 108.833L173.677 110.411L175.244 111.2C184.521 116.248 193.683 111.2 196.869 108.044Z" fill="white"/>
<path d="M173.677 110.411L173.05 108.833C174.155 107.626 175.369 106.489 176.686 105.52C178.3 104.333 180.069 103.399 181.982 102.898C185.196 102.056 188.817 102.435 192.795 104.887C194.114 105.701 195.473 106.743 196.869 108.044C195.824 108.938 192.361 110.477 191.609 110.856C192.663 109.529 192.391 106.846 192.011 105.362C188.349 104.205 182.688 102.77 177.207 106.809C176.498 107.729 176.341 110.856 178.378 112.146C177.898 111.937 175.725 111.461 175.244 111.2L173.677 110.411Z" fill="#D3D2D2"/>
<path d="M169.973 110.28L171.818 108.991L174.304 107.729C173.52 110.095 174.347 110.862 175.401 111.2C174.563 111.384 173.096 111.551 171.818 111.63C169.077 111.899 169.446 110.842 169.973 110.28Z" fill="#BB8D7A"/>
<path d="M199.69 106.782C195.459 102.102 184.02 95.2652 171.17 105.993C174.194 101.61 183.379 97.3199 192.168 101.104C193.247 101.568 194.319 102.154 195.374 102.876C199.011 105.07 199.816 106.36 199.69 106.782Z" fill="#AE826F"/>
<path d="M190.101 107.571C190.101 110.234 187.823 112.435 184.96 112.435C182.096 112.435 179.818 110.234 179.818 107.571C179.818 104.908 182.096 102.707 184.96 102.707C187.823 102.707 190.101 104.908 190.101 107.571Z" fill="url(#paint1_linear_1445_177)" stroke="#261C1C"/>
<ellipse cx="184.96" cy="107.571" rx="2.19383" ry="2.20873" fill="black"/>
<path d="M187.154 105.745C187.154 106.304 186.171 105.745 184.96 105.745C183.748 105.745 182.766 106.304 182.766 105.745C182.766 105.185 183.748 104.731 184.96 104.731C186.171 104.731 187.154 105.185 187.154 105.745Z" fill="#D9D9D9"/>
<path d="M175.244 111.2C183.393 115.933 191.646 112.409 194.362 110.569L196.869 108.044C189.097 112.462 185.43 114.04 175.244 111.2Z" fill="#CFA492"/>
<path d="M183.549 112.777C181.251 112.883 176.372 112.714 175.244 111.2C175.741 111.164 176.662 111.177 177.438 111.387C177.447 111.389 177.456 111.392 177.464 111.394C179.27 111.888 183.035 112.784 184.459 112.647L184.646 112.62C184.589 112.631 184.527 112.64 184.459 112.647L183.549 112.777Z" fill="#CFA492"/>
<path d="M181.512 113.408C190.288 113.882 194.675 110.253 197.182 107.886H197.653C197.036 108.754 195.334 110.672 194.083 111.403C190.856 113.614 185.735 114.716 181.512 113.408Z" fill="#735541"/>
<path d="M201.57 105.678C200.316 106.94 197.444 108.291 196.712 108.133C196.502 107.962 196.293 107.797 196.085 107.636C184.333 99.0517 177.751 106.309 173.834 108.044C173.99 107.256 175.034 105.836 179.097 103.311C183.996 100.446 189.836 100.8 195.066 102.667L194.439 102.543C194.792 102.637 195.506 102.827 195.536 102.838L194.282 102.701C194.533 102.827 195.327 102.884 195.692 102.897L194.909 103.017L196.118 103.059C195.916 103.258 195.075 103.179 195.066 103.174C195.316 103.301 196.121 103.227 196.414 103.174C196.365 103.301 195.767 103.402 195.474 103.437C195.549 103.522 196.303 103.365 196.67 103.276C196.575 103.484 195.979 103.61 195.692 103.648C195.943 103.648 196.714 103.508 197.068 103.437C196.876 103.701 195.874 103.963 195.849 103.963C196.351 103.963 196.998 103.665 197.259 103.517C197.259 103.664 196.424 103.981 196.006 104.121C196.382 104.121 197.207 103.806 197.573 103.648C197.6 103.751 196.916 104.207 196.319 104.279C197.027 104.279 198.002 103.806 198.043 103.806C198.005 103.988 197.123 104.431 196.633 104.437C197 104.56 197.998 104.225 198.449 104.073L198.478 104.063C198.513 104.052 197.653 104.594 196.946 104.594C197.416 104.752 198.606 104.268 198.826 104.209C198.67 104.367 198.2 104.683 197.259 104.841C198.012 104.841 198.931 104.506 199.14 104.418C199.265 104.585 198.095 105.032 197.573 105.156C197.824 105.156 199.148 104.778 199.701 104.669C199.648 104.783 198.418 105.176 197.81 105.359C198.25 105.359 199.507 105.013 200.08 104.841C199.767 105.156 198.07 106.002 197.339 106.082C197.715 106.082 199.61 105.541 201.065 105.359C200.6 105.521 198.997 106.35 197.966 106.397C198.467 106.524 200.708 105.714 201.413 105.52C201.226 105.811 199.22 106.625 198.436 106.782C199.063 106.909 201.152 105.941 201.57 105.678Z" fill="#402E1C"/>
<path d="M185.137 89.8244C195.323 86.038 201.361 87.5105 207.054 89.8244C199.658 84.5883 196.451 83.2764 194.988 83.1172C192.066 82.3219 186.864 82.8545 180.729 84.6627C180.385 84.7632 179.854 85.4623 179.632 85.7992C179.506 85.673 179.997 85.082 180.258 84.8023C179.882 84.9139 178.639 86.1791 178.065 86.7977C177.814 86.4606 179.005 85.4531 179.632 84.9914C178.629 85.2913 177.333 86.6015 176.811 87.2191C176.56 87.0929 177.02 86.175 177.281 85.7317C176.404 86.6874 175.604 88.0681 175.314 88.639C175.12 88.5128 175.631 86.9512 175.911 86.1861C175.817 86.117 175.009 87.7926 174.617 88.639C174.492 88.5128 175.192 87.0312 175.557 86.3062C175.491 86.3285 175.408 86.4054 175.314 86.5221C174.871 87.0708 174.178 88.4992 173.834 89.2701C173.834 88.5336 174.565 87.1312 174.931 86.5221C174.554 86.6519 173.416 88.6186 172.893 89.5856C172.517 89.3946 173.572 87.6474 174.147 86.7977C173.207 87.1277 171.953 90.0834 171.953 90.3745C171.828 90.0099 172.528 88.142 172.893 87.2535C172.392 87.4378 171.222 90.1472 170.7 91.4788C170.449 90.8478 171.535 88.5962 172.11 87.5493C171.409 87.8135 170.251 90.5946 169.759 91.9521C169.885 90.0589 170.961 88.3909 171.483 87.7936C171.323 87.8571 171.166 87.9214 171.013 87.9866C169.634 88.8529 169.185 90.9913 169.133 91.9521C168.882 91.1949 169.372 89.4279 169.649 88.639C169.184 89.0177 168.798 91.2159 168.662 92.2677C168.412 91.889 168.512 90.1115 168.594 89.2701C168.038 89.9012 168.063 92.0573 168.145 93.0565C167.606 91.0371 167.921 89.9012 168.145 89.5856C167.481 90.0905 167.482 92.3203 167.566 93.372C167.315 92.4885 167.357 90.8831 167.409 90.1908C167.179 90.4009 166.97 90.6142 166.782 90.8302C166.531 91.4471 166.678 92.9922 166.782 93.6876C166.406 93.3089 166.365 91.9521 166.392 91.3211C166.261 92.0047 165.654 93.3405 166.155 94.4764C165.849 94.1375 165.706 93.5299 165.706 92.5482C165.12 93.9873 165.233 95.4557 165.706 96.7662C165.597 96.2 165.751 95.2141 165.842 94.7919C165.79 95.3825 165.779 96.623 166.155 96.861C166.104 96.2765 166.079 95.0444 166.392 94.7919C166.372 95.5001 166.424 96.9169 166.782 96.9188C166.782 96.3676 166.813 95.1075 166.939 94.4764C166.979 95.2947 167.111 96.9288 167.313 96.9188C167.24 96.1573 167.189 94.5395 167.566 94.1609C167.409 94.6165 167.221 95.8012 167.722 96.8953C167.722 96.7662 167.722 95.1075 168.349 94.4764C168.168 95.0143 167.86 96.2444 168.077 96.861C168.22 96.3817 168.631 95.3283 169.133 94.9497C168.871 95.3073 168.349 96.1835 168.349 96.8272C168.351 96.7662 168.819 95.5808 169.916 95.2652C169.55 95.4868 168.788 96.1001 168.662 96.7808C168.924 96.5912 169.603 96.1487 170.229 95.8963L169.446 96.6351C179.632 91.9521 177.81 92.5482 185.137 89.8244Z" fill="#735541"/>
<path d="M108.959 97.6317C107.83 87.6609 117.577 87.7976 122.592 89.1123C123.942 89.3345 125.193 89.5612 126.353 89.7921C128.108 90.1218 129.382 91.1591 129.8 91.6366C129.675 91.1318 129.121 90.5552 128.86 90.33C129.957 90.7588 130.897 92.2677 131.054 92.4254C131.054 91.6972 130.427 90.9271 130.114 90.633C130.74 90.787 131.524 91.9447 131.837 92.2677C131.887 92.0808 131.544 91.1634 131.367 90.9648C131.81 91.0851 132.388 91.8835 132.621 92.2677C132.621 91.889 132.307 91.3911 132.151 91.1894C132.459 91.2793 133.011 92.4716 133.248 93.0565C133.373 92.6779 132.986 91.7813 132.778 91.3804C133.279 91.6803 133.689 92.8089 133.831 93.3358C134.043 92.8544 133.742 92.0024 133.565 91.6366C134.04 91.9521 134.188 93.0565 134.188 93.3358C134.439 93.0264 134.397 92.257 134.345 91.911C134.543 91.9827 134.636 93.0201 134.658 93.5298C134.909 93.2774 134.762 92.4234 134.658 92.028C134.909 92.1216 135.076 93.4889 135.128 94.1609C135.379 93.9085 135.163 92.7284 135.023 92.17C135.702 92.7033 135.642 94.6342 135.642 94.7919C135.928 94.2871 135.761 93.0039 135.642 92.4254C135.928 92.5454 136.15 94.0531 136.225 94.7919C136.405 94.2147 136.15 93.079 136 92.5832C136.322 92.8356 136.597 94.2661 136.695 94.9497C136.82 94.0662 136.511 93.1091 136.341 92.741C136.926 93.0076 137.322 95.2652 137.322 95.423C137.696 94.6706 137.069 93.3546 136.856 92.9073L136.852 92.8987C136.959 92.9572 137.22 93.1555 137.322 93.2143C137.573 93.3549 137.897 94.891 137.949 95.5808C138.139 94.8235 137.794 93.5469 137.635 93.16C137.993 93.3672 138.332 95.175 138.419 95.8963C138.544 95.2652 138.186 93.8708 138.029 93.4091C138.28 93.4371 138.732 95.2885 138.889 96.0541C139.14 95.6754 138.604 94.1718 138.343 93.624C138.71 93.8739 139.66 96.4188 139.672 96.5274C139.672 96.275 139.179 94.7075 138.97 94.1121C139.072 94.1976 139.819 95.8624 140.143 96.5274C140.268 96.2142 139.654 94.9265 139.37 94.4785C140.616 95.7067 141.064 97.2918 141.239 98.5783C141.083 98.0761 140.644 97.0409 140.143 96.9188C140.456 97.2905 141.051 98.1515 140.926 98.6217C140.714 98.2138 140.197 97.3501 139.829 97.1584C140.087 97.4676 140.618 98.1982 140.685 98.6476C140.4 98.2038 139.547 97.0007 139.046 97.0007C139.411 97.2693 140.331 98.2309 140.456 98.6658C139.986 98.2685 138.952 97.0007 138.576 97.0007C138.958 97.2256 139.819 98.2549 140.204 98.6791C139.661 98.3826 138.638 97.3162 138.262 97.3162C138.784 97.5469 139.704 98.5227 139.829 98.6877C139.626 98.6889 139.417 98.6851 139.202 98.6765C139.158 98.6268 138.808 98.1979 138.16 97.7656C138.438 98.0113 138.732 98.4967 138.732 98.6507C138.576 98.574 138.168 97.9473 137.792 97.9473C138.419 98.3458 138.322 98.5519 138.262 98.6123C138.053 98.4432 137.51 98.0735 137.009 97.9473C137.361 98.1212 138.039 98.4909 137.929 98.5783C137.57 98.368 136.758 97.9473 136.382 97.9473C136.747 98.0937 137.416 98.4057 137.165 98.4824C137.061 98.4092 136.789 98.2628 136.538 98.2628C136.637 98.2948 136.816 98.3711 136.748 98.4206C135.823 98.2769 134.843 98.0817 133.831 97.8502C133.323 97.3567 132.119 96.3696 131.367 96.3696C131.994 96.7398 133.248 97.5269 133.248 97.7137C127.09 96.2407 119.955 93.564 117.107 93.0565C112.619 92.2568 110.265 95.6334 108.959 97.6317Z" fill="#735541"/>
<path d="M221.628 95.7386C226.517 92.5833 227.635 80.6456 227.583 75.0712L239.179 87.5348C249.364 100.472 250.879 119.246 253.282 129.816C255.538 131.331 255.685 151.167 255.476 160.896C258.359 164.304 258.244 173.149 257.826 177.146C261.838 188.127 256.781 192.45 253.752 193.238C242.595 194.501 235 204.808 232.597 209.804L236.358 199.391L237.298 197.183C237.8 196.173 243.462 193.081 246.23 191.661C255.131 189.389 251.297 179.145 248.267 174.306C244.381 185.918 226.172 198.497 217.71 202.547C212.069 195.763 208.935 191.661 209.718 182.352C217.867 172.886 219.591 164.052 222.881 141.018C234.164 143.542 234.477 121.139 239.649 114.04C236.891 115.049 232.388 114.46 230.717 114.04C225.577 113.03 222.516 101.418 221.628 95.7386Z" fill="#634937"/>
<path d="M107.862 70.8115C105.459 75.0186 100.622 84.4426 100.497 87.2192C99.3589 89.0166 98.0085 91.0693 96.5442 93.2952C87.7261 106.699 74.7777 126.382 79.1855 134.391C79.5668 135.275 79.3444 136.442 79.1855 136.916C78.786 138.055 77.648 140.007 76.0834 142.397C74.5367 145.502 73.0737 149.08 72.0085 152.85C71.1102 156.03 70.4948 159.347 70.3507 162.632C70.0037 170.538 72.3867 178.263 80.1255 183.457C78.8197 186.086 76.0826 192.765 75.5812 198.445C72.6002 202.545 68.2468 209.069 64.9921 215.168C61.8593 221.038 59.7444 226.513 60.8511 229.051C61.6869 229.157 64.6433 230.314 69.7832 234.1L86.0802 228.263C90.05 227.737 98.6165 218.954 103.318 212.17C112.093 207.122 129.675 196.362 129.8 193.081C124.629 188.979 114.412 175.695 111.779 158.53C104.728 137.389 105.981 130.132 105.668 124.61C105.355 119.088 105.668 109.622 106.452 99.3673C106.608 90.6901 106.734 73.0834 107.862 70.8115Z" fill="#634937"/>
<path d="M80.4384 87.3769C74.7977 96.3696 82.0061 106.467 102.376 80.1197L107.392 71.127C122.937 61.0299 151.686 64.8163 164.118 67.9717C175.401 71.0008 188.668 78.1739 193.892 81.3818C204.923 90.0905 213.427 94.8972 216.3 96.2119C226.078 99.4934 226.956 85.326 227.896 78.0687C228.899 77.9425 235.731 84.432 239.022 87.6925C239.398 87.0614 239.179 85.0105 239.022 84.0639C240.025 84.0639 239.753 78.2791 239.492 75.3867C240.244 73.4935 238.656 68.8131 237.768 66.7095C237.894 65.9522 236.985 63.0283 236.515 61.661C237.141 59.3892 234.895 52.5105 233.694 49.3552L225.075 26.3213C224.95 24.3019 217.293 17.6967 213.479 14.6466C211.85 11.7437 204.547 8.8092 201.1 7.70483C200.473 6.4427 193.944 5.81163 190.758 5.65387L186.37 3.6029C184.489 1.83592 179.632 2.02523 177.438 2.34075C171.922 -1.57186 165.424 0.289802 162.865 1.70971C160.357 1.55194 155.5 2.65632 155.186 2.65632C148.761 0.28982 143.59 8.02038 143.277 8.65145C140.519 9.1563 137.74 10.5446 136.695 11.1757C135.066 10.2922 129.957 12.5956 127.606 13.8577C124.159 14.9621 120.241 19.064 119.771 19.5373C118.142 21.6829 114.391 24.6384 112.72 25.848C107.956 27.615 105.616 31.8431 105.041 33.7363C100.027 38.0276 97.4151 58.6634 96.7361 68.445C87.9608 75.2605 82.2145 83.9061 80.4384 87.3769Z" fill="#292929"/>
<path fill-rule="evenodd" clip-rule="evenodd" d="M97.3778 61.5032C97.0844 64.1056 96.8717 66.4917 96.7361 68.445C97.9898 66.8042 100.601 64.606 101.75 63.712C100.873 62.1974 107.235 53.2994 110.526 49.0397C106.138 48.1562 99.9323 56.9806 97.3778 61.5032ZM233.694 49.3552L225.075 32.4742L222.881 48.2508L225.075 55.1926C226.329 56.8333 227.478 59.9782 227.896 61.3455C230.027 63.6173 228.784 68.7079 227.896 70.9692C229.15 72.7362 228.836 74.1246 228.523 74.5979C227.771 75.3551 227.792 77.2273 227.896 78.0687C228.275 78.021 229.489 78.9201 231.03 80.2331C233.562 82.3906 236.976 85.6655 239.022 87.6925C239.398 87.0614 239.179 85.0104 239.022 84.0638C240.025 84.0638 239.753 78.2791 239.492 75.3867C240.244 73.4935 238.656 68.8131 237.768 66.7095C237.894 65.9522 236.985 63.0283 236.515 61.661C237.141 59.3892 234.895 52.5105 233.694 49.3552ZM217.867 48.2508C208.778 40.678 193.014 24.9329 202.667 22.5349C207.316 22.1142 217.24 21.7776 219.747 23.797C221.396 29.8555 220.061 33.7922 218.809 37.4858C217.681 40.8135 216.619 43.9439 217.867 48.2508ZM160.044 37.3649C165.842 30.0025 182.797 20.4208 204.234 40.9936C202.98 41.4143 199.157 41.2776 193.892 37.3649C186.37 35.1562 169.07 32.064 160.044 37.3649Z" fill="#1D1D1D"/>
<path d="M103.161 79.9619L107.862 70.8115C98.9297 73.9191 80.9717 83.7614 82.476 97.008C85.7457 96.7737 91.6579 93.2923 99.2432 84.5878C100.504 83.1407 101.812 81.7069 103.161 79.9619Z" fill="#1D1D1D"/>
<path d="M212.852 61.661L228.523 74.5979C228.523 70.0897 218.285 63.569 213.166 60.8722C211.599 57.7168 189.974 49.3552 188.877 49.3552C184.865 47.0939 170.7 45.0473 164.118 44.3067C158.226 42.9924 145.053 43.7591 139.202 44.3067C126.039 45.064 117.003 50.5122 114.13 53.1416C123.067 47.5882 134.569 45.5688 139.202 45.2533C143.465 44.2436 157.589 44.8326 164.118 45.2533C171.389 45.1271 183.654 48.6716 188.877 50.4596C195.647 52.2266 207.681 58.6634 212.852 61.661Z" fill="#1D1D1D"/>
<path d="M225.075 55.1926L222.881 48.2508L225.075 32.4742L219.747 23.797C221.396 29.8555 220.061 33.7922 218.809 37.4858C217.681 40.8135 216.619 43.9439 217.867 48.2508C221.879 49.8916 224.344 53.5623 225.075 55.1926Z" fill="#1D1D1D"/>
<path d="M103.161 79.9619C101.812 81.7069 100.504 83.1407 99.2432 84.5878C99.6556 85.194 100.497 86.7459 100.497 87.2192C100.902 85.7902 101.998 82.2256 103.161 79.9619Z" fill="#1D1D1D"/>
<defs>
<filter id="filter0_f_1445_177" x="169.023" y="98.2073" width="56.304" height="61.5073" filterUnits="userSpaceOnUse" color-interpolation-filters="sRGB">
<feFlood flood-opacity="0" result="BackgroundImageFix"/>
<feBlend mode="normal" in="SourceGraphic" in2="BackgroundImageFix" result="shape"/>
<feGaussianBlur stdDeviation="2" result="effect1_foregroundBlur_1445_177"/>
</filter>
<filter id="filter1_f_1445_177" x="101.511" y="114.773" width="44.0059" height="52.2742" filterUnits="userSpaceOnUse" color-interpolation-filters="sRGB">
<feFlood flood-opacity="0" result="BackgroundImageFix"/>
<feBlend mode="normal" in="SourceGraphic" in2="BackgroundImageFix" result="shape"/>
<feGaussianBlur stdDeviation="2" result="effect1_foregroundBlur_1445_177"/>
</filter>
<linearGradient id="paint0_linear_1445_177" x1="130.114" y1="105.363" x2="130.114" y2="116.091" gradientUnits="userSpaceOnUse">
<stop offset="0.239583" stop-color="#0E0908"/>
<stop offset="0.59375" stop-color="#513A18"/>
<stop offset="1" stop-color="#64582E"/>
</linearGradient>
<linearGradient id="paint1_linear_1445_177" x1="184.96" y1="102.207" x2="184.96" y2="112.935" gradientUnits="userSpaceOnUse">
<stop offset="0.239583" stop-color="#0E0908"/>
<stop offset="0.59375" stop-color="#513A18"/>
<stop offset="1" stop-color="#64582E"/>
</linearGradient>
</defs>
</svg>
