<svg width="24" height="28" viewBox="0 0 24 28" fill="none" xmlns="http://www.w3.org/2000/svg">
<g clip-path="url(#clip0_253_322)">
<path d="M11.9988 7.58694C8.59353 7.58694 5.84685 10.3342 5.84685 13.7402C5.84685 17.1462 8.59353 19.8935 11.9988 19.8935C15.404 19.8935 18.1507 17.1462 18.1507 13.7402C18.1507 10.3342 15.404 7.58694 11.9988 7.58694ZM11.9988 17.7407C9.79821 17.7407 7.99922 15.9466 7.99922 13.7402C7.99922 11.5338 9.79286 9.73979 11.9988 9.73979C14.2047 9.73979 15.9983 11.5338 15.9983 13.7402C15.9983 15.9466 14.1993 17.7407 11.9988 17.7407ZM19.8373 7.33524C19.8373 8.13318 19.1948 8.77047 18.4023 8.77047C17.6046 8.77047 16.9674 8.12783 16.9674 7.33524C16.9674 6.54264 17.6099 5.9 18.4023 5.9C19.1948 5.9 19.8373 6.54264 19.8373 7.33524ZM23.9118 8.79189C23.8207 6.86932 23.3817 5.16632 21.9736 3.76322C20.5708 2.36012 18.8682 1.92098 16.946 1.82458C14.965 1.71212 9.02722 1.71212 7.04618 1.82458C5.12939 1.91562 3.42677 2.35476 2.01863 3.75786C0.610483 5.16096 0.176796 6.86397 0.0804217 8.78654C-0.0320156 10.768 -0.0320156 16.7071 0.0804217 18.6886C0.171442 20.6111 0.610483 22.3141 2.01863 23.7173C3.42677 25.1204 5.12404 25.5595 7.04618 25.6559C9.02722 25.7684 14.965 25.7684 16.946 25.6559C18.8682 25.5648 20.5708 25.1257 21.9736 23.7173C23.3764 22.3141 23.8154 20.6111 23.9118 18.6886C24.0242 16.7071 24.0242 10.7734 23.9118 8.79189ZM21.3525 20.8147C20.9349 21.8643 20.1264 22.673 19.0716 23.096C17.4921 23.7226 13.7442 23.578 11.9988 23.578C10.2533 23.578 6.50005 23.7173 4.92593 23.096C3.87652 22.6783 3.06804 21.8697 2.64506 20.8147C2.01863 19.2348 2.16319 15.4861 2.16319 13.7402C2.16319 11.9944 2.02398 8.24029 2.64506 6.66582C3.06269 5.61617 3.87116 4.80751 4.92593 4.38444C6.50541 3.75786 10.2533 3.90246 11.9988 3.90246C13.7442 3.90246 17.4975 3.76322 19.0716 4.38444C20.121 4.80216 20.9295 5.61081 21.3525 6.66582C21.9789 8.24565 21.8344 11.9944 21.8344 13.7402C21.8344 15.4861 21.9789 19.2402 21.3525 20.8147Z" fill="#343434"/>
</g>
<defs>
<clipPath id="clip0_253_322">
<rect width="24" height="28" fill="white"/>
</clipPath>
</defs>
</svg>
