<svg width="176" height="178" viewBox="0 0 176 178" fill="none" xmlns="http://www.w3.org/2000/svg">
<path d="M137.594 131.362L129.109 122.57L125.054 133.293L130.203 137.055C138.519 136.451 138.595 133.008 137.594 131.362Z" fill="#C3B23B"/>
<path d="M135.775 131.278L128.06 122.773L125.649 133.244L130.027 136.719C138.343 136.114 136.777 132.924 135.775 131.278Z" fill="#3F0805"/>
<path d="M135.295 27.9975C128.615 30.8713 123.793 41.6913 121.833 47.8024C100.808 69.4433 56.1412 113.99 45.67 119.051C35.1987 124.112 22.5086 120.498 17.4724 118.058C19.5449 120.305 22.3747 126.833 23.5306 129.815C25.1487 135.558 32.3403 140.618 35.7338 142.43C57.667 156.216 76.1828 140.887 79.7569 129.311C79.7954 133.562 81.9316 137.68 76.8909 144.535C70.6673 152.998 82.6833 153.032 86.0568 152.85C91.6908 155.289 98.6668 153.241 101.451 151.912C108.577 151.665 114.741 147.703 116.843 145.297C141.73 119.636 129.891 107.618 119.386 104.533C121.22 104.999 124.382 105.83 129.431 107.208C133.929 108.985 143.232 105.633 147.322 103.735C154.138 102.538 158.379 95.8583 159.648 92.6679C164.137 91.481 163.282 87.0732 164.89 86.4454C166.177 85.9432 167.47 81.6336 167.955 79.5416C170.821 69.0172 165.868 61.4933 163.033 59.0469C158.963 58.8275 158.847 63.9601 159.298 66.5539C152.784 72.7166 147.556 76.5995 143.475 78.8781C149.624 73.8619 150.651 63.0215 150.141 56.6601C151.734 35.6892 141.174 27.4872 140.441 28.5757C139.855 29.4466 136.364 28.1053 135.295 27.9975Z" fill="#E3FF94"/>
<path d="M135.295 27.9975C128.615 30.8713 123.793 41.6913 121.833 47.8024C125.593 47.0725 130.307 51.2045 132.194 53.3617L135.942 49.1643C141.124 49.9249 146.556 63.8561 148.623 70.7267C150.2 65.9094 150.447 60.4781 150.141 56.6601C151.734 35.6892 141.174 27.4872 140.441 28.5757C139.855 29.4466 136.364 28.1053 135.295 27.9975Z" fill="#EB772C"/>
<path d="M159.298 66.5539C145.873 79.2541 137.911 82.2718 134.199 81.5203C138.655 82.8633 148.677 84.2933 153.113 79.2682C153.424 79.7862 154.035 82.5591 153.999 89.5058C155.725 89.7492 159.27 90.7224 159.648 92.6679C164.137 91.481 163.282 87.0732 164.89 86.4454C166.177 85.9432 167.47 81.6336 167.955 79.5416C170.821 69.0172 165.868 61.4933 163.033 59.0469C158.963 58.8275 158.847 63.9601 159.298 66.5539Z" fill="#EB772C"/>
<path d="M23.5306 129.815C25.1487 135.558 32.3403 140.618 35.7338 142.43C39.875 145.033 43.8945 146.598 47.7145 147.346L58.3497 125.137C57.403 125.447 54.4527 124.559 53.096 124.076L45.67 119.051C35.1987 124.112 22.5086 120.498 17.4724 118.058C19.5449 120.305 22.3747 126.833 23.5306 129.815Z" fill="#EB772C"/>
<path d="M147.908 89.3335C148.982 87.7369 147.693 87.9557 146.914 88.2647C145.819 89.1081 147.14 89.43 147.937 89.4855L147.908 89.3335Z" fill="#E48131"/>
<path d="M139.902 91.0453C140.8 91.0812 142.329 91.3942 141.258 92.3593C140.138 92.2613 138.298 91.8613 139.902 91.0453Z" fill="#E48131"/>
<path d="M150.507 90.564C151.043 90.3547 152.089 90.2883 151.985 91.6965C151.349 91.6622 150.163 91.3877 150.507 90.564Z" fill="#E48131"/>
<path d="M142.821 94.7372C143.418 94.5688 144.597 94.487 144.544 95.5068C143.854 96.0086 142.545 96.5572 142.821 94.7372Z" fill="#E48131"/>
<path d="M143.618 98.841C144.152 98.8949 145.258 99.1851 145.399 99.9147C144.652 99.8493 143.25 99.5432 143.618 98.841Z" fill="#E48131"/>
<path d="M138.74 93.1636C138.743 92.5321 137.654 92.1651 137.109 92.0605L138.104 93.1293L138.946 94.2275C138.966 94.9807 139.578 95.0512 139.881 94.9924C140.272 94.4118 139.482 94.0183 139.039 93.8941L138.74 93.1636Z" fill="#E48131"/>
<path d="M137.7 95.1004L137.245 95.1887L137.211 95.8261L137.818 95.7084L137.7 95.1004Z" fill="#E48131"/>
<path d="M130.877 96.4248L130.119 96.572L130.237 97.1799L131.024 97.1848L131.268 96.8219L130.877 96.4248Z" fill="#E48131"/>
<path d="M130.65 99.3079C130.982 99.401 131.641 99.7147 131.614 100.225C131.089 100.221 130.161 100.034 130.65 99.3079Z" fill="#E48131"/>
<path d="M133.122 101.509C133.527 101.431 134.249 101.48 133.906 102.303C133.501 102.382 132.779 102.333 133.122 101.509Z" fill="#E48131"/>
<path d="M131.118 102.529C131.542 102.552 132.347 102.701 132.175 103.113C131.811 103.131 131.091 103.039 131.118 102.529Z" fill="#E48131"/>
<path d="M140.524 93.401C141.644 94.8621 141.788 93.567 141.72 92.7369C141.265 91.4597 140.639 92.639 140.383 93.3883L140.524 93.401Z" fill="#E48131"/>
<path d="M141.108 85.2652C140.842 86.1167 140.17 87.4978 139.603 86.2104C139.98 85.1631 140.81 83.5078 141.108 85.2652Z" fill="#E48131"/>
<path d="M138.768 95.5596C138.812 96.1301 138.598 97.151 137.39 96.6708C137.586 96.0705 138.135 95.0079 138.768 95.5596Z" fill="#E48131"/>
<path d="M137.111 87.0663C137.103 87.6836 136.868 88.8365 135.987 88.5095C135.727 87.7134 135.587 86.3102 137.111 87.0663Z" fill="#E48131"/>
<path d="M133.305 86.7216C133.119 87.2197 132.577 88.2006 131.9 88.1393C132.152 87.4411 132.785 86.18 133.305 86.7216Z" fill="#E48131"/>
<path d="M139.553 83.5794C140.106 83.7531 140.711 82.8088 140.945 82.3149L139.749 82.9791L138.567 83.49C137.901 83.3061 137.68 83.8732 137.653 84.1798C138.06 84.7111 138.61 84.0605 138.835 83.6688L139.553 83.5794Z" fill="#E48131"/>
<path d="M138.126 82.0596L138.167 81.5998L137.617 81.3955L137.562 82.0085L138.126 82.0596Z" fill="#E48131"/>
<path d="M138.741 75.1627L138.81 74.3963L138.246 74.3453L138.037 75.0988L138.291 75.4309L138.741 75.1627Z" fill="#E48131"/>
<path d="M136.273 74.1665C136.105 74.4603 135.658 75.007 135.218 74.8435C135.357 74.3411 135.764 73.5024 136.273 74.1665Z" fill="#E48131"/>
<path d="M133.699 75.942C133.663 76.3507 133.431 77.0301 132.799 76.4784C132.835 76.0697 133.066 75.3902 133.699 75.942Z" fill="#E48131"/>
<path d="M133.327 73.7452C133.196 74.1454 132.856 74.8768 132.54 74.6009C132.619 74.2476 132.887 73.5817 133.327 73.7452Z" fill="#E48131"/>
<path d="M140.524 93.401C141.644 94.8621 141.788 93.567 141.72 92.7369C141.265 91.4597 140.639 92.639 140.383 93.3883L140.524 93.401Z" fill="#E48131"/>
<path d="M141.108 85.2652C140.842 86.1167 140.17 87.4978 139.603 86.2104C139.98 85.1631 140.81 83.5078 141.108 85.2652Z" fill="#E48131"/>
<path d="M138.768 95.5596C138.812 96.1301 138.598 97.151 137.39 96.6708C137.586 96.0705 138.135 95.0079 138.768 95.5596Z" fill="#E48131"/>
<path d="M137.111 87.0663C137.103 87.6836 136.868 88.8365 135.987 88.5095C135.727 87.7134 135.587 86.3102 137.111 87.0663Z" fill="#E48131"/>
<path d="M133.305 86.7216C133.119 87.2197 132.577 88.2006 131.9 88.1393C132.152 87.4411 132.785 86.18 133.305 86.7216Z" fill="#E48131"/>
<path d="M139.553 83.5794C140.106 83.7531 140.711 82.8088 140.945 82.3149L139.749 82.9791L138.567 83.49C137.901 83.3061 137.68 83.8732 137.653 84.1798C138.06 84.7111 138.61 84.0605 138.835 83.6688L139.553 83.5794Z" fill="#E48131"/>
<path d="M138.126 82.0596L138.167 81.5998L137.617 81.3955L137.562 82.0085L138.126 82.0596Z" fill="#E48131"/>
<path d="M138.741 75.1627L138.81 74.3963L138.246 74.3453L138.037 75.0988L138.291 75.4309L138.741 75.1627Z" fill="#E48131"/>
<path d="M136.273 74.1665C136.105 74.4603 135.658 75.007 135.218 74.8435C135.357 74.3411 135.764 73.5024 136.273 74.1665Z" fill="#E48131"/>
<path d="M133.699 75.942C133.663 76.3507 133.431 77.0301 132.799 76.4784C132.835 76.0697 133.066 75.3902 133.699 75.942Z" fill="#E48131"/>
<path d="M133.327 73.7452C133.196 74.1454 132.856 74.8768 132.54 74.6009C132.619 74.2476 132.887 73.5817 133.327 73.7452Z" fill="#E48131"/>
<path d="M108.162 129.163C107.43 130.852 108.63 130.351 109.322 129.89C110.216 128.874 108.883 128.896 108.104 129.033L108.162 129.163Z" fill="#E48131"/>
<path d="M115.546 125.74C114.674 125.919 113.142 125.997 113.99 124.877C115.088 124.702 116.935 124.629 115.546 125.74Z" fill="#E48131"/>
<path d="M105.426 128.668C104.949 128.982 103.954 129.288 103.787 127.997C104.406 127.878 105.6 127.846 105.426 128.668Z" fill="#E48131"/>
<path d="M112.034 123.106C111.492 123.398 110.371 123.749 110.229 122.82C110.798 122.206 111.954 121.405 112.034 123.106Z" fill="#E48131"/>
<path d="M110.488 119.603C109.963 119.68 108.844 119.68 108.569 119.057C109.3 118.94 110.708 118.885 110.488 119.603Z" fill="#E48131"/>
<path d="M116.263 123.561C116.379 124.13 117.497 124.204 118.042 124.17L116.882 123.442L115.862 122.653C115.699 121.981 115.097 122.061 114.816 122.185C114.55 122.799 115.385 122.967 115.836 122.975L116.263 123.561Z" fill="#E48131"/>
<path d="M116.896 121.575L117.318 121.388L117.229 120.807L116.667 121.056L116.896 121.575Z" fill="#E48131"/>
<path d="M123.215 118.778L123.917 118.468L123.688 117.949L122.928 118.13L122.762 118.513L123.215 118.778Z" fill="#E48131"/>
<path d="M122.886 116.132C122.548 116.127 121.854 116 121.783 115.535C122.289 115.414 123.219 115.365 122.886 116.132Z" fill="#E48131"/>
<path d="M120.087 114.734C119.713 114.9 119.008 115.026 119.182 114.204C119.557 114.039 120.262 113.913 120.087 114.734Z" fill="#E48131"/>
<path d="M121.824 113.345C121.411 113.424 120.608 113.48 120.695 113.069C121.042 112.968 121.753 112.88 121.824 113.345Z" fill="#E48131"/>
<path d="M49.6374 140.523C48.9057 142.212 50.1059 141.712 50.7974 141.251C51.6916 140.235 50.3585 140.256 49.5801 140.394L49.6374 140.523Z" fill="#E48131"/>
<path d="M57.0215 137.1C56.1495 137.279 54.6177 137.358 55.466 136.238C56.5634 136.062 58.4108 135.989 57.0215 137.1Z" fill="#E48131"/>
<path d="M46.9015 140.028C46.4248 140.343 45.4298 140.648 45.2629 139.358C45.8818 139.239 47.0759 139.207 46.9015 140.028Z" fill="#E48131"/>
<path d="M53.5098 134.467C52.9673 134.759 51.8468 135.11 51.705 134.18C52.2734 133.566 53.4301 132.765 53.5098 134.467Z" fill="#E48131"/>
<path d="M51.9638 130.963C51.4385 131.041 50.3193 131.04 50.0444 130.417C50.776 130.3 52.1841 130.246 51.9638 130.963Z" fill="#E48131"/>
<path d="M57.7384 134.922C57.8551 135.49 58.973 135.564 59.5173 135.53L58.3573 134.803L57.3376 134.013C57.175 133.341 56.5728 133.421 56.292 133.546C56.0259 134.16 56.8609 134.328 57.3117 134.335L57.7384 134.922Z" fill="#E48131"/>
<path d="M58.3722 132.935L58.7934 132.749L58.7047 132.168L58.1431 132.416L58.3722 132.935Z" fill="#E48131"/>
<path d="M64.6903 130.139L65.3923 129.828L65.1633 129.309L64.404 129.49L64.2377 129.874L64.6903 130.139Z" fill="#E48131"/>
<path d="M64.3616 127.493C64.0236 127.487 63.3297 127.36 63.2588 126.895C63.765 126.774 64.6942 126.725 64.3616 127.493Z" fill="#E48131"/>
<path d="M61.563 126.095C61.1886 126.26 60.4834 126.386 60.6578 125.565C61.0322 125.399 61.7374 125.273 61.563 126.095Z" fill="#E48131"/>
<path d="M63.2996 124.706C62.887 124.785 62.0837 124.841 62.1709 124.43C62.5176 124.328 63.2287 124.241 63.2996 124.706Z" fill="#E48131"/>
<path d="M63.4996 126.703C63.5363 124.862 62.616 125.782 62.1512 126.472C61.7095 127.752 62.9341 127.225 63.6017 126.801L63.4996 126.703Z" fill="#E48131"/>
<path d="M57.9687 132.682C58.7071 132.184 60.094 131.529 59.7339 132.888C58.7857 133.468 57.1051 134.239 57.9687 132.682Z" fill="#E48131"/>
<path d="M66.2172 126.12C66.5388 125.647 67.3429 124.985 67.9865 126.117C67.4592 126.462 66.3672 126.947 66.2172 126.12Z" fill="#E48131"/>
<path d="M62.2139 133.782C62.605 133.306 63.508 132.554 63.9915 133.36C63.6984 134.145 62.9325 135.327 62.2139 133.782Z" fill="#E48131"/>
<path d="M64.9711 136.436C65.4275 136.164 66.4628 135.739 66.953 136.21C66.3208 136.597 65.0394 137.184 64.9711 136.436Z" fill="#E48131"/>
<path d="M58.1313 134.971C57.8079 134.489 56.7461 134.846 56.2557 135.085L57.6041 135.317L58.8461 135.659C59.2513 136.219 59.7777 135.916 59.9903 135.694C60.0036 135.024 59.1678 135.187 58.7482 135.351L58.1313 134.971Z" fill="#E48131"/>
<path d="M58.2981 137.051L57.9792 137.384L58.2814 137.888L58.7065 137.444L58.2981 137.051Z" fill="#E48131"/>
<path d="M53.5153 142.044L52.9839 142.599L53.3924 142.992L54.0259 142.535L54.0343 142.117L53.5153 142.044Z" fill="#E48131"/>
<path d="M54.8221 144.368C55.1367 144.244 55.8265 144.097 56.0683 144.501C55.6459 144.805 54.8054 145.204 54.8221 144.368Z" fill="#E48131"/>
<path d="M57.9397 144.596C58.2232 144.3 58.8275 143.915 58.9776 144.742C58.6942 145.037 58.0898 145.423 57.9397 144.596Z" fill="#E48131"/>
<path d="M56.8603 146.542C57.2118 146.312 57.9335 145.954 58.0085 146.368C57.7265 146.594 57.102 146.945 56.8603 146.542Z" fill="#E48131"/>
<path d="M128.37 75.0199C127.731 76.7459 128.902 76.1813 129.568 75.6833C130.406 74.6201 129.076 74.7138 128.306 74.8935L128.37 75.0199Z" fill="#E48131"/>
<path d="M135.558 71.2011C134.697 71.4273 133.172 71.5885 133.959 70.4242C135.045 70.1894 136.885 70.0162 135.558 71.2011Z" fill="#E48131"/>
<path d="M125.612 74.6738C125.153 75.0136 124.176 75.3731 123.939 74.093C124.551 73.9408 125.741 73.8439 125.612 74.6738Z" fill="#E48131"/>
<path d="M131.91 68.7619C131.384 69.0828 130.284 69.4942 130.092 68.5734C130.627 67.9299 131.738 67.0669 131.91 68.7619Z" fill="#E48131"/>
<path d="M130.177 65.3474C129.657 65.4532 128.539 65.5129 128.231 64.9059C128.955 64.7494 130.358 64.6186 130.177 65.3474Z" fill="#E48131"/>
<path d="M136.157 68.9869C136.304 69.5485 137.424 69.5617 137.966 69.4981L136.768 68.8347L135.707 68.1016C135.509 67.4389 134.912 67.5519 134.638 67.6912C134.406 68.3188 135.248 68.4414 135.699 68.4242L136.157 68.9869Z" fill="#E48131"/>
<path d="M136.682 66.9688L137.093 66.7598L136.973 66.1843L136.425 66.4629L136.682 66.9688Z" fill="#E48131"/>
<path d="M142.84 63.8338L143.524 63.4854L143.267 62.9796L142.519 63.2014L142.374 63.5937L142.84 63.8338Z" fill="#E48131"/>
<path d="M142.369 61.2091C142.031 61.222 141.331 61.1326 141.235 60.6722C141.734 60.5243 142.659 60.4246 142.369 61.2091Z" fill="#E48131"/>
<path d="M139.499 59.9649C139.134 60.1507 138.437 60.3147 138.566 59.4848C138.931 59.299 139.629 59.1349 139.499 59.9649Z" fill="#E48131"/>
<path d="M141.158 58.4837C140.75 58.5852 139.951 58.6843 140.016 58.2694C140.357 58.149 141.062 58.0233 141.158 58.4837Z" fill="#E48131"/>
<path d="M136.565 87.9807C136.891 89.7934 137.613 88.7096 137.932 87.9411C138.113 86.598 137.017 87.357 136.446 87.9045L136.565 87.9807Z" fill="#E48131"/>
<path d="M140.81 81.0249C140.184 81.6589 138.954 82.5758 139.04 81.1717C139.855 80.4154 141.351 79.3273 140.81 81.0249Z" fill="#E48131"/>
<path d="M134.016 89.0897C133.794 89.6164 133.136 90.4244 132.283 89.4425C132.731 88.9994 133.706 88.3086 134.016 89.0897Z" fill="#E48131"/>
<path d="M136.433 80.7852C136.143 81.3298 135.406 82.2452 134.773 81.5499C134.907 80.7231 135.425 79.4127 136.433 80.7852Z" fill="#E48131"/>
<path d="M133.208 78.7282C132.814 79.0847 131.883 79.7063 131.31 79.3406C131.854 78.8364 132.994 78.0081 133.208 78.7282Z" fill="#E48131"/>
<path d="M140.201 78.8127C140.613 79.2212 141.583 78.6612 142.017 78.3301L140.65 78.3696L139.365 78.2794C138.857 77.8098 138.401 78.2117 138.236 78.4713C138.355 79.1304 139.142 78.8061 139.521 78.5615L140.201 78.8127Z" fill="#E48131"/>
<path d="M139.628 76.8064L139.875 76.417L139.48 75.9825L139.151 76.5017L139.628 76.8064Z" fill="#E48131"/>
<path d="M143.334 70.9652L143.746 70.3162L143.268 70.0115L142.737 70.5843L142.811 70.9963L143.334 70.9652Z" fill="#E48131"/>
<path d="M141.596 68.9449C141.312 69.1283 140.665 69.4083 140.348 69.0606C140.702 68.6787 141.448 68.121 141.596 68.9449Z" fill="#E48131"/>
<path d="M138.495 69.3372C138.276 69.6834 137.759 70.1804 137.449 69.3993C137.669 69.0532 138.186 68.5562 138.495 69.3372Z" fill="#E48131"/>
<path d="M139.171 67.2152C138.871 67.5106 138.234 68.0037 138.079 67.6131C138.311 67.3357 138.854 66.8676 139.171 67.2152Z" fill="#E48131"/>
<path fill-rule="evenodd" clip-rule="evenodd" d="M23.5306 129.815C22.3747 126.833 19.5449 120.305 17.4724 118.058C18.4252 118.77 19.6733 119.785 20.9548 120.959C23.8808 123.639 26.9808 127.144 27.1358 129.746C30.0104 134.005 36.1451 142.68 37.9717 143.744L38.0414 143.782C38.0275 143.775 38.0134 143.767 37.999 143.759C37.99 143.754 37.9809 143.749 37.9717 143.744C37.2301 143.339 36.4839 142.902 35.7338 142.43C32.3403 140.618 25.1487 135.558 23.5306 129.815ZM79.7972 138.822C81.7616 133.503 86.9907 130.291 89.5112 129.31C91.8021 126.472 99.9317 126.609 104.823 127.137C105.347 127.194 105.835 127.255 106.274 127.318C122.796 123.606 129.264 116.441 130.433 113.323C133.393 119.939 131.405 130.283 116.843 145.297C114.741 147.703 108.577 151.665 101.451 151.912C98.6668 153.241 91.6908 155.289 86.0568 152.85C82.6833 153.032 70.6673 152.998 76.8909 144.535L79.443 139.939C79.5446 139.557 79.6633 139.184 79.7972 138.822ZM117.33 104.037C117.546 104.078 118.179 104.226 119.386 104.533C118.691 104.329 118.002 104.164 117.33 104.037ZM147.322 103.735C146.256 104.23 144.836 104.823 143.239 105.399C143.343 103.774 144.281 100.067 147.199 98.2389C148.889 95.5976 152.602 90.2502 153.936 89.9912C154.415 87.3223 155.796 81.9019 157.494 81.5723C157.845 79.728 158.508 76.7729 159.282 74.3794C159.634 73.2891 160.009 72.3153 160.388 71.6163C160.655 71.1245 160.923 70.7686 161.186 70.6037C160.911 69.1851 160.663 66.289 161.876 66.0535C161.946 64.3049 161.909 60.5268 161.2 59.4028C161.696 59.1414 162.3 59.0074 163.033 59.0469C165.868 61.4933 170.821 69.0172 167.955 79.5416C167.47 81.6336 166.177 85.9432 164.89 86.4454C164.297 86.6769 164.039 87.4223 163.724 88.3306C163.186 89.8858 162.482 91.9186 159.648 92.6679C158.379 95.8583 154.138 102.538 147.322 103.735ZM143.475 78.8781C141.649 80.3678 139.371 81.3438 136.548 81.5363C135.63 81.6679 134.849 81.6519 134.199 81.5203C135.021 81.5834 135.803 81.5871 136.548 81.5363C138.327 81.2814 140.62 80.4725 143.475 78.8781ZM150.141 56.6601C150.256 58.0965 150.293 59.7614 150.21 61.536C148.778 60.8194 147.708 59.2541 146.917 57.2858C145.199 53.0111 144.8 46.8361 144.878 43.3289C143.864 42.6425 143.079 35.9498 142.813 32.6892L140.441 28.5757C141.174 27.4872 151.734 35.6892 150.141 56.6601Z" fill="#B13E20"/>
<path d="M146.917 57.2858C147.708 59.2541 148.778 60.8194 150.21 61.536C150.061 64.7383 149.522 68.298 148.35 71.518C149.567 67.875 147.902 60.512 146.917 57.2858Z" fill="#B13E20"/>
<path d="M20.9548 120.959C19.6733 119.785 18.4252 118.77 17.4724 118.058C34.685 130.868 47.6891 130.804 52.0396 129.171C42.8349 134.758 29.1074 127.247 20.9548 120.959Z" fill="#B13E20"/>
<path d="M138.426 28.7325C137.735 37.304 135.911 54.7851 134.149 56.1367C133.84 55.3555 133.089 53.7558 132.556 53.6068C131.891 53.4206 134.983 53.1402 138.426 28.7325Z" fill="#B13E20"/>
<path d="M160.388 71.6163C160.009 72.3153 159.634 73.2891 159.282 74.3794C154.314 82.6738 145.949 87.2427 138.396 89.5433C147.426 85.5971 155.875 77.2114 160.388 71.6163Z" fill="#B13E20"/>
<path d="M98.3165 119.557C104.588 122.689 106.235 126.036 106.274 127.318C105.835 127.255 105.347 127.194 104.823 127.137C104.551 123.792 100.372 120.69 98.3165 119.557Z" fill="#B13E20"/>
<path d="M134.336 90.3314C132.07 90.8593 127.694 91.7345 125.836 91.6326C128.017 92.0175 131.896 92.1586 134.336 90.3314Z" fill="#B13E20"/>
<path d="M163.319 77.4796L162.204 75.6937C161.66 76.4002 161.987 77.3338 162.219 77.7123C162.818 78.0029 163.202 77.6782 163.319 77.4796Z" fill="#5D1400"/>
<path d="M161.883 80.3268C162.349 80.3079 163.142 80.4778 162.589 81.3078C162.182 81.2273 161.47 80.9184 161.883 80.3268Z" fill="#5D1400"/>
<path d="M164.055 82.4977C163.358 81.8277 163.134 82.3809 163.109 82.7412L162.747 83.4916L163.199 83.6787L163.672 83.5569L164.055 82.4977Z" fill="#5D1400"/>
<path d="M164.047 78.1517L164.111 77.2251L164.706 77.5775L164.663 78.1953L164.047 78.1517Z" fill="#5D1400"/>
<path d="M165.318 75.4481C165.568 75.5692 166.026 75.9636 165.86 76.5727C165.566 76.345 165.046 75.8013 165.318 75.4481Z" fill="#5D1400"/>
<path d="M164.691 75.559C164.534 75.5996 164.208 75.8352 164.165 76.4529C164.476 76.4232 165.018 76.2028 164.691 75.559Z" fill="#5D1400"/>
<path d="M164.798 74.0146C165.044 74.1872 165.438 74.6185 165.042 74.963C164.84 74.897 164.509 74.615 164.798 74.0146Z" fill="#5D1400"/>
<path d="M163.146 73.2772C163.352 73.2917 163.723 73.4421 163.566 73.9276C163.357 73.9645 162.98 73.8862 163.146 73.2772Z" fill="#5D1400"/>
<path d="M165.665 72.6791C165.84 71.9466 165.48 71.6314 165.278 71.5654C165.023 71.6716 165.115 72.4333 165.192 72.8009L165.665 72.6791Z" fill="#5D1400"/>
<path d="M165.353 70.4844C165.969 70.5279 165.961 69.9066 165.88 69.5904C165.917 69.0447 165.492 69.2311 165.274 69.3925L165.353 70.4844Z" fill="#5D1400"/>
<path d="M162.306 83.1501C162.226 82.5237 161.788 82.441 161.579 82.478C161.315 82.7076 160.948 82.6404 160.798 82.578L160.611 83.0304L161.228 83.0739C161.563 83.5943 162.087 83.3415 162.306 83.1501Z" fill="#5D1400"/>
<path d="M161.131 84.4639C161.388 84.482 161.823 84.761 161.508 85.732C161.35 85.7726 161.054 85.5758 161.131 84.4639Z" fill="#5D1400"/>
<path d="M161.187 79.1913L160.879 79.1695L160.815 80.0961L161.145 79.809L161.187 79.1913Z" fill="#5D1400"/>
<path d="M166.523 78.1714L165.907 78.1279L166.007 78.9109L166.48 78.7892L166.523 78.1714Z" fill="#5D1400"/>
<path d="M160.94 88.7894C160.908 89.1637 160.777 89.8936 160.511 89.8191C160.178 89.726 160.239 89.241 160.94 88.7894Z" fill="#5D1400"/>
<path d="M157.221 87.461C157.352 87.5933 157.636 87.9797 157.731 88.4661C157.47 88.2013 157.002 87.6296 157.221 87.461Z" fill="#5D1400"/>
<path d="M156.047 91.9474C155.794 91.9965 155.306 92.1858 155.377 92.5506C155.488 92.5816 155.777 92.5044 156.047 91.9474Z" fill="#5D1400"/>
<path d="M158.085 90.29C158.104 90.3913 158.089 90.6361 157.87 90.8048C157.85 90.7035 157.866 90.4587 158.085 90.29Z" fill="#5D1400"/>
<path d="M159.222 87.2303C159.393 86.8185 159.162 86.3812 159.024 86.2141C158.836 86.5426 158.996 87.1494 159.099 87.4118L159.222 87.2303Z" fill="#5D1400"/>
<path d="M151.566 97.2334C151.767 97.4572 152.095 98.0139 151.802 98.4493C151.601 98.2254 151.273 97.6688 151.566 97.2334Z" fill="#5D1400"/>
<path d="M145.417 38.8081C145.618 39.032 145.958 39.6494 145.712 40.3281C145.532 39.9424 145.221 39.0984 145.417 38.8081Z" fill="#5D1400"/>
<path d="M148.066 41.9214C148.117 41.5331 147.686 41.3118 147.464 41.2497C147.366 41.3948 147.662 41.9999 147.822 42.2842L148.066 41.9214Z" fill="#5D1400"/>
<path d="M145.851 42.6668L146.125 42.456C146.234 42.7502 146.423 43.3444 146.302 43.368C146.181 43.3915 145.951 42.9104 145.851 42.6668Z" fill="#5D1400"/>
<path d="M147.629 44.5299C147.969 44.3377 147.995 43.9856 147.966 43.8336L147.54 44.0739L147.25 44.6035L147.629 44.5299Z" fill="#5D1400"/>
<path d="M149.192 46.9078L148.77 46.3587L148.707 46.8441L148.947 47.2706L149.192 46.9078Z" fill="#5D1400"/>
<path d="M147.697 48.9329C147.929 49.0456 148.349 49.3741 148.177 49.786C147.945 49.6733 147.525 49.3448 147.697 48.9329Z" fill="#5D1400"/>
<path d="M147.947 47.4649L148.071 46.8098L147.646 47.0501L147.947 47.4649Z" fill="#5D1400"/>
<path d="M146.036 36.3222C146.245 35.7769 145.421 35.1798 144.982 34.9494L145.219 36.1654C145.289 36.5301 145.793 36.4219 146.036 36.3222Z" fill="#5D1400"/>
<path d="M145.804 37.1558L145.337 36.7733C145.078 37.0597 145.327 37.3993 145.484 37.5333L145.804 37.1558Z" fill="#5D1400"/>
<path d="M147.571 49.9037C147.802 50.0165 148.217 50.3146 148.021 50.6049C147.777 50.9677 147.335 50.3096 147.571 49.9037Z" fill="#5D1400"/>
<path d="M103.756 135.686L105.101 134.07C104.261 133.77 103.478 134.372 103.192 134.71C103.103 135.371 103.531 135.636 103.756 135.686Z" fill="#5D1400"/>
<path d="M100.608 135.202C100.771 135.639 100.858 136.448 99.8983 136.179C99.8475 135.766 99.9183 134.992 100.608 135.202Z" fill="#5D1400"/>
<path d="M99.2278 137.944C99.6455 137.073 99.051 137.031 98.7016 137.119L97.8772 137.007L97.8408 137.495L98.1039 137.908L99.2278 137.944Z" fill="#5D1400"/>
<path d="M103.346 136.587L104.244 136.361L104.096 137.037L103.497 137.188L103.346 136.587Z" fill="#5D1400"/>
<path d="M106.306 136.959C106.269 137.235 106.038 137.793 105.409 137.824C105.533 137.473 105.886 136.81 106.306 136.959Z" fill="#5D1400"/>
<path d="M106.005 136.396C105.917 136.259 105.592 136.021 104.993 136.172C105.119 136.46 105.497 136.908 106.005 136.396Z" fill="#5D1400"/>
<path d="M107.503 136.019C107.416 136.307 107.13 136.816 106.68 136.546C106.679 136.333 106.843 135.93 107.503 136.019Z" fill="#5D1400"/>
<path d="M107.704 134.352C107.703 134.302 107.696 134.256 107.686 134.216C107.524 134.224 107.407 134.256 107.324 134.301L107.1 134.271L107.064 134.759L107.327 135.171L108.451 135.208C108.869 134.336 108.274 134.294 107.925 134.382L107.704 134.352Z" fill="#5D1400"/>
<path d="M109.04 136.43C109.789 136.369 109.975 135.928 109.975 135.716C109.794 135.506 109.101 135.829 108.777 136.017L109.04 136.43Z" fill="#5D1400"/>
<path d="M111.023 135.451C111.174 136.052 111.761 135.851 112.035 135.676C112.564 135.542 112.255 135.194 112.034 135.037L111.023 135.451Z" fill="#5D1400"/>
<path d="M98.0633 136.481C98.6322 136.21 98.5738 135.767 98.4735 135.58C98.1734 135.4 98.1226 135.029 98.1348 134.867L97.6477 134.83L97.7988 135.43C97.4103 135.911 97.8133 136.331 98.0633 136.481Z" fill="#5D1400"/>
<path d="M96.4509 135.77C96.5139 136.02 96.3851 136.521 95.3661 136.522C95.2784 136.385 95.3726 136.042 96.4509 135.77Z" fill="#5D1400"/>
<path d="M101.467 134.187L101.392 133.886L100.493 134.113L100.868 134.338L101.467 134.187Z" fill="#5D1400"/>
<path d="M104.1 138.952L103.949 138.352L103.238 138.69L103.501 139.103L104.1 138.952Z" fill="#5D1400"/>
<path d="M112.979 132.949L114.324 131.333C113.485 131.033 112.702 131.635 112.415 131.974C112.327 132.634 112.754 132.899 112.979 132.949Z" fill="#5D1400"/>
<path d="M109.831 132.465C109.995 132.903 110.081 133.711 109.122 133.442C109.071 133.029 109.141 132.255 109.831 132.465Z" fill="#5D1400"/>
<path d="M112.569 133.851L113.468 133.624L113.319 134.3L112.72 134.451L112.569 133.851Z" fill="#5D1400"/>
<path d="M115.529 134.223C115.492 134.498 115.261 135.057 114.632 135.087C114.756 134.737 115.109 134.073 115.529 134.223Z" fill="#5D1400"/>
<path d="M115.228 133.66C115.141 133.522 114.816 133.285 114.216 133.436C114.342 133.723 114.72 134.171 115.228 133.66Z" fill="#5D1400"/>
<path d="M116.726 133.282C116.639 133.57 116.353 134.079 115.903 133.809C115.903 133.596 116.067 133.193 116.726 133.282Z" fill="#5D1400"/>
<path d="M116.91 131.48C116.96 131.68 116.933 132.081 116.424 132.081C116.324 131.894 116.28 131.511 116.91 131.48Z" fill="#5D1400"/>
<path d="M118.263 133.694C119.012 133.633 119.198 133.192 119.198 132.979C119.018 132.769 118.324 133.093 118 133.281L118.263 133.694Z" fill="#5D1400"/>
<path d="M120.246 132.715C120.398 133.315 120.984 133.114 121.258 132.939C121.788 132.805 121.478 132.458 121.257 132.3L120.246 132.715Z" fill="#5D1400"/>
<path d="M107.287 133.745C107.855 133.474 107.797 133.031 107.697 132.843C107.397 132.663 107.346 132.293 107.358 132.13L106.871 132.093L107.022 132.694C106.634 133.175 107.037 133.595 107.287 133.745Z" fill="#5D1400"/>
<path d="M105.674 133.033C105.737 133.284 105.608 133.784 104.589 133.786C104.502 133.648 104.596 133.305 105.674 133.033Z" fill="#5D1400"/>
<path d="M110.691 131.45L110.615 131.15L109.717 131.376L110.092 131.601L110.691 131.45Z" fill="#5D1400"/>
<path d="M113.323 136.215L113.172 135.615L112.461 135.954L112.724 136.366L113.323 136.215Z" fill="#5D1400"/>
<path d="M108.333 140.957C108.496 141.395 108.583 142.204 107.623 141.934C107.573 141.521 107.643 140.748 108.333 140.957Z" fill="#5D1400"/>
<path d="M106.953 143.7C107.371 142.828 106.776 142.787 106.427 142.875L105.602 142.763L105.566 143.251L105.829 143.664L106.953 143.7Z" fill="#5D1400"/>
<path d="M105.788 142.237C106.357 141.966 106.299 141.523 106.199 141.335C105.899 141.155 105.848 140.785 105.86 140.622L105.373 140.585L105.524 141.186C105.135 141.667 105.538 142.087 105.788 142.237Z" fill="#5D1400"/>
<path d="M104.176 141.526C104.239 141.776 104.11 142.277 103.091 142.278C103.004 142.14 103.098 141.797 104.176 141.526Z" fill="#5D1400"/>
<path d="M109.193 139.942L109.117 139.642L108.218 139.868L108.594 140.093L109.193 139.942Z" fill="#5D1400"/>
<path d="M116.203 137.693C116.441 137.556 116.999 137.435 117.324 138.049C116.945 138.089 116.19 138.074 116.203 137.693Z" fill="#5D1400"/>
<path d="M114.88 140.898C114.998 141.211 115.148 141.855 114.799 141.923C114.739 141.687 114.67 141.152 114.88 140.898Z" fill="#5D1400"/>
<path d="M112.473 138.991L111.94 138.678C111.858 138.82 111.943 139.466 111.995 139.771L112.473 138.991Z" fill="#5D1400"/>
<path d="M104.655 147.347C104.894 147.459 105.377 147.712 105.4 147.833C105.43 147.985 104.578 148.308 104.655 147.347Z" fill="#5D1400"/>
<path d="M101.152 142.383L99.9789 144.128C100.845 144.34 101.562 143.661 101.813 143.295C101.833 142.629 101.381 142.409 101.152 142.383Z" fill="#5D1400"/>
<path d="M101.468 141.443L100.597 141.761L100.676 141.073L101.256 140.861L101.468 141.443Z" fill="#5D1400"/>
<path d="M98.4855 141.377C98.4941 141.099 98.6669 140.52 99.2897 140.425C99.202 140.786 98.9184 141.483 98.4855 141.377Z" fill="#5D1400"/>
<path d="M98.8422 141.906C98.9435 142.034 99.2912 142.237 99.8716 142.025C99.7175 141.752 99.2957 141.345 98.8422 141.906Z" fill="#5D1400"/>
<path d="M97.391 142.435C97.448 142.14 97.6807 141.604 98.1559 141.827C98.1781 142.038 98.0562 142.456 97.391 142.435Z" fill="#5D1400"/>
<path d="M97.361 144.114C97.367 144.163 97.3787 144.209 97.3925 144.247C97.5526 144.223 97.6662 144.179 97.7445 144.126L97.9697 144.133L97.9561 143.644L97.6523 143.26L96.5306 143.339C96.2041 144.249 96.7997 144.23 97.1383 144.107L97.361 144.114Z" fill="#5D1400"/>
<path d="M95.8204 142.183C95.0816 142.321 94.9411 142.778 94.9633 142.99C95.1641 143.181 95.8209 142.787 96.1243 142.567L95.8204 142.183Z" fill="#5D1400"/>
<path d="M93.9475 143.36C93.7359 142.778 93.173 143.038 92.918 143.241C92.4052 143.428 92.7487 143.742 92.9845 143.876L93.9475 143.36Z" fill="#5D1400"/>
<path d="M100.476 139.168L100.688 139.75L101.361 139.34L101.057 138.957L100.476 139.168Z" fill="#5D1400"/>
<path d="M92.2571 146.05L91.084 147.796C91.9499 148.008 92.6672 147.329 92.9177 146.963C92.9382 146.296 92.4859 146.077 92.2571 146.05Z" fill="#5D1400"/>
<path d="M95.4376 146.209C95.2305 145.791 95.0619 144.995 96.0438 145.165C96.1365 145.57 96.145 146.347 95.4376 146.209Z" fill="#5D1400"/>
<path d="M92.5731 145.111L91.7024 145.429L91.781 144.741L92.3615 144.529L92.5731 145.111Z" fill="#5D1400"/>
<path d="M89.5906 145.045C89.5992 144.767 89.772 144.188 90.3948 144.092C90.3072 144.454 90.0235 145.151 89.5906 145.045Z" fill="#5D1400"/>
<path d="M89.9473 145.574C90.0486 145.702 90.3963 145.905 90.9768 145.693C90.8226 145.42 90.4009 145.013 89.9473 145.574Z" fill="#5D1400"/>
<path d="M88.4961 146.103C88.5531 145.807 88.7858 145.272 89.2611 145.494C89.2832 145.706 89.1613 146.124 88.4961 146.103Z" fill="#5D1400"/>
<path d="M88.4976 147.915C88.427 147.721 88.4126 147.32 88.9193 147.267C89.0383 147.443 89.1204 147.82 88.4976 147.915Z" fill="#5D1400"/>
<path d="M86.9255 145.851C86.1867 145.989 86.0463 146.446 86.0684 146.658C86.2692 146.848 86.926 146.455 87.2294 146.235L86.9255 145.851Z" fill="#5D1400"/>
<path d="M85.0526 147.028C84.841 146.446 84.2781 146.706 84.0232 146.909C83.5103 147.096 83.8538 147.41 84.0896 147.544L85.0526 147.028Z" fill="#5D1400"/>
<path d="M97.8381 144.675C97.3 145.003 97.4033 145.438 97.5222 145.615C97.839 145.763 97.9273 146.126 97.9318 146.289L98.4201 146.276L98.2085 145.694C98.5459 145.176 98.1022 144.799 97.8381 144.675Z" fill="#5D1400"/>
<path d="M99.5145 145.218C99.4264 144.975 99.5034 144.464 100.517 144.358C100.618 144.486 100.559 144.837 99.5145 145.218Z" fill="#5D1400"/>
<path d="M94.6863 147.307L94.7921 147.598L95.6628 147.281L95.2667 147.096L94.6863 147.307Z" fill="#5D1400"/>
<path d="M91.5815 142.836L91.7931 143.418L92.4658 143.008L92.162 142.624L91.5815 142.836Z" fill="#5D1400"/>
<path d="M23.1888 125.623C23.5917 125.808 24.385 126.274 24.3345 126.662C23.9821 126.468 23.2596 125.988 23.1888 125.623Z" fill="#5D1400"/>
<path d="M23.5723 127.599C23.8138 127.762 24.2597 128.223 24.1116 128.756C23.8603 128.542 23.4006 128.011 23.5723 127.599Z" fill="#5D1400"/>
<path d="M26.1629 130.408C26.2935 130.541 26.5058 130.878 26.3104 131.168C26.17 130.985 25.9439 130.577 26.1629 130.408Z" fill="#5D1400"/>
<path d="M25.813 127.795C25.9435 127.927 26.1559 128.265 25.9605 128.555C25.7078 128.604 25.3245 128.521 25.813 127.795Z" fill="#5D1400"/>
<path d="M26.9005 134.208C27.1195 134.04 27.0142 133.713 26.9341 133.571C26.4253 133.543 26.5593 133.801 26.6899 133.934L26.9005 134.208Z" fill="#5D1400"/>
<path d="M28.6609 133.551C28.8125 133.522 29.1276 133.524 29.1748 133.767C29.0232 133.796 28.7081 133.794 28.6609 133.551Z" fill="#5D1400"/>
<path d="M25.1984 129.491L24.4739 129.001C24.2549 129.17 24.8826 130.026 25.2238 130.433C25.2979 130.166 25.2377 129.694 25.1984 129.491Z" fill="#5D1400"/>
<path d="M28.4676 135.797L28.3496 135.189L28.1348 135.704L28.4676 135.797Z" fill="#5D1400"/>
<path d="M29.8534 137.263C29.7826 136.898 29.5037 136.542 29.3732 136.409C29.303 136.318 29.144 136.202 29.07 136.468C28.9959 136.735 29.5614 137.109 29.8534 137.263Z" fill="#5D1400"/>
<path d="M78.1147 130.576C90.2139 129.363 94.6555 120.688 95.3638 116.502C113.933 120.09 120.369 102.133 121.267 92.7054C150.144 79.3714 135.074 47.1247 121.837 47.013C118.071 34.7476 105.722 31.2671 100.018 31.06C90.0413 9.65366 64.1573 18.148 59.168 28.1067C41.465 25.7389 35.437 42.0188 37.0302 50.2265C18.2133 57.0336 22.0955 79.4651 28.6586 87.339C28.9727 92.199 33.668 98.8267 35.9764 101.533C36.5318 120.604 52.8465 125.492 60.9344 125.551C65.2275 129.513 74.1768 130.552 78.1147 130.576Z" fill="#CA4B00"/>
<path d="M78.1147 130.576C90.2139 129.363 94.6555 120.688 95.3638 116.502C113.933 120.09 120.369 102.133 121.267 92.7054C150.144 79.3714 135.074 47.1247 121.837 47.013C118.071 34.7476 105.722 31.2671 100.018 31.06C90.0413 9.65366 64.1573 18.148 59.168 28.1067C41.465 25.7389 35.437 42.0188 37.0302 50.2265C18.2133 57.0336 22.0955 79.4651 28.6586 87.339C28.9727 92.199 33.668 98.8267 35.9764 101.533C36.5318 120.604 52.8465 125.492 60.9344 125.551C65.2275 129.513 74.1768 130.552 78.1147 130.576Z" fill="#CA4B00"/>
<path d="M97.4082 72.7319C102.853 74.3037 114.702 73.3179 118.544 56.7999C118.876 56.8877 119.225 57.0789 119.529 57.3975C120.694 58.6206 121.189 61.7214 117.426 68.0576C116.191 70.6106 111.253 75.9747 101.385 77.0071C102.623 79.6057 104.046 84.8813 99.8276 85.1955C97.2875 89.97 91.2119 99.4461 86.4846 100.719C86.2778 100.774 86.0735 100.814 85.8723 100.838C85.424 100.955 84.9188 101.073 84.3666 101.186C79.2028 102.243 69.933 102.866 64.6786 98.6427C62.7683 100.959 59.0309 105.859 59.3647 106.929C58.5839 105.609 56.1869 104.013 52.8451 108.195C56.0851 116.241 59.6647 129.548 79.479 130.311C67.2734 129.841 57.8822 129.929 51.9354 108.372C51.9588 108.079 52.0076 107.749 52.0863 107.396C52.6256 104.975 54.5713 101.459 59.3933 101.404C60.1014 99.4976 62.117 95.7404 64.7918 94.9931C64.9796 94.9407 65.1706 94.9031 65.3646 94.8819C69.6118 97.58 79.7907 101.766 86.5288 96.9248C91.5611 92.3204 100.782 81.0356 97.4082 72.7319Z" fill="#AC3A00"/>
<path d="M54.573 70.4745C54.2161 81.3543 61.3171 91.0498 65.3646 94.8819C65.1706 94.9031 64.9796 94.9407 64.7918 94.9931C56.0103 87.9212 54.2444 77.3825 54.573 70.4745Z" fill="#AC3A00"/>
<path d="M82.4415 55.6065C82.7398 51.0615 82.8419 41.5139 81.0685 37.569C82.369 40.289 84.0292 46.6992 82.4415 55.6065Z" fill="#AC3A00"/>
<path d="M51.9354 108.372C47.8079 107.911 38.7414 105.728 35.496 100.68C38.6688 103.429 46.4288 108.62 52.0863 107.396C52.0076 107.749 51.9588 108.079 51.9354 108.372Z" fill="#AC3A00"/>
<path d="M28.81 87.3096C28.5155 79.8486 30.4205 64.1588 40.3968 61.0867L40.0051 60.6895C34.2772 61.1705 26.2054 75.5128 28.81 87.3096Z" fill="#AC3A00"/>
<path d="M59.2817 29.504L59.6562 27.381L58.1401 27.6753L59.2817 29.504Z" fill="#AC3A00"/>
<path d="M44.1673 39.5557C41.5093 42.6179 37.0999 49.8 39.3642 55.7668C39.5126 52.0193 40.683 43.6287 44.1673 39.5557Z" fill="#AC3A00"/>
<path d="M118.544 56.7999C117.693 49.71 112.354 35.4473 99.8955 31.2414C104.017 32.6328 114 35.6118 117.395 47.4019C118.161 50.0594 118.591 53.1645 118.544 56.7999Z" fill="#AC3A00"/>
<path d="M121.262 93.4947C121.198 88.3023 117.496 83.8163 109.421 81.1251C111.369 83.1434 117.133 84.2102 119.287 88.1805C119.494 88.5622 119.693 88.9585 119.882 89.3705C120.444 90.5966 120.92 91.9618 121.262 93.4947Z" fill="#AC3A00"/>
<path d="M119.882 89.3705C120.444 90.5966 120.92 91.9618 121.262 93.4947L120.269 98.1038C120.6 96.17 120.899 92.0948 119.882 89.3705Z" fill="#AC3A00"/>
<path d="M85.8723 100.838C86.0735 100.814 86.2778 100.774 86.4846 100.719C86.066 103.166 86.2383 109.694 90.2922 113.071C88.121 112.163 83.8996 107.883 84.3666 101.186C84.9188 101.073 85.424 100.955 85.8723 100.838Z" fill="#AC3A00"/>
<path d="M103.958 77.2962C103.456 76.0057 102.255 76.6278 101.718 77.1002C100.798 77.5521 101.807 79.7204 102.426 80.7481C102.011 81.2071 102.085 82.2338 102.173 82.6898C103.14 83.1329 102.203 84.7344 101.613 85.4797C100.505 84.3069 98.8999 86.9002 98.2361 88.3434C97.6499 89.2142 96.1222 90.9618 95.4316 91.7268C96.0787 93.1153 94.132 95.0283 93.0778 95.8113C91.4741 96.6273 91.3316 97.6223 91.4608 98.0178C92.2797 98.9945 93.5625 97.7676 94.1014 97.0321C96.7496 95.761 96.8778 93.2336 96.6109 92.1287C97.0961 92.0346 98.9242 89.9973 99.7777 88.9905C101.718 88.6138 102.577 86.6596 102.763 85.7296C105.6 85.4313 105.874 83.6537 105.656 82.8023C107.405 82.0843 107.645 80.8915 107.547 80.3848C109.653 80.8593 111.016 79.3435 111.434 78.5262C111.609 77.4828 110.12 76.8887 109.353 76.7221C108.656 75.7219 107.445 76.6192 106.927 77.193C106.688 76.6085 104.848 77.0182 103.958 77.2962Z" fill="#E48131"/>
<path d="M68.9706 100.491C71.3159 101.55 69.8921 103.887 68.8871 104.923C66.869 106.198 65.1204 104.971 64.4984 104.198L62.5527 105.522C62.1741 108.434 59.2344 108.69 57.5961 109.165C56.2854 109.546 55.6436 111.805 55.4866 112.887C54.3713 112.977 54.6875 111.202 54.985 110.303C54.4795 109.644 54.8612 108.855 55.1153 108.543L54.054 108.749C52.3827 108.569 53.1609 107.66 53.7589 107.229C54.608 107.064 55.3087 106.297 55.5529 105.934C57.2104 104.099 58.1192 105.647 58.3665 106.65C59.6469 107.411 60.6631 105.784 61.0112 104.875L60.7161 103.355C61.4911 103.457 62.5159 102.9 62.9314 102.609C60.6805 102.037 62.2656 100.531 63.3395 99.849C65.3844 98.0641 67.9457 99.5332 68.9706 100.491Z" fill="#E48131"/>
<path d="M116.971 68.1459C114.249 69.6837 114.829 72.2418 115.46 73.3286C115.295 72.4774 117.409 69.3226 118.487 67.8516C121.476 66.3882 122.124 61.7305 122.074 59.5846C123.493 57.1643 125.296 57.5397 126.021 58.03C127.459 56.3628 125.176 55.3023 123.855 54.9804C126.149 51.8853 123.64 49.8174 122.098 49.1703C124.423 49.4761 127.703 51.0265 129.052 51.7635L126.853 49.3514C122.995 45.6841 118.891 46.4281 117.322 47.2585C119.138 53.3726 118.405 54.4611 118.696 56.7705C120.526 59.065 118.519 65.5847 116.971 68.1459Z" fill="#E48131"/>
<path d="M92.3564 30.4967C91.7231 31.1244 90.3715 31.618 89.7749 31.7864C90.2233 34.0968 88.8193 34.9686 88.0612 35.1158C85.8274 35.9279 86.5354 37.2521 87.1687 37.8126C86.7038 38.6599 86.8291 39.0351 86.9499 39.1168C87.3341 39.7993 88.1601 39.4077 88.5251 39.1265C88.1074 40.217 88.3849 40.8361 88.5759 41.0093C89.617 41.1858 89.821 40.3996 89.7929 39.9845C90.3587 38.3605 91.2809 39.275 91.6713 39.9353C91.6176 40.9551 92.1461 41.8409 92.4171 42.1563C93.7546 41.2658 93.0837 40.1869 92.581 39.7587L92.2901 37.4493C92.8395 38.983 94.1308 38.827 94.7078 38.5573C94.3137 39.7693 95.7931 39.5558 96.5821 39.2975C96.2988 37.8383 95.2145 38.196 94.7078 38.5573L94.5307 37.6453C93.9275 37.1315 94.3242 36.5813 94.5979 36.3705C95.329 35.5977 96.2138 36.3197 96.5649 36.7773C97.6532 37.1969 97.6276 36.3081 97.4787 35.8113C98.1592 35.4268 98.5064 36.2427 98.5949 36.6987C100.775 36.9064 100.618 36.0431 100.267 35.5855C101.069 35.1775 103.204 35.8566 104.171 36.2471C106.156 36.7451 106.11 36.2388 105.839 35.9234C105.485 34.0994 102.367 33.7058 100.852 33.737C101.802 32.7955 103.691 33.5014 104.516 33.972C104.499 32.5874 102.616 32.2904 101.677 32.315C100.885 30.8284 98.9546 31.1086 98.0883 31.4344C96.7431 30.1766 93.8671 30.2469 92.3564 30.4967Z" fill="#E48131"/>
<path d="M72.5651 55.7887C72.3192 56.4673 70.2335 57.5556 69.2213 58.015C67.9617 58.6584 65.4986 59.6398 64.4245 60.0501C62.194 60.2308 61.3697 61.0637 61.2364 61.4576C59.4878 62.1756 59.2108 62.6394 59.2908 62.7816C58.3408 63.7231 59.7992 64.0498 60.6472 64.0955C60.7888 64.8251 62.4218 64.5922 63.2206 64.3846L62.092 65.8654C64.5284 68.0422 65.721 65.1084 66.0128 63.3694C66.1125 63.6129 66.2403 63.8931 65.9538 63.0654C65.6673 62.2378 67.0359 60.805 67.756 60.1921L69.7901 59.324C70.4438 59.4495 72.0447 58.7812 72.7634 58.4314C71.5912 60.1731 73.2776 60.5397 74.2673 60.5053C73.4956 59.7719 74.1561 58.5817 74.5829 58.0783C75.843 58.086 76.0739 58.7352 76.0318 59.0588C76.7596 58.9175 76.6044 57.6858 76.4359 57.0877C77.915 56.9267 78.8044 57.9423 79.0642 58.4701C79.9132 58.3053 79.8053 57.6954 79.6452 57.411C80.5448 56.8579 82.8027 58.0073 83.8192 58.6512C83.7851 55.8819 80.5448 55.2912 78.9289 55.342C77.598 54.9694 74.1318 55.4845 72.5651 55.7887Z" fill="#E48131"/>
<path d="M60.3825 68.4054C61.1102 68.2641 61.1769 67.0946 61.1192 66.5274C59.9526 66.7539 59.4344 68.0111 59.3211 68.6114C58.4721 68.7762 58.4369 69.7294 58.5254 70.1854C59.8294 71.0679 60.3068 69.3664 60.3825 68.4054Z" fill="#E48131"/>
<path d="M37.6341 62.2538C39.9924 60.7866 41.2617 61.7599 41.6016 62.43C42.4237 62.7751 42.7025 64.3193 42.7391 65.0482L38.3422 65.9017C38.7769 66.1958 38.7003 66.9362 38.6077 67.2696C38.0721 67.7522 37.0115 67.4218 36.5482 67.1963C36.5213 67.7062 36.13 68.0135 35.9376 68.1034C34.3779 69.7941 33.064 69.2395 32.602 68.7509C32.1772 66.5621 34.4799 64.9165 35.6844 64.3672C35.3743 63.418 36.855 62.5628 37.6341 62.2538Z" fill="#E48131"/>
<path d="M35.7721 59.1454C37.2512 58.9844 38.6487 59.3756 39.1626 59.5913C38.7482 60.0503 34.4807 60.8681 32.3988 61.2197C32.2506 61.7532 30.6356 62.4031 29.8467 62.6614C28.8967 63.6029 28.0188 62.7008 27.6986 62.132C27.8639 62.9832 26.855 63.1896 26.33 63.1863C24.1329 61.594 28.2551 56.0832 30.5908 53.5268C31.5441 51.9538 35.8873 50.5534 37.9398 50.0499C38.836 50.1283 39.0464 52.7792 39.0396 54.0949C37.3887 54.6677 35.7712 53.4676 35.1688 52.7959C34.5086 53.9335 31.609 55.8001 30.2417 56.5913C30.3833 57.3209 29.7702 57.9446 29.4459 58.1653C30.1501 57.9024 30.7867 58.5885 31.017 58.9644C32.3781 58.1954 34.7542 58.7647 35.7721 59.1454Z" fill="#E48131"/>
<path d="M46.6729 36.6832C44.8762 38.5041 41.6272 42.2997 43.0054 42.9154L43.8225 43.0723L44.3405 42.4986C44.9764 42.5328 46.3949 42.3837 46.9811 41.5128C47.4976 41.2022 48.5502 40.3565 48.6275 39.4583C49.001 39.4909 49.7554 39.2709 49.7856 38.1294L50.1183 38.2226L50.2363 38.8305L49.9331 38.8894L50.0511 39.4974L50.6576 39.3796L50.5396 38.7717L50.4805 38.4677L50.7838 38.4088L50.6067 37.4968L51.6681 37.2908L51.373 35.7709C51.8476 35.7839 52.8033 35.6825 52.8302 35.1726L54.9528 34.7605C55.4667 34.9762 56.8044 35.2213 58.0442 34.4759C59.2459 34.4529 61.6443 34.2187 61.624 33.4656C62.6657 33.1582 64.8324 32.8112 65.1661 33.8821C65.8682 34.7973 67.2942 35.9294 67.3814 33.1366C67.7127 33.4929 68.661 34.0553 69.8032 33.4551C70.4462 34.0663 71.9699 35.0534 72.9199 34.1119C73.6529 34.9159 75.5256 36.3504 77.1529 35.656C76.4298 34.9026 74.7106 33.4488 73.619 33.6607C72.8426 33.4434 71.7025 32.8656 73.3535 32.2928C73.6343 32.6589 74.4689 33.338 75.5605 33.1261C74.8276 32.3221 72.9497 30.6993 71.3021 30.6406C69.2642 29.5829 65.4612 28.6333 60.8238 29.3431L61.8633 28.2143C62.3772 28.43 63.8933 28.1357 65.8471 25.2329C66.305 26.5109 67.8187 28.257 70.2104 25.0168C70.4815 25.3322 71.2315 25.5757 72.0635 24.0262C72.5872 24.2926 73.6362 24.5095 73.6427 23.2465C74.4754 24.294 76.7185 25.9616 79.0297 24.2512C79.7976 24.1547 81.2315 23.7607 80.8237 22.9566C81.8134 22.9222 83.7634 22.7014 83.6454 22.0934C84.2393 22.4513 85.3445 22.7415 85.014 21.0391C84.6264 19.8526 83.0509 17.5718 79.85 17.9408C76.7109 17.709 69.5254 18.0838 65.8971 21.4378C63.39 23.111 58.6221 27.0787 59.6081 29.5643C59.2609 29.6375 58.9098 29.7202 58.555 29.813C57.4253 27.5054 52.555 25.1634 42.1112 34.2566C40.2219 36.4108 37.0422 40.887 39.4379 41.5575C39.1374 41.0901 39.6785 39.5551 44.247 37.1541C44.7073 36.0133 46.1494 33.662 48.235 33.3833C48.6871 33.8213 49.7454 34.1942 50.3617 32.1819C50.9141 32.0556 51.7942 32.1048 50.8956 33.3115C49.4979 34.2422 48.0847 35.3568 46.6729 36.6832Z" fill="#E48131"/>
<path d="M35.9172 101.229C37.2082 104.638 45.0981 106.649 48.8818 107.229C48.053 108.147 44.2573 107.181 42.463 106.583C41.4095 106.991 39.567 105.442 38.7775 104.617C37.5645 104.852 36.3652 102.456 35.9172 101.229Z" fill="#E48131"/>
<path d="M105.528 37.5611C105.86 37.6542 106.506 38.065 106.429 38.9633C106.067 38.7182 105.379 38.0945 105.528 37.5611Z" fill="#E48131"/>
<path d="M104.442 42.5035C104.857 42.2126 105.674 42.0435 105.617 43.6949C104.909 43.8322 103.684 43.7862 104.442 42.5035Z" fill="#E48131"/>
<path d="M98.9965 46.8726C99.5019 46.7745 100.511 46.8941 100.504 48.1571C100.051 47.9823 99.1145 47.4806 98.9965 46.8726Z" fill="#E48131"/>
<path d="M107.113 47.3476C107.506 47.4816 108.182 47.9918 107.74 48.9607C107.46 48.5946 106.941 47.7595 107.113 47.3476Z" fill="#E48131"/>
<path d="M97.1894 44.8576C97.7283 43.7436 96.5321 43.0925 95.8666 42.9063L96.4059 44.0633C96.567 44.8934 96.9954 44.9387 97.1894 44.8576Z" fill="#E48131"/>
<path d="M88.6316 47.7806C89.1567 47.7838 90.0594 48.1658 89.47 49.6682C88.7835 49.6437 87.6547 49.232 88.6316 47.7806Z" fill="#E48131"/>
<path d="M95.6388 40.1115C96.1442 40.0134 97.0261 40.1261 96.5108 41.3617C96.0552 41.176 95.243 40.666 95.6388 40.1115Z" fill="#E48131"/>
<path d="M86.3016 41.4508C87.1608 41.284 88.5203 41.2094 87.0851 42.245C86.7117 42.2124 86.0321 42.0078 86.3016 41.4508Z" fill="#E48131"/>
<path d="M82.712 61.8628C82.6681 60.9881 81.9075 61.2304 81.5327 61.4609C81.2632 62.0179 82.0635 62.3042 82.4973 62.3777C82.8343 62.8169 83.2835 62.6456 83.466 62.5051L83.584 63.1131C83.3618 63.9133 84.1935 64.3617 84.6372 64.4858C84.5126 65.1409 85.3715 65.0268 85.8165 64.8878C86.0388 64.0876 85.4288 63.7013 85.0961 63.6082C85.5137 62.5177 84.1834 62.4184 83.466 62.5051C83.8332 61.8029 83.1163 61.7843 82.712 61.8628Z" fill="#E48131"/>
<path d="M83.2685 65.5401C81.8903 64.9244 82.0233 66.1499 82.2621 66.8395C80.9751 67.3417 81.7821 67.8791 82.3465 68.0849C83.1956 67.9201 82.644 67.186 82.2621 66.8395L83.2644 66.3295C84.0663 65.9215 83.6012 65.6333 83.2685 65.5401Z" fill="#E48131"/>
<path d="M88.7022 69.217C89.1977 69.0683 90.0903 69.0738 89.6963 70.2858C88.9789 70.3725 87.7757 70.2801 88.7022 69.217Z" fill="#E48131"/>
<path d="M89.7938 74.8409L89.1873 74.9586L89.4234 76.1745L90.0298 76.0568L89.7938 74.8409Z" fill="#E48131"/>
<path d="M77.5136 82.9026C78.1608 82.7244 79.3685 82.7318 79.0216 84.1871C78.1414 84.5157 76.6075 84.7188 77.5136 82.9026Z" fill="#E48131"/>
<path d="M68.5969 79.1132C69.2736 79.087 70.3835 79.2396 69.4099 80.0594C68.8638 80.218 67.9367 80.2508 68.5969 79.1132Z" fill="#E48131"/>
<path d="M72.375 80.7456C72.8312 80.3942 73.7968 79.9649 74.0092 81.0593C73.341 81.3993 72.0787 81.8126 72.375 80.7456Z" fill="#E48131"/>
<path d="M65.4973 80.9766L65.4006 82.0995C64.427 82.9193 64.088 82.0914 64.0402 81.5749C63.9222 80.967 64.457 81.0209 64.7392 81.1238L65.4973 80.9766Z" fill="#E48131"/>
<path d="M67.0168 74.2151C66.1946 73.87 65.9863 74.31 65.985 74.5731L66.5283 74.9408C67.3774 74.776 67.2077 74.3883 67.0168 74.2151Z" fill="#E48131"/>
<path d="M65.3531 73.7494C65.4626 74.0436 65.4821 74.5761 64.6835 74.3526C64.5445 73.9064 64.4837 73.1611 65.3531 73.7494Z" fill="#E48131"/>
<path d="M62.4469 73.3672L61.6889 73.5144C62.0022 73.8321 61.6145 74.2123 61.3815 74.3626C60.7246 74.8687 61.5487 75.2239 62.0429 75.3383C62.9156 75.2951 62.7939 74.6142 62.624 74.2792L62.4469 73.3672Z" fill="#E48131"/>
<path d="M52.7434 75.2508C53.1106 74.5487 52.1522 74.3667 51.6272 74.3634L51.7157 74.8194C52.0022 75.647 52.5202 75.4519 52.7434 75.2508Z" fill="#E48131"/>
<path d="M49.466 70.5244C49.6485 70.3839 50.0245 70.3214 50.0684 71.1961C49.7651 71.255 49.2201 71.203 49.466 70.5244Z" fill="#E48131"/>
<path d="M47.5286 70.2696C47.7826 69.9575 48.3439 69.6067 48.5563 70.701C48.2826 70.9119 47.6938 71.1208 47.5286 70.2696Z" fill="#E48131"/>
<path d="M46.1468 68.0143L46.2943 68.7743C47.0929 68.9978 47.4384 68.1842 47.5114 67.7494L46.6353 67.2886L46.6017 67.926L46.1468 68.0143Z" fill="#E48131"/>
<path d="M44.9388 73.1382C45.3768 72.8008 45.0229 72.491 44.7913 72.3782C43.6288 72.2253 43.7595 72.7362 43.9701 73.0108C44.0645 73.4972 44.6552 73.2984 44.9388 73.1382Z" fill="#E48131"/>
<path d="M44.1299 71.4025C44.642 70.7984 44.1438 70.6638 43.8308 70.672L43.5865 71.0349C43.7282 71.7644 44.0078 71.584 44.1299 71.4025Z" fill="#E48131"/>
<path d="M40.8328 76.301L40.4157 74.9625C40.6881 75.0148 41.2749 75.1743 41.4434 75.3939C41.6119 75.6136 41.1066 76.0902 40.8328 76.301Z" fill="#E48131"/>
<path d="M42.6818 76.0999C42.5878 76.6964 42.6306 77.7816 43.5538 77.3501C43.5565 76.8238 43.3859 75.837 42.6818 76.0999Z" fill="#E48131"/>
<path d="M39.3675 78.4782C39.7101 78.622 40.2975 79.0547 39.9068 79.6352C39.4126 79.5209 38.6128 79.1294 39.3675 78.4782Z" fill="#E48131"/>
<path d="M35.264 69.4959C35.3112 69.7391 34.8963 70.3034 34.6829 70.5551C34.8245 71.2846 35.2473 70.761 35.441 70.4079C35.8073 69.8636 35.205 69.192 35.264 69.4959Z" fill="#E48131"/>
<path d="M33.7732 70.7317C34.3088 70.2491 33.5751 69.9815 33.1413 69.908C33.5019 70.4689 33.0249 70.9295 32.7414 71.0897C33.5131 71.8231 33.7508 71.1566 33.7732 70.7317Z" fill="#E48131"/>
<path d="M36.0729 71.2316L35.3148 71.3787C34.9981 71.6926 35.503 72.0782 35.795 72.2319L36.1614 71.6876L36.0729 71.2316Z" fill="#E48131"/>
<path d="M32.5439 74.1247L32.089 74.213L32.266 75.125L32.7209 75.0367L32.5439 74.1247Z" fill="#E48131"/>
<path d="M30.8761 74.4485C30.4928 74.3651 29.84 74.4603 30.295 75.5076C30.6685 75.5402 31.3075 75.3741 30.8761 74.4485Z" fill="#E48131"/>
<path d="M30.6491 77.3315C30.6504 77.0684 30.8107 76.5431 31.4408 76.547C31.4689 76.9621 31.35 77.7002 30.6491 77.3315Z" fill="#E48131"/>
<path d="M29.3984 78.9938C29.8421 79.118 30.5163 79.5654 29.664 80.3617C29.3017 80.1166 28.7415 79.4998 29.3984 78.9938Z" fill="#E48131"/>
<path d="M32.2333 81.4402C32.8384 81.5856 33.9509 82.0216 33.5601 82.6022C32.8329 82.6382 31.5494 82.4562 32.2333 81.4402Z" fill="#E48131"/>
<path d="M40.3788 82.0672C40.7733 81.938 41.4637 81.9827 41.0697 83.1948C40.737 83.1017 40.133 82.7458 40.3788 82.0672Z" fill="#E48131"/>
<path d="M40.1518 84.9502C40.3774 83.5185 39.6841 83.6215 39.3093 83.852L39.2757 84.4894L39.5789 84.4305L39.5453 85.0679L40.1518 84.9502Z" fill="#E48131"/>
<path d="M38.6651 85.3965C38.967 85.6008 39.4309 86.0996 38.8717 86.4605C38.5094 86.2154 37.961 85.6594 38.6651 85.3965Z" fill="#E48131"/>
<path d="M41.6975 84.8079C41.9699 84.8602 42.3925 85.1462 41.904 85.8719C41.5923 85.6169 41.1146 85.0472 41.6975 84.8079Z" fill="#E48131"/>
<path d="M42.3761 88.3038L42.1401 87.0878L42.7465 86.9701L42.9826 88.1861L42.3761 88.3038Z" fill="#E48131"/>
<path d="M50.6724 83.2235C50.8678 82.9332 50.4337 82.5338 50.1922 82.3704C50.2394 82.6136 49.9059 83.0568 49.7332 83.2481C49.2952 83.5854 49.607 84.2189 49.8176 84.4935C50.2051 84.5444 50.2457 83.7269 50.2176 83.3118L50.6724 83.2235Z" fill="#E48131"/>
<path d="M30.7474 87.5644C30.4813 87.4898 30.336 87.0659 30.2967 86.8632L29.9935 86.9221C29.6263 87.6243 30.2 87.9861 30.5327 88.0792C31.2336 88.4479 30.9679 87.8896 30.7474 87.5644Z" fill="#E48131"/>
<path d="M28.9444 84.7599C29.2856 85.1668 29.8282 86.0709 29.269 86.4319C29.1201 85.935 28.8467 84.905 28.9444 84.7599Z" fill="#E48131"/>
<path d="M27.9986 68.5404C28.75 68.5207 28.4576 67.6627 28.2174 67.2362L27.5774 67.9913L27.9986 68.5404Z" fill="#E48131"/>
<path d="M25.1605 72.5612C25.5031 72.705 26.072 73.2044 25.6072 74.0517C25.1846 73.7658 24.5036 73.0673 25.1605 72.5612Z" fill="#E48131"/>
<path d="M25.8842 67.3736C26.3221 67.0363 26.1311 66.4845 25.9809 66.2508C26.0517 66.6156 25.1766 67.511 24.7302 67.9131C24.2451 68.0073 24.4805 69.3285 24.6589 69.9773C25.2654 69.8596 25.1515 68.4622 25.4547 68.4033C25.7579 68.3445 25.3367 67.7954 25.8842 67.3736Z" fill="#E48131"/>
<path d="M25.9595 64.52C25.4036 64.2494 24.9193 64.5642 24.7466 64.7555C24.5274 64.9232 24.9755 65.3941 25.2269 65.6086C25.9546 65.4673 26.0186 64.824 25.9595 64.52Z" fill="#E48131"/>
<path d="M52.836 45.7388C53.3105 45.7519 54.2099 46.0084 54.0112 46.9302C53.3949 46.9973 52.297 46.8529 52.836 45.7388Z" fill="#E48131"/>
<path d="M40.4246 49.883C40.676 50.0971 41.0691 50.6096 40.6312 50.947C40.37 50.6822 39.9631 50.0988 40.4246 49.883Z" fill="#E48131"/>
<path d="M40.5377 45.6026C40.9393 46.0503 41.5605 46.9812 40.8328 47.1225C40.5112 46.8169 40.0021 46.0851 40.5377 45.6026Z" fill="#E48131"/>
<path d="M43.1259 60.5569C43.2986 60.3657 43.5655 59.9038 43.2521 59.5861C42.7159 59.7953 41.9399 60.2824 43.1259 60.5569Z" fill="#E48131"/>
<path d="M73.0642 41.3391C73.1448 39.8093 71.7105 39.4989 70.9833 39.5349C70.5926 40.1155 71.4018 40.6103 71.8553 40.7851L73.0642 41.3391Z" fill="#E48131"/>
<path d="M72.997 42.6139C73.3803 42.6972 74.0129 42.9845 73.4772 43.467C73.1248 43.2726 72.5354 42.8297 72.997 42.6139Z" fill="#E48131"/>
<path d="M80.1156 48.4873C80.8703 47.8361 80.2727 47.4053 79.8796 47.2713C79.1014 47.8009 79.6734 48.1 80.0566 48.1833C79.7619 48.556 79.361 49.1385 80.1156 48.4873Z" fill="#E48131"/>
<path d="M76.8218 46.9186C77.1363 46.6472 77.7635 46.4203 77.757 47.6834C77.3737 47.6 76.6501 47.3304 76.8218 46.9186Z" fill="#E48131"/>
<path d="M83.1823 23.7605C83.4856 23.7017 84.0668 23.7781 83.9658 24.5548C83.532 24.4813 82.768 24.2195 83.1823 23.7605Z" fill="#E48131"/>
<path d="M73.1797 24.9136L72.27 25.0902C71.9533 25.404 72.5396 25.6687 72.8724 25.7619C73.6473 25.8638 73.4002 25.2388 73.1797 24.9136Z" fill="#E48131"/>
<path d="M69.8654 27.2919C69.7238 26.5623 69.2617 26.8833 69.0483 27.135C68.634 27.594 69.0751 27.8133 69.3475 27.8656C69.8562 27.893 69.9048 27.4945 69.8654 27.2919Z" fill="#E48131"/>
<path d="M86.8925 20.99C87.2757 21.0733 87.9808 21.4096 87.735 22.0882C87.2408 21.9738 86.3804 21.5941 86.8925 20.99Z" fill="#E48131"/>
<path d="M89.1036 21.0339C89.588 21.0976 90.5862 21.377 90.7042 21.985C90.1496 21.8298 89.0531 21.4222 89.1036 21.0339Z" fill="#E48131"/>
<path d="M43.0849 39.2724C41.7303 38.7783 40.5973 39.9656 40.2001 40.621C40.95 42.0526 41.1688 40.7484 41.3204 40.719C41.4417 40.6954 42.5473 39.7448 43.0849 39.2724Z" fill="#E48131"/>
<path d="M116.194 83.5957C116.1 83.1093 115.186 83.2656 114.741 83.4046C114.519 84.2048 115.07 84.2871 115.373 84.2283C115.686 84.2201 116.289 84.0821 116.194 83.5957Z" fill="#E48131"/>
<path d="M110.054 87.6266C110.618 87.8325 111.468 88.4247 110.349 89.1465C109.957 88.7494 109.35 87.8895 110.054 87.6266Z" fill="#E48131"/>
<path d="M108.925 83.4296C108.952 82.9197 108.312 82.7072 107.99 82.6648C107.478 83.2689 108.299 83.446 108.773 83.459C108.812 83.6617 108.898 83.9395 108.925 83.4296Z" fill="#E48131"/>
<path d="M109.906 82.8099L109.868 82.6156C109.851 82.6761 109.867 82.7422 109.906 82.8099L110.045 83.5276C110.326 83.8936 110.991 84.511 111.405 84.0521C111.386 83.9507 111.208 83.6804 110.651 83.4098C110.426 83.2911 110.037 83.0407 109.906 82.8099Z" fill="#E48131"/>
<path d="M102.145 88.2156C102.477 88.3087 103.069 88.6039 102.776 89.0393C102.453 88.9968 101.875 88.7726 102.145 88.2156Z" fill="#E48131"/>
<path d="M101.168 89.667L100.351 89.5102C99.5924 89.6573 100.073 90.5104 100.528 90.4221C100.891 90.3515 101.106 89.8893 101.168 89.667Z" fill="#E48131"/>
<path d="M98.0222 94.5361C98.2833 94.8008 98.6844 95.3539 98.1992 95.448C97.8566 95.3042 97.3416 94.9205 98.0222 94.5361Z" fill="#E48131"/>
<path d="M103.973 91.9614C104.469 91.8127 105.319 91.7632 104.756 92.7557C104.342 92.7835 103.606 92.6636 103.973 91.9614Z" fill="#E48131"/>
<path d="M102.549 91.9223L101.64 92.0989C101.37 92.6559 102.232 92.7199 102.697 92.6823L102.549 91.9223Z" fill="#E48131"/>
<path d="M113.954 89.0776C114.102 88.5441 113.494 88.3258 113.171 88.2833C112.588 88.5227 113.085 89.1937 113.407 89.4993L113.954 89.0776Z" fill="#E48131"/>
<path d="M116.128 90.5484C116.34 90.5598 116.666 90.7278 116.275 91.3083C115.787 92.034 115.521 90.6661 116.128 90.5484Z" fill="#E48131"/>
<path d="M106.101 96.4378C106.446 96.0554 107.189 95.7219 107.398 97.4478C106.69 97.5851 105.44 97.5754 106.101 96.4378Z" fill="#E48131"/>
<path d="M102.517 98.2376C103.099 98.8079 103.992 100.002 102.9 100.214C102.368 99.6333 101.546 98.4259 102.517 98.2376Z" fill="#E48131"/>
<path d="M98.6762 102.768C99.3614 103.056 100.38 103.763 98.9713 104.288C98.4364 104.234 97.6285 103.855 98.6762 102.768Z" fill="#E48131"/>
<path d="M102.377 95.8988C102.821 96.023 103.489 96.44 102.613 97.1147C102.008 96.9693 101.114 96.5226 102.377 95.8988Z" fill="#E48131"/>
<path d="M74.851 105.658C75.9256 104.062 74.636 104.28 73.8568 104.589C72.7619 105.433 74.083 105.755 74.8805 105.81L74.851 105.658Z" fill="#E48131"/>
<path d="M66.8447 107.37C67.7432 107.406 69.2724 107.719 68.2011 108.684C67.0808 108.586 65.241 108.186 66.8447 107.37Z" fill="#E48131"/>
<path d="M77.4498 106.889C77.986 106.679 79.0325 106.613 78.9282 108.021C78.2923 107.987 77.1062 107.712 77.4498 106.889Z" fill="#E48131"/>
<path d="M69.764 111.062C70.3606 110.894 71.5405 110.812 71.4867 111.832C70.7975 112.333 69.488 112.882 69.764 111.062Z" fill="#E48131"/>
<path d="M70.5606 115.166C71.0955 115.22 72.2007 115.51 72.3423 116.239C71.5955 116.174 70.1935 115.868 70.5606 115.166Z" fill="#E48131"/>
<path d="M65.6826 109.488C65.6859 108.857 64.5973 108.49 64.0525 108.385L65.0467 109.454L65.8891 110.552C65.9095 111.305 66.521 111.376 66.8243 111.317C67.215 110.737 66.4254 110.343 65.9818 110.219L65.6826 109.488Z" fill="#E48131"/>
<path d="M64.6426 111.425L64.1878 111.513L64.1542 112.151L64.7606 112.033L64.6426 111.425Z" fill="#E48131"/>
<path d="M57.8198 112.75L57.0617 112.897L57.1798 113.505L57.9673 113.51L58.2116 113.147L57.8198 112.75Z" fill="#E48131"/>
<path d="M57.5928 115.633C57.9256 115.726 58.5843 116.04 58.5574 116.549C58.0324 116.546 57.1044 116.358 57.5928 115.633Z" fill="#E48131"/>
<path d="M60.0654 117.834C60.4697 117.755 61.1925 117.804 60.8489 118.628C60.4446 118.707 59.7219 118.658 60.0654 117.834Z" fill="#E48131"/>
<path d="M58.0608 118.854C58.4848 118.877 59.2898 119.025 59.118 119.437C58.7544 119.455 58.0339 119.364 58.0608 118.854Z" fill="#E48131"/>
<path d="M127.841 63.3546C128.202 63.8629 128.789 65.0001 128.254 65.4826C127.821 65.1459 127.133 64.249 127.841 63.3546Z" fill="#E48131"/>
<path d="M125.576 73.5729C126.252 73.8099 127.522 74.5201 127.202 75.4654C126.538 75.016 125.283 74.0084 125.576 73.5729Z" fill="#E48131"/>
<path d="M130.305 67.1348C130.764 66.2571 131.627 66.9728 132.179 67.875C131.667 68.4791 130.717 67.6332 130.305 67.1348Z" fill="#E48131"/>
<path d="M132.474 63.7171C132.566 63.3837 132.54 62.6002 131.694 62.1334C131.701 62.7104 131.867 63.8348 132.474 63.7171Z" fill="#E48131"/>
<path d="M128.4 54.8869C128.925 54.8901 129.973 55.2123 129.967 56.4754C129.311 56.3398 128.08 55.8322 128.4 54.8869Z" fill="#E48131"/>
<path d="M124.204 81.0945C124.446 81.2579 124.898 81.7485 124.773 82.4036C124.41 82.4216 123.787 82.1849 124.204 81.0945Z" fill="#E48131"/>
<path d="M61.0358 100.138C61.4639 101.696 60.4618 101.774 59.9072 101.619L59.368 100.462C58.6907 100.215 58.6137 97.9273 58.6599 96.8143L59.4597 94.4509C60.5343 92.8544 59.4944 91.6578 58.8401 91.259L59.2065 90.7148C61.9222 90.44 60.7232 94.2057 59.7843 96.1229C59.1745 96.8721 59.6794 98.8245 60.008 99.707L61.0358 100.138Z" fill="#450F00"/>
<path d="M98.5049 83.2441L98.8712 82.6998C99.1643 82.2644 99.3753 82.8649 99.4441 83.2195L99.6506 84.2835C99.89 84.8679 98.8352 85.7561 98.2779 86.1272C97.3784 86.6803 96.7491 86.8971 96.547 86.9363C93.7572 87.4779 93.7449 87.9008 94.0875 88.0446C93.0902 88.7429 94.3123 89.4731 95.048 89.7509C95.6309 89.5115 95.5996 88.5397 95.511 88.0838C97.8392 87.758 98.789 86.8691 98.9728 86.4654C100.721 85.7475 100.319 83.9435 99.899 83.1312C100.098 82.2094 99.4228 81.4887 99.0606 81.2436C97.4895 80.4445 97.9361 81.935 97.5403 82.3273C97.2236 82.6411 97.4225 83.6119 97.5616 84.0581C97.8986 84.4974 98.4096 84.1038 98.6229 83.8521L98.5049 83.2441Z" fill="#450F00"/>
<path d="M120.802 53.8382C121.038 55.0542 119.435 56.522 118.604 57.1039C118.81 58.1678 119.753 57.3539 120.057 57.295C120.299 57.2479 120.974 55.5396 121.282 54.6913C122.04 53.4086 121.35 51.2608 120.911 50.3472C120.695 49.8844 119.296 48.2422 118.623 47.479L118.299 45.8071L117.785 45.5914C117.953 46.1896 118.266 47.4222 118.168 47.5673C118.071 47.7125 119.45 49.5791 120.152 50.4943C120.779 51.1297 120.846 52.9883 120.802 53.8382Z" fill="#450F00"/>
<path d="M84.9067 35.8859L84.6035 35.9447L84.7215 36.5527L85.6312 36.3761L85.5132 35.7681L85.2099 35.827L85.1509 35.523L84.8477 35.5819L84.9067 35.8859Z" fill="#450F00"/>
<path d="M83.4495 36.4842L84.056 36.3664L84.174 36.9744L83.2643 37.151L83.2053 36.847L83.5086 36.7881L83.4495 36.4842Z" fill="#450F00"/>
<path d="M66.3152 57.6328C68.0572 58.1778 67.2181 58.7718 66.5807 59.0007C66.2353 59.1662 65.5134 61.8776 65.1957 63.2126C66.1123 64.0441 65.3306 64.4482 64.8253 64.5463C64.0234 64.9543 63.7694 63.6998 63.7426 63.0215L64.8039 62.8155L66.3152 57.6328Z" fill="#450F00"/>
<path d="M48.9472 65.4203C47.9028 65.8754 47.3608 65.6231 47.2204 65.4401L42.6719 66.323C40.2493 66.1624 37.285 65.3183 36.1056 64.9163C35.9542 66.0813 35.4361 65.5195 35.1959 65.0929C35.2733 64.1947 36.4411 64.4832 37.0153 64.7398C39.6504 65.9947 44.838 65.3242 47.1024 64.8321C47.857 64.1809 48.6467 64.9529 48.9472 65.4203Z" fill="#450F00"/>
<path d="M35.9187 54.2275C36.6701 54.2079 38.1692 54.4741 38.8249 54.6097C39.529 54.3469 37.3043 53.8008 36.104 53.5607C35.4739 53.5568 35.6841 52.7484 35.8679 52.3447C34.6045 52.9685 35.3754 53.8598 35.9187 54.2275Z" fill="#450F00"/>
<path d="M40.255 41.7144C37.8894 39.9024 42.2509 38.488 44.7273 38.0073C39.5556 39.8944 39.9558 40.9838 40.8024 41.2927C41.4292 41.9281 40.6986 41.8386 40.255 41.7144Z" fill="#450F00"/>
<path d="M86.6346 129.08C86.887 127.138 89.1995 129.055 90.3242 130.256C89.8581 130.557 88.0163 131.335 92.5075 141.504C93.0227 142.67 87.3847 132.404 87.1066 131.511L86.6346 129.08Z" fill="#270708"/>
<path d="M164.116 60.5716C165.325 60.9677 166.782 64.3125 167.36 65.9354C165.796 63.7154 165.203 63.1996 165.102 63.2192C163.616 62.4036 163.432 58.8118 162.882 59.0763C162.442 59.2879 162.611 60.3379 162.751 60.8365C162.024 60.9778 161.648 59.4735 161.551 58.7037C162.268 55.9148 163.56 58.7869 164.116 60.5716Z" fill="#270708"/>
<path d="M142.008 30.1642C141.6 29.3601 140.187 28.8879 139.532 28.7523C140.05 26.8851 142.247 28.9613 143.28 30.2327C144.662 30.2169 145.021 31.3668 145.028 31.9438C145.436 32.7479 148.4 37.9662 148.951 40.8034C148.826 41.4585 148.025 40.0893 147.624 39.6415C148.14 38.2794 146.309 36.1113 145.441 34.0717C145.62 32.3968 142.845 30.4223 142.008 30.1642Z" fill="#270708"/>
<path d="M17.6535 118.181C19.3762 118.95 21.1751 122.544 21.5882 124.672C21.3456 124.719 20.9858 124 20.6572 123.118C20.1989 122.702 19.6363 121.371 19.427 120.833C18.871 120.562 18.496 119.279 17.6535 118.181Z" fill="#270708"/>
</svg>
