<svg width="184" height="193" viewBox="0 0 184 193" fill="none" xmlns="http://www.w3.org/2000/svg">
<path d="M167.274 147.481L139.137 124.943L136.546 136.111L160.707 154.107C168.868 152.401 168.485 148.979 167.274 147.481Z" fill="#C3B23B"/>
<path d="M166.262 147.822L138.125 125.284L137.128 135.983L161.289 153.979C169.45 152.273 167.473 149.32 166.262 147.822Z" fill="#3F0805"/>
<path d="M132.68 30.389C126.442 34.1263 123.103 45.4918 121.974 51.8095C104.017 76.0563 65.6767 126.152 55.9722 132.562C46.2678 138.971 33.2095 137.079 27.8934 135.331C30.2466 137.282 33.92 143.375 35.4626 146.177C37.8307 151.653 45.6318 155.711 49.2363 157.055C72.8094 167.799 89.1201 150.142 91.1214 138.193C91.7254 142.401 94.3909 146.199 90.3074 153.663C85.2657 162.88 97.1792 161.313 100.499 160.684C106.407 162.352 113.048 159.394 115.63 157.706C122.66 156.512 128.242 151.765 130.006 149.1C151.256 120.356 137.922 110.02 127.1 108.361C128.98 108.578 132.224 108.981 137.411 109.675C142.106 110.837 150.881 106.277 154.681 103.852C161.277 101.758 164.591 94.5733 165.424 91.2424C169.716 89.4685 168.281 85.2137 169.792 84.3774C171.001 83.7084 171.708 79.2651 171.911 77.127C173.35 66.3149 167.44 59.5172 164.304 57.4699C160.241 57.7943 160.81 62.8966 161.602 65.4072C155.966 72.3822 151.301 76.9265 147.56 79.7279C152.986 73.9379 152.561 63.0573 151.209 56.8204C149.997 35.8241 138.439 29.1006 137.858 30.277C137.393 31.2181 133.754 30.3534 132.68 30.389Z" fill="#E3FF94"/>
<path d="M132.68 30.389C126.442 34.1263 123.103 45.4918 121.974 51.8095C125.603 50.5856 130.825 54.0533 132.983 55.9401L136.139 51.2812C141.376 51.3452 148.613 64.4296 151.577 70.9638C152.498 65.9796 152.021 60.5636 151.209 56.8204C149.997 35.8241 138.439 29.1006 137.858 30.277C137.393 31.2181 133.754 30.3534 132.68 30.389Z" fill="#EB772C"/>
<path d="M161.602 65.4072C149.987 79.7813 142.497 83.832 138.718 83.5813C143.313 84.3193 153.436 84.4026 157.164 78.8316C157.541 79.3038 158.516 81.9705 159.405 88.8603C161.148 88.8718 164.791 89.3645 165.424 91.2424C169.716 89.4685 168.281 85.2137 169.792 84.3774C171.001 83.7084 171.708 79.2651 171.911 77.127C173.35 66.3149 167.44 59.5172 164.304 57.4699C160.241 57.7943 160.81 62.8966 161.602 65.4072Z" fill="#EB772C"/>
<path d="M35.4626 146.177C37.8307 151.653 45.6318 155.711 49.2363 157.055C53.6872 159.084 57.8792 160.1 61.7648 160.333L69.3492 136.906C68.4521 137.339 65.41 136.852 64.001 136.554L55.9722 132.562C46.2678 138.971 33.2095 137.079 27.8934 135.331C30.2466 137.282 33.92 143.375 35.4626 146.177Z" fill="#EB772C"/>
<path d="M153.345 89.5003C154.197 87.7749 152.948 88.1634 152.217 88.5733C151.244 89.555 152.597 89.6981 153.394 89.647L153.345 89.5003Z" fill="#E48131"/>
<path d="M145.638 92.2625C146.533 92.1785 148.09 92.2852 147.157 93.3843C146.033 93.4363 144.157 93.2848 145.638 92.2625Z" fill="#E48131"/>
<path d="M156.084 90.3739C156.588 90.0951 157.616 89.89 157.7 91.2995C157.065 91.3502 155.853 91.236 156.084 90.3739Z" fill="#E48131"/>
<path d="M149.022 95.533C149.591 95.2867 150.75 95.0485 150.832 96.0665C150.216 96.6555 148.991 97.3736 149.022 95.533Z" fill="#E48131"/>
<path d="M150.358 99.4943C150.895 99.4765 152.029 99.617 152.267 100.321C151.518 100.356 150.088 100.239 150.358 99.4943Z" fill="#E48131"/>
<path d="M144.768 94.5166C144.687 93.8903 143.559 93.6715 143.005 93.6404L144.133 94.5673L145.114 95.5436C145.235 96.2874 145.85 96.2759 146.143 96.1772C146.453 95.5498 145.618 95.2649 145.162 95.2009L144.768 94.5166Z" fill="#E48131"/>
<path d="M143.995 96.5747L143.556 96.7227L143.607 97.3589L144.193 97.1615L143.995 96.5747Z" fill="#E48131"/>
<path d="M137.409 98.7954L136.677 99.0422L136.875 99.629L137.657 99.529L137.85 99.1369L137.409 98.7954Z" fill="#E48131"/>
<path d="M137.568 101.683C137.91 101.731 138.605 101.954 138.646 102.463C138.125 102.53 137.18 102.467 137.568 101.683Z" fill="#E48131"/>
<path d="M140.312 103.536C140.702 103.404 141.425 103.356 141.194 104.219C140.803 104.35 140.081 104.398 140.312 103.536Z" fill="#E48131"/>
<path d="M138.46 104.813C138.884 104.78 139.701 104.82 139.586 105.251C139.228 105.317 138.502 105.322 138.46 104.813Z" fill="#E48131"/>
<path d="M146.568 94.5145C147.872 95.8135 147.843 94.5108 147.665 93.6971C147.044 92.4917 146.581 93.7439 146.426 94.5206L146.568 94.5145Z" fill="#E48131"/>
<path d="M146.064 86.3734C145.914 87.2526 145.431 88.711 144.698 87.5105C144.933 86.4222 145.535 84.6712 146.064 86.3734Z" fill="#E48131"/>
<path d="M145.115 96.8875C145.235 97.4471 145.158 98.4874 143.897 98.1723C144.011 97.5513 144.415 96.4249 145.115 96.8875Z" fill="#E48131"/>
<path d="M142.342 88.6904C142.417 89.3032 142.337 90.4772 141.421 90.2703C141.057 89.516 140.731 88.1439 142.342 88.6904Z" fill="#E48131"/>
<path d="M138.525 88.8553C138.406 89.3738 137.999 90.4181 137.321 90.4474C137.477 89.7219 137.937 88.3878 138.525 88.8553Z" fill="#E48131"/>
<path d="M144.299 84.9095C144.87 85.008 145.344 83.9915 145.509 83.471L144.413 84.2885L143.309 84.9522C142.625 84.8585 142.481 85.45 142.495 85.7575C142.969 86.2298 143.428 85.5118 143.598 85.0937L144.299 84.9095Z" fill="#E48131"/>
<path d="M142.682 83.5931L142.661 83.132L142.089 83.0027L142.116 83.6176L142.682 83.5931Z" fill="#E48131"/>
<path d="M142.374 76.6757L142.34 75.9071L141.774 75.9315L141.667 76.7062L141.963 77.0014L142.374 76.6757Z" fill="#E48131"/>
<path d="M139.795 76.017C139.667 76.3305 139.297 76.9318 138.839 76.8283C138.911 76.3119 139.202 75.4265 139.795 76.017Z" fill="#E48131"/>
<path d="M137.48 78.1192C137.498 78.5291 137.36 79.2333 136.659 78.7707C136.641 78.3608 136.779 77.6566 137.48 78.1192Z" fill="#E48131"/>
<path d="M136.819 75.9915C136.743 76.4055 136.503 77.1757 136.153 76.9444C136.184 76.5836 136.361 75.8881 136.819 75.9915Z" fill="#E48131"/>
<path d="M146.568 94.5145C147.872 95.8135 147.843 94.5108 147.665 93.6971C147.044 92.4917 146.581 93.7439 146.426 94.5206L146.568 94.5145Z" fill="#E48131"/>
<path d="M146.064 86.3734C145.914 87.2526 145.431 88.711 144.698 87.5105C144.933 86.4222 145.535 84.6712 146.064 86.3734Z" fill="#E48131"/>
<path d="M145.115 96.8875C145.235 97.4471 145.158 98.4874 143.897 98.1723C144.011 97.5513 144.415 96.4249 145.115 96.8875Z" fill="#E48131"/>
<path d="M142.342 88.6904C142.417 89.3032 142.337 90.4772 141.421 90.2703C141.057 89.516 140.731 88.1439 142.342 88.6904Z" fill="#E48131"/>
<path d="M138.525 88.8553C138.406 89.3738 137.999 90.4181 137.321 90.4474C137.477 89.7219 137.937 88.3878 138.525 88.8553Z" fill="#E48131"/>
<path d="M144.299 84.9095C144.87 85.008 145.344 83.9915 145.509 83.471L144.413 84.2885L143.309 84.9522C142.625 84.8585 142.481 85.45 142.495 85.7575C142.969 86.2298 143.428 85.5118 143.598 85.0937L144.299 84.9095Z" fill="#E48131"/>
<path d="M142.682 83.5931L142.661 83.132L142.089 83.0027L142.116 83.6176L142.682 83.5931Z" fill="#E48131"/>
<path d="M142.374 76.6757L142.34 75.9071L141.774 75.9315L141.667 76.7062L141.963 77.0014L142.374 76.6757Z" fill="#E48131"/>
<path d="M139.795 76.017C139.667 76.3305 139.297 76.9318 138.839 76.8283C138.911 76.3119 139.202 75.4265 139.795 76.017Z" fill="#E48131"/>
<path d="M137.48 78.1192C137.498 78.5291 137.36 79.2333 136.659 78.7707C136.641 78.3608 136.779 77.6566 137.48 78.1192Z" fill="#E48131"/>
<path d="M136.819 75.9915C136.743 76.4055 136.503 77.1757 136.153 76.9444C136.184 76.5836 136.361 75.8881 136.819 75.9915Z" fill="#E48131"/>
<path d="M119.254 134.266C118.753 136.037 119.876 135.381 120.5 134.832C121.251 133.706 119.933 133.905 119.18 134.145L119.254 134.266Z" fill="#E48131"/>
<path d="M126.117 129.89C125.276 130.184 123.768 130.465 124.46 129.242C125.524 128.922 127.346 128.604 126.117 129.89Z" fill="#E48131"/>
<path d="M116.476 134.139C116.046 134.514 115.1 134.95 114.763 133.693C115.361 133.492 116.54 133.302 116.476 134.139Z" fill="#E48131"/>
<path d="M122.286 127.748C121.787 128.109 120.723 128.606 120.459 127.704C120.94 127.02 121.98 126.072 122.286 127.748Z" fill="#E48131"/>
<path d="M120.287 124.481C119.777 124.628 118.667 124.776 118.312 124.195C119.022 123.982 120.41 123.74 120.287 124.481Z" fill="#E48131"/>
<path d="M126.537 127.636C126.729 128.184 127.846 128.108 128.381 128.002L127.135 127.436L126.019 126.789C125.768 126.144 125.182 126.304 124.92 126.464C124.739 127.108 125.588 127.164 126.036 127.111L126.537 127.636Z" fill="#E48131"/>
<path d="M126.901 125.582L127.294 125.342L127.128 124.777L126.605 125.099L126.901 125.582Z" fill="#E48131"/>
<path d="M132.791 121.97L133.445 121.569L133.149 121.085L132.42 121.365L132.307 121.768L132.791 121.97Z" fill="#E48131"/>
<path d="M132.113 119.391C131.777 119.431 131.072 119.397 130.94 118.946C131.426 118.759 132.34 118.586 132.113 119.391Z" fill="#E48131"/>
<path d="M129.153 118.378C128.804 118.592 128.122 118.811 128.185 117.973C128.534 117.759 129.216 117.54 129.153 118.378Z" fill="#E48131"/>
<path d="M130.689 116.77C130.291 116.904 129.502 117.066 129.534 116.647C129.864 116.5 130.557 116.319 130.689 116.77Z" fill="#E48131"/>
<path d="M62.7624 153.315C62.262 155.086 63.385 154.43 64.009 153.881C64.76 152.755 63.4415 152.954 62.6884 153.194L62.7624 153.315Z" fill="#E48131"/>
<path d="M69.6252 148.939C68.7848 149.233 67.277 149.514 67.9688 148.291C69.033 147.972 70.8542 147.653 69.6252 148.939Z" fill="#E48131"/>
<path d="M59.9849 153.188C59.5544 153.563 58.609 153.999 58.2717 152.742C58.8692 152.542 60.0485 152.351 59.9849 153.188Z" fill="#E48131"/>
<path d="M65.7942 146.797C65.2954 147.158 64.2316 147.655 63.9673 146.753C64.449 146.069 65.4887 145.121 65.7942 146.797Z" fill="#E48131"/>
<path d="M63.7957 143.53C63.2854 143.677 62.176 143.825 61.8207 143.244C62.5301 143.031 63.9184 142.79 63.7957 143.53Z" fill="#E48131"/>
<path d="M70.0457 146.685C70.2371 147.233 71.3549 147.157 71.8899 147.051L70.6433 146.485L69.5276 145.838C69.277 145.193 68.6908 145.353 68.4291 145.514C68.2471 146.158 69.097 146.213 69.5448 146.16L70.0457 146.685Z" fill="#E48131"/>
<path d="M70.4095 144.632L70.8021 144.391L70.6369 143.827L70.1134 144.148L70.4095 144.632Z" fill="#E48131"/>
<path d="M76.2992 141.019L76.9536 140.618L76.6575 140.134L75.9291 140.414L75.8153 140.817L76.2992 141.019Z" fill="#E48131"/>
<path d="M75.6212 138.44C75.2854 138.48 74.5808 138.446 74.4487 137.995C74.9343 137.808 75.8487 137.635 75.6212 138.44Z" fill="#E48131"/>
<path d="M72.6614 137.427C72.3124 137.641 71.6302 137.86 71.6937 137.022C72.0427 136.808 72.7249 136.59 72.6614 137.427Z" fill="#E48131"/>
<path d="M74.1977 135.819C73.7993 135.953 73.0105 136.115 73.0423 135.696C73.3723 135.549 74.0655 135.368 74.1977 135.819Z" fill="#E48131"/>
<path d="M74.6617 137.773C74.453 135.943 73.6633 136.977 73.2946 137.723C73.0272 139.051 74.1708 138.365 74.776 137.856L74.6617 137.773Z" fill="#E48131"/>
<path d="M69.9759 144.435C70.6415 143.843 71.9288 143.009 71.7528 144.404C70.8902 145.105 69.3273 146.093 69.9759 144.435Z" fill="#E48131"/>
<path d="M77.2775 136.833C77.5334 136.322 78.2422 135.559 79.0306 136.594C78.5541 137.007 77.5362 137.632 77.2775 136.833Z" fill="#E48131"/>
<path d="M74.3297 144.96C74.6539 144.435 75.4489 143.57 76.0354 144.305C75.8493 145.121 75.2475 146.395 74.3297 144.96Z" fill="#E48131"/>
<path d="M77.4156 147.223C77.8318 146.893 78.8013 146.333 79.3499 146.736C78.7748 147.203 77.5829 147.955 77.4156 147.223Z" fill="#E48131"/>
<path d="M70.4417 146.681C70.057 146.247 69.0523 146.742 68.598 147.044L69.9652 147.094L71.2418 147.268C71.7179 147.77 72.1992 147.399 72.3804 147.15C72.3044 146.485 71.4977 146.757 71.1038 146.976L70.4417 146.681Z" fill="#E48131"/>
<path d="M70.8838 148.72L70.6121 149.093L70.9787 149.552L71.341 149.056L70.8838 148.72Z" fill="#E48131"/>
<path d="M66.8082 154.306L66.3554 154.926L66.8126 155.261L67.3797 154.725L67.3323 154.309L66.8082 154.306Z" fill="#E48131"/>
<path d="M68.4126 156.435C68.7081 156.27 69.3722 156.033 69.6655 156.401C69.2874 156.759 68.5075 157.267 68.4126 156.435Z" fill="#E48131"/>
<path d="M71.533 156.246C71.7745 155.915 72.3222 155.453 72.581 156.252C72.3395 156.583 71.7917 157.045 71.533 156.246Z" fill="#E48131"/>
<path d="M70.7222 158.319C71.0399 158.044 71.7076 157.594 71.837 157.993C71.5876 158.255 71.0154 158.686 70.7222 158.319Z" fill="#E48131"/>
<path d="M132.076 77.9147C131.672 79.7104 132.758 78.9949 133.351 78.4127C134.04 77.2475 132.734 77.5173 131.995 77.7979L132.076 77.9147Z" fill="#E48131"/>
<path d="M138.692 73.1731C137.868 73.5118 136.378 73.8746 137.003 72.6159C138.048 72.2387 139.849 71.822 138.692 73.1731Z" fill="#E48131"/>
<path d="M129.296 77.9388C128.886 78.3366 127.966 78.823 127.561 77.5857C128.147 77.3535 129.314 77.099 129.296 77.9388Z" fill="#E48131"/>
<path d="M134.751 71.2412C134.272 71.6292 133.237 72.1833 132.924 71.2962C133.368 70.5874 134.355 69.584 134.751 71.2412Z" fill="#E48131"/>
<path d="M132.579 68.0877C132.078 68.2618 130.978 68.4698 130.592 67.9091C131.289 67.6577 132.662 67.3413 132.579 68.0877Z" fill="#E48131"/>
<path d="M138.99 70.8989C139.211 71.4359 140.322 71.2998 140.851 71.1647L139.576 70.6666L138.427 70.0813C138.142 69.4509 137.565 69.6423 137.312 69.8168C137.165 70.4698 138.017 70.4791 138.461 70.4022L138.99 70.8989Z" fill="#E48131"/>
<path d="M139.242 68.8288L139.621 68.567L139.426 68.0126L138.92 68.3616L139.242 68.8288Z" fill="#E48131"/>
<path d="M144.928 64.902L145.559 64.4657L145.238 63.9986L144.525 64.3181L144.434 64.7262L144.928 64.902Z" fill="#E48131"/>
<path d="M144.111 62.3634C143.778 62.4211 143.073 62.4257 142.917 61.9821C143.391 61.7691 144.295 61.5472 144.111 62.3634Z" fill="#E48131"/>
<path d="M141.102 61.5123C140.765 61.745 140.095 62.0004 140.114 61.1605C140.45 60.9278 141.12 60.6724 141.102 61.5123Z" fill="#E48131"/>
<path d="M142.549 59.8234C142.158 59.9783 141.379 60.1829 141.388 59.763C141.71 59.5983 142.392 59.3799 142.549 59.8234Z" fill="#E48131"/>
<path d="M141.923 89.6693C142.488 91.4224 143.058 90.2523 143.273 89.4481C143.273 88.0928 142.288 88.9911 141.795 89.6097L141.923 89.6693Z" fill="#E48131"/>
<path d="M145.205 82.2103C144.669 82.922 143.571 83.9945 143.469 82.5915C144.177 81.7335 145.514 80.456 145.205 82.2103Z" fill="#E48131"/>
<path d="M139.544 91.1077C139.394 91.6593 138.849 92.5477 137.873 91.6881C138.259 91.1893 139.133 90.3748 139.544 91.1077Z" fill="#E48131"/>
<path d="M140.834 82.5554C140.62 83.1337 140.011 84.1391 139.291 83.5342C139.313 82.6971 139.652 81.3293 140.834 82.5554Z" fill="#E48131"/>
<path d="M137.365 80.9459C137.022 81.3517 136.181 82.0917 135.565 81.8055C136.036 81.2335 137.056 80.2607 137.365 80.9459Z" fill="#E48131"/>
<path d="M144.306 80.0989C144.768 80.449 145.656 79.7648 146.042 79.3789L144.692 79.6001L143.406 79.6816C142.841 79.2838 142.442 79.7428 142.314 80.022C142.519 80.6595 143.256 80.2333 143.599 79.9405L144.306 80.0989Z" fill="#E48131"/>
<path d="M143.471 78.1867L143.664 77.7679L143.215 77.3898L142.957 77.9483L143.471 78.1867Z" fill="#E48131"/>
<path d="M146.367 71.9043L146.689 71.2062L146.174 70.9678L145.724 71.6062L145.853 72.0047L146.367 71.9043Z" fill="#E48131"/>
<path d="M144.375 70.1332C144.118 70.3529 143.514 70.7165 143.154 70.414C143.454 69.9884 144.119 69.3364 144.375 70.1332Z" fill="#E48131"/>
<path d="M141.354 70.9348C141.183 71.3071 140.737 71.8685 140.326 71.1356C140.498 70.7633 140.944 70.2019 141.354 70.9348Z" fill="#E48131"/>
<path d="M141.741 68.7418C141.484 69.0744 140.918 69.6479 140.713 69.2814C140.906 68.9755 141.381 68.4394 141.741 68.7418Z" fill="#E48131"/>
<path fill-rule="evenodd" clip-rule="evenodd" d="M35.4626 146.177C33.92 143.375 30.2466 137.282 27.8934 135.331C28.9324 135.909 30.3046 136.75 31.7309 137.742C34.9876 140.009 38.5265 143.07 39.0266 145.629C42.4425 149.467 49.6772 157.248 51.6292 158.059L51.7033 158.088C51.6886 158.083 51.6736 158.077 51.6583 158.071C51.6487 158.067 51.639 158.063 51.6292 158.059C50.8403 157.757 50.0425 157.423 49.2363 157.055C45.6318 155.711 37.8307 151.653 35.4626 146.177ZM92.4275 147.614C93.6664 142.082 98.4215 138.202 100.789 136.894C102.682 133.776 110.757 132.83 115.675 132.703C116.202 132.689 116.694 132.685 117.137 132.688C133.019 126.81 138.475 118.848 139.218 115.602C143.033 121.766 142.439 132.282 130.006 149.1C128.242 151.765 122.66 156.512 115.63 157.706C113.048 159.394 106.407 162.352 100.499 160.684C97.1792 161.313 85.2657 162.88 90.3074 153.663L92.225 148.768C92.2749 148.376 92.343 147.991 92.4275 147.614ZM124.996 108.143C125.216 108.155 125.862 108.218 127.1 108.361C126.384 108.251 125.679 108.179 124.996 108.143ZM154.681 103.852C153.69 104.484 152.362 105.261 150.856 106.044C150.743 104.42 151.179 100.621 153.827 98.4208C155.151 95.5781 158.119 89.7841 159.407 89.3498C159.526 86.6409 160.173 81.0849 161.813 80.5322C161.915 78.6577 162.179 75.6404 162.627 73.1653C162.831 72.0378 163.074 71.0228 163.356 70.2795C163.554 69.7566 163.773 69.3682 164.012 69.1697C163.55 67.8004 162.919 64.963 164.09 64.5682C163.927 62.8258 163.387 59.0862 162.534 58.0667C162.991 57.7416 163.573 57.5283 164.304 57.4699C167.44 59.5172 173.35 66.3149 171.911 77.127C171.708 79.2651 171.001 83.7084 169.792 84.3774C169.235 84.6858 169.078 85.4589 168.887 86.4011C168.56 88.0141 168.133 90.1225 165.424 91.2424C164.591 94.5733 161.277 101.758 154.681 103.852ZM147.56 79.7279C145.948 81.4474 143.821 82.7179 141.048 83.2846C140.156 83.5371 139.38 83.6252 138.718 83.5813C139.541 83.5344 140.317 83.434 141.048 83.2846C142.777 82.7951 144.942 81.6882 147.56 79.7279ZM151.209 56.8204C151.514 58.2287 151.772 59.8739 151.927 61.6437C150.412 61.1241 149.143 59.7151 148.097 57.8697C145.826 53.8616 144.608 47.7947 144.219 44.3082C143.122 43.763 141.453 37.2344 140.756 34.0382L137.858 30.277C138.439 29.1006 149.997 35.8241 151.209 56.8204Z" fill="#B13E20"/>
<path d="M148.097 57.8697C149.143 59.7151 150.412 61.1241 151.927 61.6437C152.205 64.8374 152.144 68.4372 151.412 71.7845C152.133 68.0119 149.503 60.936 148.097 57.8697Z" fill="#B13E20"/>
<path d="M31.7309 137.742C30.3046 136.75 28.9324 135.909 27.8934 135.331C46.6579 145.735 59.5377 143.941 63.6321 141.744C55.253 148.506 40.648 142.889 31.7309 137.742Z" fill="#B13E20"/>
<path d="M135.881 30.7005C136.337 39.2879 136.857 56.8561 135.29 58.4303C134.879 57.6971 133.922 56.2117 133.375 56.1349C132.69 56.0388 135.718 55.3494 135.881 30.7005Z" fill="#B13E20"/>
<path d="M163.356 70.2795C163.074 71.0228 162.831 72.0378 162.627 73.1653C158.808 82.0471 151.125 87.6888 143.946 90.9743C152.37 85.8613 159.627 76.4256 163.356 70.2795Z" fill="#B13E20"/>
<path d="M108.218 126.055C114.851 128.325 116.928 131.423 117.137 132.688C116.694 132.685 116.202 132.689 115.675 132.703C114.96 129.423 110.406 126.905 108.218 126.055Z" fill="#B13E20"/>
<path d="M140.027 92.2958C137.851 93.1206 133.63 94.5705 131.775 94.7168C133.989 94.808 137.851 94.4316 140.027 92.2958Z" fill="#B13E20"/>
<path d="M167.041 75.7005L165.699 74.0789C165.253 74.8516 165.702 75.7333 165.982 76.0775C166.615 76.2858 166.952 75.913 167.041 75.7005Z" fill="#5D1400"/>
<path d="M165.997 78.7135C166.456 78.6329 167.265 78.6956 166.827 79.5918C166.413 79.5663 165.666 79.3548 165.997 78.7135Z" fill="#5D1400"/>
<path d="M168.438 80.576C167.659 80.0047 167.51 80.5829 167.533 80.9433L167.275 81.7352L167.747 81.8605L168.2 81.6769L168.438 80.576Z" fill="#5D1400"/>
<path d="M167.852 76.2698L167.792 75.3429L168.429 75.613L168.469 76.2309L167.852 76.2698Z" fill="#5D1400"/>
<path d="M168.752 73.421C169.016 73.5078 169.522 73.8378 169.438 74.4635C169.117 74.277 168.529 73.8073 168.752 73.421Z" fill="#5D1400"/>
<path d="M168.145 73.6144C167.995 73.6756 167.703 73.9525 167.743 74.5705C168.048 74.4995 168.555 74.209 168.145 73.6144Z" fill="#5D1400"/>
<path d="M168.046 72.0695C168.313 72.2078 168.76 72.5829 168.414 72.977C168.205 72.9385 167.839 72.703 168.046 72.0695Z" fill="#5D1400"/>
<path d="M166.31 71.5585C166.516 71.5456 166.904 71.6452 166.813 72.1473C166.61 72.2118 166.227 72.1843 166.31 71.5585Z" fill="#5D1400"/>
<path d="M168.727 70.6305C168.803 69.8812 168.404 69.6168 168.195 69.5783C167.957 69.7174 168.149 70.4602 168.275 70.8142L168.727 70.6305Z" fill="#5D1400"/>
<path d="M168.126 68.4969C168.743 68.458 168.651 67.8433 168.529 67.5408C168.494 66.9949 168.096 67.2362 167.902 67.4252L168.126 68.4969Z" fill="#5D1400"/>
<path d="M166.792 81.4554C166.629 80.8452 166.184 80.8216 165.982 80.8861C165.751 81.1488 165.378 81.131 165.221 81.0892L165.096 81.5624L165.713 81.5235C166.115 81.9945 166.6 81.6744 166.792 81.4554Z" fill="#5D1400"/>
<path d="M165.802 82.9139C166.059 82.8976 166.528 83.1163 166.344 84.1206C166.194 84.1818 165.874 84.0262 165.802 82.9139Z" fill="#5D1400"/>
<path d="M165.156 77.6807L164.848 77.7002L164.908 78.6271L165.196 78.2987L165.156 77.6807Z" fill="#5D1400"/>
<path d="M170.309 75.9598L169.692 75.9987L169.896 76.7614L170.348 76.5777L170.309 75.9598Z" fill="#5D1400"/>
<path d="M166.189 87.2264C166.207 87.6016 166.174 88.3425 165.9 88.3041C165.558 88.256 165.554 87.7673 166.189 87.2264Z" fill="#5D1400"/>
<path d="M162.326 86.4048C162.473 86.5186 162.807 86.8636 162.965 87.3331C162.671 87.1054 162.131 86.6011 162.326 86.4048Z" fill="#5D1400"/>
<path d="M161.759 91.0076C161.515 91.0899 161.057 91.3424 161.176 91.6945C161.29 91.7105 161.566 91.5956 161.759 91.0076Z" fill="#5D1400"/>
<path d="M163.559 89.0937C163.592 89.1915 163.609 89.4362 163.414 89.6325C163.381 89.5347 163.364 89.29 163.559 89.0937Z" fill="#5D1400"/>
<path d="M164.278 85.9099C164.393 85.4789 164.105 85.0764 163.947 84.929C163.805 85.2795 164.044 85.8597 164.181 86.106L164.278 85.9099Z" fill="#5D1400"/>
<path d="M158.022 96.8429C158.251 97.0381 158.65 97.5461 158.418 98.0166C158.189 97.8215 157.79 97.3135 158.022 96.8429Z" fill="#5D1400"/>
<path d="M144.151 39.756C144.38 39.9512 144.799 40.5179 144.646 41.2232C144.416 40.8649 143.996 40.0698 144.151 39.756Z" fill="#5D1400"/>
<path d="M147.191 42.4889C147.19 42.0973 146.733 41.9354 146.505 41.9034C146.427 42.0603 146.801 42.6205 146.997 42.8811L147.191 42.4889Z" fill="#5D1400"/>
<path d="M145.095 43.5226L145.338 43.2772C145.486 43.5542 145.752 44.118 145.635 44.1575C145.518 44.197 145.226 43.7507 145.095 43.5226Z" fill="#5D1400"/>
<path d="M147.105 45.1325C147.416 44.8967 147.395 44.5443 147.346 44.3976L146.956 44.6923L146.739 45.2559L147.105 45.1325Z" fill="#5D1400"/>
<path d="M148.97 47.2812L148.48 46.793L148.482 47.2825L148.776 47.6733L148.97 47.2812Z" fill="#5D1400"/>
<path d="M147.758 49.4873C148.003 49.5682 148.463 49.8378 148.348 50.2688C148.103 50.1879 147.643 49.9183 147.758 49.4873Z" fill="#5D1400"/>
<path d="M147.81 47.9991L147.847 47.3332L147.457 47.628L147.81 47.9991Z" fill="#5D1400"/>
<path d="M144.433 37.2099C144.568 36.6416 143.672 36.1595 143.207 35.9895L143.602 37.1632C143.721 37.5153 144.206 37.341 144.433 37.2099Z" fill="#5D1400"/>
<path d="M144.314 38.0669L143.8 37.7501C143.582 38.0683 143.874 38.3717 144.048 38.4836L144.314 38.0669Z" fill="#5D1400"/>
<path d="M147.762 50.4662C148.007 50.5472 148.457 50.7874 148.302 51.1011C148.109 51.4933 147.583 50.8999 147.762 50.4662Z" fill="#5D1400"/>
<path d="M115.755 141.317L116.874 139.536C116.001 139.351 115.306 140.052 115.067 140.425C115.067 141.092 115.526 141.298 115.755 141.317Z" fill="#5D1400"/>
<path d="M112.571 141.256C112.791 141.668 112.985 142.458 111.998 142.319C111.893 141.916 111.86 141.14 112.571 141.256Z" fill="#5D1400"/>
<path d="M111.568 144.158C111.866 143.239 111.272 143.276 110.937 143.41L110.105 143.409L110.134 143.898L110.45 144.272L111.568 144.158Z" fill="#5D1400"/>
<path d="M115.469 142.265L116.33 141.921L116.272 142.611L115.699 142.84L115.469 142.265Z" fill="#5D1400"/>
<path d="M118.453 142.24C118.453 142.518 118.298 143.102 117.678 143.216C117.755 142.852 118.016 142.147 118.453 142.24Z" fill="#5D1400"/>
<path d="M118.079 141.722C117.974 141.597 117.62 141.405 117.047 141.635C117.209 141.903 117.644 142.296 118.079 141.722Z" fill="#5D1400"/>
<path d="M119.513 141.149C119.466 141.446 119.25 141.988 118.768 141.78C118.739 141.569 118.848 141.148 119.513 141.149Z" fill="#5D1400"/>
<path d="M119.491 139.47C119.483 139.42 119.47 139.375 119.455 139.338C119.296 139.367 119.184 139.414 119.107 139.469L118.882 139.469L118.911 139.958L119.226 140.332L120.345 140.218C120.643 139.299 120.048 139.336 119.714 139.47L119.491 139.47Z" fill="#5D1400"/>
<path d="M121.091 141.351C121.826 141.191 121.952 140.73 121.923 140.519C121.716 140.335 121.072 140.748 120.776 140.977L121.091 141.351Z" fill="#5D1400"/>
<path d="M122.927 140.117C123.157 140.693 123.711 140.415 123.96 140.205C124.466 140.002 124.113 139.699 123.873 139.572L122.927 140.117Z" fill="#5D1400"/>
<path d="M110.219 142.863C110.747 142.519 110.63 142.088 110.506 141.915C110.185 141.777 110.085 141.416 110.075 141.253L109.588 141.282L109.817 141.857C109.496 142.385 109.952 142.748 110.219 142.863Z" fill="#5D1400"/>
<path d="M108.527 142.373C108.622 142.612 108.561 143.126 107.552 143.263C107.446 143.138 107.494 142.786 108.527 142.373Z" fill="#5D1400"/>
<path d="M113.288 140.136L113.173 139.848L112.313 140.192L112.714 140.365L113.288 140.136Z" fill="#5D1400"/>
<path d="M116.531 144.508L116.302 143.933L115.642 144.364L115.958 144.738L116.531 144.508Z" fill="#5D1400"/>
<path d="M124.532 137.377L125.65 135.596C124.778 135.411 124.082 136.112 123.844 136.485C123.844 137.152 124.303 137.358 124.532 137.377Z" fill="#5D1400"/>
<path d="M121.348 137.316C121.568 137.728 121.762 138.518 120.775 138.379C120.669 137.976 120.637 137.2 121.348 137.316Z" fill="#5D1400"/>
<path d="M124.246 138.325L125.106 137.981L125.049 138.671L124.476 138.9L124.246 138.325Z" fill="#5D1400"/>
<path d="M127.229 138.3C127.23 138.578 127.075 139.162 126.455 139.276C126.532 138.912 126.793 138.207 127.229 138.3Z" fill="#5D1400"/>
<path d="M126.856 137.782C126.751 137.657 126.397 137.465 125.823 137.695C125.986 137.963 126.42 138.356 126.856 137.782Z" fill="#5D1400"/>
<path d="M128.29 137.209C128.243 137.506 128.027 138.048 127.545 137.84C127.516 137.629 127.625 137.208 128.29 137.209Z" fill="#5D1400"/>
<path d="M128.232 135.398C128.309 135.589 128.336 135.99 127.831 136.058C127.707 135.886 127.613 135.512 128.232 135.398Z" fill="#5D1400"/>
<path d="M129.868 137.411C130.603 137.251 130.729 136.79 130.7 136.579C130.493 136.395 129.849 136.808 129.553 137.037L129.868 137.411Z" fill="#5D1400"/>
<path d="M131.704 136.177C131.934 136.753 132.488 136.475 132.737 136.265C133.243 136.062 132.89 135.759 132.65 135.632L131.704 136.177Z" fill="#5D1400"/>
<path d="M118.996 138.923C119.524 138.579 119.407 138.148 119.283 137.975C118.961 137.837 118.862 137.476 118.852 137.313L118.365 137.342L118.594 137.917C118.273 138.445 118.729 138.808 118.996 138.923Z" fill="#5D1400"/>
<path d="M117.304 138.433C117.399 138.672 117.338 139.186 116.329 139.323C116.223 139.198 116.271 138.846 117.304 138.433Z" fill="#5D1400"/>
<path d="M122.065 136.196L121.95 135.908L121.089 136.252L121.491 136.425L122.065 136.196Z" fill="#5D1400"/>
<path d="M125.308 140.568L125.079 139.993L124.419 140.424L124.735 140.798L125.308 140.568Z" fill="#5D1400"/>
<path d="M120.994 145.932C121.214 146.344 121.407 147.134 120.42 146.995C120.315 146.593 120.282 145.816 120.994 145.932Z" fill="#5D1400"/>
<path d="M119.991 148.834C120.289 147.915 119.694 147.953 119.359 148.086L118.527 148.085L118.556 148.574L118.872 148.948L119.991 148.834Z" fill="#5D1400"/>
<path d="M118.642 147.539C119.17 147.195 119.053 146.764 118.928 146.591C118.607 146.453 118.507 146.092 118.498 145.93L118.01 145.958L118.24 146.533C117.919 147.061 118.374 147.424 118.642 147.539Z" fill="#5D1400"/>
<path d="M116.949 147.049C117.045 147.289 116.984 147.802 115.974 147.939C115.869 147.814 115.917 147.462 116.949 147.049Z" fill="#5D1400"/>
<path d="M121.71 144.812L121.595 144.524L120.735 144.868L121.137 145.041L121.71 144.812Z" fill="#5D1400"/>
<path d="M128.359 141.649C128.577 141.482 129.113 141.288 129.518 141.853C129.147 141.943 128.397 142.028 128.359 141.649Z" fill="#5D1400"/>
<path d="M127.474 145.002C127.633 145.297 127.867 145.915 127.53 146.028C127.439 145.803 127.3 145.282 127.474 145.002Z" fill="#5D1400"/>
<path d="M124.835 143.432L124.265 143.193C124.203 143.345 124.372 143.974 124.465 144.269L124.835 143.432Z" fill="#5D1400"/>
<path d="M118.199 152.755C118.45 152.834 118.963 153.02 119.002 153.138C119.052 153.284 118.251 153.718 118.199 152.755Z" fill="#5D1400"/>
<path d="M114.066 148.301L113.136 150.187C114.022 150.282 114.643 149.513 114.842 149.117C114.774 148.454 114.296 148.297 114.066 148.301Z" fill="#5D1400"/>
<path d="M114.254 147.328L113.434 147.758L113.42 147.066L113.967 146.779L114.254 147.328Z" fill="#5D1400"/>
<path d="M111.29 147.659C111.261 147.383 111.355 146.785 111.96 146.608C111.921 146.978 111.733 147.706 111.29 147.659Z" fill="#5D1400"/>
<path d="M111.713 148.136C111.831 148.249 112.202 148.404 112.75 148.117C112.56 147.867 112.088 147.52 111.713 148.136Z" fill="#5D1400"/>
<path d="M110.346 148.853C110.363 148.553 110.522 147.991 111.023 148.149C111.073 148.355 111.008 148.786 110.346 148.853Z" fill="#5D1400"/>
<path d="M110.539 150.521C110.552 150.569 110.57 150.613 110.588 150.649C110.744 150.603 110.85 150.546 110.921 150.482L111.145 150.459L111.067 149.976L110.714 149.636L109.613 149.864C109.411 150.809 109.998 150.711 110.318 150.544L110.539 150.521Z" fill="#5D1400"/>
<path d="M108.756 148.813C108.041 149.048 107.963 149.52 108.013 149.727C108.238 149.889 108.836 149.412 109.108 149.153L108.756 148.813Z" fill="#5D1400"/>
<path d="M107.056 150.229C106.769 149.68 106.245 150.013 106.02 150.248C105.536 150.501 105.919 150.767 106.17 150.868L107.056 150.229Z" fill="#5D1400"/>
<path d="M112.969 145.205L113.256 145.754L113.868 145.258L113.516 144.918L112.969 145.205Z" fill="#5D1400"/>
<path d="M105.739 153.12L104.808 155.006C105.695 155.101 106.315 154.332 106.515 153.937C106.446 153.273 105.969 153.116 105.739 153.12Z" fill="#5D1400"/>
<path d="M108.912 152.854C108.651 152.467 108.378 151.701 109.374 151.738C109.52 152.128 109.631 152.896 108.912 152.854Z" fill="#5D1400"/>
<path d="M105.927 152.147L105.106 152.577L105.092 151.885L105.64 151.598L105.927 152.147Z" fill="#5D1400"/>
<path d="M102.962 152.478C102.933 152.202 103.028 151.604 103.632 151.427C103.593 151.797 103.405 152.525 102.962 152.478Z" fill="#5D1400"/>
<path d="M103.386 152.955C103.503 153.068 103.875 153.223 104.422 152.936C104.233 152.686 103.761 152.339 103.386 152.955Z" fill="#5D1400"/>
<path d="M102.018 153.672C102.035 153.372 102.195 152.811 102.695 152.968C102.745 153.174 102.68 153.605 102.018 153.672Z" fill="#5D1400"/>
<path d="M102.261 155.468C102.165 155.285 102.097 154.889 102.592 154.77C102.734 154.929 102.865 155.291 102.261 155.468Z" fill="#5D1400"/>
<path d="M100.428 153.632C99.7139 153.867 99.6357 154.339 99.6858 154.546C99.9101 154.708 100.509 154.231 100.78 153.972L100.428 153.632Z" fill="#5D1400"/>
<path d="M98.7283 155.048C98.4411 154.499 97.9179 154.832 97.6922 155.067C97.2088 155.32 97.591 155.586 97.8426 155.687L98.7283 155.048Z" fill="#5D1400"/>
<path d="M111.087 151.014C110.597 151.411 110.757 151.828 110.899 151.987C111.233 152.092 111.368 152.44 111.395 152.601L111.877 152.523L111.59 151.975C111.855 151.416 111.365 151.102 111.087 151.014Z" fill="#5D1400"/>
<path d="M112.821 151.329C112.701 151.1 112.709 150.583 113.7 150.344C113.817 150.457 113.806 150.812 112.821 151.329Z" fill="#5D1400"/>
<path d="M108.313 154.042L108.457 154.317L109.278 153.886L108.861 153.755L108.313 154.042Z" fill="#5D1400"/>
<path d="M104.641 150.024L104.928 150.573L105.541 150.077L105.188 149.737L104.641 150.024Z" fill="#5D1400"/>
<path d="M34.5658 142.068C34.9898 142.197 35.8381 142.554 35.8397 142.945C35.4646 142.8 34.6846 142.42 34.5658 142.068Z" fill="#5D1400"/>
<path d="M35.209 143.975C35.4701 144.105 35.9733 144.502 35.8975 145.05C35.6199 144.871 35.0936 144.406 35.209 143.975Z" fill="#5D1400"/>
<path d="M38.1505 146.415C38.2975 146.528 38.5528 146.834 38.3978 147.148C38.2343 146.985 37.9559 146.611 38.1505 146.415Z" fill="#5D1400"/>
<path d="M37.4558 143.871C37.6028 143.985 37.8581 144.291 37.7031 144.605C37.4592 144.687 37.0683 144.655 37.4558 143.871Z" fill="#5D1400"/>
<path d="M39.3873 150.082C39.5819 149.886 39.434 149.576 39.3358 149.446C38.8279 149.487 38.995 149.725 39.142 149.838L39.3873 150.082Z" fill="#5D1400"/>
<path d="M41.0446 149.197C41.1909 149.147 41.5034 149.107 41.5826 149.342C41.4362 149.391 41.1237 149.432 41.0446 149.197Z" fill="#5D1400"/>
<path d="M37.0725 145.634L36.2892 145.245C36.0946 145.441 36.8306 146.206 37.223 146.564C37.2609 146.29 37.1384 145.83 37.0725 145.634Z" fill="#5D1400"/>
<path d="M41.1519 151.448L40.954 150.861L40.8097 151.4L41.1519 151.448Z" fill="#5D1400"/>
<path d="M42.7204 152.717C42.6017 152.364 42.278 152.049 42.131 151.935C42.0492 151.854 41.8761 151.759 41.8383 152.034C41.8004 152.308 42.4106 152.603 42.7204 152.717Z" fill="#5D1400"/>
<path d="M89.6623 139.665C101.492 136.853 104.74 127.664 104.885 123.421C123.766 124.505 127.755 105.851 127.389 96.3882C154.235 79.3292 135.007 49.3753 121.873 51.0265C116.508 39.3715 103.805 37.5657 98.1244 38.1197C85.3873 18.2318 60.8644 30.0958 57.245 40.63C39.3843 40.6397 35.5769 57.577 38.2485 65.4997C20.505 74.7508 27.3384 96.4659 34.8912 103.396C35.8494 108.171 41.3851 114.115 44.0332 116.49C47.1221 135.317 63.9421 137.99 71.966 136.973C76.7483 140.327 85.7561 140.166 89.6623 139.665Z" fill="#CA4B00"/>
<path d="M89.6623 139.665C101.492 136.853 104.74 127.664 104.885 123.421C123.766 124.505 127.755 105.851 127.389 96.3882C154.235 79.3292 135.007 49.3753 121.873 51.0265C116.508 39.3715 103.805 37.5657 98.1244 38.1197C85.3873 18.2318 60.8644 30.0958 57.245 40.63C39.3843 40.6397 35.5769 57.577 38.2485 65.4997C20.505 74.7508 27.3384 96.4659 34.8912 103.396C35.8494 108.171 41.3851 114.115 44.0332 116.49C47.1221 135.317 63.9421 137.99 71.966 136.973C76.7483 140.327 85.7561 140.166 89.6623 139.665Z" fill="#CA4B00"/>
<path d="M101.085 79.7682C106.69 80.6013 118.303 78.047 119.912 61.1646C120.252 61.2075 120.624 61.3505 120.967 61.6259C122.285 62.683 123.188 65.6904 120.302 72.471C119.418 75.1657 115.239 81.1392 105.595 83.476C107.168 85.8866 109.281 90.926 105.142 91.7988C103.26 96.869 98.4994 107.069 93.9835 108.96C93.786 109.043 93.5889 109.109 93.3925 109.159C92.9638 109.335 92.4788 109.52 91.9466 109.705C86.9695 111.44 77.8651 113.291 72.0953 109.805C70.5102 112.355 67.4583 117.708 67.9316 118.725C66.982 117.52 64.394 116.258 61.6385 120.847C65.9206 128.39 71.2397 141.103 90.9792 139.221C78.8197 140.38 69.5237 141.718 60.7604 121.143C60.7447 120.85 60.7491 120.517 60.7801 120.156C60.9924 117.685 62.4527 113.941 67.2245 113.245C67.6726 111.261 69.1701 107.269 71.7217 106.173C71.9008 106.096 72.0851 106.033 72.2746 105.986C76.8431 108.095 87.4886 110.889 93.5223 105.194C97.897 99.9607 105.534 87.5489 101.085 79.7682Z" fill="#AC3A00"/>
<path d="M58.3303 83.2324C59.4247 94.063 67.7531 102.727 72.2746 105.986C72.0851 106.033 71.9008 106.096 71.7217 106.173C62.077 100.333 58.9241 90.1228 58.3303 83.2324Z" fill="#AC3A00"/>
<path d="M83.9718 64.7873C83.6624 60.2431 82.4928 50.7669 80.2101 47.093C81.8611 49.6157 84.3598 55.7479 83.9718 64.7873Z" fill="#AC3A00"/>
<path d="M60.7604 121.143C56.6083 121.236 47.332 120.279 43.4435 115.708C46.9539 118.01 55.3359 122.123 60.7801 120.156C60.7491 120.517 60.7447 120.85 60.7604 121.143Z" fill="#AC3A00"/>
<path d="M35.0374 103.347C33.7524 95.9916 33.5521 80.1878 43.0306 75.8151L42.5895 75.4736C36.9766 76.7127 30.8857 92.0018 35.0374 103.347Z" fill="#AC3A00"/>
<path d="M57.5437 41.9998L57.6323 39.8458L56.1688 40.3393L57.5437 41.9998Z" fill="#AC3A00"/>
<path d="M43.9017 53.9738C41.6749 57.3626 38.2607 65.0677 41.2991 70.68C40.9473 66.9461 40.9905 58.4744 43.9017 53.9738Z" fill="#AC3A00"/>
<path d="M119.912 61.1646C118.124 54.2512 110.935 40.8259 98.0274 38.3158C102.298 39.1462 112.589 40.7699 117.523 52.0032C118.635 54.5351 119.475 57.5553 119.912 61.1646Z" fill="#AC3A00"/>
<path d="M127.49 97.1712C126.736 92.0335 122.469 88.0802 114.108 86.4877C116.307 88.2288 122.162 88.5188 124.825 92.1672C125.081 92.5179 125.331 92.8842 125.573 93.2674C126.294 94.4076 126.947 95.6975 127.49 97.1712Z" fill="#AC3A00"/>
<path d="M125.573 93.2674C126.294 94.4076 126.947 95.6975 127.49 97.1712L127.119 101.871C127.19 99.9108 126.944 95.832 125.573 93.2674Z" fill="#AC3A00"/>
<path d="M93.3925 109.159C93.5889 109.109 93.786 109.043 93.9835 108.96C93.8944 111.441 94.9341 117.888 99.4013 120.695C97.1287 120.084 92.3752 116.404 91.9466 109.705C92.4788 109.52 92.9638 109.335 93.3925 109.159Z" fill="#AC3A00"/>
<path d="M108.184 83.42C107.514 82.2079 106.407 82.9843 105.937 83.524C105.086 84.0943 106.374 86.1091 107.125 87.0452C106.775 87.5552 106.984 88.563 107.133 89.0032C108.15 89.3137 107.434 91.0256 106.949 91.8428C105.694 90.8281 104.449 93.6118 103.983 95.1306C103.518 96.0717 102.237 98.0071 101.654 98.8571C102.48 100.147 100.806 102.302 99.8649 103.219C98.3841 104.241 98.3753 105.246 98.556 105.621C99.4976 106.48 100.606 105.093 101.042 104.292C103.497 102.68 103.288 100.158 102.876 99.0985C103.345 98.9406 104.885 96.6782 105.597 95.5667C107.471 94.935 108.061 92.884 108.122 91.9375C110.894 91.2642 110.929 89.466 110.6 88.6511C112.237 87.7067 112.317 86.4926 112.152 86.0035C114.302 86.1934 115.451 84.5097 115.757 83.644C115.792 82.5866 114.237 82.196 113.455 82.1329C112.63 81.2345 111.55 82.2849 111.113 82.9225C110.798 82.3751 109.029 83.0261 108.184 83.42Z" fill="#E48131"/>
<path d="M76.5951 111.065C79.0604 111.803 77.9604 114.309 77.1023 115.469C75.2719 117.002 73.3755 116.018 72.6561 115.335L70.904 116.906C70.9164 119.843 68.0368 120.487 66.4764 121.177C65.2281 121.728 64.8927 124.053 64.881 125.146C63.7877 125.384 63.8648 123.582 64.04 122.652C63.4513 122.066 63.7246 121.233 63.9348 120.89L62.9104 121.235C61.23 121.279 61.8804 120.276 62.4156 119.768C63.2352 119.492 63.8276 118.639 64.0214 118.246C65.4197 116.206 66.5265 117.619 66.9051 118.581C68.2755 119.165 69.066 117.417 69.29 116.47L68.7953 115.003C69.5769 115 70.5185 114.313 70.8916 113.969C68.5846 113.701 69.955 111.997 70.9286 111.179C72.7178 109.137 75.4518 110.253 76.5951 111.065Z" fill="#E48131"/>
<path d="M119.863 72.619C117.37 74.5055 118.286 76.9636 119.055 77.9568C118.778 77.1352 120.454 73.727 121.327 72.1255C124.094 70.2774 124.116 65.5749 123.781 63.4547C124.865 60.8671 126.702 60.9992 127.486 61.3886C128.689 59.5448 126.286 58.7975 124.934 58.6544C126.795 55.2815 124.033 53.566 122.419 53.1299C124.764 53.1235 128.221 54.2236 129.656 54.7744L127.156 52.6764C122.843 49.5554 118.875 50.8389 117.43 51.8708C120.044 57.6888 119.463 58.8652 120.059 61.1152C122.178 63.1458 121.057 69.8746 119.863 72.619Z" fill="#E48131"/>
<path d="M90.4562 38.5812C89.9121 39.2876 88.6382 39.9568 88.0693 40.2031C88.8213 42.4332 87.5458 43.4842 86.814 43.7309C84.7082 44.8332 85.5862 46.0513 86.2884 46.5225C85.9405 47.4242 86.1146 47.7794 86.2452 47.8443C86.7168 48.4696 87.4833 47.9714 87.8076 47.6442C87.5388 48.7806 87.8963 49.3572 88.1086 49.5035C89.164 49.5398 89.2615 48.7335 89.1784 48.3258C89.523 46.641 90.5588 47.4246 91.0335 48.027C91.116 49.0449 91.7578 49.8525 92.0683 50.129C93.2754 49.0684 92.4668 48.0884 91.9117 47.7309L91.3159 45.4808C92.0646 46.9277 93.3236 46.6012 93.8595 46.2571C93.6303 47.5108 95.0682 47.1022 95.8157 46.7412C95.3408 45.3328 94.3137 45.8316 93.8595 46.2571L93.5627 45.3768C92.8965 44.9478 93.2164 44.3498 93.4596 44.1044C94.0813 43.2411 95.0544 43.8389 95.4632 44.2457C96.5977 44.5168 96.454 43.6393 96.2403 43.1667C96.8636 42.6951 97.3163 43.4575 97.4647 43.8976C99.653 43.8133 99.3824 42.9786 98.9736 42.5718C99.714 42.0607 101.921 42.4496 102.931 42.7079C104.964 42.9373 104.852 42.4415 104.541 42.165C103.947 40.4044 100.805 40.4293 99.3075 40.6619C100.124 39.6023 102.09 40.0505 102.97 40.4071C102.769 39.037 100.864 38.9933 99.9361 39.1427C98.9533 37.7748 97.0772 38.3094 96.262 38.7477C94.7613 37.6801 91.9202 38.1325 90.4562 38.5812Z" fill="#E48131"/>
<path d="M74.2075 66.2825C74.0542 66.9878 72.1318 68.344 71.1898 68.934C70.0271 69.7394 67.7165 71.04 66.7065 71.5896C64.5199 72.0655 63.8139 73.0007 63.7342 73.4089C62.0967 74.3532 61.8839 74.8498 61.9821 74.98C61.1659 76.0396 62.6548 76.1693 63.5013 76.1017C63.7388 76.806 65.3262 76.3578 66.0903 76.0457L65.1689 77.6636C67.8733 79.4967 68.6648 76.4303 68.7225 74.6679C68.8538 74.896 69.0177 75.1566 68.6236 74.3745C68.2295 73.5924 69.3952 71.9901 70.0273 71.2868L71.9278 70.1557C72.5923 70.1931 74.0901 69.3177 74.7558 68.8753C73.8258 70.7575 75.546 70.8964 76.5224 70.7306C75.6599 70.1064 76.1561 68.8388 76.5121 68.2831C77.762 68.123 78.0773 68.7357 78.0786 69.062C78.7811 68.8251 78.4634 67.6251 78.2167 67.0547C79.6613 66.6983 80.6779 67.5864 81.0057 68.075C81.8252 67.7987 81.6371 67.2085 81.4406 66.948C82.2585 66.28 84.6493 67.1187 85.7425 67.6215C85.3401 64.8814 82.05 64.7272 80.4553 64.9927C79.0866 64.8006 75.7198 65.7725 74.2075 66.2825Z" fill="#E48131"/>
<path d="M63.8126 80.4085C64.5151 80.1716 64.4255 79.0036 64.2929 78.4492C63.1667 78.8289 62.8205 80.1439 62.7882 80.754C61.9686 81.0303 62.0606 81.9797 62.209 82.4198C63.6189 83.1209 63.8655 81.371 63.8126 80.4085Z" fill="#E48131"/>
<path d="M40.4479 77.3396C42.5899 75.5715 43.9775 76.3672 44.4035 76.9861C45.2643 77.2187 45.7461 78.712 45.8794 79.4296L41.6352 80.8607C42.1052 81.0944 42.1279 81.8384 42.0805 82.1812C41.6138 82.7307 40.5187 82.5444 40.0295 82.3826C40.0707 82.8916 39.7237 83.2482 39.5451 83.3629C38.2242 85.2462 36.8483 84.8714 36.3254 84.4486C35.613 82.3359 37.6761 80.3984 38.7968 79.6937C38.3631 78.7942 39.7168 77.7495 40.4479 77.3396Z" fill="#E48131"/>
<path d="M38.1886 74.5067C39.6332 74.1503 41.0703 74.3519 41.6083 74.4973C41.2587 75.0073 37.1381 76.3859 35.1215 77.0115C35.0456 77.5599 33.5316 78.4191 32.784 78.7801C31.9677 79.8396 30.9776 79.0624 30.5846 78.5413C30.8617 79.363 29.8893 79.7017 29.3685 79.7684C26.979 78.4827 30.331 72.4722 32.3056 69.6277C33.0411 67.9418 37.1592 65.9758 39.1264 65.2036C40.0251 65.1619 40.5865 67.7613 40.7549 69.0662C39.1949 69.8536 37.4321 68.8795 36.7456 68.2939C36.2427 69.5093 33.6173 71.7453 32.3675 72.7114C32.605 73.4156 32.0803 74.1154 31.7883 74.3773C32.4512 74.023 33.1735 74.6183 33.4518 74.9602C34.6985 74.0169 37.1291 74.2648 38.1886 74.5067Z" fill="#E48131"/>
<path d="M46.0026 50.7934C44.4643 52.8372 41.7495 57.0315 43.1973 57.4583L44.028 57.505L44.465 56.8674C45.0999 56.8168 46.4859 56.4801 46.9509 55.539C47.4216 55.1624 48.3522 54.1841 48.3093 53.2836C48.6837 53.2662 49.4022 52.9477 49.2801 51.8124L49.6223 51.8604L49.8202 52.4473L49.5275 52.546L49.7254 53.1329L50.3108 52.9355L50.1129 52.3486L50.0139 52.0552L50.3066 51.9565L50.0098 51.0762L51.0343 50.7307L50.5395 49.2636C51.0116 49.2133 51.9453 48.9856 51.9041 48.4766L53.953 47.7857C54.491 47.9311 55.8494 47.9959 56.979 47.0922C58.167 46.9094 60.5128 46.358 60.3924 45.6143C61.3839 45.1711 63.4852 44.5388 63.9585 45.5556C64.7761 46.3692 66.3401 47.3015 66.0548 44.5219C66.4306 44.8309 67.4453 45.2622 68.4974 44.5153C69.2161 45.0354 70.8576 45.8109 71.6739 44.7513C72.5073 45.4507 74.5543 46.6231 76.0747 45.7183C75.2578 45.0679 73.3604 43.8558 72.3067 44.2111C71.5083 44.0991 70.3014 43.6782 71.8614 42.8907C72.1885 43.2161 73.106 43.7782 74.1598 43.4229C73.3263 42.7235 71.2492 41.3651 69.6084 41.5263C67.4479 40.7492 63.5523 40.3143 59.0506 41.635L59.9306 40.3779C60.4686 40.5233 61.9321 40.0298 63.4822 36.8927C64.1061 38.0985 65.8387 39.6275 67.7779 36.0978C68.0885 36.3743 68.8642 36.5158 69.4826 34.8694C70.0371 35.0637 71.1056 35.1391 70.944 33.8864C71.9087 34.8138 74.3538 36.1679 76.4167 34.1651C77.165 33.9673 78.5337 33.3859 78.0225 32.6433C78.9988 32.4774 80.9021 31.9991 80.7042 31.4122C81.3404 31.6878 82.4744 31.8283 81.9203 30.1851C81.3782 29.0608 79.5131 27.0099 76.3899 27.8017C73.2478 27.9898 66.1762 29.3177 63.0266 33.1248C60.7644 35.1168 56.5671 39.6838 57.8752 42.0161C57.5409 42.1349 57.2039 42.2636 56.8646 42.4027C55.4378 40.266 50.299 38.5931 41.1586 48.9955C39.5728 51.3821 37.0172 56.2417 39.4808 56.5874C39.1208 56.1641 39.4527 54.5707 43.661 51.583C43.9654 50.3911 45.0816 47.8687 47.1116 47.3149C47.618 47.6889 48.7165 47.9175 49.0595 45.8411C49.5901 45.6425 50.4689 45.5741 49.739 46.8896C48.4776 47.9981 47.2254 49.2908 46.0026 50.7934Z" fill="#E48131"/>
<path d="M43.9341 116.196C45.6672 119.403 53.7548 120.347 57.5819 120.418C56.8827 121.438 52.9921 120.985 51.1342 120.631C50.1444 121.176 48.1122 119.886 47.2198 119.173C46.049 119.568 44.5415 117.353 43.9341 116.196Z" fill="#E48131"/>
<path d="M104.45 43.8296C104.793 43.8776 105.488 44.1988 105.531 45.0993C105.139 44.9046 104.375 44.378 104.45 43.8296Z" fill="#E48131"/>
<path d="M104.032 48.8726C104.405 48.5289 105.192 48.2526 105.355 49.8969C104.672 50.1272 103.452 50.2448 104.032 48.8726Z" fill="#E48131"/>
<path d="M99.217 53.9276C99.7048 53.7631 100.721 53.7473 100.882 55C100.41 54.887 99.4148 54.5145 99.217 53.9276Z" fill="#E48131"/>
<path d="M107.324 53.318C107.731 53.3985 108.469 53.8142 108.161 54.8332C107.834 54.5078 107.209 53.7491 107.324 53.318Z" fill="#E48131"/>
<path d="M97.1577 52.171C97.5436 50.9952 96.2713 50.5091 95.587 50.4131L96.2755 51.4881C96.5456 52.2894 96.9762 52.2772 97.1577 52.171Z" fill="#E48131"/>
<path d="M89.0651 56.2071C89.586 56.1404 90.5315 56.3989 90.1473 57.9663C89.4637 58.0334 88.2901 57.7756 89.0651 56.2071Z" fill="#E48131"/>
<path d="M94.9892 47.6735C95.477 47.509 96.3661 47.5033 96.0198 48.7966C95.5436 48.6732 94.6707 48.2758 94.9892 47.6735Z" fill="#E48131"/>
<path d="M85.9133 50.2438C86.7427 49.9641 88.0802 49.7092 86.7956 50.9267C86.4211 50.944 85.7204 50.8317 85.9133 50.2438Z" fill="#E48131"/>
<path d="M85.0726 70.952C84.9127 70.0909 84.1911 70.4322 83.8503 70.7106C83.6574 71.2985 84.4886 71.4757 84.9283 71.4908C85.3208 71.8813 85.7432 71.6517 85.9054 71.4881L86.1033 72.075C85.9895 72.8977 86.8735 73.2314 87.3298 73.2954C87.2935 73.9612 88.1296 73.7338 88.5521 73.5368C88.6659 72.7141 88.01 72.4124 87.6678 72.3644C87.9366 71.228 86.6049 71.3067 85.9054 71.4881C86.1758 70.7434 85.4629 70.8204 85.0726 70.952Z" fill="#E48131"/>
<path d="M86.1136 74.5225C84.6658 74.0957 84.9607 75.2925 85.2891 75.9443C84.0804 76.6133 84.9518 77.0384 85.5386 77.1674C86.3581 76.891 85.7138 76.2368 85.2891 75.9443L86.2147 75.3054C86.9551 74.7943 86.4558 74.5705 86.1136 74.5225Z" fill="#E48131"/>
<path d="M91.9884 77.4434C92.4597 77.23 93.3451 77.1166 93.1159 78.3704C92.4164 78.5518 91.2117 78.6203 91.9884 77.4434Z" fill="#E48131"/>
<path d="M93.8189 82.8719L93.2335 83.0693L93.6292 84.243L94.2146 84.0456L93.8189 82.8719Z" fill="#E48131"/>
<path d="M82.721 92.4964C83.3387 92.2337 84.5366 92.0803 84.3865 93.5688C83.5579 94.0116 82.0647 94.4171 82.721 92.4964Z" fill="#E48131"/>
<path d="M73.3792 89.9276C74.0464 89.8116 75.1668 89.8151 74.3109 90.7572C73.7908 90.9871 72.8763 91.143 73.3792 89.9276Z" fill="#E48131"/>
<path d="M77.341 91.0427C77.7464 90.6336 78.6462 90.0797 79.0024 91.136C78.3854 91.5619 77.1893 92.1395 77.341 91.0427Z" fill="#E48131"/>
<path d="M70.5553 92.1871L70.6089 93.3128C69.7531 94.2549 69.3068 93.4795 69.1907 92.974C68.9928 92.3871 69.5301 92.3693 69.8235 92.4338L70.5553 92.1871Z" fill="#E48131"/>
<path d="M71.1612 85.2834C70.3004 85.0508 70.1525 85.5146 70.1862 85.7756L70.7737 86.0677C71.5932 85.7913 71.3735 85.4297 71.1612 85.2834Z" fill="#E48131"/>
<path d="M69.4503 85.0434C69.598 85.3203 69.6882 85.8455 68.867 85.7303C68.6698 85.3066 68.5104 84.576 69.4503 85.0434Z" fill="#E48131"/>
<path d="M66.5192 85.0514L65.7874 85.2981C66.1403 85.5713 65.8067 85.9997 65.5957 86.1798C65.012 86.7688 65.8761 87.0111 66.3811 87.0587C67.2402 86.8997 67.029 86.2411 66.816 85.9317L66.5192 85.0514Z" fill="#E48131"/>
<path d="M57.1527 88.2098C57.4231 87.465 56.4491 87.4122 55.9283 87.4789L56.0767 87.919C56.4708 88.7012 56.9583 88.4388 57.1527 88.2098Z" fill="#E48131"/>
<path d="M53.2754 83.9617C53.4375 83.7981 53.8018 83.6862 53.9618 84.5473C53.6691 84.646 53.122 84.667 53.2754 83.9617Z" fill="#E48131"/>
<path d="M51.3213 83.9671C51.5315 83.6238 52.041 83.2015 52.3973 84.2578C52.154 84.5032 51.5983 84.7887 51.3213 83.9671Z" fill="#E48131"/>
<path d="M49.6516 81.9157L49.8989 82.6493C50.7202 82.7645 50.9543 81.9122 50.9687 81.4716L50.0391 81.1315L50.0906 81.7677L49.6516 81.9157Z" fill="#E48131"/>
<path d="M49.1363 87.1548C49.5255 86.7621 49.1336 86.5021 48.889 86.4212C47.7165 86.4244 47.914 86.9134 48.1593 87.1575C48.3176 87.627 48.8766 87.3513 49.1363 87.1548Z" fill="#E48131"/>
<path d="M48.1036 85.5423C48.5307 84.8754 48.0191 84.8083 47.7099 84.8581L47.5161 85.2502C47.7536 85.9544 48.0067 85.7383 48.1036 85.5423Z" fill="#E48131"/>
<path d="M45.4879 90.836L44.8963 89.565C45.1732 89.5805 45.7761 89.6605 45.9723 89.8557C46.1685 90.051 45.7311 90.5906 45.4879 90.836Z" fill="#E48131"/>
<path d="M47.2936 90.3906C47.2799 90.9943 47.4668 92.0642 48.3242 91.5136C48.2569 90.9916 47.9565 90.0363 47.2936 90.3906Z" fill="#E48131"/>
<path d="M44.3254 93.1888C44.684 93.2857 45.3239 93.6364 45.0139 94.2638C44.5088 94.2163 43.6641 93.9347 44.3254 93.1888Z" fill="#E48131"/>
<path d="M39.0628 84.8327C39.1419 85.0675 38.8058 85.6819 38.6279 85.9598C38.8653 86.664 39.2146 86.0887 39.3596 85.713C39.6503 85.1248 38.9638 84.5393 39.0628 84.8327Z" fill="#E48131"/>
<path d="M37.7498 86.2559C38.2164 85.7064 37.4536 85.5388 37.0139 85.5236C37.4459 86.0315 37.0345 86.5515 36.7748 86.7481C37.6372 87.3723 37.7841 86.68 37.7498 86.2559Z" fill="#E48131"/>
<path d="M40.0955 86.4453L39.3638 86.692C39.0917 87.0452 39.6434 87.3602 39.9533 87.4736L40.2439 86.8854L40.0955 86.4453Z" fill="#E48131"/>
<path d="M36.983 89.7824L36.544 89.9304L36.8408 90.8107L37.2799 90.6627L36.983 89.7824Z" fill="#E48131"/>
<path d="M35.3731 90.3252C34.9822 90.2937 34.3479 90.4749 34.9382 91.4523C35.3127 91.4349 35.9239 91.1853 35.3731 90.3252Z" fill="#E48131"/>
<path d="M35.5319 93.2129C35.4982 92.9519 35.5871 92.4099 36.2121 92.3299C36.2953 92.7376 36.2756 93.485 35.5319 93.2129Z" fill="#E48131"/>
<path d="M34.5137 95.0268C34.9699 95.0908 35.6977 95.4445 34.9589 96.3472C34.5673 96.1525 33.9299 95.6158 34.5137 95.0268Z" fill="#E48131"/>
<path d="M37.6489 97.0741C38.268 97.1377 39.4286 97.4217 39.1186 98.0491C38.4027 98.1816 37.1064 98.1721 37.6489 97.0741Z" fill="#E48131"/>
<path d="M45.8054 96.6113C46.1792 96.4308 46.8695 96.3832 46.6403 97.637C46.2981 97.5889 45.6521 97.3166 45.8054 96.6113Z" fill="#E48131"/>
<path d="M45.9642 99.4989C45.9971 98.0499 45.3238 98.2443 44.983 98.5226L45.0345 99.1588L45.3272 99.0601L45.3788 99.6963L45.9642 99.4989Z" fill="#E48131"/>
<path d="M44.5502 100.139C44.8765 100.301 45.4027 100.734 44.8965 101.166C44.5048 100.971 43.8872 100.493 44.5502 100.139Z" fill="#E48131"/>
<path d="M47.4772 99.1521C47.7541 99.1677 48.211 99.3949 47.8235 100.179C47.4806 99.968 46.9313 99.4669 47.4772 99.1521Z" fill="#E48131"/>
<path d="M48.6151 102.527L48.2193 101.353L48.8047 101.155L49.2005 102.329L48.6151 102.527Z" fill="#E48131"/>
<path d="M56.1613 96.3872C56.3163 96.0735 55.8329 95.7354 55.5718 95.6056C55.651 95.8403 55.3794 96.324 55.2338 96.5366C54.8446 96.9292 55.2379 97.5156 55.4832 97.7596C55.874 97.7586 55.8054 96.9429 55.7223 96.5352L56.1613 96.3872Z" fill="#E48131"/>
<path d="M36.9915 103.342C36.7177 103.303 36.5173 102.902 36.4514 102.707L36.1587 102.805C35.8883 103.55 36.505 103.832 36.8472 103.88C37.5909 104.152 37.2532 103.635 36.9915 103.342Z" fill="#E48131"/>
<path d="M34.8312 100.802C35.2235 101.16 35.8816 101.984 35.3754 102.416C35.1617 101.943 34.7537 100.959 34.8312 100.802Z" fill="#E48131"/>
<path d="M31.7349 84.8528C32.477 84.7333 32.0729 83.9218 31.7782 83.531L31.2443 84.3646L31.7349 84.8528Z" fill="#E48131"/>
<path d="M29.4572 89.2156C29.8159 89.3125 30.4462 89.7317 30.0983 90.6334C29.6414 90.4062 28.8735 89.8046 29.4572 89.2156Z" fill="#E48131"/>
<path d="M29.4839 83.9778C29.8731 83.5852 29.6104 83.0637 29.4303 82.8521C29.5491 83.2042 28.801 84.2081 28.4121 84.6661C27.9438 84.824 28.353 86.1021 28.6162 86.7214C29.2016 86.524 28.9027 85.1542 29.1954 85.0555C29.4881 84.9568 28.9975 84.4687 29.4839 83.9778Z" fill="#E48131"/>
<path d="M29.1788 81.1395C28.5918 80.9454 28.1537 81.3218 28.008 81.5343C27.8131 81.7297 28.3198 82.1368 28.5976 82.3159C29.3001 82.0791 29.2778 81.433 29.1788 81.1395Z" fill="#E48131"/>
<path d="M53.3162 58.9481C53.7883 58.8979 54.7138 59.0324 54.6396 59.9724C54.0377 60.1209 52.9304 60.124 53.3162 58.9481Z" fill="#E48131"/>
<path d="M41.567 64.7074C41.8445 64.8861 42.3024 65.3417 41.9133 65.7344C41.6192 65.5068 41.1382 64.9827 41.567 64.7074Z" fill="#E48131"/>
<path d="M41.1093 60.45C41.5669 60.8403 42.3065 61.6803 41.604 61.9171C41.2447 61.6571 40.6426 60.9995 41.1093 60.45Z" fill="#E48131"/>
<path d="M45.665 74.9268C45.8106 74.7143 46.0137 74.2209 45.6608 73.9478C45.1572 74.2265 44.4529 74.8126 45.665 74.9268Z" fill="#E48131"/>
<path d="M72.7788 51.895C72.6551 50.3681 71.1923 50.2514 70.4763 50.3839C70.1663 51.0113 71.0343 51.394 71.507 51.5069L72.7788 51.895Z" fill="#E48131"/>
<path d="M72.8819 53.1675C73.2729 53.199 73.9381 53.3995 73.4714 53.949C73.0963 53.8032 72.4532 53.4427 72.8819 53.1675Z" fill="#E48131"/>
<path d="M80.719 58.041C81.3802 57.2952 80.7307 56.9478 80.3232 56.8673C79.6224 57.4958 80.2291 57.716 80.6201 57.7476C80.3775 58.1562 80.0578 58.7869 80.719 58.041Z" fill="#E48131"/>
<path d="M77.2457 56.9247C77.5212 56.6139 78.1127 56.3055 78.2743 57.5582C77.8833 57.5267 77.1303 57.3558 77.2457 56.9247Z" fill="#E48131"/>
<path d="M80.4672 33.1261C80.7599 33.0274 81.3461 33.0258 81.3494 33.809C80.9097 33.7939 80.1176 33.6362 80.4672 33.1261Z" fill="#E48131"/>
<path d="M70.707 35.6003L69.8289 35.8964C69.5568 36.2496 70.1731 36.4339 70.5153 36.4819C71.2969 36.4798 70.9688 35.8933 70.707 35.6003Z" fill="#E48131"/>
<path d="M67.7388 38.3986C67.5013 37.6943 67.086 38.074 66.9081 38.3519C66.5585 38.8619 67.0249 39.0206 67.3018 39.0361C67.8097 38.9956 67.8047 38.5942 67.7388 38.3986Z" fill="#E48131"/>
<path d="M83.7755 29.8864C84.1664 29.9179 84.91 30.1574 84.7567 30.8627C84.2517 30.8151 83.3484 30.5533 83.7755 29.8864Z" fill="#E48131"/>
<path d="M85.9728 29.6356C86.4613 29.6343 87.4879 29.7783 87.6858 30.3652C87.1155 30.2851 85.9745 30.0272 85.9728 29.6356Z" fill="#E48131"/>
<path d="M42.7912 53.8371C41.3829 53.5277 40.418 54.8553 40.1116 55.5577C41.0453 56.8768 41.0886 55.555 41.235 55.5057C41.352 55.4662 42.3212 54.3769 42.7912 53.8371Z" fill="#E48131"/>
<path d="M121.15 88.0348C120.991 87.5653 120.107 87.8419 119.684 88.0388C119.57 88.8615 120.127 88.8698 120.42 88.7711C120.729 88.7213 121.308 88.5043 121.15 88.0348Z" fill="#E48131"/>
<path d="M115.601 92.8471C116.187 92.976 117.108 93.45 116.095 94.3143C115.654 93.9728 114.938 93.2014 115.601 92.8471Z" fill="#E48131"/>
<path d="M113.923 88.8378C113.881 88.3288 113.22 88.2034 112.894 88.2042C112.467 88.8711 113.304 88.9374 113.776 88.8871C113.842 89.0827 113.964 89.3467 113.923 88.8378Z" fill="#E48131"/>
<path d="M114.813 88.0931L114.749 87.9055C114.741 87.9677 114.765 88.031 114.813 88.0931L115.046 88.7858C115.373 89.1112 116.115 89.6346 116.464 89.1245C116.431 89.0267 116.219 88.7825 115.632 88.5884C115.392 88.5007 114.973 88.3044 114.813 88.0931Z" fill="#E48131"/>
<path d="M107.84 94.4837C108.182 94.5317 108.808 94.7454 108.576 95.2159C108.25 95.2168 107.647 95.0716 107.84 94.4837Z" fill="#E48131"/>
<path d="M107.065 96.0522L106.234 96.0055C105.502 96.2523 106.092 97.0339 106.531 96.8858C106.882 96.7674 107.033 96.2807 107.065 96.0522Z" fill="#E48131"/>
<path d="M104.596 101.297C104.89 101.524 105.361 102.019 104.892 102.177C104.534 102.08 103.972 101.768 104.596 101.297Z" fill="#E48131"/>
<path d="M110.151 97.9528C110.622 97.7394 111.458 97.5772 111.033 98.6357C110.626 98.7184 109.88 98.6976 110.151 97.9528Z" fill="#E48131"/>
<path d="M108.735 98.1035L107.856 98.3996C107.664 98.9876 108.526 98.9363 108.982 98.8371L108.735 98.1035Z" fill="#E48131"/>
<path d="M119.659 93.7661C119.735 93.2176 119.103 93.0823 118.777 93.0832C118.231 93.3979 118.814 93.9968 119.173 94.2569L119.659 93.7661Z" fill="#E48131"/>
<path d="M122.009 94.9344C122.221 94.9175 122.567 95.0406 122.257 95.668C121.869 96.4523 121.424 95.1318 122.009 94.9344Z" fill="#E48131"/>
<path d="M112.855 102.106C113.146 101.681 113.838 101.252 114.275 102.934C113.592 103.165 112.352 103.322 112.855 102.106Z" fill="#E48131"/>
<path d="M109.543 104.367C110.196 104.855 111.24 105.919 110.186 106.274C109.581 105.77 108.606 104.683 109.543 104.367Z" fill="#E48131"/>
<path d="M106.34 109.369C107.057 109.562 108.16 110.127 106.834 110.836C106.297 110.854 105.446 110.585 106.34 109.369Z" fill="#E48131"/>
<path d="M109.093 102.068C109.55 102.132 110.267 102.456 109.489 103.241C108.87 103.178 107.924 102.854 109.093 102.068Z" fill="#E48131"/>
<path d="M83.1109 115.404C83.9635 113.679 82.7145 114.067 81.9834 114.477C81.0105 115.459 82.3627 115.602 83.1604 115.551L83.1109 115.404Z" fill="#E48131"/>
<path d="M75.4038 118.166C76.2991 118.082 77.8563 118.189 76.923 119.288C75.7996 119.34 73.923 119.189 75.4038 118.166Z" fill="#E48131"/>
<path d="M85.8504 116.278C86.354 115.999 87.3823 115.794 87.4665 117.203C86.8316 117.254 85.6195 117.14 85.8504 116.278Z" fill="#E48131"/>
<path d="M78.7885 121.437C79.3574 121.19 80.5158 120.952 80.5983 121.97C79.982 122.559 78.7572 123.277 78.7885 121.437Z" fill="#E48131"/>
<path d="M80.1243 125.398C80.6616 125.38 81.7956 125.521 82.033 126.225C81.2841 126.26 79.8538 126.143 80.1243 125.398Z" fill="#E48131"/>
<path d="M74.534 120.42C74.4532 119.794 73.3254 119.575 72.7716 119.544L73.8991 120.471L74.8803 121.447C75.0007 122.191 75.6162 122.18 75.9089 122.081C76.2189 121.454 75.3839 121.169 74.9277 121.105L74.534 120.42Z" fill="#E48131"/>
<path d="M73.761 122.478L73.322 122.626L73.3735 123.263L73.9589 123.065L73.761 122.478Z" fill="#E48131"/>
<path d="M67.1752 124.699L66.4435 124.946L66.6414 125.533L67.4226 125.433L67.6163 125.041L67.1752 124.699Z" fill="#E48131"/>
<path d="M67.334 127.587C67.6762 127.635 68.3708 127.858 68.4121 128.367C67.8912 128.434 66.9465 128.371 67.334 127.587Z" fill="#E48131"/>
<path d="M70.0776 129.439C70.4679 129.308 71.1907 129.26 70.9598 130.122C70.5696 130.254 69.8467 130.302 70.0776 129.439Z" fill="#E48131"/>
<path d="M68.2266 130.717C68.6498 130.683 69.4675 130.724 69.352 131.155C68.9941 131.221 68.2678 131.226 68.2266 130.717Z" fill="#E48131"/>
<path d="M129.998 66.4236C130.424 66.8793 131.158 67.9281 130.691 68.4776C130.218 68.2015 129.416 67.4042 129.998 66.4236Z" fill="#E48131"/>
<path d="M129.114 76.8524C129.815 76.9973 131.169 77.5321 130.978 78.5116C130.26 78.1546 128.882 77.323 129.114 76.8524Z" fill="#E48131"/>
<path d="M132.944 69.8421C133.282 68.9111 134.232 69.5057 134.9 70.3262C134.473 70.9931 133.418 70.2813 132.944 69.8421Z" fill="#E48131"/>
<path d="M134.638 66.1662C134.686 65.8234 134.555 65.0504 133.655 64.7004C133.739 65.2712 134.053 66.3636 134.638 66.1662Z" fill="#E48131"/>
<path d="M129.425 57.9568C129.946 57.8901 131.028 58.0699 131.19 59.3226C130.522 59.2755 129.234 58.9364 129.425 57.9568Z" fill="#E48131"/>
<path d="M128.756 84.4896C129.017 84.6194 129.53 85.0455 129.494 85.7114C129.136 85.7776 128.487 85.626 128.756 84.4896Z" fill="#E48131"/>
<path d="M68.6839 111.772C69.3155 113.259 68.3328 113.47 67.7626 113.39L67.0741 112.315C66.3699 112.16 65.9891 109.903 65.8867 108.794L66.3649 106.345C67.2174 104.62 66.0275 103.572 65.326 103.264L65.6166 102.676C68.2715 102.042 67.5845 105.934 66.9091 107.959C66.4045 108.783 67.1647 110.651 67.6079 111.481L68.6839 111.772Z" fill="#450F00"/>
<path d="M103.571 90.0409L103.862 89.4527C104.094 88.9821 104.383 89.5491 104.499 89.8915L104.845 90.9185C105.16 91.4659 104.233 92.4866 103.73 92.9285C102.912 93.5964 102.317 93.895 102.122 93.9609C99.429 94.8689 99.4731 95.2898 99.8318 95.3867C98.9364 96.2115 100.245 96.7725 101.011 96.9498C101.557 96.6351 101.396 95.6761 101.248 95.2359C103.512 94.6032 104.335 93.5958 104.464 93.1712C106.101 92.2269 105.462 90.4926 104.938 89.7434C105.012 88.8034 104.247 88.1789 103.855 87.9842C102.192 87.4013 102.833 88.8191 102.493 89.2606C102.221 89.6138 102.547 90.5495 102.744 90.9732C103.137 91.3637 103.591 90.9056 103.769 90.6277L103.571 90.0409Z" fill="#450F00"/>
<path d="M121.755 57.9288C122.151 59.1026 120.758 60.7707 120.011 61.458C120.358 62.485 121.184 61.5527 121.477 61.454C121.711 61.3751 122.153 59.5921 122.345 58.7104C122.925 57.3382 121.956 55.3013 121.398 54.4544C121.123 54.0244 119.518 52.5831 118.75 51.9162L118.205 50.3023L117.667 50.157C117.914 50.7274 118.388 51.9074 118.311 52.0642C118.233 52.2211 119.849 53.8875 120.667 54.7011C121.373 55.2474 121.686 57.0806 121.755 57.9288Z" fill="#450F00"/>
<path d="M83.7901 44.914L83.4974 45.0127L83.6953 45.5996L84.5734 45.3035L84.3755 44.7166L84.0828 44.8153L83.9839 44.5219L83.6912 44.6206L83.7901 44.914Z" fill="#450F00"/>
<path d="M82.4256 45.7009L83.011 45.5035L83.2089 46.0904L82.3308 46.3865L82.2318 46.0931L82.5245 45.9944L82.4256 45.7009Z" fill="#450F00"/>
<path d="M68.2587 68.942C70.0578 69.2504 69.3051 69.9508 68.7039 70.2625C68.3836 70.4725 68.029 73.2558 67.8918 74.6212C68.9109 75.3233 68.19 75.8279 67.7022 75.9924C66.9618 76.5035 66.5431 75.2939 66.4262 74.6252L67.4507 74.2798L68.2587 68.942Z" fill="#450F00"/>
<path d="M52.0818 78.9721C51.1072 79.5621 50.5365 79.3842 50.373 79.2215L45.9825 80.702C43.56 80.8653 40.5097 80.4233 39.2874 80.1819C39.2924 81.3566 38.7041 80.8688 38.4093 80.478C38.3664 79.5774 39.5622 79.7079 40.1655 79.8858C42.9441 80.7788 47.9963 79.4238 50.1751 78.6346C50.8363 77.8888 51.7218 78.5488 52.0818 78.9721Z" fill="#450F00"/>
<path d="M37.6794 69.613C38.4215 69.4935 39.9427 69.5579 40.6106 69.605C41.2735 69.2508 38.9959 69.0057 37.7742 68.9275C37.1493 69.0075 37.25 68.1783 37.3785 67.7537C36.2093 68.5401 37.092 69.3209 37.6794 69.613Z" fill="#450F00"/>
<path d="M40.3115 56.6341C37.7258 55.153 41.8602 53.1707 44.2506 52.3646C39.3761 54.9234 39.9178 55.9498 40.798 56.1432C41.5038 56.6895 40.7677 56.6981 40.3115 56.6341Z" fill="#450F00"/>
<path d="M97.9072 137.048C97.8989 135.09 100.446 136.683 101.721 137.723C101.299 138.083 99.5768 139.1 105.382 148.58C106.047 149.668 99.0932 140.243 98.6988 139.396L97.9072 137.048Z" fill="#270708"/>
<path d="M165.58 58.837C166.832 59.0685 168.721 62.1896 169.509 63.7212C167.664 61.7291 167.007 61.2969 166.91 61.3298C165.329 60.7191 164.668 57.1839 164.158 57.5192C163.75 57.7875 164.058 58.8056 164.263 59.2811C163.561 59.518 162.988 58.0772 162.789 57.3271C163.129 54.4675 164.791 57.1422 165.58 58.837Z" fill="#270708"/>
<path d="M139.622 31.6427C139.111 30.9001 137.647 30.6202 136.979 30.573C137.245 28.6535 139.698 30.4188 140.892 31.5413C142.259 31.3418 142.768 32.4336 142.852 33.0045C143.363 33.7471 146.995 38.5245 147.919 41.2632C147.883 41.929 146.907 40.6786 146.449 40.2882C146.78 38.8696 144.676 36.9645 143.545 35.0585C143.499 33.3747 140.486 31.7872 139.622 31.6427Z" fill="#270708"/>
<path d="M28.0892 135.428C29.899 135.962 32.1603 139.284 32.8529 141.338C32.6188 141.417 32.1665 140.753 31.7233 139.922C31.2138 139.571 30.479 138.326 30.2 137.821C29.6129 137.627 29.0704 136.405 28.0892 135.428Z" fill="#270708"/>
</svg>
