<svg width="318" height="356" viewBox="0 0 318 356" fill="none" xmlns="http://www.w3.org/2000/svg">
<path d="M223.352 304.49C231.876 304.114 243.201 274.351 247.797 259.517L287.913 355.418H155.029L149.858 288.35L143.904 240.085C149.545 242.091 171.535 278.216 181.826 296.028C193.108 311.698 214.211 308.199 223.352 304.49Z" fill="#D9D9D9"/>
<path d="M181.669 355.262C206.867 334.953 217.031 315.773 218.807 310.445H212.226C205.331 318.855 172.831 347.615 161.298 355.262H172.737C175.975 355.191 181.167 355.092 181.669 355.262Z" fill="#D0D0D0"/>
<path d="M197.496 345.39C202.886 339.247 216.875 318.071 223.195 308.251C227.626 304.741 234.652 295.715 237.612 291.641C236.985 293.145 232.336 300.834 230.09 304.49C226.58 307.499 221.106 320.265 218.807 326.272C218.807 327.776 212.644 336.197 209.562 340.219C206.052 343.227 201.831 351.501 200.16 355.262H186.997L197.496 345.39Z" fill="#D0D0D0"/>
<path d="M205.331 312.326C196.817 314.206 175.15 307.781 156.596 267.039C162.081 291.432 179.506 334.64 205.331 312.326Z" fill="#D0D0D0"/>
<path d="M243.096 274.56L247.954 261.397C249.96 261.397 274.489 323.974 286.503 355.262H284.779L243.096 274.56Z" fill="#D0D0D0"/>
<path d="M195.908 310.891C177.741 306.443 163.4 280.507 158.32 267.508C172.949 297.874 188.083 308.596 195.908 310.891C196.794 311.108 197.689 311.274 198.593 311.385C197.835 311.349 196.935 311.193 195.908 310.891Z" fill="white"/>
<path d="M207.525 311.385C212.226 311.437 222.631 310.79 226.642 307.781C224.344 309.661 217.303 313.015 207.525 311.385Z" fill="white"/>
<path d="M229.776 304.49C232.262 300.718 237.04 293.287 239.036 289.601C239.313 289.044 239.571 288.519 239.805 288.036C239.655 288.413 239.389 288.948 239.036 289.601C236.164 295.367 231.263 304.49 229.776 304.49Z" fill="white"/>
<path d="M153.306 207.334C158.895 209.372 174.9 209.873 194.205 195.582C198.239 192.981 204.426 187.976 209.751 181.479C209.741 185.814 211.411 195.676 218.181 200.44C224.71 211.461 235.104 231.78 238.395 242.906C243.253 248.077 245.039 258.764 247.797 259.516C243.201 274.351 231.876 304.114 223.352 304.49C214.211 308.199 193.108 311.698 181.826 296.028C171.536 278.216 149.545 242.091 143.904 240.085L132.464 194.171C138.315 198.298 150.673 206.708 153.306 207.334Z" fill="#EFB580"/>
<path d="M194.205 195.582C174.9 209.873 158.895 209.372 153.306 207.334C150.673 206.708 138.315 198.298 132.464 194.171C139.234 201.818 147.926 209.894 151.425 212.976C174.617 217.489 199.22 195.425 208.622 183.829L203.451 210.939C201.946 221.845 203.346 231.989 204.234 235.698C205.362 233.566 204.234 217.207 205.331 207.334C206.459 203.699 208.748 188.582 209.751 181.479C204.426 187.976 198.239 192.981 194.205 195.582Z" fill="#CC9B6E"/>
<path d="M234.791 232.564C233.537 224.29 219.956 204.88 213.636 196.052C211.004 193.294 210.136 188.739 210.032 186.807C217.554 189.157 224.919 194.328 230.56 195.895C233.149 196.614 239.607 200.289 246.074 204.229C248.424 204.044 280.862 212.723 276.787 222.017C279.365 223.49 281.682 224.835 283.369 225.826C288.258 227.581 286.346 232.512 284.779 234.758C287.537 238.142 294.965 270.642 299.039 285.372C301.922 286.626 304.419 288.089 305.307 288.663C307.438 289.415 304.419 296.812 302.643 300.416C304.147 301.67 306.404 310.967 307.344 315.459C309.695 319.22 311.732 330.816 312.829 332.07C313.706 333.073 316.642 347.74 318 354.948H285.876L268.012 311.698C262.747 305.054 254.849 280.828 251.558 269.546C241.372 248.861 237.455 236.638 234.791 232.564Z" fill="#181B24"/>
<path d="M151.112 289.447C153.87 303.237 159.992 338.965 162.708 355.105L6.47541 354.792C3.46669 351.783 1.56539 338.39 0.990827 332.07C-2.26858 326.429 3.28913 308.303 6.47541 299.946L8.19914 298.065C11.0825 295.307 12.2212 291.17 12.4302 289.447C9.54684 285.435 13.0047 276.284 15.0941 272.209L19.7952 269.389C20.5474 267.132 25.7498 256.435 28.2571 251.368C24.7469 242.342 33.2716 241.496 39.6964 241.496C42.2036 236.481 45.4943 237.735 47.5315 237.735C57.9365 224.697 66.4925 229.064 69.4698 232.877C76.114 230.495 81.6404 229.169 83.573 228.803L100.027 215.953C104.791 209.434 120.816 196.94 128.233 191.508C129.236 192.511 131.681 194.328 132.778 195.112C132.652 196.115 140.456 221.595 143.12 235.855C145.377 245.257 149.388 275.5 151.112 289.447Z" fill="#181B24"/>
<path d="M46.0643 260.486C46.4862 260.285 47.5167 259.95 47.6494 259.577C47.8152 259.11 46.2302 260.019 46.0643 260.486Z" fill="#363D50"/>
<path d="M48.1255 259.272C48.2853 259.119 48.9242 258.504 49.7075 258.519C49.2836 258.825 48.3738 259.403 48.1255 259.272Z" fill="#363D50"/>
<path d="M50.3403 258.218C50.5553 257.909 51.013 257.479 51.7626 257.619C51.3397 257.872 50.591 258.223 50.3403 258.218Z" fill="#363D50"/>
<path d="M52.2357 257.472C52.3985 257.161 53.191 256.707 53.8177 256.719C53.4992 256.974 52.549 257.478 52.2357 257.472Z" fill="#363D50"/>
<path d="M54.2907 256.571C54.4535 256.261 55.0863 255.96 55.713 255.972C55.3434 256.174 54.5414 256.576 54.2907 256.571Z" fill="#363D50"/>
<path d="M56.1861 255.825C56.5055 255.517 57.1383 255.216 57.4486 255.379C57.1845 255.531 56.4368 255.83 56.1861 255.825Z" fill="#363D50"/>
<path d="M58.0784 255.235C58.1316 255.183 58.5576 254.774 59.1843 254.786C59.0255 254.887 58.4544 255.242 58.0784 255.235Z" fill="#363D50"/>
<path d="M50.1957 270.202C50.6176 270.001 51.6481 269.666 51.7807 269.292C51.9466 268.825 50.3615 269.735 50.1957 270.202Z" fill="#363D50"/>
<path d="M52.2569 268.988C52.4166 268.834 53.0555 268.22 53.8389 268.235C53.415 268.54 52.5051 269.118 52.2569 268.988Z" fill="#363D50"/>
<path d="M54.4717 267.934C54.6867 267.625 55.1444 267.195 55.8939 267.335C55.4711 267.588 54.7223 267.939 54.4717 267.934Z" fill="#363D50"/>
<path d="M56.367 267.187C56.5298 266.877 57.3223 266.422 57.949 266.434C57.6306 266.689 56.6804 267.193 56.367 267.187Z" fill="#363D50"/>
<path d="M58.4221 266.287C58.5849 265.977 59.2177 265.676 59.8444 265.688C59.4747 265.89 58.6728 266.292 58.4221 266.287Z" fill="#363D50"/>
<path d="M60.3174 265.54C60.6369 265.233 61.2697 264.932 61.58 265.095C61.3158 265.246 60.5681 265.545 60.3174 265.54Z" fill="#363D50"/>
<path d="M62.2097 264.95C62.263 264.899 62.6889 264.489 63.3156 264.502C63.1569 264.603 62.5857 264.958 62.2097 264.95Z" fill="#363D50"/>
<path d="M60.4125 291.327C60.4698 291.789 60.5029 292.872 60.7346 293.109C61.0243 293.405 60.7022 291.623 60.4125 291.327Z" fill="#363D50"/>
<path d="M60.8527 293.653C60.9279 293.851 61.2283 294.642 61.0676 295.386C60.9388 294.891 60.7155 293.852 60.8527 293.653Z" fill="#363D50"/>
<path d="M61.1535 296.079C61.3251 296.376 61.5333 296.939 61.2932 297.614C61.2002 297.136 61.102 296.317 61.1535 296.079Z" fill="#363D50"/>
<path d="M61.304 298.11C61.4864 298.356 61.6474 299.247 61.5189 299.842C61.4044 299.463 61.2397 298.407 61.304 298.11Z" fill="#363D50"/>
<path d="M61.5297 300.338C61.7121 300.585 61.798 301.278 61.6694 301.873C61.6014 301.46 61.4782 300.576 61.5297 300.338Z" fill="#363D50"/>
<path d="M61.6802 302.368C61.8304 302.764 61.9164 303.457 61.7448 303.705C61.6911 303.408 61.6288 302.606 61.6802 302.368Z" fill="#363D50"/>
<path d="M61.7235 304.35C61.7485 304.416 61.9488 304.943 61.8203 305.538C61.7809 305.357 61.6463 304.707 61.7235 304.35Z" fill="#363D50"/>
<path d="M54.9592 291.317C55.3749 291.104 56.3949 290.738 56.5163 290.361C56.668 289.889 55.111 290.846 54.9592 291.317Z" fill="#363D50"/>
<path d="M56.983 290.042C57.1381 289.884 57.7583 289.251 58.5417 289.242C58.1272 289.56 57.2351 290.165 56.983 290.042Z" fill="#363D50"/>
<path d="M59.1652 288.922C59.3708 288.607 59.8154 288.163 60.5688 288.281C60.1537 288.546 59.4159 288.92 59.1652 288.922Z" fill="#363D50"/>
<path d="M61.0373 288.119C61.1907 287.804 61.9692 287.326 62.5959 287.319C62.2853 287.584 61.3507 288.116 61.0373 288.119Z" fill="#363D50"/>
<path d="M63.0644 287.157C63.2178 286.842 63.8412 286.522 64.468 286.516C64.1046 286.729 63.3151 287.155 63.0644 287.157Z" fill="#363D50"/>
<path d="M64.9364 286.354C65.2465 286.038 65.87 285.718 66.185 285.871C65.9255 286.03 65.1872 286.352 64.9364 286.354Z" fill="#363D50"/>
<path d="M66.8102 285.708C66.8618 285.655 67.2753 285.233 67.9021 285.226C67.7465 285.332 67.1862 285.704 66.8102 285.708Z" fill="#363D50"/>
<path d="M52.7654 280.975C53.181 280.762 54.201 280.396 54.3224 280.019C54.4742 279.547 52.9171 280.504 52.7654 280.975Z" fill="#363D50"/>
<path d="M54.7892 279.7C54.9442 279.542 55.5644 278.909 56.3479 278.9C55.9333 279.218 55.0412 279.823 54.7892 279.7Z" fill="#363D50"/>
<path d="M56.9713 278.58C57.177 278.265 57.6215 277.821 58.375 277.939C57.9599 278.204 57.2221 278.578 56.9713 278.58Z" fill="#363D50"/>
<path d="M58.8434 277.777C58.9968 277.462 59.7753 276.984 60.4021 276.977C60.0915 277.242 59.1568 277.774 58.8434 277.777Z" fill="#363D50"/>
<path d="M60.8705 276.815C61.0239 276.5 61.6474 276.18 62.2742 276.174C61.9107 276.387 61.1212 276.813 60.8705 276.815Z" fill="#363D50"/>
<path d="M62.7426 276.012C63.0527 275.695 63.6762 275.375 63.9912 275.529C63.7317 275.688 62.9933 276.01 62.7426 276.012Z" fill="#363D50"/>
<path d="M64.6163 275.366C64.668 275.313 65.0814 274.891 65.7082 274.884C65.5526 274.99 64.9924 275.362 64.6163 275.366Z" fill="#363D50"/>
<path d="M59.5978 254.889C60.0447 254.753 61.1134 254.574 61.2998 254.224C61.5327 253.786 59.8308 254.452 59.5978 254.889Z" fill="#363D50"/>
<path d="M61.8156 253.993C61.9962 253.865 62.7189 253.351 63.4914 253.482C63.0271 253.721 62.0419 254.159 61.8156 253.993Z" fill="#363D50"/>
<path d="M64.1617 253.278C64.42 253.004 64.9362 252.646 65.6569 252.895C65.2013 253.083 64.4089 253.32 64.1617 253.278Z" fill="#363D50"/>
<path d="M66.1465 252.819C66.3533 252.536 67.2043 252.203 67.8223 252.308C67.4697 252.513 66.4555 252.871 66.1465 252.819Z" fill="#363D50"/>
<path d="M68.312 252.232C68.5188 251.949 69.1891 251.745 69.8071 251.849C69.4118 251.994 68.5592 252.274 68.312 252.232Z" fill="#363D50"/>
<path d="M70.2968 251.773C70.6581 251.517 71.3284 251.312 71.6113 251.519C71.3276 251.63 70.544 251.815 70.2968 251.773Z" fill="#363D50"/>
<path d="M72.2555 251.469C72.3157 251.426 72.7974 251.084 73.4155 251.189C73.2435 251.265 72.6263 251.532 72.2555 251.469Z" fill="#363D50"/>
<path d="M63.7287 264.604C64.1755 264.468 65.2443 264.289 65.4306 263.939C65.6636 263.501 63.9616 264.167 63.7287 264.604Z" fill="#363D50"/>
<path d="M65.9465 263.708C66.1271 263.58 66.8497 263.066 67.6223 263.197C67.1579 263.436 66.1727 263.874 65.9465 263.708Z" fill="#363D50"/>
<path d="M68.2926 262.993C68.5509 262.719 69.067 262.361 69.7877 262.61C69.3321 262.798 68.5398 263.035 68.2926 262.993Z" fill="#363D50"/>
<path d="M70.2774 262.534C70.4842 262.251 71.3352 261.919 71.9532 262.023C71.6006 262.228 70.5864 262.586 70.2774 262.534Z" fill="#363D50"/>
<path d="M72.4429 261.947C72.6497 261.664 73.32 261.46 73.938 261.564C73.5426 261.709 72.6901 261.989 72.4429 261.947Z" fill="#363D50"/>
<path d="M74.4277 261.488C74.789 261.232 75.4593 261.027 75.7422 261.234C75.4585 261.345 74.6749 261.53 74.4277 261.488Z" fill="#363D50"/>
<path d="M76.3863 261.184C76.4466 261.141 76.9283 260.799 77.5463 260.904C77.3744 260.981 76.7571 261.247 76.3863 261.184Z" fill="#363D50"/>
<path d="M61.6705 305.903C61.6786 306.37 61.5971 307.444 61.8023 307.725C62.0586 308.076 61.9269 306.254 61.6705 305.903Z" fill="#363D50"/>
<path d="M61.8621 308.285C61.9158 308.496 62.1306 309.337 61.8925 310.037C61.8168 309.523 61.7048 308.453 61.8621 308.285Z" fill="#363D50"/>
<path d="M61.9046 310.737C62.0438 311.065 62.191 311.663 61.8813 312.278C61.8394 311.788 61.8284 310.961 61.9046 310.737Z" fill="#363D50"/>
<path d="M61.8397 312.768C61.9948 313.049 62.0606 313.96 61.8701 314.52C61.7965 314.123 61.7445 313.048 61.8397 312.768Z" fill="#363D50"/>
<path d="M61.8286 315.01C61.9836 315.291 61.9958 315.991 61.8053 316.551C61.7813 316.131 61.7524 315.234 61.8286 315.01Z" fill="#363D50"/>
<path d="M61.7637 317.041C61.8711 317.462 61.8833 318.162 61.6867 318.372C61.6647 318.068 61.6875 317.265 61.7637 317.041Z" fill="#363D50"/>
<path d="M61.5975 319.002C61.6154 319.072 61.7586 319.633 61.5681 320.193C61.5482 320.006 61.4832 319.338 61.5975 319.002Z" fill="#363D50"/>
<path d="M68.318 285.317C68.7606 285.167 69.8234 284.956 69.9992 284.6C70.2189 284.156 68.5377 284.872 68.318 285.317Z" fill="#363D50"/>
<path d="M70.5079 284.354C70.6846 284.221 71.3915 283.686 72.1676 283.793C71.7107 284.046 70.739 284.513 70.5079 284.354Z" fill="#363D50"/>
<path d="M72.8315 283.569C73.0814 283.287 73.5866 282.914 74.3145 283.141C73.8647 283.343 73.0798 283.603 72.8315 283.569Z" fill="#363D50"/>
<path d="M74.8016 283.051C74.9998 282.762 75.8404 282.404 76.4613 282.49C76.115 282.705 75.1121 283.094 74.8016 283.051Z" fill="#363D50"/>
<path d="M76.9485 282.399C77.1467 282.11 77.8106 281.885 78.4315 281.971C78.0406 282.128 77.1968 282.433 76.9485 282.399Z" fill="#363D50"/>
<path d="M78.9186 281.881C79.2721 281.613 79.9359 281.389 80.2249 281.587C79.9447 281.706 79.167 281.915 78.9186 281.881Z" fill="#363D50"/>
<path d="M80.8673 281.518C80.9262 281.473 81.3974 281.117 82.0183 281.203C81.8488 281.285 81.2398 281.569 80.8673 281.518Z" fill="#363D50"/>
<path d="M66.1247 274.974C66.5672 274.824 67.6301 274.613 67.8059 274.257C68.0256 273.813 66.3444 274.53 66.1247 274.974Z" fill="#363D50"/>
<path d="M68.3145 274.011C68.4913 273.878 69.1981 273.343 69.9742 273.45C69.5173 273.703 68.5457 274.17 68.3145 274.011Z" fill="#363D50"/>
<path d="M70.6381 273.226C70.8881 272.944 71.3932 272.571 72.1211 272.799C71.6713 273 70.8865 273.26 70.6381 273.226Z" fill="#363D50"/>
<path d="M72.6083 272.708C72.8065 272.419 73.6471 272.061 74.268 272.147C73.9217 272.362 72.9187 272.751 72.6083 272.708Z" fill="#363D50"/>
<path d="M74.7551 272.056C74.9533 271.767 75.6172 271.543 76.2381 271.629C75.8473 271.785 75.0035 272.09 74.7551 272.056Z" fill="#363D50"/>
<path d="M76.7253 271.538C77.0787 271.271 77.7426 271.046 78.0315 271.244C77.7513 271.364 76.9736 271.572 76.7253 271.538Z" fill="#363D50"/>
<path d="M78.6739 271.175C78.7328 271.131 79.2041 270.774 79.825 270.86C79.6554 270.942 79.0464 271.227 78.6739 271.175Z" fill="#363D50"/>
<path d="M49.5687 248.861C47.6883 250.637 43.1126 253.875 39.8532 252.621C40.48 251.368 42.047 241.966 49.5687 248.861C50.0702 243.47 43.823 241.6 40.6367 241.339C44.2409 240.712 51.2925 244.003 49.5687 248.861Z" fill="#090D16"/>
<path d="M75.4247 244.003C68.9999 236.794 56.4637 243.219 58.1874 246.51C72.4473 240.085 72.7607 245.413 76.5216 248.234C79.9359 250.251 84.6311 247.402 85.2792 245.926C85.2855 245.911 85.2914 245.897 85.2969 245.883C85.2961 245.884 85.2953 245.884 85.2946 245.885C81.5342 248.64 76.9914 245.883 75.4247 244.003Z" fill="#090D16"/>
<path d="M20.2654 275.343C22.407 275.448 27.0349 276.566 28.4139 280.201C31.2868 283.178 37.346 289.697 38.5996 291.954C39.4771 292.813 48.4718 307.877 52.8595 315.302C49.3494 311.918 41.8903 298.326 38.5996 291.954L31.2346 284.745C28.8318 284.902 22.9607 284.683 18.6984 282.552C14.6204 280.513 16.6243 281.467 18.3149 282.285C16.6051 281.431 13.785 279.455 14.6242 277.537C16.4523 279.209 22.1458 282.771 30.2943 283.649C30.1899 283.155 29.5422 281.767 27.7871 280.166C24.7454 279.935 19.7977 278.734 20.2654 275.343Z" fill="#090D16"/>
<path d="M59.2843 324.078C68.0596 331.443 73.7532 346.486 77.1484 355.262H73.0741C70.943 343.101 64.7689 333.793 61.9482 330.659C56.683 325.77 55.3667 317.966 55.3667 314.676C55.3667 307.154 53.3818 296.916 52.3894 292.737C50.0075 271.175 44.1886 259.307 41.5769 256.069C49.8508 262.337 52.2327 283.126 52.3894 292.737C55.8995 299.131 55.8368 310.027 55.3667 314.676C56.6204 320.317 58.553 323.399 59.2843 324.078Z" fill="#090D16"/>
<path d="M24.4964 338.181C32.3941 332.54 50.2478 347.218 58.1874 355.262H47.0615C45.0557 349.37 32.7493 344.345 26.8469 342.569L24.4964 338.181Z" fill="#090D16"/>
<path d="M121.025 301.043C127.607 302.714 139.516 306.214 144.217 312.795C150.987 322.197 125.413 345.024 111.78 355.262C140.488 329.813 145.366 316.347 144.217 312.795C124.994 302.666 108.646 301.922 97.4081 292.737C95.3331 290.844 93.562 288.95 92.0566 287.112C87.2806 281.279 85.1807 276.001 84.545 273.038C84.3114 272.481 84.2327 272.082 84.3567 271.896C84.3909 272.224 84.4524 272.606 84.545 273.038C85.7277 275.856 90.8798 282.709 93.7588 286.336C99.7577 292.195 109.075 298.703 121.025 301.043Z" fill="#090D16"/>
<path d="M253.125 208.431C254.849 208.431 265.348 210.939 265.348 214.229C261.587 212.871 253.877 209.81 253.125 208.431Z" fill="#090D16"/>
<path d="M270.519 216.893C271.982 217.886 275.283 219.996 276.787 220.497C277.048 218.669 276.161 215.389 270.519 216.893Z" fill="#090D16"/>
<path d="M268.795 251.681C275.795 260.77 289.355 280.201 290.107 282.082L292.614 283.178C283.526 270.486 272.4 249.958 268.795 248.391C268.302 248.895 267.192 250.101 266.745 250.584L268.795 251.681Z" fill="#090D16"/>
<path d="M286.189 229.273C287.104 230.538 284.675 233.572 281.537 236.638C278.025 239.615 271.303 245.1 269.898 245.57C266.166 248.273 264.408 251.229 264.408 253.718C264.408 253.264 265.415 252.022 266.745 250.584C267.192 250.101 268.302 248.895 268.795 248.391C270.077 247.081 270.803 246.478 271.773 245.57C272.958 244.755 274.052 243.972 275.064 243.22C276.014 242.514 276.89 241.834 277.698 241.182C286.212 234.306 287.063 230.452 286.189 229.273Z" fill="#090D16"/>
<path d="M273.497 264.531C273.497 263.747 267.228 254.815 264.408 253.718L264.586 253.915L264.759 254.105C267.431 257.053 272.907 263.093 273.026 264.531C273.277 266.284 277.688 272.401 288.667 280.972C284.882 277.867 274.912 269.034 273.497 264.531Z" fill="#090D16"/>
<path d="M278.414 306.963C284.077 326.119 292.474 354.166 293.241 355.262H295.435C290.675 342.143 282.389 318.997 278.414 306.963Z" fill="#090D16"/>
<path d="M218.024 202.007C224.449 212.036 231.5 222.691 238.865 241.652C237.868 239.78 239.397 243.021 238.865 241.652C239.839 244.16 246.7 259.203 251.558 269.389L248.111 259.673C248.476 259.36 247.233 254.784 239.335 238.988C236.097 228.385 227.426 206.238 218.024 202.007Z" fill="#090D16"/>
<path d="M298.726 311.385L303.113 300.416C306.456 311.124 313.142 332.884 313.142 334.263C312.965 333.323 300.763 313.735 298.726 311.385Z" fill="#090D16"/>
<path d="M85.2969 245.883C85.2914 245.897 85.2855 245.911 85.2792 245.926C80.6026 257.172 83.2598 259.517 83.2598 260.143C84.0433 261.554 83.7299 269.232 83.2598 270.956C82.3822 272.836 83.7509 273.127 84.545 273.038C84.3114 272.481 84.2327 272.082 84.3567 271.896C84.3909 272.224 84.4524 272.606 84.545 273.038C85.8239 273.038 85.997 264.023 85.9237 259.516C84.1665 258.037 84.2344 253.339 84.7055 249.487C84.873 248.118 85.0914 246.856 85.2969 245.883Z" fill="#090D16"/>
<path d="M85.2946 245.885C85.2953 245.884 85.2961 245.884 85.2969 245.883C85.0914 246.856 84.873 248.118 84.7055 249.487C84.764 249.03 92.1087 229.541 93.5036 228.24C93.1132 228.527 92.6147 229.235 92.0566 230.213C89.4582 234.766 85.5693 245.152 85.2946 245.885Z" fill="#090D16"/>
<path d="M93.5036 228.24L101.281 217.05C98.5627 220.393 92.9129 227.706 92.0566 230.213C92.6147 229.235 93.1132 228.527 93.5036 228.24Z" fill="#090D16"/>
<path d="M84.545 273.038C83.7509 273.127 82.3822 272.836 83.2598 270.956C81.1874 274.967 88.2608 283.398 92.0566 287.112C87.2806 281.279 85.1807 276.001 84.545 273.038Z" fill="#090D16"/>
<path d="M277.728 227.863C277.728 230.546 275.342 232.721 272.4 232.721C269.457 232.721 266.132 229.919 266.132 227.236C266.132 224.553 268.517 222.378 271.459 222.378C274.402 222.378 277.728 225.18 277.728 227.863Z" fill="#D9D9D9"/>
<path d="M81.3794 235.384C81.3794 237.548 83.7299 239.415 88.431 238.318L91.4084 231.423C90.3114 231.109 89.5279 230.997 88.431 231.153C84.8827 231.153 82.3196 232.877 81.3794 235.384Z" fill="#D9D9D9"/>
<ellipse cx="97.2423" cy="271.368" rx="3.41896" ry="7.14252" transform="rotate(-33.8533 97.2423 271.368)" fill="#D9D9D9"/>
<path d="M295 301.187C296.969 300.191 297.25 296.785 295.628 293.581C294.006 290.377 291.096 288.587 289.127 289.584C288.332 289.986 288.143 291.095 287.913 292.111L293.711 301.461C294.167 301.476 294.603 301.388 295 301.187Z" fill="#D9D9D9"/>
<path d="M221.628 95.9192C226.517 92.7852 227.635 80.928 227.583 75.3912L239.178 87.7707C249.364 100.62 250.879 119.268 253.282 129.767C255.538 131.271 255.684 150.974 255.476 160.637C258.359 164.022 258.244 172.808 257.826 176.778C261.838 187.684 256.781 191.978 253.752 192.761C242.595 194.015 235 204.253 232.597 209.215L236.358 198.873L237.298 196.679C237.8 195.676 243.462 192.605 246.23 191.194C255.131 188.938 251.297 178.763 248.267 173.957C244.381 185.49 226.486 196.418 218.024 200.44C211.129 195.927 209.614 186.232 209.718 181.949C217.867 172.547 219.591 163.771 222.881 140.893C234.164 144.027 236.358 114.88 239.962 113C237.204 114.003 232.388 114.515 230.717 114.097C225.577 113.094 222.516 101.561 221.628 95.9192Z" fill="#634C37"/>
<path fill-rule="evenodd" clip-rule="evenodd" d="M108.332 71.4736C105.929 75.6524 101.093 84.6993 100.967 87.4573C99.829 89.2425 98.4786 91.2814 97.0143 93.4922C88.1962 106.806 75.2477 126.356 79.6556 134.311C74.171 143.191 64.4553 158.443 58.814 164.085C53.4861 171.032 43.8019 186.431 47.6881 192.448C47.218 188.792 49.0984 178 60.381 164.085C64.6391 158.714 72.2272 148.825 76.5535 142.262C75.0067 145.347 73.5438 148.901 72.4786 152.645C66.14 167.01 55.8626 199.5 65.4622 214.543C62.3294 220.374 60.2145 225.812 61.3212 228.333C62.157 228.437 65.1134 229.586 70.2533 233.347L86.5503 227.549C90.5201 227.027 99.5253 223.099 103.788 211.566C112.563 206.551 130.145 195.707 130.27 192.448C125.517 188.112 115.352 175.179 112.72 158.13C108.019 139.482 106.452 130.08 106.138 124.596C105.825 119.111 106.138 109.709 106.922 99.5234C107.078 90.9047 107.204 73.7301 108.332 71.4736ZM65.4622 214.543C68.7169 208.485 73.0703 202.005 76.0512 197.933C76.5527 192.291 79.2898 185.657 80.5956 183.046C72.8568 177.887 70.4738 170.215 70.8207 162.361C60.619 193.576 62.9976 210.155 65.4622 214.543Z" fill="#634C37"/>
<path d="M106.608 92.0016C105.982 90.1212 107.287 77.5328 108.019 71.4736C169.321 18.6962 212.957 70.899 227.113 103.598C240.276 93.5686 245.76 104.381 232.754 132.744C231.375 140.767 225.702 141.624 223.038 141.049L220.061 159.227C218.431 176.025 202.145 190.463 194.205 195.582C174.899 209.873 158.895 209.372 153.306 207.335C149.294 207.209 138.994 199.447 134.345 195.582C116.802 182.634 115.093 165.85 110.863 153.586C108.752 148.697 107.556 141.52 107.222 138.542C106.059 129.624 105.2 118.079 105.511 110.806C106.264 104.412 106.556 95.6058 106.608 92.0016Z" fill="#EFB580"/>
<path d="M226.956 120.208C228.209 121.336 227.792 123.081 227.426 123.812C226.414 124.513 225.994 125.45 225.859 126.236C225.702 129.454 226.956 125.536 228.053 124.126C229.463 124.126 231.218 122.872 231.814 122.402C238.834 115.006 234.06 110.91 230.873 110.022L227.426 112.373C226.329 113.783 226.642 119.111 226.956 120.208Z" fill="#CB996F"/>
<path d="M230.56 127.103C234.321 124.972 236.828 118.275 237.612 115.194C237.141 121.618 232.127 126.79 231.814 127.103C231.03 127.73 229.803 129.767 229.62 131.647C229.369 131.021 230.142 128.357 230.56 127.103Z" fill="#CB996F"/>
<path d="M127.763 64.8921C157.098 58.7494 190.131 78.0029 202.98 88.3975C210.502 93.7454 206.114 102.117 202.98 105.635C192.45 116.667 179.684 114.619 174.617 112.216C171.483 114.849 175.923 119.999 178.535 122.245C174.649 121.869 170.857 119.581 169.446 118.484C165.999 114.253 156.408 107.327 145.627 113.47L117.264 112.216C110.213 112.686 107.026 102.187 107.235 96.8594C106.859 93.7253 105.982 80.0922 107.549 71.9437C108.277 68.1587 121.652 66.1457 127.763 64.8921Z" fill="#DCA776"/>
<path d="M165.372 95.7629C163.491 99.273 163.439 106.836 163.648 110.179C174.774 113.94 179.214 113.522 189.034 115.351C195.944 114.271 200.87 112.423 204.255 110.179C208.032 108.231 213.232 99.7567 215.36 95.7629L202.98 88.3978C194.675 81.0328 165.372 94.6659 165.372 95.7629Z" fill="#DCA776"/>
<path d="M169.759 137.602C170.908 138.179 173.301 140.224 173.677 143.795C178.711 146.381 186.337 151.43 188.462 156.72C193.163 159.478 192.16 165.182 191.071 167.689C188.313 165.808 188.459 162.309 188.877 160.794C185.524 156.505 178.164 147.777 173.677 144.681C173.572 145.515 173.05 147.004 170.543 148.302C168.41 149.911 164.998 150.816 164.745 152.332C164.849 151.087 165.769 150.454 168.192 149.101C168.896 148.708 169.726 148.255 170.699 147.708C171.953 147.004 172.15 146.25 172.248 145.796C172.366 145.189 172.376 144.506 172.303 143.795C172.296 143.727 172.289 143.659 172.28 143.591C172.013 142.427 169.489 141.957 168.192 141.867C162.011 141.892 161.541 138.292 162.238 136.192C166.124 134.311 168.871 136.348 169.759 137.602Z" fill="#DCA776"/>
<path d="M131.994 163.301C131.994 159.854 136.382 151.392 137.635 145.28C137.792 148.101 139.046 148.728 139.829 149.511C138.074 150.219 135.912 153.899 131.994 163.301Z" fill="#DCA776"/>
<path d="M145.157 148.302C151.801 154.982 155.917 154.555 157.223 153.429C158.32 154.592 159.73 156.406 159.73 162.674C159.156 163.04 158.571 164.806 156.44 163.301C156.44 161.36 157.348 155.146 155.343 154.592C152.001 154.95 146.636 152.951 145.157 151.705C140.644 147.694 143.277 147.765 145.157 148.302Z" fill="#DCA776"/>
<path d="M138.419 172.703C141.302 173.33 146.428 175.062 148.203 176.838C149.536 177.568 155.343 177.299 161.454 177.299C170.543 172.703 167.112 183.35 163.717 185.614C159.214 189.044 153.797 186.77 150.397 184.501C149.394 183.953 141.866 176.857 138.419 172.703Z" fill="#DCA776"/>
<path d="M180.572 168.786C183.288 168.786 187.467 171.136 188.462 175.837C186.477 172.965 182.201 169.914 180.572 168.786Z" fill="#DCA776"/>
<path d="M110.839 152.332C112.304 156.026 120.282 163.425 127.763 164.802C129.297 164.249 132.171 163.897 131.396 166.905L134.815 171.92C133.244 171.093 131.996 168.972 131.133 167.219C130.515 167.269 129.653 167.232 128.943 166.979L124.316 166.474C120.085 164.802 113.66 161.577 110.839 152.332Z" fill="#DCA776"/>
<path d="M170.543 148.302C168.41 149.91 164.998 150.815 164.745 152.332C164.834 151.267 165.52 150.65 167.232 149.648C164.958 150.501 161.597 149.317 157.38 150.738C157.38 150.239 164.137 143.206 168.192 149.101C168.896 148.708 169.726 148.255 170.7 147.708L170.543 148.302Z" fill="#CC9C70"/>
<path d="M142.336 137.132C140.769 142.075 136.538 145.594 139.673 148.885L143.12 151.235L139.986 149.63C139.046 149.138 137.259 147.46 137.635 144.681C138.66 141.865 139.475 140.351 142.336 137.132Z" fill="#CC9C70"/>
<path d="M157.38 153.272C154.089 156.72 148.065 154.944 146.08 153.272C142.59 150.171 142.45 147.943 143.854 148.051C144.566 148.01 145.635 148.799 146.08 149.198C152.197 154.926 156.136 154.346 157.38 153.272Z" fill="#CC9C70"/>
<path d="M222.891 132.696C215.128 151.644 205.112 156.365 203.764 160.056C218.614 154.468 223.99 146.624 222.891 132.696Z" fill="#CE9C6E" fill-opacity="0.4"/>
<path d="M169.603 111.276C171.013 97.4864 191.071 97.6431 204.077 102.658C195.615 118.955 181.355 114.985 172.11 111.746C170.731 111.746 169.864 111.433 169.603 111.276Z" fill="#CB996F"/>
<path d="M145.627 113.313L143.59 128.67C143.486 124.087 143.998 113.373 141.866 114.41C125.366 123.006 117.591 117.392 116.637 112.53C110.41 114.087 106.053 101.074 107.235 96.3894C107.131 93.6732 106.891 87.0186 106.765 82.1295C106.713 78.5253 106.985 71.1916 108.489 70.6902C112.145 67.8695 124.19 62.7924 143.12 65.0489C151.164 65.1534 176.498 66.6159 198.593 84.6367H191.071C188.963 82.5664 183.788 78.1163 179.382 76.2704C179.205 76.1994 179.027 76.1287 178.848 76.0581C164.588 70.4173 148.596 66.1356 132.464 69.9067C126.51 82.1295 130.27 90.1213 130.27 92.3783C133.985 93.6607 137.835 95.3322 140.456 96.2327C143.433 103.128 144.844 107.359 145.627 113.313Z" fill="#CB996F"/>
<path d="M160.914 164.241C155.754 167.615 151.486 166.083 149.336 164.968C145.784 165.405 143.394 165.35 141.083 166.423C140.143 166.859 138.367 167.295 136.382 169.477C138.164 171.756 143.81 176.72 149.005 178.931C162.403 183.149 171.831 174.713 182.748 168.75C174.809 164.241 166.152 164.192 160.914 164.241Z" fill="#BC7660"/>
<path d="M174.906 173.352C177.435 171.678 180.008 169.955 182.748 168.458C179.978 170.389 177.369 172.009 174.906 173.352C167.36 178.349 160.207 182.914 150.171 179.755C148.793 179.27 147.864 178.64 141.744 174.858L138.889 172.385L136.538 169.622C144.362 176.754 154.665 184.394 174.906 173.352Z" fill="#BB745E"/>
<path d="M176.463 171.166C161.01 183.85 140.905 176.451 139.742 171.166C141.727 170.506 143.733 171.034 149.05 171.827C156.86 173.809 160.515 172.355 163.672 171.166C169.654 169.475 175.3 170.242 176.463 171.166Z" fill="#C57C66"/>
<path d="M169.35 167.586C171.467 167.819 175.194 167.974 176.793 168.022C175.205 166.975 167.641 166.131 164.057 165.841C163.792 166.539 158.323 167.586 155.621 168.022C154.166 168.022 149.942 166.859 148.012 166.277C145.366 166.044 141.396 167.925 139.742 168.895L142.058 169.331C145.366 168.866 148.839 169.525 150.163 169.913C155.059 172.24 164.994 169.331 169.35 167.586Z" fill="#C57C66"/>
<path d="M177.124 168.459C178.723 168.023 182.285 167.557 183.079 169.186C181.701 168.847 178.448 168.314 177.124 168.895C176.242 169.041 173.849 169.244 171.335 168.895C169.156 169.125 165.515 169.626 163.96 169.971L162.899 170.416C161.403 171.146 155.465 172.691 150.163 171.121L148.178 170.678C146.248 170.476 143.277 170.204 141.727 170.204C139.847 169.936 135.942 169.704 135.236 169.942C135.195 169.968 135.159 169.992 135.128 170.014C135.139 169.986 135.176 169.962 135.236 169.942C135.83 169.567 137.513 168.816 140.285 169.768L141.81 170.014C142.279 170.04 143.249 170.093 143.381 170.086C145.151 170.009 147.394 170.06 148.674 170.544L150.659 171.067C153.666 171.527 158.796 171.764 163.23 170.204C163.251 170.179 163.308 170.151 163.395 170.12C164.626 169.515 167.674 168.425 171.335 168.314C171.942 168.477 173.948 168.734 177.124 168.459Z" fill="#703C35"/>
<path d="M159.417 148.885C160.723 147.579 164.181 145.657 167.565 148.415C165.998 149.094 162.175 150.138 159.417 148.885Z" fill="#A37C59"/>
<path d="M148.134 150.922C146.097 149.041 144.373 147.318 142.806 148.258C143.12 148.237 143.747 150.295 148.134 150.922Z" fill="#A37C59"/>
<g filter="url(#filter0_f_1417_220)">
<path d="M200.787 120.208C210.344 113.918 214.53 106.118 216.645 102.344C219.779 115.664 225.394 130.522 216.645 144.967C213.323 150.452 203.764 159.07 186.526 153.899C186.526 152.083 177.281 146.691 174.303 144.967C172.632 142.853 170.825 133.748 181.355 127.416C187.513 123.632 197.41 122.173 200.787 120.208Z" fill="#CC776B" fill-opacity="0.1"/>
</g>
<g filter="url(#filter1_f_1417_220)">
<path d="M141.396 139.013C137.635 145.124 132.151 156.407 132.151 161.421C124.493 164.89 115.227 161.421 111.309 154.056C106.922 144.341 105.773 125.923 105.511 118.798C111.466 127.573 117.891 127.887 123.062 129.454C138.106 130.394 142.32 136.481 141.396 139.013Z" fill="#CC776B" fill-opacity="0.1"/>
</g>
<path d="M147.351 120.678C150.798 113.157 153.358 113.94 155.186 113C164.275 118.485 164.118 120.678 168.036 127.103C166.782 128.106 160.827 125.223 158.007 123.656C161.517 125.912 156.858 129.402 154.089 130.864C150.203 131.867 149.858 127.939 150.172 125.85L145 130.551L143.904 127.103L147.351 120.678Z" fill="#CC776B" fill-opacity="0.1"/>
<path d="M196.242 114.728C199.063 113 208.621 107.985 213.949 98.2698C220.687 105.948 211.703 112.739 203.294 118.328C193.735 121.305 194.205 116.761 196.242 114.728Z" fill="#F7C08E"/>
<path d="M114.757 122.872C105.668 119.111 108.175 109.866 107.548 102.187C108.802 106.575 107.235 111.589 113.19 117.074C116.324 121.148 116.794 122.872 114.757 122.872Z" fill="#F7C08E"/>
<path d="M153.961 147.095C149.715 148.317 147.801 146.002 147.067 143.243C146.849 141.335 146.254 136.971 151.739 138.579C155.505 139.682 154.992 144.294 153.961 147.095Z" fill="#F7C08E"/>
<path d="M151.739 205.716C139.673 201.277 147.978 195.618 148.321 195.374C153.961 192.918 158.007 192.605 162.081 196.052C165.058 196.366 173.05 197.149 174.147 199.813C175.244 202.477 168.819 209.425 151.739 205.716Z" fill="#F7C08E"/>
<path d="M166.625 126.319C166.834 126.319 167.158 126.163 166.782 125.536C166.406 125.536 166.312 125.745 166.312 125.849L166.625 126.319Z" fill="#C8976B"/>
<path d="M171.797 123.74C171.431 124.001 171.17 124.282 171.797 124.524C172.162 124.315 172.267 123.969 171.797 123.74Z" fill="#C8976B"/>
<path d="M162.708 121.305C162.551 121.357 162.269 121.556 162.394 121.932C162.656 121.88 163.084 121.681 162.708 121.305Z" fill="#C8976B"/>
<path d="M162.551 128.827C162.342 129.036 162.081 129.516 162.708 129.767C162.708 129.61 162.708 128.983 162.551 128.827Z" fill="#C8976B"/>
<path d="M172.423 128.513C172.267 128.67 172.047 129.046 172.423 129.297C172.58 129.14 172.8 128.764 172.423 128.513Z" fill="#C8976B"/>
<path d="M151.943 124.395C152.109 124.268 152.27 123.946 151.59 123.678C151.292 123.907 151.344 124.13 151.408 124.213L151.943 124.395Z" fill="#C8976B"/>
<path d="M154.475 119.201C154.344 119.631 154.308 120.013 154.952 119.823C155.115 119.434 154.987 119.096 154.475 119.201Z" fill="#C8976B"/>
<path d="M145.782 122.802C145.69 122.939 145.587 123.268 145.915 123.49C146.091 123.289 146.31 122.871 145.782 122.802Z" fill="#C8976B"/>
<path d="M150.237 128.865C150.198 129.158 150.284 129.698 150.934 129.515C150.838 129.391 150.457 128.894 150.237 128.865Z" fill="#C8976B"/>
<path d="M157.878 122.606C157.849 122.826 157.904 123.258 158.355 123.228C158.384 123.008 158.329 122.576 157.878 122.606Z" fill="#C8976B"/>
<path d="M172.136 131.155C172.278 131.002 172.384 130.658 171.669 130.506C171.413 130.782 171.502 130.993 171.578 131.064L172.136 131.155Z" fill="#AB815B"/>
<path d="M173.77 125.612C173.712 126.058 173.739 126.44 174.343 126.146C174.439 125.736 174.257 125.424 173.77 125.612Z" fill="#AB815B"/>
<path d="M165.796 130.608C165.727 130.758 165.681 131.1 166.041 131.264C166.181 131.037 166.327 130.589 165.796 130.608Z" fill="#AB815B"/>
<path d="M171.196 135.846C171.207 136.141 171.381 136.66 171.992 136.371C171.877 136.265 171.418 135.838 171.196 135.846Z" fill="#AB815B"/>
<path d="M177.691 128.404C177.699 128.625 177.825 129.042 178.265 128.938C178.257 128.716 178.131 128.299 177.691 128.404Z" fill="#AB815B"/>
<path d="M180.284 127.707C180.427 127.554 180.533 127.21 179.817 127.059C179.561 127.334 179.65 127.545 179.727 127.616L180.284 127.707Z" fill="#C8976B"/>
<path d="M181.918 122.164C181.86 122.61 181.888 122.992 182.492 122.698C182.588 122.288 182.406 121.976 181.918 122.164Z" fill="#C8976B"/>
<path d="M173.945 127.16C173.876 127.31 173.829 127.652 174.19 127.816C174.33 127.59 174.476 127.141 173.945 127.16Z" fill="#C8976B"/>
<path d="M179.345 132.398C179.356 132.693 179.53 133.212 180.14 132.924C180.026 132.817 179.567 132.39 179.345 132.398Z" fill="#C8976B"/>
<path d="M185.84 124.956C185.848 125.178 185.974 125.594 186.414 125.49C186.406 125.268 186.28 124.852 185.84 124.956Z" fill="#C8976B"/>
<path d="M154.271 123.946C154.414 123.793 154.52 123.45 153.805 123.298C153.548 123.573 153.637 123.784 153.714 123.856L154.271 123.946Z" fill="#C8976B"/>
<path d="M155.905 118.403C155.847 118.849 155.875 119.232 156.479 118.937C156.575 118.527 156.393 118.215 155.905 118.403Z" fill="#C8976B"/>
<path d="M147.932 123.399C147.863 123.55 147.816 123.891 148.177 124.056C148.317 123.829 148.463 123.38 147.932 123.399Z" fill="#C8976B"/>
<path d="M153.332 128.637C153.343 128.932 153.517 129.451 154.127 129.163C154.013 129.056 153.554 128.629 153.332 128.637Z" fill="#C8976B"/>
<path d="M159.827 121.196C159.835 121.417 159.961 121.834 160.401 121.729C160.393 121.508 160.267 121.091 159.827 121.196Z" fill="#C8976B"/>
<path d="M189.495 122.644C189.297 122.575 188.94 122.617 189.089 123.333C189.445 123.456 189.602 123.29 189.636 123.191L189.495 122.644Z" fill="#C8976B"/>
<path d="M183.763 123.383C184.195 123.256 184.533 123.077 184.021 122.643C183.607 122.72 183.394 123.013 183.763 123.383Z" fill="#C8976B"/>
<path d="M191.549 128.666C191.715 128.669 192.046 128.574 192.051 128.177C191.787 128.141 191.318 128.188 191.549 128.666Z" fill="#C8976B"/>
<path d="M194.166 121.613C194.432 121.484 194.836 121.116 194.327 120.673C194.275 120.821 194.07 121.413 194.166 121.613Z" fill="#C8976B"/>
<path d="M184.738 118.669C184.937 118.572 185.268 118.289 184.995 117.929C184.795 118.025 184.465 118.309 184.738 118.669Z" fill="#C8976B"/>
<path d="M189.494 122.644C189.297 122.575 188.939 122.617 189.089 123.333C189.444 123.456 189.602 123.29 189.636 123.191L189.494 122.644Z" fill="#C8976B"/>
<path d="M183.763 123.383C184.194 123.256 184.533 123.077 184.02 122.643C183.606 122.72 183.394 123.013 183.763 123.383Z" fill="#C8976B"/>
<path d="M191.549 128.666C191.714 128.669 192.046 128.574 192.051 128.177C191.787 128.141 191.317 128.188 191.549 128.666Z" fill="#C8976B"/>
<path d="M194.166 121.613C194.432 121.484 194.836 121.116 194.326 120.673C194.275 120.821 194.069 121.413 194.166 121.613Z" fill="#C8976B"/>
<path d="M184.737 118.669C184.937 118.572 185.267 118.289 184.994 117.929C184.795 118.025 184.464 118.309 184.737 118.669Z" fill="#C8976B"/>
<path d="M155.057 111.709C154.934 111.54 154.617 111.369 154.33 112.041C154.55 112.346 154.774 112.299 154.859 112.238L155.057 111.709Z" fill="#C8976B"/>
<path d="M149.937 109.028C150.363 109.172 150.744 109.219 150.572 108.569C150.189 108.395 149.847 108.513 149.937 109.028Z" fill="#C8976B"/>
<path d="M153.287 117.821C153.421 117.918 153.747 118.03 153.979 117.708C153.783 117.527 153.371 117.296 153.287 117.821Z" fill="#C8976B"/>
<path d="M159.475 113.542C159.767 113.589 160.309 113.52 160.145 112.865C160.018 112.957 159.51 113.324 159.475 113.542Z" fill="#C8976B"/>
<path d="M153.439 105.724C153.657 105.76 154.091 105.717 154.074 105.266C153.855 105.23 153.422 105.273 153.439 105.724Z" fill="#C8976B"/>
<path d="M155.61 136.092C155.413 136.023 155.055 136.065 155.205 136.78C155.56 136.904 155.718 136.737 155.752 136.639L155.61 136.092Z" fill="#C8976B"/>
<path d="M149.879 136.831C150.31 136.704 150.649 136.525 150.136 136.091C149.722 136.168 149.51 136.461 149.879 136.831Z" fill="#C8976B"/>
<path d="M157.665 142.114C157.83 142.116 158.162 142.021 158.167 141.625C157.903 141.589 157.433 141.636 157.665 142.114Z" fill="#C8976B"/>
<path d="M160.282 135.061C160.548 134.932 160.952 134.564 160.442 134.121C160.391 134.269 160.185 134.861 160.282 135.061Z" fill="#C8976B"/>
<path d="M150.853 132.117C151.053 132.02 151.383 131.737 151.11 131.376C150.911 131.473 150.58 131.756 150.853 132.117Z" fill="#C8976B"/>
<path d="M154.795 121.754C154.841 121.958 155.065 122.239 155.594 121.735C155.511 121.368 155.286 121.322 155.185 121.345L154.795 121.754Z" fill="#9D7550"/>
<path d="M158.446 126.233C158.111 125.933 157.78 125.74 157.682 126.405C157.966 126.715 158.327 126.741 158.446 126.233Z" fill="#9D7550"/>
<path d="M158.827 116.831C158.741 116.689 158.486 116.458 158.146 116.663C158.254 116.906 158.542 117.28 158.827 116.831Z" fill="#9D7550"/>
<path d="M151.454 118.33C151.204 118.172 150.678 118.022 150.571 118.689C150.724 118.655 151.335 118.517 151.454 118.33Z" fill="#9D7550"/>
<path d="M153.927 127.892C153.74 127.774 153.325 127.642 153.163 128.064C153.35 128.183 153.765 128.314 153.927 127.892Z" fill="#9D7550"/>
<path d="M143.855 129.899C144.055 129.838 144.318 129.593 143.775 129.104C143.415 129.215 143.387 129.442 143.417 129.542L143.855 129.899Z" fill="#C8976B"/>
<path d="M148.041 125.915C147.768 126.272 147.601 126.617 148.271 126.664C148.559 126.357 148.557 125.996 148.041 125.915Z" fill="#C8976B"/>
<path d="M138.638 126.256C138.503 126.352 138.292 126.625 138.522 126.948C138.756 126.821 139.108 126.505 138.638 126.256Z" fill="#C8976B"/>
<path d="M140.697 133.493C140.558 133.754 140.45 134.29 141.123 134.345C141.077 134.195 140.893 133.596 140.697 133.493Z" fill="#C8976B"/>
<path d="M150.042 130.294C149.938 130.489 149.839 130.913 150.272 131.043C150.376 130.847 150.475 130.423 150.042 130.294Z" fill="#C8976B"/>
<path d="M137.901 128.959C138.101 128.898 138.364 128.653 137.821 128.164C137.461 128.275 137.433 128.502 137.463 128.602L137.901 128.959Z" fill="#AD835C"/>
<path d="M142.087 124.975C141.814 125.332 141.647 125.677 142.317 125.724C142.605 125.417 142.603 125.056 142.087 124.975Z" fill="#AD835C"/>
<path d="M132.683 125.316C132.549 125.412 132.338 125.685 132.568 126.007C132.802 125.881 133.153 125.565 132.683 125.316Z" fill="#AD835C"/>
<path d="M134.743 132.552C134.604 132.813 134.496 133.349 135.169 133.405C135.123 133.255 134.938 132.656 134.743 132.552Z" fill="#AD835C"/>
<path d="M144.088 129.353C143.984 129.549 143.885 129.973 144.318 130.102C144.421 129.907 144.521 129.483 144.088 129.353Z" fill="#AD835C"/>
<path d="M129.625 127.818C129.416 127.814 129.09 127.966 129.456 128.599C129.832 128.604 129.929 128.397 129.931 128.292L129.625 127.818Z" fill="#C8976B"/>
<path d="M124.415 130.318C124.785 130.062 125.05 129.785 124.427 129.534C124.058 129.738 123.948 130.082 124.415 130.318Z" fill="#C8976B"/>
<path d="M133.466 132.891C133.623 132.841 133.908 132.647 133.789 132.269C133.527 132.317 133.095 132.509 133.466 132.891Z" fill="#C8976B"/>
<path d="M133.737 125.373C133.949 125.167 134.217 124.69 133.594 124.43C133.592 124.587 133.582 125.213 133.737 125.373Z" fill="#C8976B"/>
<path d="M123.861 125.536C124.02 125.382 124.245 125.009 123.873 124.752C123.714 124.907 123.489 125.28 123.861 125.536Z" fill="#C8976B"/>
<path d="M119.453 125.832C119.614 125.965 119.963 126.052 120.074 125.329C119.785 125.089 119.579 125.189 119.512 125.27L119.453 125.832Z" fill="#C8976B"/>
<path d="M125.079 127.151C124.631 127.119 124.25 127.168 124.578 127.754C124.993 127.827 125.294 127.628 125.079 127.151Z" fill="#C8976B"/>
<path d="M119.643 119.471C119.489 119.411 119.145 119.384 119.001 119.753C119.235 119.88 119.692 120.001 119.643 119.471Z" fill="#C8976B"/>
<path d="M114.717 125.158C114.422 125.185 113.915 125.388 114.237 125.981C114.337 125.861 114.737 125.378 114.717 125.158Z" fill="#C8976B"/>
<path d="M122.512 131.224C122.291 131.244 121.882 131.393 122.011 131.826C122.232 131.806 122.641 131.657 122.512 131.224Z" fill="#C8976B"/>
<path d="M116.794 112.06L115.854 109.082C120.942 103.842 127.023 102.908 131.994 104.015C139.39 105.226 142.493 110.405 143.12 112.843C143.59 113.313 143.339 114.504 142.336 114.253C123.407 123.781 117.055 116.813 116.794 112.06Z" fill="#B68A66"/>
<path d="M138.733 114.097C128.119 118.432 122.497 115.352 119.145 112.066C119.092 111.902 119.019 111.481 119.145 111.111C125.959 104.519 135.442 105.157 140.143 111.111L139.673 112.217L139.516 113.313L138.733 114.097Z" fill="white"/>
<path d="M119.145 111.111C119.019 111.481 119.092 111.902 119.145 112.066C120.238 113.138 121.573 114.188 123.243 114.965C121.495 112.217 122.556 109.923 122.906 109.082C128.547 106.074 134.875 108.299 137.177 109.553C137.501 111.002 137.537 113.059 136.382 114.965C137.137 114.717 137.92 114.429 138.733 114.097L139.516 113.314L139.673 112.217L140.143 111.111C139.175 109.885 138.004 108.884 136.695 108.126C131.649 105.201 124.556 105.876 119.145 111.111Z" fill="#D3D2D2"/>
<path d="M138.732 114.097L140.456 114.254C143.276 114.41 143.903 113.627 142.963 112.687L139.829 110.806C139.934 111.485 139.61 113.345 138.732 114.097Z" fill="#B88250"/>
<path d="M141.553 107.829C137.27 105.165 125.412 99.8368 116.324 108.612C118.988 103.911 130.427 99.68 141.553 107.829Z" fill="#937051"/>
<path d="M135.255 110.806C135.255 113.446 132.98 115.634 130.114 115.634C127.247 115.634 124.972 113.446 124.972 110.806C124.972 108.166 127.247 105.978 130.114 105.978C132.98 105.978 135.255 108.166 135.255 110.806Z" fill="url(#paint0_linear_1417_220)" stroke="#261C1C"/>
<circle r="2.19383" transform="matrix(-1 0 0 1 130.114 110.806)" fill="black"/>
<path d="M132.307 108.992C132.307 109.548 131.325 108.992 130.114 108.992C128.902 108.992 127.92 109.548 127.92 108.992C127.92 108.436 128.902 107.986 130.114 107.986C131.325 107.986 132.307 108.436 132.307 108.992Z" fill="#D9D9D9"/>
<path d="M138.732 114.097C137.853 114.475 136.997 114.863 135.755 115.194C124.439 118.966 120.127 114.846 119.086 112.373C118.959 111.871 118.875 110.773 119.552 110.396C119.928 110.177 120.448 109.897 120.977 109.609C121.219 109.452 121.453 109.318 121.651 109.239C121.432 109.361 121.204 109.486 120.977 109.609C120.455 109.949 119.9 110.399 119.614 110.65C119.405 111.156 119.52 112.534 121.651 113.995C125.105 115.974 129.413 116.223 132.392 115.561C132.696 115.478 133.038 115.385 133.404 115.285C135.713 114.656 138.939 113.784 139.045 113.784L138.732 114.097Z" fill="#CC9765"/>
<path d="M127.92 116.76C122.278 116.23 119.144 114.253 119.144 110.806C118.204 113.156 120.241 117.074 127.92 116.76Z" fill="#7E5C39"/>
<path d="M117.734 110.007C117.233 110.132 115.696 109.778 114.991 109.585C115.371 109.835 116.139 110.367 117.421 110.492C116.469 110.43 115.384 110.336 114.847 109.866C115.026 110.179 115.729 110.806 117.108 110.806C116.614 110.917 115.446 110.934 114.722 110.111C114.89 110.604 115.572 111.527 116.951 111.276C116.585 111.49 115.732 111.413 114.479 110.649C115.21 111.338 117.205 112.302 119.336 110.649C129.522 103.441 137.949 109.239 141.24 111.903C135.285 103.441 126.51 105.008 121.339 106.752L121.965 106.628C121.612 106.722 120.898 106.91 120.868 106.921L122.122 106.785C121.871 106.91 121.077 106.967 120.712 106.979L121.495 107.099L120.287 107.14C120.488 107.339 121.329 107.26 121.339 107.255C121.088 107.381 120.283 107.307 119.99 107.255C120.039 107.381 120.638 107.482 120.931 107.516C120.855 107.6 120.101 107.445 119.734 107.356C119.829 107.563 120.425 107.688 120.712 107.725C120.461 107.725 119.69 107.586 119.336 107.516C119.528 107.778 120.53 108.038 120.555 108.039C120.054 108.039 119.406 107.743 119.145 107.595C119.145 107.742 119.98 108.056 120.398 108.195C120.022 108.195 119.197 107.882 118.831 107.725C118.804 107.828 119.488 108.281 120.085 108.352C119.377 108.352 118.402 107.882 118.361 107.882C118.399 108.063 119.281 108.503 119.771 108.509C119.404 108.631 118.406 108.299 117.955 108.148L117.926 108.138C117.891 108.127 118.751 108.666 119.458 108.666C118.988 108.822 117.798 108.341 117.578 108.283C117.734 108.44 118.204 108.753 119.145 108.91C118.393 108.91 117.473 108.578 117.264 108.491C117.139 108.657 118.309 109.101 118.831 109.223C118.581 109.223 117.256 108.848 116.703 108.739C116.756 108.853 117.986 109.244 118.594 109.425C118.154 109.425 116.897 109.082 116.324 108.91C116.637 109.223 117.63 109.614 118.361 109.694C117.985 109.694 116.794 109.606 115.339 109.425C115.804 109.585 116.703 109.96 117.734 110.007Z" fill="#402E1C"/>
<path d="M196.869 108.142C186.715 98.7402 178.535 102.971 173.05 108.926L173.677 110.493L175.244 111.276C184.521 116.291 193.683 111.276 196.869 108.142Z" fill="white"/>
<path d="M173.677 110.493L173.05 108.926C174.155 107.727 175.369 106.597 176.686 105.635C178.3 104.456 180.069 103.529 181.982 103.031C185.196 102.194 188.817 102.57 192.795 105.007C194.114 105.815 195.473 106.85 196.869 108.142C195.824 109.03 192.361 110.559 191.609 110.935C192.663 109.617 192.391 106.952 192.011 105.478C188.349 104.329 182.688 102.903 177.206 106.915C176.498 107.829 176.341 110.935 178.378 112.217C177.898 112.009 175.725 111.536 175.244 111.276L173.677 110.493Z" fill="#D3D2D2"/>
<path d="M169.973 110.362L171.818 109.082L174.304 107.828C173.52 110.179 174.347 110.941 175.401 111.276C174.563 111.459 173.096 111.625 171.818 111.703C169.077 111.971 169.446 110.921 169.973 110.362Z" fill="#B88250"/>
<path d="M199.69 106.889C195.459 102.24 184.02 95.4493 171.17 106.105C174.194 101.751 183.379 97.4901 192.168 101.249C193.247 101.71 194.319 102.292 195.374 103.009C199.011 105.188 199.816 106.47 199.69 106.889Z" fill="#997453"/>
<path d="M190.101 107.672C190.101 110.312 187.826 112.5 184.96 112.5C182.093 112.5 179.818 110.312 179.818 107.672C179.818 105.032 182.093 102.844 184.96 102.844C187.826 102.844 190.101 105.032 190.101 107.672Z" fill="url(#paint1_linear_1417_220)" stroke="#261C1C"/>
<circle cx="184.96" cy="107.672" r="2.19383" fill="black"/>
<path d="M187.154 105.858C187.154 106.414 186.171 105.858 184.96 105.858C183.748 105.858 182.766 106.414 182.766 105.858C182.766 105.302 183.748 104.851 184.96 104.851C186.171 104.851 187.154 105.302 187.154 105.858Z" fill="#D9D9D9"/>
<path d="M175.244 111.276C183.392 115.977 191.645 112.477 194.362 110.649L196.869 108.142C189.096 112.53 185.43 114.097 175.244 111.276Z" fill="#CC9765"/>
<path d="M183.549 112.843C181.251 112.948 176.372 112.781 175.244 111.276C175.741 111.241 176.662 111.254 177.438 111.462C177.447 111.464 177.455 111.467 177.464 111.469C179.27 111.96 183.035 112.85 184.459 112.713L184.646 112.687C184.589 112.698 184.527 112.707 184.459 112.713L183.549 112.843Z" fill="#CC9765"/>
<path d="M181.512 113.47C190.287 113.94 194.675 110.336 197.182 107.985H197.652C197.036 108.847 195.334 110.752 194.082 111.478C190.856 113.674 185.735 114.769 181.512 113.47Z" fill="#7E5C39"/>
<path d="M200.943 106.193C200.16 107.76 197.444 108.387 196.712 108.23C196.502 108.061 196.293 107.896 196.085 107.736C184.333 99.21 177.751 106.418 173.834 108.142C173.99 107.359 175.034 105.948 179.097 103.441C183.996 100.595 189.132 101.396 194.362 103.251L193.735 103.128C194.088 103.221 194.802 103.41 194.832 103.421L193.578 103.284C193.829 103.41 194.623 103.466 194.989 103.479L194.205 103.598L195.414 103.639C195.212 103.838 194.371 103.759 194.362 103.754C194.612 103.88 195.418 103.807 195.71 103.754C195.661 103.88 195.063 103.981 194.77 104.016C194.845 104.099 195.599 103.944 195.967 103.856C195.872 104.062 195.275 104.188 194.989 104.225C195.239 104.225 196.01 104.085 196.364 104.016C196.172 104.277 195.171 104.538 195.145 104.538C195.647 104.538 196.294 104.242 196.556 104.094C196.556 104.241 195.72 104.556 195.302 104.695C195.678 104.695 196.503 104.381 196.869 104.225C196.896 104.327 196.213 104.78 195.615 104.851C196.323 104.851 197.298 104.381 197.339 104.381C197.301 104.562 196.42 105.002 195.929 105.008C196.297 105.131 197.294 104.798 197.745 104.647L197.775 104.637C197.809 104.626 196.949 105.165 196.242 105.165C196.712 105.321 197.902 104.84 198.123 104.783C197.966 104.939 197.496 105.253 196.556 105.409C197.308 105.409 198.227 105.078 198.436 104.99C198.561 105.156 197.391 105.6 196.869 105.723C197.12 105.723 198.445 105.348 198.997 105.238C198.945 105.353 197.715 105.743 197.106 105.924C197.546 105.924 198.803 105.581 199.376 105.409C199.063 105.723 198.07 106.113 197.339 106.193C197.715 106.193 198.906 106.105 200.362 105.924C199.896 106.085 198.997 106.459 197.966 106.506C198.467 106.632 200.004 106.277 200.71 106.084C200.523 106.374 199.22 106.732 198.436 106.888C199.063 107.014 200.525 106.454 200.943 106.193Z" fill="#402E1C"/>
<path d="M185.137 90.0451C195.323 86.2842 201.361 87.7468 207.055 90.0451C199.658 84.8443 196.451 83.5412 194.989 83.3831C192.066 82.5932 186.865 83.1221 180.729 84.9182C180.385 85.018 179.854 85.7124 179.632 86.047C179.506 85.9217 179.997 85.3347 180.259 85.0568C179.883 85.1677 178.639 86.4243 178.065 87.0388C177.814 86.7039 179.005 85.7032 179.632 85.2447C178.629 85.5425 177.334 86.8439 176.811 87.4574C176.56 87.332 177.02 86.4202 177.281 85.98C176.404 86.9293 175.604 88.3006 175.314 88.8677C175.12 88.7423 175.631 87.1912 175.911 86.4313C175.818 86.3627 175.01 88.027 174.617 88.8677C174.492 88.7423 175.192 87.2707 175.558 86.5506C175.492 86.5728 175.409 86.6491 175.314 86.765C174.871 87.31 174.178 88.7288 173.834 89.4945C173.834 88.7629 174.565 87.37 174.931 86.765C174.555 86.894 173.416 88.8473 172.894 89.8079C172.518 89.6181 173.573 87.8828 174.147 87.0388C173.207 87.3665 171.953 90.3023 171.953 90.5914C171.828 90.2293 172.528 88.374 172.894 87.4915C172.392 87.6746 171.222 90.3657 170.7 91.6883C170.449 91.0615 171.536 88.8252 172.11 87.7853C171.409 88.0477 170.251 90.8101 169.76 92.1584C169.885 90.278 170.961 88.6213 171.483 88.0279C171.323 88.091 171.166 88.1549 171.013 88.2196C169.634 89.0801 169.185 91.204 169.133 92.1584C168.882 91.4063 169.372 89.6512 169.649 88.8677C169.184 89.2438 168.798 91.4272 168.663 92.4718C168.412 92.0958 168.513 90.3302 168.594 89.4945C168.038 90.1213 168.063 92.2629 168.146 93.2554C167.607 91.2496 167.921 90.1213 168.146 89.8079C167.481 90.3093 167.482 92.5241 167.566 93.5688C167.315 92.6912 167.357 91.0966 167.409 90.4089C167.179 90.6176 166.97 90.8296 166.782 91.044C166.532 91.6568 166.678 93.1915 166.782 93.8822C166.406 93.5061 166.365 92.1584 166.392 91.5316C166.261 92.2107 165.654 93.5374 166.155 94.6657C165.849 94.3291 165.706 93.7256 165.706 92.7505C165.12 94.1799 165.233 95.6384 165.706 96.94C165.598 96.3776 165.752 95.3984 165.842 94.9791C165.79 95.5656 165.779 96.7978 166.155 97.0342C166.104 96.4536 166.079 95.2298 166.392 94.9791C166.373 95.6825 166.424 97.0897 166.782 97.0916C166.782 96.5442 166.814 95.2925 166.939 94.6657C166.979 95.4784 167.111 97.1015 167.313 97.0916C167.241 96.3352 167.19 94.7284 167.566 94.3523C167.409 94.8048 167.221 95.9816 167.722 97.0682C167.722 96.94 167.722 95.2925 168.349 94.6657C168.168 95.2 167.86 96.4217 168.078 97.0342C168.22 96.5581 168.631 95.5119 169.133 95.1358C168.872 95.491 168.349 96.3613 168.349 97.0006C168.351 96.94 168.819 95.7626 169.916 95.4492C169.551 95.6693 168.788 96.2784 168.663 96.9546C168.924 96.7662 169.603 96.3267 170.23 96.076L169.446 96.8098C179.632 92.1584 177.81 92.7505 185.137 90.0451Z" fill="#826144"/>
<path d="M108.959 97.7997C107.831 87.8961 117.578 88.0319 122.592 89.3378C123.942 89.5585 125.193 89.7837 126.353 90.013C128.108 90.3404 129.383 91.3708 129.8 91.845C129.675 91.3436 129.121 90.7709 128.86 90.5472C129.957 90.9732 130.897 92.4719 131.054 92.6286C131.054 91.9052 130.427 91.1403 130.114 90.8482C130.741 91.0011 131.524 92.1511 131.838 92.4719C131.887 92.2862 131.545 91.3751 131.367 91.1777C131.811 91.2973 132.388 92.0903 132.621 92.4719C132.621 92.0958 132.308 91.6012 132.151 91.4009C132.459 91.4902 133.011 92.6744 133.248 93.2554C133.373 92.8793 132.987 91.9888 132.778 91.5905C133.279 91.8884 133.689 93.0094 133.831 93.5327C134.043 93.0546 133.743 92.2084 133.565 91.845C134.04 92.1584 134.188 93.2554 134.188 93.5327C134.439 93.2254 134.397 92.4612 134.345 92.1175C134.543 92.1888 134.636 93.2192 134.658 93.7255C134.909 93.4747 134.763 92.6265 134.658 92.2338C134.909 92.3268 135.076 93.6849 135.128 94.3523C135.379 94.1016 135.163 92.9295 135.024 92.3748C135.702 92.9045 135.642 94.8224 135.642 94.9791C135.928 94.4776 135.761 93.2031 135.642 92.6286C135.928 92.7477 136.15 94.2452 136.225 94.9791C136.405 94.4058 136.15 93.2776 136 92.7853C136.322 93.036 136.598 94.4567 136.695 95.1358C136.821 94.2583 136.511 93.3076 136.341 92.942C136.927 93.2068 137.322 95.4492 137.322 95.6059C137.696 94.8586 137.069 93.5515 136.856 93.1072L136.852 93.0987C136.959 93.1567 137.221 93.3537 137.322 93.4121C137.573 93.5518 137.897 95.0775 137.949 95.7626C138.139 95.0104 137.794 93.7424 137.636 93.3581C137.993 93.564 138.332 95.3596 138.419 96.076C138.544 95.4492 138.186 94.0641 138.03 93.6056C138.28 93.6333 138.732 95.4723 138.889 96.2327C139.14 95.8566 138.604 94.3631 138.343 93.8191C138.71 94.0673 139.66 96.595 139.673 96.7028C139.673 96.4521 139.179 94.8952 138.97 94.3038C139.072 94.3887 139.82 96.0423 140.143 96.7028C140.268 96.3918 139.654 95.1128 139.37 94.6678C140.616 95.8877 141.064 97.4621 141.24 98.7399C141.083 98.241 140.644 97.2129 140.143 97.0916C140.456 97.4608 141.052 98.316 140.926 98.783C140.714 98.3779 140.197 97.52 139.829 97.3296C140.087 97.6367 140.619 98.3624 140.686 98.8088C140.4 98.368 139.547 97.1729 139.046 97.1729C139.412 97.4398 140.331 98.3949 140.456 98.8268C139.986 98.4322 138.952 97.1729 138.576 97.1729C138.958 97.3964 139.819 98.4187 140.204 98.84C139.661 98.5455 138.638 97.4863 138.262 97.4863C138.785 97.7154 139.704 98.6847 139.829 98.8485C139.626 98.8498 139.417 98.846 139.203 98.8374C139.158 98.7881 138.808 98.362 138.16 97.9327C138.438 98.1767 138.732 98.6588 138.732 98.8118C138.576 98.7356 138.168 98.1131 137.792 98.1131C138.419 98.509 138.322 98.7137 138.262 98.7736C138.053 98.6057 137.51 98.2385 137.009 98.1131C137.361 98.2859 138.039 98.6531 137.929 98.7399C137.57 98.531 136.758 98.1131 136.382 98.1131C136.748 98.2586 137.416 98.5685 137.165 98.6447C137.061 98.572 136.789 98.4265 136.539 98.4265C136.637 98.4583 136.816 98.5341 136.748 98.5832C135.823 98.4406 134.843 98.2466 133.831 98.0167C133.323 97.5265 132.12 96.5461 131.367 96.5461C131.994 96.9138 133.248 97.6956 133.248 97.8812C127.09 96.4181 119.955 93.7594 117.108 93.2554C112.619 92.461 110.265 95.8148 108.959 97.7997Z" fill="#826144"/>
<path d="M221.628 95.9192C226.517 92.7852 227.635 80.928 227.583 75.3912L239.179 87.7707C249.364 100.62 250.879 119.268 253.282 129.767C255.538 131.271 255.685 150.974 255.476 160.637C258.359 164.022 258.244 172.808 257.826 176.778C261.838 187.684 256.782 191.978 253.752 192.761C242.595 194.015 235 204.253 232.597 209.215L236.358 198.873L237.298 196.679C237.8 195.676 243.462 192.605 246.23 191.194C255.131 188.938 251.297 178.763 248.267 173.957C244.381 185.49 226.172 197.985 217.71 202.007C212.069 195.269 208.935 191.194 209.719 181.949C217.867 172.547 219.591 163.771 222.882 140.893C234.164 143.4 234.478 121.148 239.649 114.097C236.891 115.1 232.388 114.515 230.717 114.097C225.577 113.094 222.516 101.561 221.628 95.9192Z" fill="#634C37"/>
<path fill-rule="evenodd" clip-rule="evenodd" d="M107.862 71.4736C105.459 75.6524 100.623 84.6993 100.497 87.4573C99.359 89.2425 98.0086 91.2814 96.5443 93.4922C87.7262 106.806 74.7778 126.356 79.1856 134.311C73.701 143.191 63.9853 158.443 58.344 164.085C53.0161 171.032 43.3319 186.431 47.2181 192.448C46.748 188.792 48.6285 178 59.911 164.085C64.1692 158.714 71.7573 148.825 76.0835 142.262C74.5368 145.347 73.0738 148.901 72.0086 152.645C65.67 167.01 55.3927 199.5 64.9922 214.543C61.8594 220.374 59.7445 225.812 60.8512 228.333C61.687 228.437 64.6434 229.586 69.7833 233.347L86.0803 227.549C90.0501 227.027 99.0553 223.099 103.318 211.566C112.093 206.551 129.675 195.707 129.8 192.448C125.047 188.112 114.412 175.336 111.78 158.287C104.728 137.289 105.982 130.08 105.668 124.596C105.355 119.111 105.668 109.709 106.452 99.5234C106.608 90.9047 106.734 73.7301 107.862 71.4736ZM64.9922 214.543C68.2469 208.485 72.6003 202.005 75.5813 197.933C76.0827 192.291 78.8198 185.657 80.1256 183.046C72.3868 177.887 70.0038 170.215 70.3508 162.361C60.149 193.576 62.5276 210.155 64.9922 214.543Z" fill="#634C37"/>
<path d="M80.4386 87.614C74.7979 96.546 82.0063 106.575 102.376 80.4057L107.392 71.4737C122.937 61.4447 151.687 65.2056 164.118 68.3396C175.401 71.3483 188.668 78.473 193.892 81.6593C204.924 90.3093 213.427 95.0835 216.3 96.3894C226.079 99.6488 226.956 85.5769 227.896 78.3686C228.899 78.2432 235.731 84.6889 239.022 87.9274C239.398 87.3006 239.179 85.2635 239.022 84.3233C240.025 84.3233 239.753 78.5775 239.492 75.7046C240.244 73.8242 238.657 69.1754 237.769 67.086C237.894 66.3338 236.985 63.4296 236.515 62.0715C237.142 59.815 234.896 52.9828 233.694 49.8487L225.076 26.9702C224.95 24.9644 217.293 18.4038 213.48 15.3742C211.85 12.4909 204.548 9.5762 201.1 8.47928C200.473 7.22566 193.944 6.59885 190.758 6.44215L186.37 4.40502C184.49 2.64995 179.632 2.83798 177.438 3.15138C171.922 -0.734838 165.424 1.11426 162.865 2.52459C160.358 2.36789 155.5 3.46482 155.186 3.46482C148.762 1.11428 143.59 8.7927 143.277 9.41951C140.519 9.92096 137.74 11.2999 136.695 11.9267C135.066 11.0492 129.957 13.337 127.607 14.5907C124.159 15.6876 120.242 19.7619 119.772 20.232C118.142 22.3631 114.391 25.2987 112.72 26.5001C107.956 28.2551 105.616 32.4547 105.042 34.3352C100.027 38.5975 97.4154 59.0942 96.7363 68.8097C87.961 75.5793 82.2148 84.1665 80.4386 87.614Z" fill="#292929"/>
<path fill-rule="evenodd" clip-rule="evenodd" d="M97.3781 61.9148C97.0846 64.4996 96.8719 66.8696 96.7363 68.8097C97.9901 67.18 100.602 64.9966 101.751 64.1086C100.873 62.6043 107.235 53.7663 110.526 49.5353C106.138 48.6578 99.9325 57.4227 97.3781 61.9148ZM233.694 49.8487L225.076 33.0816L222.882 48.7518L225.075 55.6467C226.329 57.2764 227.478 60.4 227.896 61.7581C230.028 64.0146 228.784 69.0709 227.896 71.317C229.15 73.072 228.836 74.451 228.523 74.9211C227.771 75.6733 227.792 77.5328 227.896 78.3686C228.276 78.3211 229.489 79.2142 231.03 80.5183C233.562 82.6613 236.976 85.9141 239.022 87.9274C239.398 87.3006 239.179 85.2635 239.022 84.3233C240.025 84.3233 239.753 78.5775 239.492 75.7046C240.244 73.8242 238.657 69.1754 237.769 67.086C237.894 66.3338 236.985 63.4296 236.515 62.0715C237.142 59.815 234.896 52.9828 233.694 49.8487ZM217.867 48.7518C208.778 41.2301 193.014 25.5912 202.667 23.2093C207.316 22.7914 217.24 22.4571 219.748 24.4629C221.396 30.4806 220.061 34.3907 218.809 38.0593C217.681 41.3646 216.619 44.4739 217.867 48.7518ZM160.044 37.9393C165.842 30.6266 182.797 21.1095 204.234 41.5435C202.981 41.9614 199.157 41.8256 193.892 37.9393C186.37 35.7455 169.07 32.6741 160.044 37.9393Z" fill="#1D1D1D"/>
<path d="M102.376 80.4057L107.392 71.4737C98.46 74.5603 80.9719 84.0229 82.4763 97.1801C86.2896 96.9087 92.9125 92.5639 102.376 80.4057Z" fill="#1D1D1D"/>
<path d="M212.853 62.0715L228.523 74.9211C228.523 70.4433 218.285 63.9666 213.166 61.288C211.599 58.154 189.974 49.8487 188.877 49.8487C184.866 47.6027 170.7 45.5699 164.118 44.8342C158.226 43.5288 145.053 44.2903 139.203 44.8342C126.04 45.5864 117.003 50.9979 114.13 53.6096C123.067 48.0937 134.569 46.0879 139.203 45.7745C143.465 44.7716 157.589 45.3566 164.118 45.7745C171.39 45.6491 183.654 49.1697 188.877 50.9456C195.647 52.7007 207.682 59.0942 212.853 62.0715Z" fill="#1D1D1D"/>
<path d="M225.075 55.6467L222.882 48.7518L225.076 33.0816L219.748 24.4629C221.396 30.4806 220.061 34.3907 218.809 38.0593C217.681 41.3646 216.619 44.4739 217.867 48.7518C221.879 50.3815 224.344 54.0275 225.075 55.6467Z" fill="#1D1D1D"/>
<defs>
<filter id="filter0_f_1417_220" x="169.024" y="98.344" width="56.304" height="61.1465" filterUnits="userSpaceOnUse" color-interpolation-filters="sRGB">
<feFlood flood-opacity="0" result="BackgroundImageFix"/>
<feBlend mode="normal" in="SourceGraphic" in2="BackgroundImageFix" result="shape"/>
<feGaussianBlur stdDeviation="2" result="effect1_foregroundBlur_1417_220"/>
</filter>
<filter id="filter1_f_1417_220" x="101.511" y="114.798" width="44.0059" height="51.9756" filterUnits="userSpaceOnUse" color-interpolation-filters="sRGB">
<feFlood flood-opacity="0" result="BackgroundImageFix"/>
<feBlend mode="normal" in="SourceGraphic" in2="BackgroundImageFix" result="shape"/>
<feGaussianBlur stdDeviation="2" result="effect1_foregroundBlur_1417_220"/>
</filter>
<linearGradient id="paint0_linear_1417_220" x1="130.114" y1="105.478" x2="130.114" y2="116.134" gradientUnits="userSpaceOnUse">
<stop offset="0.239583" stop-color="#0E0908"/>
<stop offset="0.59375" stop-color="#513A18"/>
<stop offset="1" stop-color="#64582E"/>
</linearGradient>
<linearGradient id="paint1_linear_1417_220" x1="184.96" y1="102.344" x2="184.96" y2="113" gradientUnits="userSpaceOnUse">
<stop offset="0.239583" stop-color="#0E0908"/>
<stop offset="0.59375" stop-color="#513A18"/>
<stop offset="1" stop-color="#64582E"/>
</linearGradient>
</defs>
</svg>
