<svg width="203" height="197" viewBox="0 0 203 197" fill="none" xmlns="http://www.w3.org/2000/svg">
<path d="M84.9446 57.5084C82.7676 -0.204377 185.197 -14.2783 201.733 32.6154C143.574 36.9676 116.132 41.2452 84.9446 57.5084Z" fill="#657B4D"/>
<path fill-rule="evenodd" clip-rule="evenodd" d="M84.9446 57.5084C82.7676 -0.204377 185.197 -14.2783 201.733 32.6154C143.574 36.9676 116.132 41.2452 84.9446 57.5084ZM98.0819 40.7472C104.312 26.8857 113.443 6.57062 137.1 12.1683C138.741 12.1959 142.306 11.7425 143.443 9.70746C147.399 8.65489 155.133 7.73189 154.423 12.4604C156.998 11.5163 161.818 10.6099 160.492 14.538C158.885 16.4203 153.907 19.681 146.853 17.6658C146.01 17.059 143.281 16.9735 139.109 21.4856C128.693 24.2069 105.566 32.6131 96.3879 44.4676C96.9333 43.3029 97.4947 42.0537 98.0819 40.7472ZM93.7123 51.3357C101.737 46.4014 118.855 36.2346 123.128 35.0426L132.804 33.4281L120.796 33.2255C123.509 31.9545 129.72 29.4651 132.867 29.6762C133.555 27.7785 136.101 24.7532 140.774 27.8344C145.063 26.9539 154.097 25.5502 158.914 26.2782L160.289 26.5834C159.884 26.4558 159.423 26.3551 158.914 26.2782L149.696 24.232C155.057 21.5571 168.298 18.6596 178.372 28.4685L180.504 30.4797C182.412 30.1827 186.377 30.1442 186.97 32.3664C163.903 34.0843 112.959 40.2831 93.7123 51.3357Z" fill="#1E3F14"/>
<path fill-rule="evenodd" clip-rule="evenodd" d="M74.9475 21.896C71.965 32.8091 68.3837 45.9134 64.8353 54.7904C99.9084 59.4926 100.428 6.05051 82.2398 2.3924C81.9199 2.32805 81.5942 2.27911 81.2628 2.24616C80.0463 3.23912 77.7639 11.5906 74.9475 21.896ZM83.1132 3.94479C87.5446 12.9856 86.9326 31.9473 75.3083 48.1188C81.5849 41.477 92.0665 21.0325 83.1132 3.94479Z" fill="#1E3F14"/>
<path fill-rule="evenodd" clip-rule="evenodd" d="M82.2398 2.3924C82.5491 2.87037 82.8407 3.38882 83.1132 3.94479C82.8403 3.42405 82.5494 2.90642 82.2398 2.3924Z" fill="#657B4D"/>
<path d="M83.1132 3.94479C87.5446 12.9856 86.9326 31.9473 75.3083 48.1188C81.5849 41.477 92.0665 21.0325 83.1132 3.94479Z" fill="#657B4D"/>
<path d="M74.9475 21.896C71.965 32.8091 68.3837 45.9134 64.8353 54.7904C70.3129 49.5729 77.5306 18.0845 81.2628 2.24616C80.0463 3.23912 77.7639 11.5906 74.9475 21.896Z" fill="#657B4D"/>
<path fill-rule="evenodd" clip-rule="evenodd" d="M28.5872 90.8918C14.5856 88.2853 -9.05134 74.0207 8.41407 37.8134C18.4473 26.6581 43.3416 12.2902 62.6534 44.0613C64.784 67.1677 65.9728 72.9553 66.3009 72.9609C67.293 76.4013 69.2692 83.7561 69.2372 85.6517C69.2053 87.5474 71.4191 80.8163 72.53 77.2139C71.3814 73.8366 69.1611 65.7798 69.4686 60.5705C69.1413 58.6797 69.2814 56.8473 69.8114 55.1069C75.3887 36.7885 124.141 28.6442 125.428 69.6126C128.616 75.1279 130.31 80.4009 130.943 85.3098C157.153 79.8263 181.219 112.231 156.138 140.053C150.129 144.334 136.612 146.628 125.671 142.329C147.98 155.619 145.615 207.103 93.0386 192.122C80.5141 185.433 76.2642 169.824 79.8901 156.939C76.0056 156.742 68.2382 153.977 68.2447 144.496C38.0782 170.258 -13.5033 123.168 28.5872 90.8918ZM94.2584 119.802C95.9997 125.519 100.704 136.929 105.588 136.838C107.43 136.593 109.28 136.529 111.104 136.671C106.57 133.105 98.3483 124.808 101.735 120.147C99.04 120.267 96.5525 120.14 94.2584 119.802Z" fill="#DA211C"/>
<path d="M24.9855 141.001C23.715 141.612 24.5662 142.509 24.9521 142.976C26.5036 144.385 35.6602 149.111 36.2626 149.488C37.2368 150.097 37.6405 149.511 38.231 149.521C38.8216 149.531 39.2352 148.353 38.4612 147.549C37.3589 147.531 36.9742 146.208 36.9197 145.548C36.7756 144.756 34.1216 144.118 32.8126 143.899L32.2487 142.309L30.2869 141.881L28.939 140.081C28.157 139.751 25.8451 140.621 24.9855 141.001Z" fill="#AE000D"/>
<path fill-rule="evenodd" clip-rule="evenodd" d="M117.803 93.56C119.349 91.155 119.281 88.5147 118.724 85.4787C118.257 82.9337 117.738 80.3979 115.99 78.7543C113.392 76.3107 109.853 75.8711 106.081 76.5674C102.831 77.1671 101.678 78.4734 100.032 81.0358L98.8406 81.6083C98.4436 81.7991 96.5594 87.4316 97.116 90.4676C97.5824 93.0121 100.266 94.4503 102.095 95.7216C102.448 95.9672 102.813 96.2211 103.185 96.4956C105.677 98.3351 108.493 98.4114 111.775 97.8055C115.058 97.1996 116.127 96.1687 117.803 93.56ZM110.635 82.7948C105.467 80.9695 103.62 84.9809 103.342 87.2148C103.04 89.58 105.34 91.9232 106.528 92.7991C113.432 94.3584 114.44 90.6368 114.081 88.581C115.36 87.4965 114.125 86.0005 113.348 85.3881C113.382 83.3182 111.553 82.7968 110.635 82.7948ZM104.259 87.2303C104.294 89.0172 105.156 92.4411 108.316 91.8417C110.619 91.4855 114.685 90.1714 112.52 87.7646C112.419 85.9852 111.423 82.7686 108.249 84.1372C107.248 83.7911 105.049 83.9252 104.259 87.2303ZM115.894 84.4637C114.757 81.1525 110.674 75.9218 103.438 81.4883C106.246 79.8897 112.668 78.2466 115.894 84.4637ZM102.564 82.6587C101.841 82.7123 100.543 83.4147 101.133 85.7949C101.728 85.5416 102.847 84.5597 102.564 82.6587Z" fill="#ED3F26"/>
<path fill-rule="evenodd" clip-rule="evenodd" d="M117.803 93.56C119.349 91.155 119.281 88.5147 118.724 85.4787C118.257 82.9337 117.738 80.3979 115.99 78.7543C113.392 76.3107 109.853 75.8711 106.081 76.5674C102.831 77.1671 101.678 78.4734 100.032 81.0358L98.8406 81.6083C98.4436 81.7991 96.5594 87.4316 97.116 90.4676C97.5824 93.0121 100.266 94.4503 102.095 95.7216C102.448 95.9672 102.813 96.2211 103.185 96.4956C105.677 98.3351 108.493 98.4114 111.775 97.8055C115.058 97.1996 116.127 96.1687 117.803 93.56ZM110.635 82.7948C105.467 80.9695 103.62 84.9809 103.342 87.2148C103.04 89.58 105.34 91.9232 106.528 92.7991C113.432 94.3584 114.44 90.6368 114.081 88.581C115.36 87.4965 114.125 86.0005 113.348 85.3881C113.382 83.3182 111.553 82.7968 110.635 82.7948ZM104.259 87.2303C104.294 89.0172 105.156 92.4411 108.316 91.8417C110.619 91.4855 114.685 90.1714 112.52 87.7646C112.419 85.9852 111.423 82.7686 108.249 84.1372C107.248 83.7911 105.049 83.9252 104.259 87.2303ZM115.894 84.4637C114.757 81.1525 110.674 75.9218 103.438 81.4883C106.246 79.8897 112.668 78.2466 115.894 84.4637ZM102.564 82.6587C101.841 82.7123 100.543 83.4147 101.133 85.7949C101.728 85.5416 102.847 84.5597 102.564 82.6587Z" fill="#ED3F26"/>
<path fill-rule="evenodd" clip-rule="evenodd" d="M117.803 93.56C119.349 91.155 119.281 88.5147 118.724 85.4787C118.257 82.9337 117.738 80.3979 115.99 78.7543C113.392 76.3107 109.853 75.8711 106.081 76.5674C102.831 77.1671 101.678 78.4734 100.032 81.0358L98.8406 81.6083C98.4436 81.7991 96.5594 87.4316 97.116 90.4676C97.5824 93.0121 100.266 94.4503 102.095 95.7216C102.448 95.9672 102.813 96.2211 103.185 96.4956C105.677 98.3351 108.493 98.4114 111.775 97.8055C115.058 97.1996 116.127 96.1687 117.803 93.56ZM110.635 82.7948C105.467 80.9695 103.62 84.9809 103.342 87.2148C103.04 89.58 105.34 91.9232 106.528 92.7991C113.432 94.3584 114.44 90.6368 114.081 88.581C115.36 87.4965 114.125 86.0005 113.348 85.3881C113.382 83.3182 111.553 82.7968 110.635 82.7948ZM104.259 87.2303C104.294 89.0172 105.156 92.4411 108.316 91.8417C110.619 91.4855 114.685 90.1714 112.52 87.7646C112.419 85.9852 111.423 82.7686 108.249 84.1372C107.248 83.7911 105.049 83.9252 104.259 87.2303ZM115.894 84.4637C114.757 81.1525 110.674 75.9218 103.438 81.4883C106.246 79.8897 112.668 78.2466 115.894 84.4637ZM102.564 82.6587C101.841 82.7123 100.543 83.4147 101.133 85.7949C101.728 85.5416 102.847 84.5597 102.564 82.6587Z" fill="#ED3F26"/>
<path d="M38.6247 149.527L37.437 149.902C37.3013 150.164 35.8556 150.271 35.2817 149.274L33.9038 149.25C34.0395 148.989 33.7196 148.497 32.1422 148.628C32.0176 148.231 31.4929 147.432 30.3906 147.413C29.9947 147.538 29.2075 147.512 29.2262 146.406L28.4421 146.195L27.668 145.392L27.0875 144.79C25.9851 144.771 25.2046 143.573 24.9522 142.976L25.1656 141.992L28.3218 141.65C28.9669 142.32 29.2761 143.444 31.4414 143.481C31.9986 145.465 34.3968 145.703 35.3417 145.719L36.4828 148.109L38.6247 149.527Z" fill="#FA4642"/>
<path d="M35.0982 148.48C34.9625 148.742 35.8556 150.271 35.2817 149.274L33.9038 149.25C34.0394 148.989 33.7196 148.497 32.1422 148.628C32.0176 148.231 31.4929 147.432 30.3905 147.413C29.9946 147.538 29.2075 147.512 29.2262 146.406L28.4421 146.195L27.668 145.392L27.0875 144.79C25.9851 144.771 26.3757 144.185 26.1232 143.589L27.3076 143.411L28.6922 143.039C29.3373 143.709 29.2628 144.234 31.4281 144.271C31.9853 146.255 33.3859 147.266 34.3308 147.282L35.0982 148.48Z" fill="#C83633"/>
<path d="M121.401 86.5316C122.96 87.506 122.531 89.5794 122.122 90.4942C123.721 89.099 122.966 87.1506 122.389 86.3508C121.038 84.7478 121.468 82.5823 121.077 82.3782C120.765 82.215 119.808 79.7891 119.369 78.5965L116.637 77.1678C118.51 78.1475 119.844 81.5674 120.277 83.1548C119.626 84.408 120.755 85.9282 121.401 86.5316Z" fill="#9D010D"/>
<path d="M110.561 75.4852C111.359 74.8665 113.781 75.2761 114.892 75.5582C115.228 74.2997 113.088 73.5526 111.976 73.3363C109.133 73.7624 108.035 73.4673 107.842 73.2666L107.815 74.8463C108.266 76.118 109.834 75.8021 110.561 75.4852Z" fill="#9D010D"/>
<path d="M102.674 76.1422C103.923 76.7953 105.95 76.4608 106.808 76.2119C107.723 77.9656 105.861 77.842 104.816 77.561C104.039 76.9158 103.305 77.6672 103.034 78.1235C101.625 77.6257 100.721 79.0721 100.445 79.8575C99.6553 80.0022 99.0419 81.3482 98.834 82.0031C98.0573 81.3579 97.9765 82.252 98.0333 82.7797C96.6346 81.65 97.9932 81.2646 98.8473 81.2132C98.5483 80.2601 99.3966 79.774 99.8582 79.6501C100.373 77.1305 101.934 77.1832 102.651 77.5245L102.674 76.1422Z" fill="#9D010D"/>
<path d="M103.161 82.2736C101.909 82.5817 99.7108 83.7165 100.936 85.7914C101.734 85.1465 103.297 83.54 103.161 82.2736Z" fill="#9D010D"/>
<path d="M108.529 79.2038C105.86 78.6847 104.237 80.7774 103.758 81.8886C105.36 80.3354 108.512 80.2569 109.887 80.4118C112.882 80.3043 114.245 82.7897 114.552 84.0459C115.312 85.6389 116.174 85.1267 116.51 84.6715C115.501 79.1238 110.769 78.7148 108.529 79.2038Z" fill="#9D010D"/>
<path d="M112.543 86.3822C111.9 87.1615 112.518 87.8961 112.907 88.1661C115.272 88.0479 113.731 86.0072 113.134 86.3922L113.144 85.7998C113.806 83.9148 111.745 83.1426 110.631 82.9921C110.172 82.1943 109.266 82.2449 108.87 82.3699C108.408 81.73 107.756 82.2194 107.488 82.5441L106.701 82.5308L106.691 83.1232L105.7 83.5015C104.918 83.1723 104.58 83.746 104.509 84.074C103.562 84.216 103.305 85.4363 103.295 86.0287C102.654 86.65 103.141 87.3429 103.465 87.6118L103.438 89.1915L104.029 89.2014L104.012 90.1888L104.403 90.3929C104.523 92.6071 107.048 93.0711 108.296 93.0263C109.385 93.8348 111.65 92.622 112.647 91.9146C114.857 91.6358 113.863 89.8282 113.09 88.9592L112.874 90.1407C112.249 89.8141 112.211 90.5246 112.27 90.9206C111.803 90.5967 111.546 91.0401 111.476 91.3023L111.082 91.2956L110.098 91.279C109.473 90.9524 109.437 91.5312 109.497 91.8615L109.3 91.8581C108.684 91.0576 108.514 91.779 108.506 92.2398C108.341 92.711 107.521 92.289 107.132 92.0191C106.985 91.3845 106.161 91.2126 105.767 91.206L105.587 90.2153L104.996 90.2054L105.01 89.4155L105.04 87.6383L104.252 87.625L104.269 86.6377C104.741 86.6457 105.011 85.4651 105.086 84.8738C105.714 85.0424 106.015 84.2969 106.087 83.9031C106.237 84.3797 107.202 83.9877 107.665 83.7322C108.6 84.38 110.023 84.0353 110.618 83.782C110.904 85.525 112.02 86.2417 112.543 86.3822Z" fill="#9D010D"/>
<path d="M116.33 95.3346C120.248 96.5068 121.272 94.1669 121.295 92.8505C122.525 94.6095 118.863 96.9574 116.877 97.9116C115.588 99.628 112.637 100.276 111.322 100.386C108.605 102.71 107.308 101.042 106.999 99.9177C104.321 99.8725 103.808 98.4154 103.886 97.6924C102.311 97.6659 101.159 95.9346 100.779 95.0723C99.5622 92.5235 100.592 90.592 101.26 89.9448C102.498 91.2298 101.987 93.5125 101.577 94.4932C103.149 94.6777 104.045 96.0491 104.296 96.7117C105.524 98.6287 106.631 98.3313 107.032 97.943C107.953 99.3807 108.977 99.3585 109.374 99.1677C110.316 99.3416 110.825 98.7312 110.962 98.4044C112.059 98.7389 112.611 97.9054 112.75 97.4469C113.53 97.9341 114.401 96.8822 114.739 96.2953C114.613 94.397 115.747 94.8638 116.33 95.3346Z" fill="#9D010D"/>
<path d="M38.6514 147.948C39.1052 149.061 38.4257 149.656 38.0309 149.715C40.5452 150.073 39.2397 148.089 38.271 147.151C37.8013 146.985 37.4369 146.018 37.3134 145.555C37.3361 144.212 34.587 143.764 33.2097 143.708L32.4523 141.917L30.4871 141.687L29.336 139.89C27.6118 139.387 25.3858 140.613 24.5884 141.192L27.1574 140.643C27.7953 140.18 28.8667 140.474 29.3227 140.68L30.0835 142.273L32.0452 142.701L32.806 144.294C34.701 144.01 36.3314 145.407 36.9097 146.141C36.5788 147.083 37.9329 147.738 38.6514 147.948Z" fill="#9D010D"/>
<path d="M26.3101 144.184C26.7204 143.203 28.1017 143.029 29.0693 144.033C30.0635 143.457 31.3126 144.11 31.6116 145.064C32.5246 145.408 34.2293 146.293 33.7436 147.075C34.2663 147.215 35.5052 147.697 34.1073 148.859C33.9238 148.065 34.3308 147.282 33.5434 147.269C33.0941 146.669 32.1788 146.456 31.6116 145.064C30.961 144.723 29.541 144.081 29.0659 144.231C28.8691 144.227 27.1008 144 26.3101 144.184Z" fill="#9D010D"/>
<path d="M29.2565 145.805L29.2361 145.814L30.0102 146.617L31.1879 146.834C31.0234 145.079 29.7364 145.608 29.2565 145.805Z" fill="#9D010D"/>
<path d="M46.5308 112.724C46.2517 113.707 45.4179 115.668 44.3156 115.65C44.3067 116.176 44.0507 117.344 43.0979 117.802C42.341 117.964 40.8522 118.36 40.2935 118.774C40.1324 119.011 40.0057 119.11 40.1252 118.937C40.1627 118.883 40.2201 118.828 40.2935 118.774C40.6767 118.209 41.2549 116.864 39.1809 116.551L37.5862 117.709L37.0157 116.514C36.4807 117.098 35.1373 118.142 34.043 117.649C33.7083 118.039 32.9207 118.816 32.4482 118.808C32.4571 118.281 32.3194 117.107 31.6975 116.622C31.306 116.484 30.2862 116.243 29.3387 116.385C29.223 115.461 29.1111 113.537 29.5888 113.229C28.8604 113.612 27.4936 113.707 27.8538 111.027C27.2644 110.951 26.169 110.524 26.5026 109.424C26.1111 109.286 25.3315 108.811 25.3448 108.022L26.7261 107.847L25.7652 106.449C25.2425 106.308 24.2024 105.711 24.2237 104.447C24.7409 104.917 25.8546 105.818 26.1722 105.665L27.9538 105.103C27.7636 104.705 27.4653 103.712 27.7936 102.927C28.1216 102.933 28.7805 102.786 28.7911 102.154C28.7944 101.957 29.2715 101.688 31.1532 102.194L32.341 101.819C32.2776 101.686 32.2696 101.383 32.7447 101.233C33.006 101.303 33.5701 101.326 33.7355 100.855C33.7422 100.46 33.9517 99.7129 34.7364 99.8841C35.724 99.7033 37.3081 99.1769 35.744 98.5185C35.4882 98.1191 35.4457 97.5258 37.3221 98.3476L38.8968 98.3741L38.9101 97.5843L39.6975 97.5976C39.9567 97.7994 40.595 98.0867 41.0754 97.6208C41.081 97.2917 41.2909 96.5183 42.0863 96.0577L43.8612 95.8901L44.0847 94.3137L47.4311 94.3701C47.3511 95.2247 47.5072 96.8602 48.7724 96.5655L49.3496 97.3653L50.9244 97.3919C51.0511 97.6574 51.3041 98.2279 51.3014 98.3858C51.2981 98.5833 51.4916 98.7841 50.8977 98.9716C51.0857 99.5015 51.3809 100.678 51.0579 101.147C50.7977 101.011 50.2759 100.818 50.2705 101.134C50.2639 101.529 50.0537 102.315 49.6633 102.111C49.1996 102.367 48.4683 102.921 49.253 103.092L49.63 104.086L51.2015 104.31C51.3872 104.971 51.4858 106.132 50.3941 105.481C50.135 105.279 49.6154 104.955 49.6101 105.271L49.5867 106.653L50.3641 107.258C50.5621 107.196 50.9947 107.23 51.1415 107.864L51.9289 107.877C52.0034 107.352 52.2685 106.422 52.7329 106.903L53.5336 106.127L53.7205 106.723L54.1042 107.322L55.2819 107.539L55.2719 108.131C55.729 108.271 56.5625 108.667 56.2395 109.135C56.5598 109.602 56.9255 110.49 55.8258 110.313L55.8059 111.498C55.4816 112.243 54.8853 113.661 54.9637 113.668L54.9818 113.657C54.9738 113.665 54.9678 113.668 54.9637 113.668L51.799 115.579C51.3353 115.834 50.253 116.185 49.6337 115.542L49.0598 114.545C48.5983 114.669 47.6766 114.837 47.6819 114.522L46.5308 112.724Z" fill="#FF6E6A"/>
<path d="M30.8172 133.792C30.6704 133.157 29.3303 132.45 28.6786 132.176C29.7889 131.72 31.3566 132.945 32.0016 133.614L34.3304 135.629L35.6651 138.219C37.06 137.926 38.4728 138.398 39.0048 138.67C39.6214 139.471 40.6919 139.818 41.1501 139.892C44.2969 140.103 43.7558 141.055 43.0919 141.505L42.7082 140.906C41.2909 140.882 41.5794 141.677 41.9008 142.077C41.5726 142.862 39.2551 143.283 38.1375 143.396C36.552 144.002 34.0982 141.616 33.0694 140.348C32.1185 138.357 35.0679 138.604 34.6808 138.202C34.3712 137.881 33.9245 136.346 33.7399 135.619C32.9499 135.763 31.4623 134.461 30.8172 133.792Z" fill="#FF6E6A"/>
<path d="M85.0577 64.0092C84.601 64.3399 83.7466 64.427 83.9822 62.1302C83.6142 62.0676 82.9314 61.7065 83.1442 60.7627C82.9001 60.6458 82.4149 60.2429 82.4263 59.5664L83.29 59.4118L82.6951 58.2175C82.369 58.0993 81.7215 57.5921 81.7397 56.5097C82.061 56.9099 82.7534 57.6772 82.9524 57.5452L84.0678 57.0565C83.9505 56.7162 83.768 55.8672 83.9762 55.1941C84.1812 55.1975 85.2511 52.5426 85.2602 52.0014C85.263 51.8323 85.4392 51.5984 86.613 52.0243L86.8059 54.0591C86.8196 53.9424 86.8868 53.8069 87.0764 53.7238C87.2394 53.7829 87.5917 53.8002 87.697 53.3959C87.7027 53.0577 87.8365 52.4171 88.3261 52.5607C88.9439 52.4019 89.9357 51.945 88.961 51.3872C88.8027 51.0462 88.7785 50.5382 89.9477 51.2346C89.715 50.4412 89.4814 49.7042 88.3946 48.5017C90.082 48.1354 93.574 47.7432 94.0431 49.1045L94.1889 47.7536L96.2795 47.7888C96.2262 48.521 96.3174 49.921 97.109 49.6637L97.4665 50.3464L98.4504 50.363C98.5286 50.5899 98.6844 51.0775 98.6821 51.2128C98.6792 51.3819 98.7994 51.5531 98.4276 51.716C98.5429 52.1691 98.7228 53.1759 98.5192 53.5785C98.3571 53.4629 98.0318 53.2996 98.0272 53.5702C98.0215 53.9084 97.8871 54.5828 97.644 54.4096C97.3533 54.6302 96.8942 55.1074 97.3838 55.251L97.6155 56.1008L98.5965 56.2865C98.71 56.8523 98.767 57.8458 98.0875 57.2929C97.9263 57.1211 97.603 56.8449 97.5984 57.1155L97.5784 58.2994L98.0618 58.8151C98.1857 58.7608 99.1184 59.3066 99.2076 59.8494L90.1255 61.314L85.0577 64.0092Z" fill="#FA4642"/>
<path d="M33.4718 51.55C33.3674 52.5666 32.9554 53.7148 30.6869 57.1164C30.7694 57.6365 29.3736 61.4878 28.5147 62.105C27.8118 62.3905 26.6874 63.0678 26.245 63.5805C26.122 63.8655 26.0014 64.0042 26.0927 63.8045C26.1244 63.7352 26.1766 63.6598 26.245 63.5805C26.5207 62.9416 26.8088 61.5669 24.7491 61.6195L23.3795 63.0383L22.6105 61.9613C22.1849 62.6293 21.0429 63.8917 19.8798 63.5976C18.5332 63.4932 17.8425 62.1557 17.6655 61.5C17.2561 61.4322 16.9739 60.148 16.0654 60.4531C15.7913 59.5637 14.7437 58.4611 15.1608 58.0744C14.5098 58.5784 13.8478 56.9997 13.7379 54.2975C13.1443 54.3257 13.0385 52.9359 13.1762 51.794C12.7667 51.7261 11.9168 51.3953 11.793 50.6152L13.123 50.2026L11.9342 48.9928C11.5839 48.3356 12.1992 48.1505 12.1992 48.1505L13.8561 47.2857C13.5998 46.9267 13.134 46.0013 13.3212 45.1714C13.6453 45.1196 14.2686 44.86 14.1695 44.2359C14.1386 44.0409 14.5618 43.6933 16.5026 43.8631L17.6073 43.2866C17.5218 43.1669 17.4614 42.8699 17.9032 42.6393C18.1728 42.6629 18.7322 42.5868 18.8134 42.0939C18.7515 41.7038 18.8283 40.9316 19.6308 40.9633C20.572 40.6129 22.0407 39.8182 20.3862 39.4427C20.0651 39.0941 19.9204 38.5173 21.9107 38.9991L23.4661 38.7505L23.3422 37.9704L24.1199 37.8461C24.4101 37.9997 25.0886 38.1712 25.4809 37.6286C25.4293 37.3035 25.502 36.5053 26.2054 35.913L27.9242 35.4383L27.871 33.8469L31.1762 33.3187C31.2456 34.1742 31.6829 35.7574 32.8777 35.2465L33.5848 35.9334L35.1402 35.6848C35.3111 35.9242 35.6591 36.4418 35.6838 36.5979C35.7148 36.7929 35.9402 36.9569 35.3879 37.2451C35.6648 37.7341 36.1596 38.8416 35.9228 39.3594C35.6429 39.2708 35.0956 39.1717 35.1451 39.4837C35.207 39.8738 35.1364 40.685 34.7166 40.5521C34.3042 40.8846 33.6801 41.5576 34.4825 41.5894L35.0261 42.5024L36.6125 42.4488C36.9101 43.0679 37.2084 44.1935 36.0205 43.7433C35.7303 43.5897 35.1624 43.3605 35.2119 43.6726L35.4286 45.0378L36.2991 45.4986C36.4832 45.4026 36.9151 45.3602 37.1697 45.9594L37.9474 45.8351C37.9297 45.3047 38.0294 44.3422 38.5703 44.7357L39.2242 43.8313L39.5115 44.3853L39.9932 44.9082L41.1907 44.9168L41.2836 45.5019C41.7579 45.5594 42.6472 45.8039 42.4105 46.3217C42.8067 46.725 43.3209 47.5361 42.2073 47.5541L42.3931 48.7243C43.323 48.7916 43.606 50.3709 43.6313 51.1522C44.089 52.0326 43.781 53.9514 43.5698 54.8007L44.9343 55.6138C46.4862 56.9975 45.7901 59.3542 45.2481 60.3596C47.2633 62.2898 45.7676 64.5821 44.7678 65.487C39.8384 68.2278 40.1671 66.5861 40.9476 65.4226C40.0352 65.4072 39.1915 64.4813 38.8837 64.0203L38.913 62.2804C37.9661 62.2997 36.7895 60.6441 36.3196 59.8139L38.3088 60.2425L36.9474 57.8493C34.702 56.8634 36.0575 54.7278 37.016 53.7832L36.2779 52.9013C35.8449 53.1038 34.9665 53.4309 34.917 53.1188L33.4718 51.55Z" fill="#FF6E6A"/>
<path d="M98.7046 81.7717C98.7375 82.7009 98.5263 83.7774 97.0152 87.0629C97.1469 87.5258 96.4266 91.138 95.7746 91.7752C95.2149 92.098 94.3458 92.814 94.0332 93.3184C93.9633 93.5875 93.8779 93.724 93.9313 93.535C93.9498 93.4693 93.9848 93.3964 94.0332 93.3184C94.19 92.715 94.2696 91.445 92.5362 91.6817L91.5483 93.0909L90.7705 92.1873C90.4905 92.8306 89.6763 94.0774 88.6589 93.9182C87.509 93.9474 86.7663 92.8009 86.5388 92.224C86.1848 92.2002 85.7935 91.0644 85.0625 91.4239C84.7251 90.6444 83.7089 89.7431 84.0151 89.3551C83.5253 89.8708 82.7781 88.5034 82.3635 86.069C81.8654 86.149 81.6105 84.9014 81.5909 83.8558C81.2369 83.832 80.4796 83.6108 80.2821 82.9164L81.3564 82.4211L80.2082 81.4358C79.8341 80.8734 80.3318 80.6495 80.3318 80.6495L81.6283 79.7151C81.369 79.4139 80.8653 78.6195 80.9247 77.8516C81.1922 77.775 81.6878 77.4829 81.5298 76.9274C81.4804 76.7538 81.7965 76.4005 83.456 76.3759L84.3204 75.753C84.234 75.6526 84.1476 75.3894 84.4933 75.1403C84.7238 75.1369 85.1873 75.0167 85.1972 74.5633C85.0985 74.2161 85.0714 73.5105 85.7529 73.4655C86.5062 73.0621 87.6521 72.2084 86.2099 72.0206C85.8971 71.7347 85.7062 71.2262 87.4447 71.4793L88.7289 71.1116L88.5314 70.4173L89.1735 70.2335C89.4369 70.3458 90.0304 70.4386 90.2971 69.9117C90.2148 69.6224 90.1811 68.8937 90.7047 68.2932L92.1 67.706L91.8656 66.2713L94.5944 65.49C94.7549 66.2575 95.3129 67.6496 96.2612 67.0777L96.9403 67.6342L98.2244 67.2665C98.3973 67.4674 98.7528 67.9037 98.7923 68.0426C98.8417 68.2162 99.0516 68.3438 98.6194 68.6553C98.9116 69.0722 99.4614 70.0287 99.323 70.5188C99.0761 70.4644 98.602 70.4249 98.681 70.7026C98.7797 71.0498 98.8167 71.7902 98.4463 71.7085C98.1376 72.0472 97.6905 72.7133 98.3721 72.6683L98.94 73.4444L100.274 73.2503C100.599 73.7829 100.985 74.7738 99.9277 74.4756C99.6643 74.3633 99.1572 74.2081 99.2362 74.4859L99.5819 75.701L100.372 76.0379C100.516 75.9341 100.876 75.8562 101.162 76.3749L101.804 76.191C101.726 75.7128 101.696 74.8329 102.2 75.1392L102.644 74.261L102.953 74.7359L103.422 75.1647L104.434 75.0625L104.583 75.5833C104.99 75.5918 105.77 75.7313 105.632 76.2215C106.015 76.5499 106.546 77.2364 105.607 77.3549C99.8143 77.8787 100.508 79.4314 101.58 80.1423L98.7046 81.7717Z" fill="#FF6E6A"/>
<path d="M114.355 84.0428C114.025 84.8894 113.682 85.0449 113.551 85.0169C113.375 86.12 114.12 86.2774 114.515 86.2183L114.889 87.3644C114.257 87.4755 114.205 89.014 114.258 89.7693L114.425 91.5498L113.634 91.734C113.456 92.9951 114.334 93.0626 114.795 92.9387C114.784 93.6127 115.703 93.6299 116.163 93.5543C117.098 94.2022 117.605 93.7103 117.741 93.3834C118.993 93.8786 119.068 92.5499 118.949 91.8236C119.889 92.1555 120.017 90.7882 119.963 90.063C120.772 88.8126 119.791 88.6117 119.199 88.6675C119.528 87.883 119.087 87.5161 118.826 87.4308C118.194 87.5419 118.046 86.9719 118.051 86.6729L117.875 85.4848C117.421 84.3711 116.64 84.7398 116.307 85.0633L115.519 85.0501C115.527 84.5761 114.746 84.1811 114.355 84.0428Z" fill="#FF6E6A"/>
<path d="M110.026 167.643C109.156 168.174 107.995 168.539 103.923 168.782C103.56 169.163 99.6575 170.375 98.6483 170.062C97.9967 169.673 96.7793 169.184 96.1047 169.14C95.8041 169.214 95.6211 169.202 95.8348 169.154C95.9091 169.137 96.0004 169.134 96.1047 169.14C96.7788 168.974 98.0446 168.374 96.758 166.759L94.8035 166.523L95.194 165.257C94.4063 165.321 92.7136 165.171 92.2442 164.064C91.5133 162.925 92.158 161.564 92.5717 161.026C92.3781 160.658 93.2274 159.656 92.436 159.115C92.9767 158.358 93.2192 156.854 93.7783 156.954C92.9846 156.738 93.8382 155.255 95.9177 153.533C95.5365 153.076 96.5763 152.151 97.5664 151.571C97.3728 151.203 97.1218 150.324 97.6665 149.753L98.798 150.566L99.0403 148.885C99.3505 148.208 99.8693 148.588 99.8693 148.588L101.557 149.389C101.688 148.967 102.141 148.035 102.913 147.683C103.15 147.911 103.733 148.252 104.169 147.796C104.305 147.653 104.837 147.781 105.875 149.435L107 149.969C107.044 149.828 107.243 149.6 107.693 149.814C107.838 150.044 108.236 150.445 108.677 150.212C108.949 149.927 109.609 149.521 110.068 150.182C110.915 150.722 112.434 151.415 111.733 149.866C111.815 149.399 112.186 148.934 113.006 150.816L114.144 151.909L114.688 151.338L115.257 151.884C115.31 152.209 115.584 152.855 116.252 152.841C116.479 152.603 117.157 152.178 118.053 152.382L119.468 153.469L120.7 152.464L123.117 154.786C122.48 155.359 121.487 156.666 122.614 157.312L122.496 158.292L123.634 159.385C123.547 159.666 123.346 160.257 123.237 160.371C123.101 160.514 123.107 160.793 122.544 160.526C122.323 161.043 121.743 162.108 121.189 162.231C121.09 161.954 120.838 161.457 120.62 161.685C120.348 161.97 119.661 162.404 119.512 161.989C118.999 161.86 118.087 161.768 118.547 162.429L118.151 163.415L119.152 164.65C118.84 165.262 118.127 166.181 117.766 164.96C117.713 164.635 117.552 164.043 117.334 164.271L116.381 165.269L116.541 166.244C116.728 166.333 117.023 166.652 116.701 167.218L117.27 167.764C117.68 167.429 118.505 166.927 118.519 167.597L119.633 167.573L119.366 168.138L119.242 168.839L119.959 169.801L119.551 170.229C119.792 170.643 120.135 171.501 119.581 171.625C119.5 172.186 119.166 173.087 118.479 172.208C114.436 166.67 113.372 168.2 113.346 169.657L110.026 167.643Z" fill="#FA4642"/>
<path d="M132.901 100.36C132.761 99.8609 132.714 99.2669 132.972 97.4C132.849 97.1584 132.697 95.1643 132.913 94.7799C133.128 94.571 133.433 94.1307 133.51 93.8391C133.506 93.6895 133.528 93.6105 133.528 93.7158C133.528 93.7524 133.522 93.794 133.51 93.8391C133.519 94.1744 133.652 94.8647 134.421 94.6294L134.688 93.8076L135.168 94.247C135.211 93.8825 135.42 93.159 135.911 93.1818C136.438 93.0947 136.935 93.6674 137.117 93.9646C137.284 93.9555 137.617 94.5442 137.906 94.3048C138.166 94.7045 138.756 95.1278 138.667 95.3563C138.824 95.0476 139.352 95.7391 139.87 97.0271C140.089 96.9531 140.374 97.6105 140.523 98.1736C140.69 98.1645 141.069 98.2369 141.253 98.5994L140.824 98.9333L141.486 99.3938C141.734 99.6741 141.534 99.8258 141.534 99.8258L141.061 100.411C141.221 100.557 141.56 100.954 141.635 101.373C141.522 101.431 141.332 101.619 141.48 101.909C141.526 101.999 141.427 102.21 140.664 102.326L140.349 102.716C140.402 102.765 140.477 102.901 140.351 103.057C140.245 103.073 140.047 103.167 140.103 103.412C140.195 103.594 140.302 103.973 139.994 104.039C139.7 104.304 139.285 104.836 139.976 104.847C140.159 104.982 140.315 105.245 139.479 105.216L138.935 105.494L139.119 105.857L138.848 105.996C138.711 105.952 138.424 105.938 138.372 106.239C138.449 106.39 138.562 106.781 138.401 107.138L137.835 107.541L138.135 108.301L136.98 108.892C136.803 108.488 136.359 107.771 135.998 108.139L135.61 107.88L135.066 108.159C134.959 108.061 134.737 107.848 134.7 107.775C134.654 107.684 134.54 107.629 134.698 107.434C134.507 107.227 134.125 106.745 134.123 106.472C134.244 106.486 134.469 106.478 134.395 106.333C134.303 106.151 134.186 105.754 134.368 105.775C134.466 105.573 134.583 105.186 134.274 105.253L133.908 104.869L133.318 105.057C133.097 104.789 132.786 104.278 133.314 104.374C133.45 104.418 133.705 104.47 133.631 104.325L133.309 103.691L132.899 103.558C132.846 103.623 132.691 103.688 132.489 103.425C132.739 102.925 132.95 101.822 131.791 101.418L132.901 100.36Z" fill="#FA4642"/>
<path d="M149.209 104.615C148.995 104.548 148.768 104.425 148.151 103.89C148.034 103.878 147.275 103.463 147.186 103.293C147.161 103.165 147.073 102.95 146.985 102.853C146.93 102.819 146.906 102.793 146.945 102.817C146.958 102.826 146.972 102.838 146.985 102.853C147.109 102.929 147.391 103.043 147.487 102.707L147.252 102.415L147.525 102.343C147.403 102.241 147.189 101.994 147.313 101.82C147.406 101.607 147.731 101.561 147.882 101.564C147.918 101.501 148.211 101.519 148.192 101.356C148.399 101.356 148.692 101.24 148.754 101.326C148.679 101.196 149.054 101.166 149.644 101.281C149.669 101.184 149.975 101.235 150.215 101.313C150.251 101.25 150.367 101.128 150.542 101.147L150.562 101.382L150.885 101.249C151.046 101.225 151.054 101.333 151.054 101.333L151.154 101.644C151.245 101.621 151.469 101.59 151.639 101.662C151.633 101.717 151.657 101.83 151.797 101.845C151.841 101.849 151.894 101.935 151.756 102.241L151.823 102.449C151.853 102.441 151.921 102.446 151.948 102.528C151.929 102.571 151.916 102.665 152.018 102.703C152.106 102.712 152.269 102.762 152.22 102.891C152.247 103.06 152.342 103.337 152.509 103.088C152.601 103.053 152.734 103.058 152.526 103.357L152.498 103.621L152.674 103.639L152.66 103.771C152.612 103.811 152.539 103.912 152.636 104.003C152.709 104.01 152.878 104.061 152.969 104.204L152.982 104.506L153.329 104.576L153.271 105.137C153.082 105.106 152.717 105.1 152.765 105.318L152.58 105.399L152.553 105.664C152.492 105.68 152.362 105.711 152.327 105.707C152.283 105.702 152.236 105.731 152.202 105.627C152.082 105.648 151.817 105.674 151.717 105.61C151.751 105.569 151.801 105.485 151.731 105.478C151.643 105.469 151.472 105.418 151.522 105.356C151.472 105.273 151.359 105.139 151.31 105.267L151.085 105.311L151.013 105.57C150.864 105.588 150.605 105.581 150.764 105.411C150.813 105.371 150.892 105.29 150.822 105.283L150.515 105.251L150.37 105.37C150.382 105.404 150.368 105.476 150.225 105.488C150.103 105.279 149.752 104.942 149.332 105.269L149.209 104.615Z" fill="#FA4642"/>
<path d="M131.161 105.165C130.904 107.032 130.951 107.626 131.09 108.126C131.847 108.338 131.678 110.435 131.499 111.456L131.821 112.091C131.895 112.236 131.64 112.183 131.503 112.139C130.975 112.044 131.286 112.555 131.508 112.822L132.098 112.634L132.464 113.018C132.772 112.951 132.655 113.339 132.558 113.541C132.376 113.519 131.779 113.204 131.872 113.385C131.945 113.53 131.721 113.538 131.6 113.524C131.602 113.797 131.984 114.28 132.174 114.486C132.017 114.681 132.131 114.737 132.177 114.828C132.213 114.9 132.436 115.114 132.543 115.211L133.086 114.933L133.475 115.191C133.836 114.824 134.28 115.541 134.457 115.945L135.612 115.354L135.312 114.594L135.877 114.191C136.039 113.834 135.925 113.443 135.849 113.292C135.901 112.991 136.188 113.004 136.324 113.049L136.596 112.909L136.412 112.547L136.956 112.269C137.792 112.298 137.636 112.035 137.453 111.9C136.762 111.888 137.177 111.356 137.471 111.092C137.779 111.025 137.672 110.646 137.58 110.465C137.524 110.22 137.722 110.126 137.828 110.11C137.954 109.954 137.879 109.817 137.825 109.769L138.141 109.379C138.904 109.263 139.003 109.052 138.957 108.962C138.809 108.672 138.999 108.483 139.112 108.425C139.037 108.007 138.698 107.61 138.538 107.463L139.011 106.879C139.011 106.879 139.211 106.727 138.963 106.447L138.3 105.986L138.73 105.652C138.546 105.29 138.167 105.217 138 105.226C137.851 104.663 137.566 104.006 137.347 104.08C136.829 102.792 136.301 102.1 136.144 102.409C136.233 102.181 135.643 101.757 135.383 101.358C135.093 101.597 134.761 101.008 134.594 101.017C134.412 100.72 133.915 100.147 133.388 100.235C132.897 100.212 133.401 101.648 133.358 102.012L132.611 102.395C132.612 102.668 131.351 102.304 131.103 102.545C130.887 102.93 131.039 104.924 131.161 105.165Z" fill="#FA4642"/>
<path d="M150.544 106.384C151.161 106.919 151.388 107.042 151.602 107.109C151.858 106.882 152.579 107.439 152.908 107.745L153.214 107.777C153.284 107.785 153.205 107.865 153.157 107.905C152.998 108.075 153.257 108.082 153.406 108.064L153.477 107.805L153.703 107.761C153.752 107.633 153.865 107.767 153.915 107.85C153.864 107.912 153.609 108.055 153.696 108.064C153.767 108.072 153.717 108.156 153.683 108.197C153.782 108.26 154.048 108.234 154.168 108.214C154.201 108.317 154.249 108.289 154.292 108.293C154.327 108.297 154.457 108.266 154.518 108.25L154.545 107.986L154.731 107.905C154.683 107.686 155.048 107.693 155.236 107.724L155.294 107.162L154.948 107.093L154.935 106.791C154.843 106.648 154.674 106.597 154.601 106.589C154.505 106.499 154.577 106.397 154.625 106.358L154.639 106.226L154.464 106.207L154.491 105.943C154.699 105.644 154.567 105.639 154.475 105.674C154.307 105.924 154.212 105.647 154.185 105.477C154.234 105.349 154.071 105.298 153.984 105.289C153.881 105.252 153.894 105.157 153.913 105.115C153.886 105.032 153.819 105.027 153.789 105.035L153.722 104.828C153.859 104.522 153.806 104.436 153.763 104.431C153.623 104.417 153.599 104.303 153.605 104.248C153.435 104.177 153.211 104.207 153.12 104.231L153.019 103.92C153.019 103.92 153.011 103.811 152.851 103.836L152.527 103.969L152.507 103.733C152.332 103.715 152.216 103.836 152.18 103.899C151.941 103.821 151.635 103.77 151.61 103.868C151.02 103.753 150.644 103.783 150.719 103.913C150.657 103.826 150.364 103.942 150.158 103.943C150.176 104.105 149.884 104.088 149.848 104.151C149.697 104.147 149.372 104.194 149.279 104.407C149.155 104.581 149.795 104.735 149.917 104.837L149.88 105.201C149.979 105.264 149.55 105.639 149.579 105.787C149.667 105.957 150.427 106.372 150.544 106.384Z" fill="#FA4642"/>
<path d="M131.816 109.851C132.115 109.862 132.643 109.779 132.906 109.632C133.011 109.526 133.083 109.487 133.007 109.56C132.981 109.586 132.947 109.61 132.906 109.632C132.671 109.871 132.267 110.445 132.968 110.839L133.744 110.463L133.761 111.115C134.053 110.894 134.718 110.544 135.041 110.915C135.469 111.237 135.4 111.992 135.313 112.33C135.435 112.445 135.242 113.093 135.614 113.137C135.507 113.602 135.611 114.322 135.384 114.416C135.715 114.316 135.583 115.177 135.015 116.443C135.22 116.551 134.944 117.212 134.643 117.71C134.765 117.824 134.975 118.149 134.842 118.533L134.304 118.454L134.431 119.252C134.402 119.625 134.154 119.586 134.154 119.586L133.406 119.648C133.411 119.865 133.36 120.386 133.111 120.73C132.991 120.688 132.725 120.681 132.618 120.989C132.585 121.085 132.365 121.159 131.753 120.687L131.254 120.729C131.256 120.801 131.21 120.95 131.01 120.967C130.926 120.901 130.721 120.823 130.584 121.033C130.517 121.225 130.318 121.565 130.057 121.388C129.663 121.358 128.994 121.427 129.463 121.935C129.493 122.161 129.412 122.456 128.854 121.83L128.277 121.629L128.144 122.013L127.856 121.913C127.793 121.783 127.604 121.567 127.352 121.737C127.296 121.897 127.093 122.25 126.725 122.38L126.043 122.25L125.705 122.994L124.48 122.567C124.648 122.159 124.856 121.341 124.342 121.334L124.259 120.874L123.683 120.673C123.679 120.528 123.678 120.219 123.705 120.142C123.738 120.046 123.699 119.925 123.949 119.904C123.966 119.623 124.048 119.013 124.243 118.822C124.317 118.92 124.478 119.077 124.531 118.923C124.598 118.731 124.803 118.371 124.914 118.518C125.127 118.448 125.486 118.265 125.225 118.088L125.796 117.814L127.174 117.837C127.113 117.573 127.109 117.046 127.581 117.054C127.65 116.858 127.867 116.466 128.182 116.472L128.785 115.692L129.179 115.698C129.18 115.633 129.301 115.503 129.773 115.511L129.98 114.922L130.57 114.932L130.577 114.537L130.971 114.544C130.911 114.213 130.869 113.594 131.181 113.757L131.578 113.566L132.172 113.379C132.964 113.076 132.265 110.901 131.816 109.851Z" fill="#FA4642"/>
<path d="M152.4 107.251C152.475 107.144 152.569 106.931 152.578 106.801C152.564 106.737 152.567 106.702 152.575 106.747C152.579 106.762 152.579 106.78 152.578 106.801C152.609 106.943 152.722 107.226 153.031 107.063L153.077 106.69L153.318 106.838C153.307 106.679 153.337 106.354 153.548 106.323C153.765 106.243 154.024 106.446 154.126 106.558C154.196 106.54 154.386 106.764 154.49 106.638C154.633 106.787 154.919 106.919 154.9 107.024C154.942 106.879 155.223 107.131 155.549 107.637C155.636 107.588 155.812 107.844 155.921 108.072C155.991 108.055 156.159 108.054 156.267 108.194L156.111 108.371L156.431 108.513C156.56 108.612 156.487 108.693 156.487 108.693L156.333 108.982C156.413 109.031 156.59 109.173 156.656 109.345C156.613 109.379 156.547 109.474 156.634 109.586C156.661 109.621 156.636 109.718 156.32 109.831L156.217 110.023C156.244 110.039 156.287 110.091 156.246 110.168C156.202 110.184 156.126 110.24 156.17 110.34C156.224 110.41 156.3 110.562 156.174 110.616C156.071 110.753 155.937 111.014 156.233 110.962C156.322 111.004 156.41 111.104 156.051 111.16L155.842 111.323L155.95 111.463L155.845 111.544C155.783 111.537 155.66 111.554 155.662 111.687C155.707 111.745 155.788 111.903 155.748 112.068L155.54 112.286L155.73 112.585L155.286 112.932C155.177 112.774 154.929 112.505 154.805 112.692L154.619 112.613L154.41 112.777C154.356 112.744 154.244 112.671 154.222 112.643C154.195 112.608 154.142 112.594 154.194 112.498C154.095 112.425 153.893 112.251 153.87 112.135C153.923 112.131 154.018 112.109 153.975 112.053C153.921 111.984 153.839 111.824 153.918 111.818C153.943 111.724 153.961 111.549 153.835 111.603L153.871 111.33L154.204 110.832C154.094 110.792 153.901 110.669 154.016 110.498C153.961 110.426 153.87 110.255 153.946 110.141L153.806 109.736L153.901 109.594C153.877 109.578 153.859 109.504 153.973 109.333L153.808 109.118L153.951 108.905L153.809 108.809L153.904 108.667C153.77 108.611 153.535 108.48 153.668 108.404L153.693 108.214L153.765 107.953C153.842 107.592 152.887 107.334 152.4 107.251Z" fill="#FA4642"/>
<path d="M118.118 92.4714C117.863 92.2063 118.265 91.6946 118.188 90.4064C118.026 90.3083 117.646 89.3481 117.676 88.9675C117.774 88.6667 117.86 88.0895 117.773 87.9037C117.664 87.6716 118.056 88.3945 118.727 87.5544L118.261 87.0124L118.736 87.0504C118.651 86.7776 118.57 86.1689 118.921 85.9161C118.978 85.8586 119.013 85.814 119.034 85.7801C119.135 85.6181 118.905 85.6979 119.034 85.7801C119.042 85.7849 119.051 85.7898 119.061 85.7946C119.175 85.6973 119.593 85.9177 119.72 85.596C120.028 85.727 120.574 85.6939 120.583 85.8989C120.596 85.602 120.997 85.7435 121.764 86.341C121.894 86.1706 122.3 86.4643 122.582 86.7677C122.695 86.6704 122.984 86.5126 123.226 86.6597L123.031 87.1228L123.639 87.0757C123.901 87.1317 123.808 87.3446 123.808 87.3446L123.661 88.0031C123.819 88.0157 124.181 88.1021 124.365 88.3466C124.304 88.4482 124.23 88.6806 124.425 88.7983C124.485 88.8351 124.482 89.0327 123.985 89.5292L123.886 89.9682C123.939 89.9724 124.034 90.0247 123.995 90.2003C123.926 90.2693 123.817 90.4414 123.933 90.5784C124.054 90.6519 124.248 90.8526 124.053 91.0668C123.931 91.4081 123.807 91.9983 124.295 91.6288C124.465 91.6211 124.657 91.7152 124.062 92.1528L123.769 92.6401L124.012 92.7871L123.865 93.0308C123.756 93.0752 123.551 93.2227 123.609 93.4571C123.71 93.5184 123.912 93.724 123.911 94.0559L123.642 94.6408L124.091 94.9959L123.468 96.0313C123.217 95.8517 122.681 95.6046 122.543 96.0532L122.19 96.0888L121.897 96.5761C121.791 96.5677 121.569 96.5435 121.52 96.5141C121.459 96.4773 121.362 96.5014 121.411 96.2819C121.213 96.2448 120.794 96.124 120.707 95.9383C120.796 95.8816 120.95 95.7535 120.853 95.6947C120.732 95.6212 120.526 95.4132 120.66 95.3281C120.664 95.137 120.625 94.8082 120.429 95.0224L120.053 94.9604L119.699 95.4109C119.46 95.3492 119.081 95.17 119.481 94.9466C119.591 94.9022 119.785 94.7986 119.688 94.7398L119.263 94.4824L118.935 94.6157C118.918 94.6888 118.829 94.8179 118.606 94.749L118.459 94.9926L117.686 94.8879C118.392 93.8246 118.09 93.7147 117.673 93.8006L118.118 92.4714Z" fill="#FA4642"/>
<path d="M56.8126 121.871C56.3461 122.054 55.3423 122.316 55.059 121.909C54.8462 122.058 54.3119 122.302 53.8775 122.087C53.6132 121.857 53.062 121.429 52.7494 121.345C52.612 121.354 52.5389 121.337 52.6397 121.33C52.6714 121.328 52.7083 121.333 52.7494 121.345C53.0762 121.321 53.7663 121.143 53.3444 120.296L52.4607 120.049L52.7878 119.496C52.4134 119.469 51.6418 119.281 51.55 118.74C51.306 118.73 50.7878 118.667 50.6663 118.493C50.8791 118.344 51.3122 117.954 51.3418 117.587C51.2938 117.405 51.1211 116.963 50.8144 116.658C51.1531 116.349 51.8927 115.752 52.1418 115.837C51.7967 115.682 51.398 115.211 52.5643 114.568C52.4391 114.331 52.3207 113.808 52.8485 113.612C52.8005 113.429 52.7843 113.008 53.1035 112.785L53.5375 113.238L53.8432 112.483C53.7614 112.252 53.7257 111.7 54.2364 111.343C54.1851 111.667 54.1188 112.334 54.2636 112.405L54.9584 112.893C55.0674 112.708 55.3854 112.313 55.7856 112.206C55.87 112.327 56.1025 112.525 56.3578 112.346C56.4376 112.29 56.6708 112.387 56.965 113.219L57.4282 113.544C57.4646 113.482 57.5836 113.392 57.7688 113.522C57.8097 113.638 57.9494 113.85 58.1814 113.774C58.341 113.662 58.6949 113.523 58.8335 113.859C59.1663 114.167 59.7945 114.592 59.6451 113.831C59.7372 113.623 59.9631 113.436 60.1297 114.358L60.5345 114.94L60.8537 114.716L61.0561 115.007C61.0437 115.16 61.0973 115.476 61.4103 115.517C61.5433 115.424 61.9078 115.277 62.3017 115.434L62.8369 116.033L63.5259 115.659L64.3861 116.896C64.0234 117.113 63.411 117.643 63.8625 118.019L63.6951 118.461L64.0999 119.043C64.0272 119.166 63.8659 119.423 63.802 119.468C63.7222 119.524 63.693 119.652 63.4614 119.49C63.2992 119.712 62.9067 120.159 62.6342 120.177C62.6199 120.043 62.5595 119.797 62.4318 119.886C62.2722 119.998 61.9024 120.148 61.881 119.947C61.6565 119.852 61.2422 119.745 61.3808 120.081L61.0829 120.505L61.4079 121.143C61.1925 121.402 60.7547 121.774 60.7267 121.187C60.7391 121.035 60.7318 120.751 60.6041 120.84L60.0455 121.231L60.0085 121.69C60.0857 121.744 60.1864 121.912 59.9715 122.149L60.1739 122.44C60.4036 122.315 60.8454 122.143 60.7753 122.451L61.2969 122.519L61.1081 122.759L60.9699 123.072L61.1937 123.565L60.9543 123.732C61.0191 123.939 61.0807 124.358 60.8082 124.376C60.7064 124.627 60.4477 125.017 60.2282 124.565L59.7494 124.9C59.3661 124.997 58.6421 125.189 58.66 125.22L58.6692 125.224C58.6639 125.223 58.6609 125.222 58.66 125.22L57.0615 124.618C56.8371 124.523 56.4115 124.229 56.505 123.818L56.7522 123.32C56.5809 123.187 56.2703 122.9 56.398 122.811L56.8126 121.871Z" fill="#FA4642"/>
<path fill-rule="evenodd" clip-rule="evenodd" d="M69.2372 85.6517C69.2692 83.7561 67.293 76.4013 66.3009 72.9609C58.6685 82.7872 52.7303 86.0392 50.7153 86.4369C58.2721 87.1944 65.8249 90.7047 71.1628 99.2958C72.0733 102.184 73.3427 105.042 75.0486 107.675C75.3204 108.094 75.6033 108.508 75.8976 108.915C80.5906 116.302 84.6523 131.954 68.2447 144.496C68.2382 153.977 76.0056 156.742 79.8901 156.939C82.6417 147.16 93.966 138.387 105.588 136.838C100.704 136.929 95.9997 125.519 94.2584 119.802C85.665 118.535 79.7864 114.295 75.8976 108.915C75.6155 108.471 75.331 108.056 75.0486 107.675C73.9556 104.457 72.6445 101.681 71.1628 99.2958C69.6619 94.5354 69.136 89.6944 69.2372 85.6517ZM101.735 120.147C98.3483 124.808 106.57 133.105 111.104 136.671C114.21 136.914 117.242 137.754 120.038 139.315C120.694 139.779 121.371 140.209 122.064 140.606C123.224 141.269 124.431 141.841 125.671 142.329C124.532 141.65 123.329 141.071 122.064 140.606C121.405 140.13 120.729 139.701 120.038 139.315C114.457 135.369 110.341 128.952 109.627 119.177C106.817 119.723 104.19 120.037 101.735 120.147Z" fill="#C01C18"/>
<path d="M62.6534 44.0613L62.9964 23.7224C64.5511 21.0492 68.8142 17.3419 73.4292 23.8984L69.9367 44.1842C69.999 47.0874 69.9861 51.046 69.8114 55.1069C69.7326 56.9364 69.621 58.7867 69.4686 60.5705C69.1611 65.7799 71.3814 73.8367 72.53 77.2139C71.4191 80.8164 69.2053 87.5475 69.2372 85.6518C69.2692 83.7561 67.293 76.4014 66.3009 72.9609C65.9728 72.9554 64.784 67.1678 62.6534 44.0613Z" fill="#642307"/>
<path d="M105.588 136.838C100.704 136.929 95.9997 125.519 94.2584 119.802C96.5525 120.14 99.04 120.267 101.735 120.147C98.3483 124.809 106.57 133.105 111.104 136.671C109.28 136.529 107.43 136.593 105.588 136.838Z" fill="#642307"/>
<path d="M65.0155 44.1012L64.1475 25.5195C67.3773 32.4873 70.1565 31.1516 70.1332 32.5338L66.1966 44.1211C66.2589 47.0243 68.9607 49.9799 68.7859 54.0408C68.7072 55.8703 67.0301 60.3231 66.8777 62.107C66.5702 67.3163 70.3905 74.215 71.5391 77.5922C70.4282 81.1947 69.2053 87.5475 69.2372 85.6518C69.2692 83.7562 68.6742 76.2271 67.6821 72.7867C67.3541 72.7811 67.1461 67.2076 65.0155 44.1012Z" fill="#855001"/>
<path d="M105.605 135.843C100.72 135.934 98.3081 124.856 95.0316 120.653C97.3257 120.991 98.2422 120.873 100.937 120.753C97.5504 125.415 101.918 132.62 108.951 135.899C107.127 135.757 107.447 135.598 105.605 135.843Z" fill="#855001"/>
</svg>
