<svg width="65" height="65" viewBox="0 0 65 65" fill="none" xmlns="http://www.w3.org/2000/svg">
<path d="M10.8333 16.2499V43.3333H24.375V32.4999C24.375 31.0633 24.9457 29.6856 25.9615 28.6698C26.9773 27.6539 28.3551 27.0833 29.7917 27.0833H43.3333C44.7699 27.0833 46.1477 27.6539 47.1635 28.6698C48.1793 29.6856 48.75 31.0633 48.75 32.4999V43.3333H54.1667V16.2499H10.8333ZM0 54.1666V48.7499H10.8333C9.39674 48.7499 8.01899 48.1792 7.00317 47.1634C5.98735 46.1476 5.41667 44.7698 5.41667 43.3333V16.2499C5.41667 14.8133 5.98735 13.4356 7.00317 12.4198C8.01899 11.4039 9.39674 10.8333 10.8333 10.8333H54.1667C55.6033 10.8333 56.981 11.4039 57.9968 12.4198C59.0126 13.4356 59.5833 14.8133 59.5833 16.2499V43.3333C59.5833 44.7698 59.0126 46.1476 57.9968 47.1634C56.981 48.1792 55.6033 48.7499 54.1667 48.7499H65V54.1666H48.75C48.75 55.6032 48.1793 56.9809 47.1635 57.9967C46.1477 59.0126 44.7699 59.5833 43.3333 59.5833H29.7917C28.3551 59.5833 26.9773 59.0126 25.9615 57.9967C24.9457 56.9809 24.375 55.6032 24.375 54.1666H0ZM31.1458 54.1666C30.7867 54.1666 30.4422 54.3093 30.1883 54.5632C29.9343 54.8172 29.7917 55.1616 29.7917 55.5208C29.7917 55.8799 29.9343 56.2243 30.1883 56.4783C30.4422 56.7322 30.7867 56.8749 31.1458 56.8749C31.505 56.8749 31.8494 56.7322 32.1034 56.4783C32.3573 56.2243 32.5 55.8799 32.5 55.5208C32.5 55.1616 32.3573 54.8172 32.1034 54.5632C31.8494 54.3093 31.505 54.1666 31.1458 54.1666ZM41.9792 54.1666C41.62 54.1666 41.2756 54.3093 41.0216 54.5632C40.7677 54.8172 40.625 55.1616 40.625 55.5208C40.625 55.8799 40.7677 56.2243 41.0216 56.4783C41.2756 56.7322 41.62 56.8749 41.9792 56.8749C42.3383 56.8749 42.6828 56.7322 42.9367 56.4783C43.1907 56.2243 43.3333 55.8799 43.3333 55.5208C43.3333 55.1616 43.1907 54.8172 42.9367 54.5632C42.6828 54.3093 42.3383 54.1666 41.9792 54.1666ZM35.2083 54.1666V56.8749H37.9167V54.1666H35.2083ZM29.7917 32.4999V51.4583H43.3333V32.4999H29.7917Z" fill="#38927D"/>
</svg>
