<svg width="68" height="66" viewBox="0 0 68 66" fill="none" xmlns="http://www.w3.org/2000/svg">
<path d="M34.0464 0.0625259C15.7811 0.0399478 0.951777 14.7675 0.93311 32.9575C0.923777 51.1528 15.7331 65.9216 33.9998 65.9309C52.2464 65.9309 67.0424 51.2285 67.0664 33.0372C67.0904 14.8459 52.3118 0.0851041 34.0464 0.0625259ZM53.3798 35.3906C53.2784 38.9925 52.6562 41.8701 51.5131 44.0235C50.37 46.1768 48.4362 47.7263 45.7118 48.6719C42.9909 49.6193 39.1931 50.0828 34.3184 50.0624H33.7051C28.8358 50.0819 25.0384 49.6184 22.3131 48.6719C19.5878 47.7254 17.6536 46.1759 16.5104 44.0235C15.3682 41.8666 14.746 38.989 14.6438 35.3906C14.5504 34.0327 14.5504 32.6699 14.6438 31.312C14.701 29.3623 14.8612 27.417 15.1238 25.4842C15.3744 23.7058 15.5998 22.4853 15.8438 21.2342C15.9771 20.586 16.0144 20.3815 16.0864 20.1119C16.1221 19.9656 16.2057 19.8354 16.324 19.7418C16.4424 19.6482 16.5887 19.5966 16.7398 19.5953H16.8318L21.0984 20.2593C21.2544 20.2877 21.3954 20.3697 21.4968 20.4911C21.5982 20.6125 21.6535 20.7655 21.6531 20.9234C21.6557 20.9574 21.6557 20.9916 21.6531 21.0257L21.4264 22.1917C21.2122 23.3649 20.9971 24.856 20.7811 26.6649C20.5599 28.523 20.4423 30.3918 20.4291 32.2629C20.4042 35.8427 20.7656 38.4914 21.5131 40.2091C21.8912 41.0574 22.4673 41.8035 23.1935 42.3852C23.9197 42.9669 24.7748 43.3674 25.6878 43.5533C28.2001 44.0818 30.7665 44.311 33.3331 44.236H34.6998C37.2634 44.3098 39.8267 44.0798 42.3358 43.5506C43.2456 43.3611 44.0969 42.9582 44.8192 42.3755C45.5415 41.7928 46.114 41.0469 46.4891 40.1998C47.2473 38.4803 47.6087 35.8338 47.5731 32.2603C47.5597 30.3894 47.4439 28.5206 47.2264 26.6622C47.006 24.8577 46.7887 23.3667 46.5744 22.1891L46.3491 21.023C46.3465 20.989 46.3465 20.9548 46.3491 20.9207C46.3471 20.7616 46.4025 20.607 46.5053 20.4851C46.608 20.3632 46.7514 20.2821 46.9091 20.2567L51.1758 19.5926H51.2851C51.4368 19.5919 51.5841 19.6426 51.7029 19.7366C51.8217 19.8305 51.9048 19.962 51.9384 20.1092C52.0118 20.3815 52.0464 20.5834 52.1824 21.2315C52.4251 22.5092 52.6518 23.7257 52.9011 25.4815C53.1648 27.4143 53.3255 29.3596 53.3824 31.3093C53.4728 32.6683 53.471 34.0319 53.3771 35.3906H53.3798Z" fill="#38927D"/>
</svg>
